<svg id="Layer_1" data-name="Layer 1" xmlns="http://www.w3.org/2000/svg" viewBox="0 0 140.2439 23.78049"><defs><style>.cls-1{fill:#122246;}.cls-2{fill:#f26122;}</style></defs><title>logo</title><path class="cls-1" d="M14.41858,12.10313a1.44084,1.44084,0,0,0,1.43653,1.44922,1.83616,1.83616,0,0,0,1.437-.81591l.7915.80371a2.69769,2.69769,0,0,1-2.41113,1.25439,2.674,2.674,0,0,1-2.73975-3.00781c0-1.92383.9375-3.00781,2.71533-3.00781,1.71729,0,2.3501,1.13281,2.3501,2.70361v.6206Zm2.1792-1.03466c-.03613-.6333-.32861-1.1084-1.01025-1.1084-.57227,0-.99854.35351-1.13233,1.1084Z"/><path class="cls-1" d="M24.93958,14.67247a2.10423,2.10423,0,0,1-.65772.09766c-.81591,0-1.29052-.42627-1.29052-1.40039V11.26329A1.00238,1.00238,0,0,0,22.005,10.131a1.17885,1.17885,0,0,0-1.12061,1.2539V14.7213H19.42346V10.36192c0-.23095-.10986-.37744-.4873-.37744V8.901a2.27371,2.27371,0,0,1,.68213-.09766.99992.99992,0,0,1,1.0835.7915,1.79387,1.79387,0,0,1,1.66845-.81591c1.50977,0,2.09424,1.04736,2.09424,2.33789v2.08252c0,.25537.10938.38964.4751.38964Z"/><path class="cls-1" d="M27.05823,12.10313a1.44084,1.44084,0,0,0,1.43652,1.44922,1.83616,1.83616,0,0,0,1.437-.81591l.7915.80371a2.8145,2.8145,0,0,1-5.15088-1.75342c0-1.92383.9375-3.00781,2.71533-3.00781,1.71729,0,2.3501,1.13281,2.3501,2.70361v.6206Zm2.1792-1.03466c-.03613-.6333-.32861-1.1084-1.01025-1.1084-.57227,0-.99854.35351-1.13233,1.1084Z"/><path class="cls-1" d="M32.05091,14.7213V10.36192c0-.23095-.10987-.37744-.48731-.37744V8.91319a1.864,1.864,0,0,1,.64551-.10986,1.05232,1.05232,0,0,1,1.0957.7915,1.80437,1.80437,0,0,1,1.66846-.81591,1.71932,1.71932,0,0,1,.94971.25586l-.59668,1.30273A1.29611,1.29611,0,0,0,34.608,10.131a1.1755,1.1755,0,0,0-1.0962,1.2539V14.7213Z"/><path class="cls-1" d="M39.33264,13.83263c1.315,0,2.31348.58447,2.31348,1.80175,0,1.07178-.66992,1.99707-2.874,1.99707-2.03321,0-2.898-.68164-2.898-1.875A1.4778,1.4778,0,0,1,36.5929,14.441a1.021,1.021,0,0,1-.48731-.87647,1.11912,1.11912,0,0,1,.65772-1.0835,2.02081,2.02081,0,0,1-.56006-1.4248,2.30827,2.30827,0,0,1,2.54492-2.27734,5.79111,5.79111,0,0,1,.83985.08544h.03662c.32861-.0122,1.04736-.13378,1.04736-.87646l1.20508.12158A1.29564,1.29564,0,0,1,40.62317,9.461a2.13639,2.13639,0,0,1,.69385,1.59522A2.322,2.322,0,0,1,38.7721,13.3087a3.13563,3.13563,0,0,1-1.04688-.21924.012.012,0,0,0,.01221.01221c-.17041,0-.30469.12207-.30469.36523,0,.29248.30469.36573.74317.36573Zm-1.30322,1.21728c-.58447.01221-.91308.21924-.91308.6333,0,.45069.40185.69434,1.583.69434,1.2295,0,1.70459-.24365,1.70459-.74317,0-.38964-.41406-.58447-1.023-.58447Zm.73047-5.0166a1.03592,1.03592,0,1,0-.01172,2.0459,1.0993,1.0993,0,0,0,1.21729-1.02295A1.08766,1.08766,0,0,0,38.75989,10.03331Z"/><path class="cls-1" d="M45.46985,15.9879h.01221a2.18041,2.18041,0,0,1-2.13086,1.64355,2.58365,2.58365,0,0,1-1.05957-.21923l.21924-1.20557a2.42419,2.42419,0,0,0,.74316.15869c.54785,0,.7793-.37744.94971-.82812h-.01221c.10938-.30469.23145-.59668.34082-.90137L42.2555,8.85216h1.55859l1.47314,3.9331c.43848-1.30273.91309-2.64209,1.36377-3.9331h1.54639Z"/><path class="cls-2" d="M51.89905,11.129a2.2927,2.2927,0,0,0,.09766-.52343c0-.37745-.25586-.68164-.9375-.68164-.6211,0-.938.27978-.938.69384,0,.48731.64551.6211,1.31543.75489.94971.207,2.06982.45068,2.06982,1.69238,0,1.1084-.82812,1.81445-2.49609,1.81445a2.77792,2.77792,0,0,1-2.65479-1.33935l.85254-.79151a2.25969,2.25969,0,0,0,1.74121.97412c.6333,0,.9375-.23144.9375-.59668,0-.38964-.52343-.499-1.13232-.62109-.96191-.19482-2.11865-.4502-2.11865-1.85059,0-.9497.64551-1.86328,2.41113-1.86328,1.75342,0,2.30127.86475,2.30127,1.70508a1.77786,1.77786,0,0,1-.13428.63281Z"/><path class="cls-2" d="M59.87513,14.67247a2.099,2.099,0,0,1-.65723.09766,1.075,1.075,0,0,1-1.1084-.85254,2.311,2.311,0,0,1-1.81445.87695c-1.2295,0-1.936-.64551-1.936-1.59521,0-1.01075.646-1.60743,2.25244-1.60743h1.31543v-.71826c0-.68213-.3291-.96191-.9375-.96191-.60937,0-.9375.3042-.9375.7915a1.09459,1.09459,0,0,0,.16992.52344h-1.376a1.35006,1.35006,0,0,1-.16992-.73047c0-.99853.82812-1.71728,2.34961-1.71728,1.64453,0,2.3623.77929,2.3623,2.15527v2.25293c0,.25586.10938.40185.48731.40185ZM57.92688,12.505H56.75794c-.59668,0-.91309.18262-.91309.51172,0,.353.31641.56006.791.56006.877,0,1.291-.98633,1.291-.98633Z"/><path class="cls-2" d="M62.38294,14.7213,60.131,8.85216h1.5586l1.4248,3.98193,1.41211-3.98193h1.54688L63.83216,14.7213Z"/><path class="cls-2" d="M67.43665,7.91466a.883.883,0,1,1,0-1.76563.88381.88381,0,1,1,0,1.76563Zm1.21777,6.75781a2.099,2.099,0,0,1-.65722.09766c-.81641,0-1.291-.42627-1.291-1.40039V8.85216h1.46094v4.34717c0,.25537.12207.38964.4873.38964Z"/><path class="cls-2" d="M75.46155,14.67247a2.099,2.099,0,0,1-.65723.09766c-.81543,0-1.291-.42627-1.291-1.40039V11.26329A1.00185,1.00185,0,0,0,72.527,10.131a1.17911,1.17911,0,0,0-1.12012,1.2539V14.7213H69.94593V10.36192c0-.23095-.10938-.37744-.48731-.37744V8.901a2.27224,2.27224,0,0,1,.68164-.09766,1.00013,1.00013,0,0,1,1.084.7915,1.793,1.793,0,0,1,1.668-.81591c1.50977,0,2.09473,1.04736,2.09473,2.33789v2.08252c0,.25537.10938.38964.47461.38964Z"/><path class="cls-2" d="M79.60218,13.83263c1.31543,0,2.31347.58447,2.31347,1.80175,0,1.07178-.66894,1.99707-2.873,1.99707-2.03418,0-2.89844-.68164-2.89844-1.875a1.47778,1.47778,0,0,1,.71875-1.31542,1.02,1.02,0,0,1-.48731-.87647,1.11877,1.11877,0,0,1,.65723-1.0835,2.02291,2.02291,0,0,1-.55957-1.4248,2.308,2.308,0,0,1,2.54492-2.27734,5.79127,5.79127,0,0,1,.83985.08544h.0371c.32813-.0122,1.04688-.13378,1.04688-.87646l1.20508.12158A1.29564,1.29564,0,0,1,80.89319,9.461a2.13486,2.13486,0,0,1,.69434,1.59522,2.32229,2.32229,0,0,1-2.54492,2.25244,3.13924,3.13924,0,0,1-1.04786-.21924.0123.0123,0,0,0,.0127.01221c-.1709,0-.30469.12207-.30469.36523,0,.29248.30469.36573.74317.36573Zm-1.30274,1.21728c-.584.01221-.91308.21924-.91308.6333,0,.45069.40136.69434,1.583.69434,1.2295,0,1.70508-.24365,1.70508-.74317,0-.38964-.41406-.58447-1.02344-.58447Zm.73047-5.0166a1.03592,1.03592,0,1,0-.01172,2.0459A1.09947,1.09947,0,0,0,80.236,11.05626,1.08783,1.08783,0,0,0,79.02991,10.03331Z"/><path class="cls-1" d="M87.62659,13.54015a2.7179,2.7179,0,0,1-2.41016,1.25439,2.67409,2.67409,0,0,1-2.74023-3.00781c0-1.92383.96191-3.00781,2.74023-3.00781,1.5586,0,2.27637.91357,2.27637,1.91211a2.25459,2.25459,0,0,1-.12109.73046l-1.291.01221a2.29686,2.29686,0,0,0,.09766-.51123c0-.35352-.18262-.80371-.96192-.80371s-1.291.48682-1.291,1.65576c0,1.32715.82812,1.68018,1.47363,1.68018a1.82439,1.82439,0,0,0,1.42481-.74268Z"/><path class="cls-1" d="M88.36975,11.77452c0-1.83838,1.01075-2.9956,2.69141-2.9956,1.65527,0,2.666,1.15722,2.666,2.9956,0,1.85108-1.01075,3.02-2.666,3.02C89.3805,14.79454,88.36975,13.6378,88.36975,11.77452Zm3.90918.01221c0-1.0957-.45117-1.668-1.21777-1.668-.7793,0-1.24219.57227-1.24219,1.668s.4502,1.668,1.24219,1.668C91.85218,13.4547,92.27893,12.88243,92.27893,11.78673Z"/><path class="cls-1" d="M104.01721,14.67247a2.10937,2.10937,0,0,1-.6582.09766c-.81543,0-1.29-.42627-1.29-1.40039V11.26329c0-.64551-.34082-1.13232-.97461-1.13232a1.14189,1.14189,0,0,0-1.084,1.15673v1.91163c0,.25537.12207.38964.4873.38964v1.0835a2.23733,2.23733,0,0,1-.66992.09766c-.80371,0-1.27832-.42627-1.27832-1.40039V11.26329a1.00185,1.00185,0,0,0-.98633-1.13232,1.168,1.168,0,0,0-1.10742,1.2539V14.7213H94.99378V10.36192c0-.23095-.10938-.37744-.48633-.37744V8.901a2.13342,2.13342,0,0,1,.66894-.09766,1.00328,1.00328,0,0,1,1.084.7915,2.08974,2.08974,0,0,1,3.44629.19483,1.77521,1.77521,0,0,1,1.75293-1.01074c1.498,0,2.082,1.04736,2.082,2.33789v2.08252c0,.25537.11035.38964.47558.38964Z"/><path class="cls-1" d="M105.47815,17.59483V10.36192c0-.23095-.10937-.37744-.4873-.37744V8.901a2.27224,2.27224,0,0,1,.68164-.09766,1.004,1.004,0,0,1,1.09668.81592,1.96507,1.96507,0,0,1,1.7041-.84033c1.19336,0,2.375.88916,2.375,2.97119,0,2.2041-1.16895,3.04443-2.46,3.04443a2.638,2.638,0,0,1-1.44922-.53613v3.33642Zm1.46094-5.07763a1.16014,1.16014,0,0,0,1.20605.9375c.71778,0,1.25391-.52344,1.25391-1.68018,0-1.20557-.64551-1.65576-1.2666-1.65576-.877,0-1.19336.998-1.19336.998Z"/><path class="cls-1" d="M117.08362,14.67247a2.10937,2.10937,0,0,1-.6582.09766,1.07332,1.07332,0,0,1-1.10742-.85254,2.311,2.311,0,0,1-1.81446.87695c-1.23047,0-1.93652-.64551-1.93652-1.59521,0-1.01075.64551-1.60743,2.25293-1.60743h1.31445v-.71826c0-.68213-.32812-.96191-.9375-.96191-.6084,0-.9375.3042-.9375.7915a1.09061,1.09061,0,0,0,.1709.52344h-1.376a1.34434,1.34434,0,0,1-.17089-.73047c0-.99853.82812-1.71728,2.35058-1.71728,1.64356,0,2.36231.77929,2.36231,2.15527v2.25293c0,.25586.10937.40185.4873.40185ZM115.1344,12.505h-1.168c-.59668,0-.91406.18262-.91406.51172,0,.353.31738.56006.792.56006.877,0,1.29-.98633,1.29-.98633Z"/><path class="cls-1" d="M118.25159,14.7213V10.36192c0-.23095-.10938-.37744-.48633-.37744V8.91319a1.86059,1.86059,0,0,1,.64551-.10986,1.05266,1.05266,0,0,1,1.0957.7915,1.80233,1.80233,0,0,1,1.668-.81591,1.72206,1.72206,0,0,1,.9502.25586l-.59668,1.30273a1.29682,1.29682,0,0,0-.71875-.20654,1.17442,1.17442,0,0,0-1.09571,1.2539V14.7213Z"/><path class="cls-1" d="M123.64612,12.10313a1.44186,1.44186,0,0,0,1.4375,1.44922,1.837,1.837,0,0,0,1.43652-.81591l.791.80371a2.8142,2.8142,0,0,1-5.15039-1.75342c0-1.92383.9375-3.00781,2.71582-3.00781,1.7168,0,2.34961,1.13281,2.34961,2.70361v.6206Zm2.17969-1.03466c-.03613-.6333-.32813-1.1084-1.01074-1.1084-.57227,0-.99805.35351-1.13184,1.1084Z"/></svg>