<?xml version="1.0" encoding="UTF-8"?>
<svg width="22px" height="22px" viewBox="0 0 22 22" version="1.1" xmlns="http://www.w3.org/2000/svg" xmlns:xlink="http://www.w3.org/1999/xlink">
    <title>tick-green</title>
    <g id="Page-1" stroke="none" stroke-width="1" fill="none" fill-rule="evenodd">
        <g id="tick-green" fill="#33AA26" fill-rule="nonzero">
            <path d="M8.1,21.6 C8,21.8 7.8,22 7.6,22 C7.4,22 7.2,21.8 7.1,21.6 C6.2,19.4 4,14.6 0.2,9.8 C-8.8817842e-16,9.5 -8.8817842e-16,9.1 0.1,8.8 C0.2,8.5 0.5,8.4 0.7,8.5 C4.3,10.5 6.3,12.2 7,12.8 C7.2,13 7.5,13 7.7,12.7 C9,11 14,4.9 21.2,1 C21.5,0.9 21.8,1 21.9,1.4 C22,1.8 22,2.2 21.7,2.4 C14.2,8.5 9.5,18.2 8.1,21.6 Z" id="Path"></path>
        </g>
    </g>
</svg>