<?xml version="1.0" encoding="utf-8"?>
<!-- Generator: Adobe Illustrator 24.1.0, SVG Export Plug-In . SVG Version: 6.00 Build 0)  -->
<svg version="1.1" id="Layer_1" xmlns="http://www.w3.org/2000/svg" xmlns:xlink="http://www.w3.org/1999/xlink" x="0px" y="0px"
	 viewBox="0 0 30 21" style="enable-background:new 0 0 30 21;" xml:space="preserve">
<style type="text/css">
	.st0{fill:#FF5F08;}
</style>
<desc>Created with Sketch.</desc>
<g id="Page-1">
	<g id="Desktop-HD" transform="translate(-250.000000, -580.000000)">
		<g id="USP" transform="translate(250.000000, 469.000000)">
			<g id="Group" transform="translate(0.000000, 6.000000)">
				<g id="tick-01-copy-3" transform="translate(0.000000, 105.000000)">
					<path id="Path" class="st0" d="M12.1,20.6C12,20.8,11.8,21,11.6,21s-0.4-0.2-0.5-0.4c-0.9-2.2-3.1-7-6.9-11.8
						C4,8.5,4,8.1,4.1,7.8c0.1-0.3,0.4-0.4,0.6-0.3c3.6,2,5.6,3.7,6.3,4.3c0.2,0.2,0.5,0.2,0.7-0.1C13,10,18,3.9,25.2,0
						c0.3-0.1,0.6,0,0.7,0.4c0.1,0.4,0.1,0.8-0.2,1C18.2,7.5,13.5,17.2,12.1,20.6z"/>
				</g>
			</g>
		</g>
	</g>
</g>
</svg>
