<?xml version="1.0" encoding="UTF-8"?>
<svg width="27px" height="38px" viewBox="0 0 27 38" version="1.1" xmlns="http://www.w3.org/2000/svg" xmlns:xlink="http://www.w3.org/1999/xlink">
    <!-- Generator: Sketch 62 (91390) - https://sketch.com -->
    <title>Group 3</title>
    <desc>Created with Sketch.</desc>
    <defs>
        <polygon id="path-1" points="0 0 27 0 27 38 0 38"></polygon>
    </defs>
    <g id="HOMEPAGE" stroke="none" stroke-width="1" fill="none" fill-rule="evenodd">
        <g id="Business-energy-" transform="translate(-586.000000, -687.000000)">
            <g id="Group-3" transform="translate(586.000000, 687.000000)">
                <mask id="mask-2" fill="white">
                    <use xlink:href="#path-1"></use>
                </mask>
                <g id="Clip-2"></g>
                <path d="M2.56680392,17.3022633 C-3.00821317,24.1921991 0.948764008,35.0871433 10.0913831,37.8640646 C7.29603653,35.5411525 6.97060836,30.8425024 8.96631654,28.2586917 C11.233128,25.3235714 14.6590442,23.7711464 13.1215495,19.0426519 C15.8693067,19.9908884 20.2547088,23.9570352 18.9966164,27.4101226 C17.6114319,31.2118861 19.7172331,31.8942365 20.5000729,28.1133401 C22.9949286,31.1966447 21.8486533,35.8093926 18.4789864,38 C27.3040755,35.3741758 29.1657956,23.5331896 24.5671432,17.5791216 C20.2432825,11.9806721 13.7085791,9.01941815 16.6414017,0 C11.4001119,1.80877523 3.03492013,9.37403928 5.43451685,15.9605442 C8.07675141,23.2124825 4.06031754,24.514183 2.56680392,17.3022633" id="Fill-1" fill="#666666" mask="url(#mask-2)"></path>
            </g>
        </g>
    </g>
</svg>