<?xml version="1.0" encoding="UTF-8"?>
<svg width="120px" height="64px" viewBox="0 0 120 64" version="1.1" xmlns="http://www.w3.org/2000/svg" xmlns:xlink="http://www.w3.org/1999/xlink">
    <!-- Generator: Sketch 62 (91390) - https://sketch.com -->
    <title>applepay</title>
    <desc>Created with Sketch.</desc>
    <g id="applepay" stroke="none" stroke-width="1" fill="none" fill-rule="evenodd">
        <g id="Apple_Pay_Mark_RGB_041619" transform="translate(10.000000, 0.000000)" fill-rule="nonzero">
            <path d="M90.987514,0 L8.94984453,0 C8.60816906,0 8.26588981,0 7.92482415,0.00199245283 C7.63651623,0.00404528302 7.34887849,0.00724528302 7.06124075,0.0150943396 C6.43392,0.0320603774 5.80122566,0.0690716981 5.18175396,0.180407547 C4.55238038,0.293675472 3.96672,0.478430189 3.39536906,0.769328302 C2.83367849,1.05497358 2.31944453,1.42858868 1.87380528,1.87441509 C1.42797283,2.32024151 1.05435774,2.83363019 0.76877283,3.39592453 C0.47781434,3.96727547 0.292938868,4.55311698 0.180455849,5.18297358 C0.0685222642,5.80262642 0.0312633962,6.4352 0.0143577358,7.0618566 C0.00662943396,7.34949434 0.00331471698,7.63713208 0.00143698113,7.92470943 C2.41509434e-06,8.26650566 2.41509434e-06,8.60806038 2.41509434e-06,8.95046038 L2.41509434e-06,55.0291321 C2.41509434e-06,55.3715321 2.41509434e-06,55.7124891 0.00143698113,56.0549494 C0.00331471698,56.3425268 0.00662943396,56.6301645 0.0143577358,56.9178023 C0.0312633962,57.5439094 0.0685222642,58.176483 0.180455849,58.7959547 C0.292938868,59.4260528 0.47781434,60.0116528 0.76877283,60.5830642 C1.05435774,61.1453585 1.42797283,61.6594113 1.87380528,62.1045736 C2.31944453,62.5511245 2.83367849,62.9246792 3.39536906,63.2096 C3.96672,63.501283 4.55238038,63.6860981 5.18175396,63.7993057 C5.80122566,63.909917 6.43392,63.9475925 7.06124075,63.9645585 C7.34887849,63.9710792 7.63651623,63.9749434 7.92482415,63.9762717 C8.26588981,63.9789283 8.60816906,63.9789283 8.94984453,63.9789283 L90.987514,63.9789283 C91.3285857,63.9789283 91.6708709,63.9789283 92.0118702,63.9762717 C92.299514,63.9749434 92.5871577,63.9710792 92.8761117,63.9645585 C93.5021042,63.9475925 94.1346777,63.909917 94.7556649,63.7993057 C95.3841932,63.6860981 95.9699743,63.501283 96.5413857,63.2096 C97.10368,62.9246792 97.6164045,62.5511245 98.0629615,62.1045736 C98.5080634,61.6594113 98.8816725,61.1453585 99.1679879,60.5830642 C99.4596045,60.0116528 99.6442989,59.4260528 99.7562385,58.7959547 C99.8682385,58.176483 99.9045857,57.5439094 99.9215517,56.9178023 C99.9294008,56.6301645 99.9332709,56.3425268 99.9345992,56.0549494 C99.9372498,55.7124891 99.9372498,55.3715381 99.9372498,55.0291321 L99.9372498,8.95046038 C99.9372498,8.60806038 99.9372498,8.26650566 99.9345992,7.92470943 C99.9332709,7.63713208 99.9294008,7.34949434 99.9215517,7.0618566 C99.9045796,6.4352 99.8682385,5.80262642 99.7562385,5.18297358 C99.6443049,4.55311698 99.4596045,3.96727547 99.1679879,3.39592453 C98.8816725,2.83363019 98.5080634,2.32024151 98.0629615,1.87441509 C97.6164045,1.42858868 97.10368,1.05497358 96.5413857,0.769328302 C95.9699743,0.478430189 95.3841932,0.293675472 94.7556649,0.180407547 C94.1346838,0.0690716981 93.5021102,0.0320603774 92.8761117,0.0150943396 C92.5871577,0.00724528302 92.299514,0.00404528302 92.0118702,0.00199245283 C91.6708709,0 91.3285857,0 90.987514,0 L90.987514,0 Z" id="XMLID_4_" fill="#000000"></path>
            <path d="M90.987514,2.1325283 L91.9967155,2.13446038 C92.2701042,2.13639245 92.5434989,2.13935094 92.818403,2.14683774 C93.2965977,2.15975849 93.8559819,2.18566038 94.3774008,2.27912453 C94.8306536,2.36075472 95.2107834,2.48489057 95.5755894,2.67061132 C95.9357404,2.85361509 96.2657087,3.09343396 96.5538174,3.38113208 C96.8430249,3.67076226 97.0831517,4.00126792 97.2685706,4.36540377 C97.4532589,4.72736604 97.5766098,5.10569057 97.657757,5.56226415 C97.7509796,6.07800755 97.7767608,6.63891321 97.7898687,7.12006038 C97.7972287,7.39163774 97.8008513,7.66321509 97.8021857,7.94125283 C97.8047216,8.27749434 97.8047216,8.61355472 97.8047216,8.95046038 L97.8047216,55.0291321 C97.8047216,55.3660377 97.8047216,55.7014943 97.8021253,56.0449208 C97.8008513,56.3164377 97.7972347,56.5880151 97.7898083,56.8600755 C97.7767608,57.3404981 97.7509857,57.9011019 97.6566158,58.4229434 C97.5766098,58.8732377 97.4533253,59.2516226 97.2676106,59.6153962 C97.0827291,59.9786264 96.8429706,60.3087698 96.5550249,60.5965887 C96.26528,60.8864 95.9363985,61.1254943 95.5719668,61.3101887 C95.2098838,61.4950038 94.830406,61.6190249 94.3816211,61.6998038 C93.8496423,61.7945962 93.2668196,61.8206792 92.8278762,61.8325736 C92.5517102,61.8387925 92.2768725,61.8425298 91.9953389,61.8438642 C91.6598158,61.8464001 91.3230974,61.8464001 90.98752,61.8464001 L8.94984453,61.8464001 C8.9453766,61.8464001 8.94102943,61.8464001 8.93650113,61.8464001 C8.60478792,61.8464001 8.27241057,61.8464001 7.93465962,61.8438038 C7.65927849,61.8425298 7.38450113,61.8388528 7.11884075,61.8328151 C6.66987472,61.8206792 6.08668981,61.7946566 5.55905208,61.7004075 C5.10640906,61.6190189 4.72693132,61.4950038 4.36007849,61.3077736 C3.9990883,61.1247094 3.6704483,60.8858566 3.3805766,60.5955019 C3.09293887,60.3083472 2.85390491,59.9792302 2.66908981,59.6154566 C2.48409358,59.2520453 2.36032,58.8725132 2.27893736,58.4168453 C2.1848634,57.8960302 2.15902189,57.3376604 2.14610717,56.8604981 C2.13873509,56.5872906 2.13565585,56.3141434 2.13390491,56.042566 L2.1325766,55.2408151 L2.1325766,55.0291321 L2.1325766,8.95046038 L2.1325766,8.73877736 L2.13384453,7.93871698 C2.13565585,7.66550943 2.13873509,7.39236226 2.14610717,7.11939623 C2.15902189,6.64175094 2.1848634,6.08313962 2.27971623,5.55797736 C2.36038038,5.10641509 2.48409358,4.72688302 2.67005585,4.36166038 C2.85342189,4.00066415 3.09287849,3.67112453 3.3820317,3.38203774 C3.6700317,3.09391698 3.99974642,2.8544 4.36303698,2.66964528 C4.72596528,2.48483019 5.10616151,2.36075472 5.55881057,2.27930566 C6.08035019,2.1856 6.64010868,2.15975849 7.11950491,2.14677736 C7.39277283,2.13935094 7.66604075,2.13639245 7.93725585,2.13452075 L8.94984453,2.1325283 L90.987514,2.1325283" id="XMLID_3_" fill="#FFFFFF"></path>
            <g id="Group" transform="translate(13.283019, 17.509434)" fill="#000000">
                <g id="Path">
                    <path d="M13.9992151,4.0093766 C14.8549072,2.93909132 15.4355743,1.50201358 15.2824272,0.0334913208 C14.0298143,0.0957766038 12.5012408,0.859882264 11.6162717,1.93100679 C10.8216634,2.84825962 10.1183698,4.34550943 10.3017177,5.75247094 C11.70784,5.87443925 13.1126642,5.04963019 13.9992151,4.0093766"></path>
                    <path d="M15.2664513,6.02718189 C13.2244226,5.90554566 11.4881992,7.18613132 10.5130264,7.18613132 C9.53731623,7.18613132 8.04400906,6.08847698 6.42887245,6.11806189 C4.3266717,6.14893887 2.37607245,7.33753962 1.30929509,9.22797283 C-0.884884528,13.0097691 0.730252075,18.6194958 2.86397585,21.6995562 C3.90016,23.22336 5.14893887,24.9011804 6.79439698,24.8409117 C8.34907774,24.7799064 8.9584483,23.8342279 10.8482294,23.8342279 C12.7366219,23.8342279 13.2855366,24.8409117 14.9312604,24.8104151 C16.637917,24.7799004 17.7048815,23.2858506 18.7410536,21.7605615 C19.9297509,20.0235049 20.4163623,18.346234 20.4469675,18.2541585 C20.4163562,18.2236619 17.1560513,16.9729268 17.1258204,13.222563 C17.09504,10.0823306 19.6855245,8.58866113 19.8074445,8.49603019 C18.3445736,6.33243774 16.0588679,6.08847698 15.2664513,6.02718189"></path>
                </g>
                <g transform="translate(24.150943, 1.207547)">
                    <path d="M8.89590943,0.569841509 C13.3342249,0.569841509 16.4247849,3.6292166 16.4247849,8.08342943 C16.4247849,12.5535457 13.2706294,15.6288121 8.78461585,15.6288121 L3.87055094,15.6288121 L3.87055094,23.4435623 L0.320138868,23.4435623 L0.320138868,0.569841509 L8.89590943,0.569841509 L8.89590943,0.569841509 Z M3.87054491,12.648634 L7.94439849,12.648634 C11.0355683,12.648634 12.794874,10.9844166 12.794874,8.09932679 C12.794874,5.21454491 11.0355683,3.56592302 7.96029585,3.56592302 L3.87054491,3.56592302 L3.87054491,12.648634 L3.87054491,12.648634 Z" id="Shape"></path>
                    <path d="M17.3524347,18.7040845 C17.3524347,15.787194 19.5874958,13.9960936 23.5506717,13.7741162 L28.1155683,13.5047487 L28.1155683,12.2208906 C28.1155683,10.3661887 26.863203,9.25660981 24.7712362,9.25660981 C22.7893434,9.25660981 21.5528755,10.2075049 21.2520151,11.6977449 L18.0183608,11.6977449 C18.2085434,8.68576604 20.7762596,6.4666083 24.8978174,6.4666083 C28.9398762,6.4666083 31.5234898,8.60657509 31.5234898,11.9512151 L31.5234898,23.4435683 L28.2421494,23.4435683 L28.2421494,20.7012649 L28.1632664,20.7012649 C27.196474,22.5559668 25.088,23.7288332 22.900637,23.7288332 C19.6351879,23.7288332 17.3524347,21.6998521 17.3524347,18.7040845 Z M28.1155683,17.1982491 L28.1155683,15.8825962 L24.0099079,16.1360664 C21.9650294,16.2788528 20.8080604,17.1823517 20.8080604,18.6089962 C20.8080604,20.0671336 22.0127275,21.0183306 23.8515321,21.0183306 C26.2449691,21.0183306 28.1155683,19.3697087 28.1155683,17.1982491 Z" id="Shape"></path>
                    <path d="M34.6213857,29.5782038 L34.6213857,26.8041057 C34.8745479,26.8673992 35.4450838,26.8673992 35.7306566,26.8673992 C37.315683,26.8673992 38.1717917,26.2017691 38.6946294,24.4898596 C38.6946294,24.4580589 38.9960996,23.4753691 38.9960996,23.4594717 L32.9727577,6.7677766 L36.6815457,6.7677766 L40.8984936,20.3368091 L40.9614792,20.3368091 L45.1784332,6.7677766 L48.7924408,6.7677766 L42.5465057,24.3152725 C41.120477,28.3576392 39.4718491,29.6573947 36.0162294,29.6573947 C35.7306626,29.6573947 34.874554,29.625594 34.6213857,29.5782038 Z" id="Path"></path>
                </g>
            </g>
        </g>
    </g>
</svg>