<?xml version="1.0" encoding="UTF-8"?>
<svg width="38px" height="43px" viewBox="0 0 38 43" version="1.1" xmlns="http://www.w3.org/2000/svg" xmlns:xlink="http://www.w3.org/1999/xlink">
    <!-- Generator: Sketch 62 (91390) - https://sketch.com -->
    <title>bulb-icon</title>
    <desc>Created with Sketch.</desc>
    <defs>
        <polygon id="path-1" points="0.321945281 0.0556287128 12.7777236 0.0556287128 12.7777236 8.99655733 0.321945281 8.99655733"></polygon>
        <polygon id="path-3" points="0.0327051299 0.202941572 0.964492792 0.202941572 0.964492792 6.6102378 0.0327051299 6.6102378"></polygon>
        <polygon id="path-5" points="0.0572450088 0.271133746 5.81858006 0.271133746 5.81858006 1.71395663 0.0572450088 1.71395663"></polygon>
        <polygon id="path-7" points="0 0.17837226 6.2038613 0.17837226 6.2038613 1.62063286 0 1.62063286"></polygon>
    </defs>
    <g id="HOMEPAGE" stroke="none" stroke-width="1" fill="none" fill-rule="evenodd">
        <g id="Desktop1" transform="translate(-311.000000, -637.000000)">
            <g id="Group-9" transform="translate(300.000000, 631.000000)">
                <g id="bulb-icon" transform="translate(11.000000, 6.000000)">
                    <path d="M24.448944,37.110799 L13.6646924,37.110799 C13.3346952,37.110799 13.0675325,36.8591409 13.0675325,36.5482949 C13.0675325,36.2378874 13.3346952,35.9862293 13.6646924,35.9862293 L24.448944,35.9862293 C24.7784757,35.9862293 25.0461039,36.2378874 25.0461039,36.5482949 C25.0461039,36.8591409 24.7784757,37.110799 24.448944,37.110799" id="Fill-1" fill="#FFFFFF"></path>
                    <path d="M24.448944,39.3599383 L13.6646924,39.3599383 C13.3346952,39.3599383 13.0675325,39.1076001 13.0675325,38.7974344 C13.0675325,38.4868307 13.3346952,38.2353686 13.6646924,38.2353686 L24.448944,38.2353686 C24.7784757,38.2353686 25.0461039,38.4868307 25.0461039,38.7974344 C25.0461039,39.1076001 24.7784757,39.3599383 24.448944,39.3599383" id="Fill-3" fill="#FFFFFF"></path>
                    <g id="Group-7" transform="translate(11.978571, 33.737090)">
                        <mask id="mask-2" fill="white">
                            <use xlink:href="#path-1"></use>
                        </mask>
                        <g id="Clip-6"></g>
                        <path d="M6.54983446,8.99670727 C3.89712537,8.99670727 2.50809506,7.72769288 2.45050113,7.67371353 L0.508278615,5.70696614 C0.389218874,5.58651223 0.321945281,5.42107554 0.321945281,5.24864153 L0.321945281,0.697383135 C0.321945281,0.343018739 0.599751342,0.0556287128 0.942895065,0.0556287128 C1.28603879,0.0556287128 1.56384485,0.343018739 1.56384485,0.697383135 L1.56384485,4.97974442 L3.30182667,6.739571 C3.32505784,6.75906354 4.40385524,7.71369823 6.54983446,7.71369823 C8.6953297,7.71369823 9.80510199,6.73207387 9.81574961,6.72207769 L11.5353401,4.97974442 L11.5353401,0.697383135 C11.5353401,0.343018739 11.8131461,0.0556287128 12.1567739,0.0556287128 C12.4994336,0.0556287128 12.7777236,0.343018739 12.7777236,0.697383135 L12.7777236,5.24864153 C12.7777236,5.42107554 12.71045,5.58651223 12.5913903,5.70696614 L10.6675591,7.65572042 C10.5915739,7.72769288 9.20254355,8.99670727 6.54983446,8.99670727" id="Fill-5" fill="#FFFFFF" mask="url(#mask-2)"></path>
                    </g>
                    <path d="M14.0121177,33.5794682 L24.1013071,33.5794682 C24.097361,33.3087445 24.1072263,33.0170422 24.1540862,32.8077558 C24.1664178,32.7493155 24.1782561,32.6399271 24.1960135,32.4935765 C24.3065043,31.5939946 24.5659603,29.4881438 25.6141429,28.225932 C29.5932908,23.7350154 29.2169316,20.6926204 29.2124922,20.662651 C29.2085461,20.6326816 29.2050933,20.5962188 29.2050933,20.5657499 C29.2050933,14.8995328 24.6522812,10.2842431 19.0567124,10.2792482 C13.4611436,10.2842431 8.90833154,14.8995328 8.90833154,20.5657499 C8.90833154,20.6002147 8.90586523,20.6346796 8.90093261,20.6681454 C8.89698651,20.6926204 8.52062729,23.7350154 12.4859638,28.2104478 C13.5484511,29.4881438 13.8074138,31.5939946 13.9179046,32.4935765 C13.9356621,32.6399271 13.9475004,32.749815 13.9603252,32.8077558 C14.0061986,33.0170422 14.0165571,33.3087445 14.0121177,33.5794682 M24.7711575,34.8616596 L13.3427606,34.8616596 C13.1641996,34.8616596 12.9945174,34.7852376 12.8741613,34.6513743 C12.7542986,34.5180104 12.6956004,34.3391929 12.7123713,34.1593764 C12.7483794,33.7772664 12.7621908,33.2557986 12.7251961,33.0889688 C12.7074386,33.0090504 12.6867216,32.8577049 12.6615652,32.6529139 C12.5648858,31.8652178 12.3379851,30.0235973 11.5310078,29.0515893 C7.39154962,24.3803568 7.58540175,21.0292768 7.64262019,20.5237927 C7.66531026,14.1702771 12.7764954,9.0030507 19.0567124,8.99655733 C25.3374227,9.0030507 30.4481146,14.1702771 30.4712979,20.5237927 C30.5280231,21.0292768 30.7208887,24.3818552 26.5700855,29.0670735 C25.7754398,30.0235973 25.5490323,31.8652178 25.4518596,32.6529139 C25.4271965,32.8577049 25.4064795,33.0090504 25.388722,33.0889688 C25.3517273,33.2557986 25.3655387,33.7772664 25.4015468,34.1593764 C25.4183178,34.3391929 25.3596195,34.5180104 25.2397568,34.6513743 C25.1194007,34.7852376 24.9497185,34.8616596 24.7711575,34.8616596" id="Fill-8" fill="#FFFFFF"></path>
                    <path d="M11.5498441,21.3668237 C11.1855062,21.3668237 10.8896104,21.0617655 10.8896104,20.6849603 C10.8896104,16.1005851 14.5010835,12.3702663 18.9405504,12.3702663 C19.3054029,12.3702663 19.6012987,12.6753244 19.6012987,13.0521297 C19.6012987,13.4284035 19.3054029,13.7345245 18.9405504,13.7345245 C15.2292446,13.7345245 12.2105924,16.8526012 12.2105924,20.6849603 C12.2105924,21.0617655 11.9152111,21.3668237 11.5498441,21.3668237" id="Fill-10" fill="#FFFFFF"></path>
                    <g id="Group-14" transform="translate(18.512338, 0.000000)">
                        <mask id="mask-4" fill="white">
                            <use xlink:href="#path-3"></use>
                        </mask>
                        <g id="Clip-13"></g>
                        <path d="M0.498417468,6.6102378 C0.241059675,6.6102378 0.0327051299,6.31179431 0.0327051299,5.94431954 L0.0327051299,0.868704115 C0.0327051299,0.500710318 0.241059675,0.202785862 0.498417468,0.202785862 C0.756138247,0.202785862 0.964492792,0.500710318 0.964492792,0.868704115 L0.964492792,5.94431954 C0.964492792,6.31179431 0.756138247,6.6102378 0.498417468,6.6102378" id="Fill-12" fill="#FFFFFF" mask="url(#mask-4)"></path>
                    </g>
                    <path d="M28.9022976,11.2456967 C28.7511217,11.2456967 28.6008647,11.1859141 28.4859893,11.067298 C28.2553196,10.8291169 28.2553196,10.4443262 28.4859893,10.2066196 L31.662523,6.92569801 C31.8927332,6.68799133 32.2658484,6.68799133 32.4965181,6.92569801 C32.7262689,7.16340469 32.7262689,7.54914427 32.4965181,7.78637649 L29.3190655,11.067298 C29.2041901,11.1859141 29.0530141,11.2456967 28.9022976,11.2456967" id="Fill-15" fill="#FFFFFF"></path>
                    <g id="Group-19" transform="translate(31.939433, 19.117684)">
                        <mask id="mask-6" fill="white">
                            <use xlink:href="#path-5"></use>
                        </mask>
                        <g id="Clip-18"></g>
                        <path d="M5.21938703,1.71395663 L0.656484712,1.71395663 C0.325596122,1.71395663 0.0572450088,1.39120513 0.0572450088,0.993107472 C0.0572450088,0.593885241 0.325596122,0.271133746 0.656484712,0.271133746 L5.21938703,0.271133746 C5.54980892,0.271133746 5.81862673,0.593885241 5.81862673,0.993107472 C5.81862673,1.39120513 5.54980892,1.71395663 5.21938703,1.71395663" id="Fill-17" fill="#FFFFFF" mask="url(#mask-6)"></path>
                    </g>
                    <path d="M32.0791077,33.73709 C31.9279437,33.73709 31.7776986,33.6777804 31.6619134,33.5586866 L28.485631,30.2786275 C28.255439,30.0404401 28.255439,29.6546904 28.485631,29.4174519 C28.7162825,29.1792645 29.0884493,29.1792645 29.3191007,29.4174519 L32.4958426,32.6979855 C32.726494,32.9356984 32.726494,33.3204992 32.4958426,33.5586866 C32.3805168,33.6777804 32.2298123,33.73709 32.0791077,33.73709" id="Fill-20" fill="#FFFFFF"></path>
                    <path d="M6.03448202,33.73709 C5.88378938,33.73709 5.73309675,33.676833 5.61778013,33.5582169 C5.38714688,33.3205102 5.38714688,32.9352451 5.61778013,32.6980129 L8.79427063,29.4170913 C9.02490387,29.1793846 9.39704118,29.1793846 9.62767442,29.4170913 C9.85830766,29.654798 9.85830766,30.0405376 9.62767442,30.2777698 L6.45164334,33.5582169 C6.33586729,33.676833 6.18563408,33.73709 6.03448202,33.73709" id="Fill-22" fill="#FFFFFF"></path>
                    <g id="Group-26" transform="translate(0.000000, 19.486078)">
                        <mask id="mask-8" fill="white">
                            <use xlink:href="#path-7"></use>
                        </mask>
                        <g id="Clip-25"></g>
                        <path d="M5.55902883,1.62063286 L0.645134026,1.62063286 C0.288792468,1.62063286 -0.000201038961,1.29788136 -0.000201038961,0.899783701 C-0.000201038961,0.501123754 0.288792468,0.17837226 0.645134026,0.17837226 L5.55902883,0.17837226 C5.91537039,0.17837226 6.2038613,0.501123754 6.2038613,0.899783701 C6.2038613,1.29788136 5.91537039,1.62063286 5.55902883,1.62063286" id="Fill-24" fill="#FFFFFF" mask="url(#mask-8)"></path>
                    </g>
                    <path d="M9.21086366,10.121127 C9.06060272,10.121127 8.90988227,10.061808 8.79454436,9.94316998 L5.61746742,6.66211727 C5.38725112,6.42389215 5.38725112,6.03903046 5.61746742,5.80080534 C5.84768373,5.56352933 6.22080876,5.56352933 6.45102507,5.80080534 L9.62764249,9.08233261 C9.85831831,9.32008317 9.85831831,9.70541942 9.62764249,9.94316998 C9.51276409,10.061808 9.36204363,10.121127 9.21086366,10.121127" id="Fill-27" fill="#FFFFFF"></path>
                </g>
            </g>
        </g>
    </g>
</svg>