<?xml version="1.0" encoding="UTF-8"?>
<svg width="40px" height="37px" viewBox="0 0 40 37" version="1.1" xmlns="http://www.w3.org/2000/svg" xmlns:xlink="http://www.w3.org/1999/xlink">
    <!-- Generator: Sketch 62 (91390) - https://sketch.com -->
    <title>card-icon</title>
    <desc>Created with Sketch.</desc>
    <g id="HOMEPAGE" stroke="none" stroke-width="1" fill="none" fill-rule="evenodd">
        <g id="Desktop1" transform="translate(-916.000000, -643.000000)" stroke="#FFFFFF" stroke-width="1.5">
            <g id="Group-15" transform="translate(906.000000, 631.000000)">
                <g id="card-icon" transform="translate(11.000000, 13.000000)">
                    <path d="M30.2051282,14.4045443 L25.8777891,1.14688524 C25.5912212,0.270124547 24.6598757,-0.205066363 23.7960548,0.0852351262 L1.12919711,7.72259045 C0.26619969,8.01289194 -0.202355205,8.95992735 0.0842126395,9.83668804 L4.74999829,24.1300625 C5.03656614,25.0076598 5.96791163,25.4828507 6.83173252,25.1925492 L8.17316648,24.7399466" id="Stroke-1"></path>
                    <line x1="27.2820513" y1="3.88888889" x2="0.974358974" y2="12.6388889" id="Stroke-3"></line>
                    <line x1="28.2564103" y1="6.80555556" x2="1.94871795" y2="15.5555556" id="Stroke-5"></line>
                    <path d="M12.3714064,16.5277778 C11.4586977,16.5277778 10.7179487,17.280101 10.7179487,18.2070707 L10.7179487,33.3207071 C10.7179487,34.2443182 11.4620047,35 12.3714064,35 L36.3465423,35 C37.259251,35 38,34.2476768 38,33.3207071 L38,18.2070707 C38,17.280101 37.259251,16.5277778 36.3465423,16.5277778 L12.3714064,16.5277778 Z" id="Stroke-7"></path>
                    <line x1="13.6410256" y1="30.625" x2="17.5384615" y2="30.625" id="Stroke-9"></line>
                    <line x1="19.4871795" y1="30.625" x2="23.3846154" y2="30.625" id="Stroke-11"></line>
                    <line x1="24.3589744" y1="30.625" x2="28.2564103" y2="30.625" id="Stroke-13"></line>
                    <line x1="31.1794872" y1="30.625" x2="35.0769231" y2="30.625" id="Stroke-15"></line>
                    <path d="M34.1025641,23.8194444 C34.1025641,25.1619213 32.9809377,26.25 31.5970696,26.25 L30.7619048,26.25 C29.3780366,26.25 28.2564103,25.1619213 28.2564103,23.8194444 C28.2564103,22.4769676 29.3780366,21.3888889 30.7619048,21.3888889 L31.5970696,21.3888889 C32.9809377,21.3888889 34.1025641,22.4769676 34.1025641,23.8194444 Z" id="Stroke-17"></path>
                </g>
            </g>
        </g>
    </g>
</svg>