<?xml version="1.0" encoding="UTF-8"?>
<svg width="120px" height="64px" viewBox="0 0 120 64" version="1.1" xmlns="http://www.w3.org/2000/svg" xmlns:xlink="http://www.w3.org/1999/xlink">
    <!-- Generator: Sketch 62 (91390) - https://sketch.com -->
    <title>gpay</title>
    <desc>Created with Sketch.</desc>
    <g id="gpay" stroke="none" stroke-width="1" fill="none" fill-rule="evenodd">
        <g id="Google_Pay_(GPay)_Logo" transform="translate(0.000000, 8.000000)" fill-rule="nonzero">
            <path d="M56.5209371,23.2332728 L56.5209371,37 L52,37 L52,3.00228718 L63.9903114,3.00228718 C66.8811092,2.94395285 69.6762671,4.00353107 71.7545294,5.94551852 C73.8572523,7.77265023 75.0397557,10.3886527 74.9978103,13.1204926 C75.0580357,15.8675909 73.8734254,18.5031165 71.7545294,20.3361566 C69.6578629,22.2675674 67.0697902,23.2323685 63.9903114,23.2305601 L56.5209371,23.2305601 L56.5209371,23.2332728 Z M56.5209371,7.18791479 L56.5209371,19.0557831 L64.1026328,19.0557831 C65.7832954,19.1039084 67.4071761,18.4657839 68.5758332,17.2979823 C69.7373997,16.2070385 70.3927427,14.708572 70.3927427,13.1435502 C70.3927427,11.5785284 69.7373997,10.0800619 68.5758332,8.98911812 C67.42135,7.79621851 65.7924297,7.13932073 64.1026328,7.18520214 L56.5209371,7.18520214 L56.5209371,7.18791479 Z" id="Shape" fill="#5F6368"></path>
            <path d="M85.3554507,13 C88.6455816,13 91.2426654,13.8702791 93.146702,15.6108374 C95.0507385,17.3513957 96.0018352,19.7378216 96,22.7701149 L96,37.2337165 L91.7421755,37.2337165 L91.7421755,33.9770115 L91.5486384,33.9770115 C89.7054277,36.6590038 87.2539576,38 84.194228,38 C81.5823986,38 79.3972724,37.2337165 77.6388494,35.7011494 C75.929822,34.2766047 74.9608122,32.1652348 75.001215,29.954023 C75.001215,27.525634 75.92835,25.5944171 77.7826199,24.1603722 C79.6368897,22.7263273 82.1123216,22.0074804 85.2089154,22.0038314 C87.8520795,22.0038314 90.0289112,22.4827586 91.7394107,23.440613 L91.7394107,22.4334975 C91.7496178,20.9261423 91.0744942,19.4941464 89.9008081,18.5336617 C88.7236774,17.4824249 87.1895893,16.9088335 85.6042841,16.9272031 C83.117793,16.9272031 81.1501657,17.9653348 79.7014021,20.0415982 L75.7808931,17.5977011 C77.9374496,14.532567 81.1289687,13 85.3554507,13 Z M79.5962896,30.0498084 C79.5902836,31.1875789 80.1402858,32.2580567 81.0727508,32.9233716 C82.0572409,33.6899151 83.2791842,34.0959919 84.5315355,34.0727969 C86.4099384,34.0696898 88.2104913,33.3296237 89.5386172,32.0147783 C91.0131857,30.6409414 91.7504699,29.0290093 91.7504699,27.1789819 C90.3625323,26.0842912 88.4271612,25.5369458 85.9443565,25.5369458 C84.1361669,25.5369458 82.6284206,25.9684364 81.4211176,26.8314176 C80.2018338,27.7071702 79.5962896,28.771757 79.5962896,30.0498084 L79.5962896,30.0498084 Z" id="Shape" fill="#5F6368"></path>
            <polygon id="Path" fill="#5F6368" points="120 14 105.585451 48 101.129168 48 106.478317 36.1034399 97 14 101.692236 14 108.5429 30.9518414 108.636745 30.9518414 115.29972 14"></polygon>
            <path d="M39,20.1141843 C39.0016503,18.7353479 38.8876465,17.3589068 38.6592244,16 L20,16 L20,23.7927821 L30.6871463,23.7927821 C30.2452362,26.307808 28.817715,28.5290192 26.7354579,29.9415767 L26.7354579,35 L33.1136699,35 C36.8482629,31.4787753 39,26.2714096 39,20.1141843 Z" id="Path" fill="#4285F4"></path>
            <path d="M19.7976796,40 C25.1732262,40 29.6994199,38.2466506 33,35.2236345 L26.5786702,30.2768808 C24.7914324,31.4805909 22.4896029,32.16764 19.7976796,32.16764 C14.6019634,32.16764 10.1919679,28.6884232 8.61499331,24 L2,24 L2,29.0979045 C5.38123789,35.7814003 12.2675488,39.9996591 19.7976796,40 Z" id="Path" fill="#34A853"></path>
            <path d="M9,23.8360656 C8.14112451,21.347479 8.14112451,18.652521 9,16.1639344 L9,11 L2.18516902,11 C-0.728389673,16.6625893 -0.728389673,23.3374107 2.18516902,29 L9,23.8360656 Z" id="Path" fill="#FBBC04"></path>
            <path d="M19.7264889,7.83302267 C22.5558589,7.78692544 25.2897815,8.85300511 27.3373333,10.8008341 L27.3373333,10.8008341 L33,5.15374848 C29.4092797,1.79043721 24.6523728,-0.0560769974 19.7264889,0.00129810807 C12.2264786,0.00163898791 5.36771294,4.2195556 2,10.9025091 L8.58853333,16 C10.1592,11.3119572 14.5515556,7.83302267 19.7264889,7.83302267 Z" id="Path" fill="#EA4335"></path>
        </g>
    </g>
</svg>