<?xml version="1.0" encoding="UTF-8"?>
<svg width="28px" height="28px" viewBox="0 0 28 28" version="1.1" xmlns="http://www.w3.org/2000/svg" xmlns:xlink="http://www.w3.org/1999/xlink">
    <!-- Generator: Sketch 62 (91390) - https://sketch.com -->
    <title>icon-compare</title>
    <desc>Created with Sketch.</desc>
    <g id="HOMEPAGE" stroke="none" stroke-width="1" fill="none" fill-rule="evenodd">
        <g id="business-energy-2" transform="translate(-789.000000, -16.000000)" fill="#ffffff" fill-rule="nonzero">
            <g id="Group-19-Copy-2">
                <g id="compare-more-suppliers" transform="translate(789.000000, 16.000000)">
                    <g id="icon-compare">
                        <path d="M25.6516129,4.33548387 L21.6774194,4.33548387 C21.6888401,4.48580489 21.6888401,4.63677575 21.6774194,4.78709677 L21.6774194,5.23870968 L25.5612903,5.23870968 C26.2596633,5.23870968 26.8258065,5.80485283 26.8258065,6.50322581 L26.8258065,25.6516129 C26.8258065,26.3499859 26.2596633,26.916129 25.5612903,26.916129 L2.16774194,26.916129 C1.46936896,26.916129 0.903225806,26.3499859 0.903225806,25.6516129 L0.903225806,6.50322581 C0.903225806,5.80485283 1.46936896,5.23870968 2.16774194,5.23870968 L6.0516129,5.23870968 L6.0516129,4.78709677 C6.04019213,4.63677575 6.04019213,4.48580489 6.0516129,4.33548387 L2.16774194,4.33548387 C0.970531123,4.33548387 0,5.30601499 0,6.50322581 L0,25.6516129 C0,26.8488237 0.970531123,27.8193548 2.16774194,27.8193548 L25.6516129,27.8193548 C26.8488237,27.8193548 27.8193548,26.8488237 27.8193548,25.6516129 L27.8193548,6.50322581 C27.8193548,5.30601499 26.8488237,4.33548387 25.6516129,4.33548387" id="Path"></path>
                        <path d="M19.9612903,6.50322581 L7.85806452,6.50322581 C7.6086456,6.50322581 7.40645161,6.30103182 7.40645161,6.0516129 L7.40645161,4.78709677 C7.40645161,3.83930488 8.17478875,3.07096774 9.12258065,3.07096774 L10.0258065,3.07096774 L10.0258065,0.451612903 C10.0214097,0.233591913 10.1734282,0.0435687342 10.3870968,0 L17.3419355,0 C17.5913544,0 17.7935484,0.202193984 17.7935484,0.451612903 L17.7935484,3.07096774 L18.6967742,3.07096774 C19.6445661,3.07096774 20.4129032,3.83930488 20.4129032,4.78709677 L20.4129032,6.0516129 C20.4129032,6.30103182 20.2107092,6.50322581 19.9612903,6.50322581 M8.21935484,5.6 L19.6,5.6 L19.6,4.69677419 C19.6,4.19793635 19.195612,3.79354839 18.6967742,3.79354839 L17.3419355,3.79354839 C17.0925166,3.79354839 16.8903226,3.5913544 16.8903226,3.34193548 L16.8903226,0.903225806 L10.8387097,0.903225806 L10.8387097,3.43225806 C10.8387097,3.68167698 10.6365157,3.88387097 10.3870968,3.88387097 L9.12258065,3.88387097 C8.62374281,3.88387097 8.21935484,4.28825894 8.21935484,4.78709677 L8.21935484,5.69032258 L8.21935484,5.6 Z" id="Shape"></path>
                        <path d="M15.6258065,3.88387097 L12.1935484,3.88387097 C11.9441295,3.88387097 11.7419355,3.68167698 11.7419355,3.43225806 L11.7419355,2.8 C11.7419355,2.20139459 12.227201,1.71612903 12.8258065,1.71612903 L14.9935484,1.71612903 C15.5921538,1.71612903 16.0774194,2.20139459 16.0774194,2.8 L16.0774194,3.43225806 C16.0774194,3.68167698 15.8752254,3.88387097 15.6258065,3.88387097 M12.6451613,3.07096774 L15.2645161,3.07096774 L15.2645161,2.8 C15.2645161,2.70023243 15.1836385,2.61935484 15.083871,2.61935484 L12.8258065,2.61935484 C12.7260389,2.61935484 12.6451613,2.70023243 12.6451613,2.8 L12.6451613,3.07096774 Z" id="Shape"></path>
                        <path d="M23.3935484,14.7225806 L12.8258065,14.7225806 C12.5763875,14.7225806 12.3741935,14.5203867 12.3741935,14.2709677 C12.3741935,14.0215488 12.5763875,13.8193548 12.8258065,13.8193548 L23.3935484,13.8193548 C23.6429673,13.8193548 23.8451613,14.0215488 23.8451613,14.2709677 C23.8451613,14.5203867 23.6429673,14.7225806 23.3935484,14.7225806" id="Path"></path>
                        <path d="M19.9612903,12.283871 L12.8258065,12.283871 C12.5763875,12.283871 12.3741935,12.081677 12.3741935,11.8322581 C12.3741935,11.5828391 12.5763875,11.3806452 12.8258065,11.3806452 L19.9612903,11.3806452 C20.2107092,11.3806452 20.4129032,11.5828391 20.4129032,11.8322581 C20.4129032,12.081677 20.2107092,12.283871 19.9612903,12.283871" id="Path"></path>
                        <path d="M9.39354839,12.8258065 L9.39354839,14.1806452 L5.05806452,14.1806452 L5.05806452,10.0258065 L7.22580645,10.0258065 L7.85806452,9.12258065 L5.1483871,9.12258065 C4.59966547,9.12258065 4.15483871,9.56740741 4.15483871,10.116129 L4.15483871,14.2709677 C4.15483871,14.8196894 4.59966547,15.2645161 5.1483871,15.2645161 L9.30322581,15.2645161 C9.85194743,15.2645161 10.2967742,14.8196894 10.2967742,14.2709677 L10.2967742,11.6516129 L9.39354839,12.8258065 Z" id="Path"></path>
                        <path d="M6.77419355,13.8193548 L6.77419355,13.8193548 L6.41290323,13.5483871 L5.50967742,11.8322581 C5.40906319,11.6827353 5.40698003,11.4877066 5.50437747,11.3360689 C5.60177492,11.1844311 5.78000458,11.1052179 5.95782677,11.1345358 C6.13564895,11.1638538 6.2790166,11.2960894 6.32258065,11.4709677 L6.86451613,12.5548387 L9.03225806,9.66451613 C9.12906551,9.53543953 9.28738083,9.46781399 9.44756817,9.4871134 C9.60775551,9.50641281 9.74547861,9.60970513 9.8088585,9.75808114 C9.87223839,9.90645716 9.85164616,10.077375 9.75483871,10.2064516 L7.13548387,13.6387097 L6.77419355,13.8193548" id="Path"></path>
                        <path d="M6.77419355,22.400007 L6.77419355,22.400007 L6.41290323,22.1290392 L5.50967742,20.4129102 C5.40906319,20.2633875 5.40698003,20.0683588 5.50437747,19.916721 C5.60177492,19.7650833 5.78000458,19.6858701 5.95782677,19.715188 C6.13564895,19.7445059 6.2790166,19.8767415 6.32258065,20.0516199 L6.86451613,21.1354909 L9.03225806,18.2451683 C9.12906551,18.1160917 9.28738083,18.0484661 9.44756817,18.0677656 C9.60775551,18.087065 9.74547861,18.1903573 9.8088585,18.3387333 C9.87223839,18.4871093 9.85164616,18.6580272 9.75483871,18.7871038 L7.13548387,22.2193618 L6.77419355,22.400007" id="Path-Copy"></path>
                        <path d="M23.3935484,23.3935484 L12.8258065,23.3935484 C12.5763875,23.3935484 12.3741935,23.1913544 12.3741935,22.9419355 C12.3741935,22.6925166 12.5763875,22.4903226 12.8258065,22.4903226 L23.3935484,22.4903226 C23.6429673,22.4903226 23.8451613,22.6925166 23.8451613,22.9419355 C23.8451613,23.1913544 23.6429673,23.3935484 23.3935484,23.3935484" id="Path"></path>
                        <path d="M19.9612903,20.9548387 L12.8258065,20.9548387 C12.5763875,20.9548387 12.3741935,20.7526447 12.3741935,20.5032258 C12.3741935,20.2538069 12.5763875,20.0516129 12.8258065,20.0516129 L19.9612903,20.0516129 C20.2107092,20.0516129 20.4129032,20.2538069 20.4129032,20.5032258 C20.4129032,20.7526447 20.2107092,20.9548387 19.9612903,20.9548387" id="Path"></path>
                        <path d="M9.39354839,21.6774194 L9.39354839,23.0322581 L5.05806452,23.0322581 L5.05806452,18.8774194 L7.22580645,18.8774194 L7.85806452,17.9741935 L5.1483871,17.9741935 C4.59966547,17.9741935 4.15483871,18.4190203 4.15483871,18.9677419 L4.15483871,23.1225806 C4.15483871,23.6713023 4.59966547,24.116129 5.1483871,24.116129 L9.30322581,24.116129 C9.85194743,24.116129 10.2967742,23.6713023 10.2967742,23.1225806 L10.2967742,20.5032258 L9.39354839,21.6774194 Z" id="Path"></path>
                    </g>
                </g>
            </g>
        </g>
    </g>
</svg>
