<?xml version="1.0" encoding="UTF-8"?>
<svg width="28px" height="29px" viewBox="0 0 28 29" version="1.1" xmlns="http://www.w3.org/2000/svg" xmlns:xlink="http://www.w3.org/1999/xlink">
    <!-- Generator: Sketch 62 (91390) - https://sketch.com -->
    <title>Group 12</title>
    <desc>Created with Sketch.</desc>
    <g id="HOMEPAGE" stroke="none" stroke-width="1" fill="none" fill-rule="evenodd" stroke-linejoin="round">
        <g id="business-energy-2" transform="translate(-1039.000000, -16.000000)" stroke="#ffffff">
            <g id="Group-19-Copy-2">
                <g id="Group-12" transform="translate(1040.000000, 17.000000)">
                    <g id="icon-contract">
                        <polyline id="Path" stroke-linecap="square" points="15.1666667 22.6451613 14.7333333 27 16.4666667 26.0322581 18.2 27 17.7666667 22.6451613"></polyline>
                        <path d="M13.7648633,18.6439596 L13.7648633,18.6439596 C13.7648633,18.3921478 13.967989,18.188014 14.2185573,18.188014 C14.7819348,18.1823676 15.320193,17.9528823 15.7157475,17.5496901 C15.8921635,17.3759097 16.1745032,17.3759097 16.3509191,17.5496901 C16.7464737,17.9528823 17.2847319,18.1823676 17.8481094,18.188014 C18.0986776,18.188014 18.3018034,18.3921478 18.3018034,18.6439596 C18.3074219,19.2101329 18.5357739,19.7510624 18.936975,20.14858 C19.1098972,20.3258715 19.1098972,20.6096124 18.936975,20.7869038 C18.5357739,21.1844214 18.3074219,21.7253509 18.3018034,22.2915243 C18.3018034,22.5433361 18.0986776,22.7474699 17.8481094,22.7474699 C17.2847319,22.7531163 16.7464737,22.9826015 16.3509191,23.3857937 C16.1745032,23.5595741 15.8921635,23.5595741 15.7157475,23.3857937 C15.320193,22.9826015 14.7819348,22.7531163 14.2185573,22.7474699 C13.967989,22.7474699 13.7648633,22.5433361 13.7648633,22.2915243 C13.7592448,21.7253509 13.5308928,21.1844214 13.1296917,20.7869038 C12.9567694,20.6096124 12.9567694,20.3258715 13.1296917,20.14858 C13.5308928,19.7510624 13.7592448,19.2101329 13.7648633,18.6439596 Z" id="Path" stroke-linecap="square"></path>
                        <polyline id="Path" stroke-linecap="round" points="7.8 4.35483871 7.8 8.70967742 4.33333333 8.70967742 4.33333333 7.83870968"></polyline>
                        <polyline id="Path" stroke-linecap="round" points="3.46666667 6.96774194 6.06666667 4.35483871 8.66666667 6.96774194"></polyline>
                        <line x1="11.2666667" y1="9.14516129" x2="18.2" y2="9.14516129" id="Path" stroke-linecap="round"></line>
                        <line x1="3.46666667" y1="11.7580645" x2="18.2" y2="11.7580645" id="Path" stroke-linecap="round"></line>
                        <line x1="3.46666667" y1="14.3709677" x2="11.2666667" y2="14.3709677" id="Path" stroke-linecap="round"></line>
                        <path d="M4.3493895,21.6399437 C4.13322459,20.2766843 6.16517476,20.1114408 6.51103861,19.1612903 C6.51103861,19.1612903 7.2892323,20.8550368 6.94336844,21.6399437 C7.11630037,21.144213 8.41328984,20.6897932 8.67268773,20.8137259 C8.93208562,20.9376585 8.19712492,22.1769852 11.2666667,21.6399437" id="Path" stroke-linecap="round"></path>
                        <path d="M23.4,-3.55271368e-15 L2.6,-3.55271368e-15 C1.16405965,-3.55271368e-15 7.26529947e-13,1.16983662 7.26529947e-13,2.61290323 L7.26529947e-13,25.2580645 L12.1333333,25.2580645" id="Path" stroke-linecap="square"></path>
                        <path d="M24.2666667,3.48387097 L26,3.48387097 L26,2.17741935 C26,0.974863851 25.0299503,-3.55271368e-15 23.8333333,-3.55271368e-15 C22.6367164,-3.55271368e-15 21.6666667,0.974863851 21.6666667,2.17741935 L21.6666667,25.2580645 L20.8,25.2580645" id="Path" stroke-linecap="square"></path>
                    </g>
                </g>
            </g>
        </g>
    </g>
</svg>
