<?xml version="1.0" encoding="UTF-8"?>
<svg width="30px" height="30px" viewBox="0 0 30 30" version="1.1" xmlns="http://www.w3.org/2000/svg" xmlns:xlink="http://www.w3.org/1999/xlink">
    <!-- Generator: Sketch 62 (91390) - https://sketch.com -->
    <title>Group 4</title>
    <desc>Created with Sketch.</desc>
    <g id="HOMEPAGE" stroke="none" stroke-width="1" fill="none" fill-rule="evenodd">
        <g id="business-energy-2" transform="translate(-1331.000000, -13.000000)">
            <g id="Group-19-Copy-2">
                <g id="Group-4" transform="translate(1332.000000, 14.000000)">
                    <g id="icon-uk-coverage">
                        <circle id="Oval" stroke="#ffffff" stroke-linecap="round" stroke-linejoin="round" cx="21.9333333" cy="24.7333333" r="3.26666667"></circle>
                        <circle id="Oval" stroke="#ffffff" stroke-linecap="round" stroke-linejoin="round" cx="6.06666667" cy="24.7333333" r="3.26666667"></circle>
                        <path d="M19.6,14 L19.6,15.4 C19.6,16.1731986 20.2268014,16.8 21,16.8 L22.4,16.8" id="Path" stroke="#ffffff" stroke-linecap="round" stroke-linejoin="round"></path>
                        <path d="M25.2903226,25.2 L26.1935484,25.2 C27.1912241,25.2 28,24.3642649 28,23.3333333 L28,21.7933333 C27.9988173,20.0757586 27.4246208,18.4111204 26.3741935,17.08 L22.4903226,12.0866667 C21.1190676,10.345727 19.0626078,9.33463426 16.8903226,9.33333333 L1.80645161,9.33333333 C0.808775936,9.33333333 0,10.1690685 0,11.2 L0,23.3333333 C0,24.3642649 0.808775936,25.2 1.80645161,25.2 L3.61290323,25.2" id="Path" stroke="#ffffff" stroke-linecap="round" stroke-linejoin="round"></path>
                        <line x1="9.33333333" y1="25.2" x2="18.6666667" y2="25.2" id="Path" stroke="#ffffff" stroke-linecap="round" stroke-linejoin="round"></line>
                        <line x1="10.2666667" y1="6.53333333" x2="8.4" y2="6.53333333" id="Path" stroke="#ffffff" stroke-linecap="round" stroke-linejoin="round"></line>
                        <path d="M22.4,5.49372135 C21.8315949,4.24757061 20.333839,3.53032014 18.8300197,3.78411698 C17.3262005,4.03791381 16.239579,5.19132494 16.24,6.53333333 L12.1333333,6.53333333" id="Path" stroke="#ffffff" stroke-linecap="round" stroke-linejoin="round"></path>
                        <path d="M21.4666667,5.72496292 C21.8666363,5.55829232 22.3594377,5.55834929 22.7593334,5.72511235 C23.159229,5.89187542 23.4054244,6.19999234 23.4051282,6.53333333 L24.2666667,6.53333333" id="Path" stroke="#ffffff" stroke-linecap="round" stroke-linejoin="round"></path>
                        <path d="M11.2,1.86666667 C11.2,0.835735134 10.1553311,0 8.86666667,0 C7.57800225,0 6.53333333,0.835735134 6.53333333,1.86666667 L2.8,1.86666667" id="Path" stroke="#ffffff" stroke-linecap="round" stroke-linejoin="round"></path>
                        <path d="M9.33202167,14.9333333 L9.33202167,17.2896302 C9.34275782,17.5435934 9.2874184,17.7957551 9.17218672,18.0179402 C9.05941001,18.2224746 8.89252048,18.3864943 8.69268188,18.4891996 C8.45466938,18.6062232 8.19528258,18.6647709 7.93346589,18.6605666 C7.55867656,18.6964001 7.18571106,18.5733616 6.89453875,18.3178325 C6.64826873,18.0599728 6.51727237,17.7010508 6.53491012,17.332472 L6.53491012,14.9333333 L7.25416737,14.9333333 L7.25416737,17.161105 C7.23284203,17.3890207 7.28966049,17.6174629 7.41400232,17.8037314 C7.55067552,17.9513998 7.73972369,18.0293568 7.93346589,18.0179402 C8.12804448,18.035328 8.31936753,17.956433 8.45292947,17.8037314 C8.5772713,17.6174629 8.63408975,17.3890207 8.61276441,17.161105 L8.61276441,14.9333333 L9.33202167,14.9333333 L9.33202167,14.9333333 Z" id="Path" fill="#ffffff" fill-rule="nonzero"></path>
                        <polygon id="Path" fill="#ffffff" fill-rule="nonzero" points="13.0666667 18.6232558 12.2550725 18.6232558 11.3623188 17.0604651 11.0376812 17.3209302 11.0376812 18.6666667 10.2666667 18.6666667 10.2666667 14.9333333 11.0376812 14.9333333 11.0376812 16.6263566 11.3217391 16.1922481 12.2550725 14.9333333 13.0666667 14.9333333 11.8492754 16.5829457"></polygon>
                    </g>
                </g>
            </g>
        </g>
    </g>
</svg>
