<?xml version="1.0" encoding="UTF-8"?>
<svg width="38px" height="38px" viewBox="0 0 38 38" version="1.1" xmlns="http://www.w3.org/2000/svg" xmlns:xlink="http://www.w3.org/1999/xlink">
    <!-- Generator: Sketch 55.2 (78181) - https://sketchapp.com -->
    <title>instagram</title>
    <desc>Created with Sketch.</desc>
    <g id="Social-Icons" stroke="none" stroke-width="1" fill="none" fill-rule="evenodd">
        <g id="instagram">
            <rect id="ig_bg" fill="#141414" x="0" y="0" width="38" height="38" rx="1"></rect>
            <g id="ig_icon" transform="translate(12.000000, 12.000000)" fill="#FFFFFF" fill-rule="nonzero">
                <path d="M13.1732114,10.1962883 C13.1412588,10.9045724 13.0226465,11.2889726 12.9229155,11.545078 C12.791716,11.8839698 12.6343733,12.1255514 12.3797202,12.3802045 C12.1260355,12.6338892 11.8839698,12.7912319 11.545078,12.9233997 C11.2889726,13.0226465 10.9045724,13.1407745 10.1967724,13.1732114 C9.43136086,13.208553 9.20139859,13.2153308 7.26196882,13.2153308 C5.32302314,13.2153308 5.09354495,13.208553 4.32764932,13.1732114 C3.61984936,13.1407745 3.23544914,13.0226465 2.97885955,12.9233997 C2.63996768,12.7912319 2.39838627,12.6338892 2.14421727,12.3802045 C1.89004841,12.1255514 1.73270577,11.8839698 1.601022,11.545078 C1.50177518,11.2889726 1.38316295,10.9045724 1.35072614,10.1962883 C1.31635282,9.43087677 1.30860682,9.2009145 1.30860682,7.26196882 C1.30860682,5.32302314 1.31635282,5.09354495 1.35072614,4.32764932 C1.38316295,3.61936527 1.50177518,3.23496505 1.601022,2.97934377 C1.73270577,2.64045191 1.89004841,2.39838627 2.14421727,2.14421727 C2.39838627,1.89004841 2.63996768,1.73270577 2.97885955,1.601022 C3.23544914,1.50129095 3.61984936,1.38316295 4.32764932,1.35072614 C5.09354495,1.31586873 5.32302314,1.30860682 7.26196882,1.30860682 C9.20139859,1.30860682 9.43087677,1.31586873 10.1967724,1.35072614 C10.9045724,1.38316295 11.2889726,1.50129095 11.545078,1.601022 C11.8839698,1.73270577 12.1260355,1.89004841 12.3797202,2.14421727 C12.6343733,2.39838627 12.791716,2.64045191 12.9229155,2.97934377 C13.0226465,3.23496505 13.1412588,3.61936527 13.1732114,4.32764932 C13.2080688,5.09354495 13.2158149,5.32302314 13.2158149,7.26196882 C13.2158149,9.2009145 13.2080688,9.43087677 13.1732114,10.1962883 M14.4803658,4.26810109 C14.4450241,3.49494355 14.322539,2.96675632 14.1429263,2.50489514 C13.9570199,2.02754168 13.7086605,1.622808 13.3048951,1.2190425 C12.9011296,0.815277 12.49688,0.566917636 12.0190425,0.381495409 C11.5571813,0.201398591 11.0289941,0.0793974545 10.2563206,0.0435718636 C9.48171055,0.00823022727 9.2343195,1.77635684e-15 7.26196882,1.77635684e-15 C5.29010223,1.77635684e-15 5.04271118,0.00823022727 4.267617,0.0435718636 C3.49494355,0.0793974545 2.96724041,0.201398591 2.50537923,0.381495409 C2.02802577,0.566917636 1.622808,0.815277 1.2190425,1.2190425 C0.815277,1.622808 0.566917636,2.02754168 0.381495409,2.50489514 C0.201882682,2.96675632 0.0789133636,3.49494355 0.0440559545,4.26810109 C0.00871431818,5.04222695 -1.77635684e-15,5.289618 -1.77635684e-15,7.26196882 C-1.77635684e-15,9.2343195 0.00871431818,9.48122645 0.0440559545,10.2563206 C0.0789133636,11.0294782 0.201882682,11.5571813 0.381495409,12.0190425 C0.566917636,12.496396 0.815277,12.9016137 1.2190425,13.3053792 C1.622808,13.7091447 2.02802577,13.9575041 2.50537923,14.1424422 C2.96724041,14.3220548 3.49494355,14.4450241 4.267617,14.4803658 C5.04271118,14.5157074 5.29010223,14.5239376 7.26196882,14.5239376 C9.2343195,14.5239376 9.48171055,14.5157074 10.2563206,14.4803658 C11.0289941,14.4450241 11.5571813,14.3220548 12.0190425,14.1424422 C12.49688,13.9575041 12.9011296,13.7091447 13.3048951,13.3053792 C13.7086605,12.9016137 13.9570199,12.496396 14.1429263,12.0190425 C14.322539,11.5571813 14.4450241,11.0294782 14.4803658,10.2563206 C14.5157074,9.48122645 14.5239376,9.2343195 14.5239376,7.26196882 C14.5239376,5.289618 14.5157074,5.04222695 14.4803658,4.26810109" id="ig_border"></path>
                <path d="M7.26196882,9.68281868 C5.92528241,9.68281868 4.84131245,8.59884886 4.84131245,7.26216245 C4.84131245,5.92499195 5.92528241,4.84150623 7.26196882,4.84150623 C8.59913932,4.84150623 9.68262505,5.92499195 9.68262505,7.26216245 C9.68262505,8.59884886 8.59913932,9.68281868 7.26196882,9.68281868 L7.26196882,9.68281868 Z M7.26196882,3.53289941 C9.32146309,3.53289941 10.9912319,5.20266805 10.9912319,7.26216245 C10.9912319,9.32165686 9.32146309,10.9909414 7.26196882,10.9909414 C5.20247441,10.9909414 3.53318986,9.32165686 3.53318986,7.26216245 C3.53318986,5.20266805 5.20247441,3.53289941 7.26196882,3.53289941 Z M11.138795,2.51399673 C11.6200215,2.51399673 12.0102312,2.90469068 12.0102312,3.38591714 C12.0102312,3.8666595 11.6200215,4.25735345 11.138795,4.25735345 C10.6575686,4.25735345 10.2668746,3.8666595 10.2668746,3.38591714 C10.2668746,2.90469068 10.6575686,2.51399673 11.138795,2.51399673 Z" id="ig_inside"></path>
            </g>
        </g>
    </g>
</svg>
