<?xml version="1.0" encoding="UTF-8"?>
<svg width="38px" height="38px" viewBox="0 0 38 38" version="1.1" xmlns="http://www.w3.org/2000/svg" xmlns:xlink="http://www.w3.org/1999/xlink">
    <!-- Generator: Sketch 55.2 (78181) - https://sketchapp.com -->
    <title>linkedin</title>
    <desc>Created with Sketch.</desc>
    <g id="Social-Icons" stroke="none" stroke-width="1" fill="none" fill-rule="evenodd">
        <g id="linkedin">
            <rect id="in_bg" fill="#141414" x="0" y="0" width="38" height="38" rx="1"></rect>
            <g id="in_icon" transform="translate(11.000000, 12.000000)" fill="#FFFFFE" fill-rule="nonzero">
                <path d="M1.70714094,0 C2.6481564,0 3.41290373,0.764747325 3.41290373,1.70617623 C3.41290373,2.64829422 2.6481564,3.41331717 1.70714094,3.41331717 C0.763644788,3.41331717 0,2.64829422 0,1.70617623 C0,0.764747325 0.763644788,0 1.70714094,0 Z M0.234702594,14.1789033 L3.17833895,14.1789033 L3.17833895,4.70797142 L0.234702594,4.70797142 L0.234702594,14.1789033 Z" id="in_i"></path>
                <path d="M8.82373543,4.73566731 L8.82373543,6.02963247 L8.8628755,6.02963247 C9.25565436,5.28514427 10.2158264,4.5 11.6478843,4.5 C14.6285935,4.5 15.1788973,6.4615514 15.1788973,9.01158198 L15.1788973,14.2065992 L12.2373282,14.2065992 L12.2373282,9.60088809 C12.2373282,8.502072 12.2172069,7.0894463 10.7078336,7.0894463 C9.17599605,7.0894463 8.94143127,8.28597473 8.94143127,9.5213676 L8.94143127,14.2065992 L6,14.2065992 L6,4.73566731 L8.82373543,4.73566731 Z" id="in_n"></path>
            </g>
        </g>
    </g>
</svg>
