<?xml version="1.0" encoding="UTF-8"?>
<svg width="182px" height="51px" viewBox="0 0 182 51" version="1.1" xmlns="http://www.w3.org/2000/svg" xmlns:xlink="http://www.w3.org/1999/xlink">
    <!-- Generator: Sketch 62 (91390) - https://sketch.com -->
    <title>Logo</title>
    <desc>Created with Sketch.</desc>
    <g id="HOMEPAGE" stroke="none" stroke-width="1" fill="none" fill-rule="evenodd">
        <g id="Desktop1" transform="translate(-44.000000, -33.000000)" fill-rule="nonzero">
            <g id="Logo" transform="translate(44.000000, 33.000000)">
                <g id="Bu£iness" transform="translate(1.920000, 0.160000)">
                    <path d="M13.44,28.84 C16.64,28.84 19.04,28.22 20.64,26.98 C22.24,25.74 23.04,23.9866667 23.04,21.72 C23.04,20.12 22.54,18.7533333 21.54,17.62 C20.54,16.4866667 19.0266667,15.7866667 17,15.52 L17,15.52 L17,15.48 C18.8133333,15.1866667 20.16,14.5 21.04,13.42 C21.92,12.34 22.36,11.0533333 22.36,9.56 C22.36,7.26666667 21.5866667,5.51333333 20.04,4.3 C18.4933333,3.08666667 16.0933333,2.46666667 12.84,2.44 L12.84,2.44 L-1.91846539e-13,2.44 L-1.91846539e-13,28.84 L13.44,28.84 Z M11.64,13.24 L6.64,13.24 L6.64,7.48 L11.64,7.48 C14.0933333,7.48 15.32,8.44 15.32,10.36 C15.32,12.28 14.0933333,13.24 11.64,13.24 L11.64,13.24 Z M12.28,24 L6.64,24 L6.64,18.16 L12.28,18.16 C13.5333333,18.16 14.4666667,18.4066667 15.08,18.9 C15.6933333,19.3933333 16,20.1066667 16,21.04 C16,22 15.6933333,22.7333333 15.08,23.24 C14.4666667,23.7466667 13.5333333,24 12.28,24 L12.28,24 Z M34.3066667,29.24 C35.9333333,29.24 37.32,28.9 38.4666667,28.22 C39.6133333,27.54 40.5066667,26.4933333 41.1466667,25.08 L41.1466667,25.08 L41.3466667,28.84 L47.4266667,28.84 L47.4266667,8.84 L40.6266667,8.84 L40.6266667,19.56 C40.6266667,20.3333333 40.54,21.0066667 40.3666667,21.58 C40.1933333,22.1533333 39.9466667,22.62 39.6266667,22.98 C39.3066667,23.34 38.9333333,23.6066667 38.5066667,23.78 C38.08,23.9533333 37.6266667,24.04 37.1466667,24.04 C36.2133333,24.04 35.4933333,23.7866667 34.9866667,23.28 C34.48,22.7733333 34.2266667,21.88 34.2266667,20.6 L34.2266667,20.6 L34.2266667,8.84 L27.4266667,8.84 L27.4266667,22.2 C27.4266667,23.88 27.72,25.24 28.3066667,26.28 C28.8933333,27.32 29.7,28.0733333 30.7266667,28.54 C31.7533333,29.0066667 32.9466667,29.24 34.3066667,29.24 Z" id="Bu" fill="#FFFFFF"></path>
                    <path d="M68.6933333,29.24 C69.9466667,29.24 71.0333333,28.9266667 71.9533333,28.3 C72.8733333,27.6733333 73.5466667,26.8066667 73.9733333,25.7 C74.4,24.5933333 74.5333333,23.2933333 74.3733333,21.8 L74.3733333,21.8 L70.0533333,21.32 C70.08,22.4666667 69.88,23.3066667 69.4533333,23.84 C69.0266667,24.3733333 68.36,24.64 67.4533333,24.64 C66.7066667,24.64 66.0466667,24.5466667 65.4733333,24.36 C64.9,24.1733333 64.3466667,23.9333333 63.8133333,23.64 L63.8133333,23.64 L63.643,23.549 L63.6611458,23.4840625 C63.8623958,22.7303125 63.9773958,21.9653125 64.0061458,21.1890625 L64.0133333,20.8 C64.0133333,19.8133333 63.8333333,18.78 63.4733333,17.7 L63.579,18.04 L69.8533333,18.04 L69.8533333,14.92 L62.271,14.92 L62.0533333,14.52 C61.7333333,13.88 61.4623129,13.3281633 61.2402721,12.8644898 L61.1333333,12.64 C60.8933333,12.1333333 60.72,11.6866667 60.6133333,11.3 C60.5066667,10.9133333 60.4533333,10.5333333 60.4533333,10.16 C60.4533333,9.14666667 60.78,8.36 61.4333333,7.8 C62.0866667,7.24 62.92,6.96 63.9333333,6.96 C65.0266667,6.96 65.8866667,7.3 66.5133333,7.98 C67.14,8.66 67.6133333,9.72 67.9333333,11.16 L67.9333333,11.16 L73.4133333,9.04 C72.9066667,6.69333333 71.8733333,4.94 70.3133333,3.78 C68.7533333,2.62 66.72,2.04 64.2133333,2.04 C62.2666667,2.04 60.58,2.38 59.1533333,3.06 C57.7266667,3.74 56.6266667,4.66666667 55.8533333,5.84 C55.08,7.01333333 54.6933333,8.33333333 54.6933333,9.8 C54.6933333,10.44 54.76,11.0666667 54.8933333,11.68 C55.0266667,12.2933333 55.2533333,12.9266667 55.5733333,13.58 C55.7333333,13.9066667 55.92,14.2616667 56.1333333,14.645 L56.288,14.92 L52.6133333,14.92 L52.6133333,18.04 L58.16,18.04 L58.2417631,18.1905785 C58.3984573,18.4871074 58.5373003,18.7692562 58.658292,19.0370248 L58.7733333,19.3 C59.0844444,20.0362963 59.2745679,20.8330864 59.3437037,21.6903704 L59.36,21.978 L59.2433333,21.9575 C58.6766667,21.87 58.0475,21.8189583 57.3558333,21.804375 L56.9333333,21.8 C55.9733333,21.8 55.1066667,21.9466667 54.3333333,22.24 C53.56,22.5333333 52.9466667,22.9533333 52.4933333,23.5 C52.04,24.0466667 51.8133333,24.72 51.8133333,25.52 C51.8133333,26.72 52.2733333,27.64 53.1933333,28.28 C54.1133333,28.92 55.2533333,29.24 56.6133333,29.24 C57.8666667,29.24 58.9533333,29 59.8733333,28.52 C60.7933333,28.04 61.56,27.3933333 62.1733333,26.58 L62.064,26.717 L62.5888889,27.0777778 L62.5888889,27.0777778 L63.3133333,27.56 C64.0466667,28.04 64.8466667,28.44 65.7133333,28.76 C66.58,29.08 67.5733333,29.24 68.6933333,29.24 Z M56.7733333,26.68 C56.32,26.68 55.94,26.58 55.6333333,26.38 C55.3266667,26.18 55.1733333,25.8933333 55.1733333,25.52 C55.1733333,25.1466667 55.3133333,24.8666667 55.5933333,24.68 C55.8733333,24.4933333 56.28,24.4 56.8133333,24.4 C57.64,24.4 58.4066667,24.56 59.1133333,24.88 L59.1133333,24.88 L59.121,24.884 L59.1002469,24.9674074 C58.9665844,25.4375309 58.7643621,25.8108642 58.4935802,26.0874074 L58.3733333,26.2 C58,26.52 57.4666667,26.68 56.7733333,26.68 Z" id="£" fill="#33AA26"></path>
                    <path d="M81.88,6.52 C83.24,6.52 84.24,6.26 84.88,5.74 C85.52,5.22 85.84,4.4 85.84,3.28 C85.84,2.13333333 85.52,1.3 84.88,0.78 C84.24,0.26 83.24,3.55271368e-15 81.88,3.55271368e-15 C80.4933333,3.55271368e-15 79.4866667,0.26 78.86,0.78 C78.2333333,1.3 77.92,2.13333333 77.92,3.28 C77.92,4.4 78.2333333,5.22 78.86,5.74 C79.4866667,6.26 80.4933333,6.52 81.88,6.52 Z M85.28,28.84 L85.28,8.84 L78.48,8.84 L78.48,28.84 L85.28,28.84 Z M97.5866667,28.84 L97.5866667,18.24 C97.5866667,17.12 97.7466667,16.2266667 98.0666667,15.56 C98.3866667,14.8933333 98.8266667,14.4066667 99.3866667,14.1 C99.9466667,13.7933333 100.546667,13.64 101.186667,13.64 C102.013333,13.64 102.693333,13.9066667 103.226667,14.44 C103.76,14.9733333 104.026667,15.9333333 104.026667,17.32 L104.026667,17.32 L104.026667,28.84 L110.826667,28.84 L110.826667,15.52 C110.826667,13.9466667 110.533333,12.64 109.946667,11.6 C109.36,10.56 108.553333,9.77333333 107.526667,9.24 C106.5,8.70666667 105.293333,8.44 103.906667,8.44 C102.626667,8.44 101.473333,8.68666667 100.446667,9.18 C99.42,9.67333333 98.5666667,10.4 97.8866667,11.36 C97.5775758,11.7963636 97.3111846,12.282314 97.0874931,12.8178512 L97.076,12.847 L96.8666667,8.84 L90.7866667,8.84 L90.7866667,28.84 L97.5866667,28.84 Z M126.013333,29.24 C127.4,29.24 128.726667,29.04 129.993333,28.64 C131.26,28.24 132.353333,27.6466667 133.273333,26.86 C134.193333,26.0733333 134.84,25.1066667 135.213333,23.96 L135.213333,23.96 L129.773333,22.16 C129.48,22.88 129.033333,23.44 128.433333,23.84 C127.833333,24.24 127.026667,24.44 126.013333,24.44 C125.106667,24.44 124.333333,24.26 123.693333,23.9 C123.053333,23.54 122.56,22.9533333 122.213333,22.14 C122.024242,21.6963636 121.886722,21.1793388 121.800771,20.5889256 L121.796,20.56 L135.453333,20.56 C135.496,20.304 135.530133,19.9968 135.555733,19.6384 L135.573333,19.36 C135.6,18.88 135.613333,18.4 135.613333,17.92 C135.613333,16.08 135.226667,14.4466667 134.453333,13.02 C133.68,11.5933333 132.553333,10.4733333 131.073333,9.66 C129.593333,8.84666667 127.8,8.44 125.693333,8.44 C123.64,8.44 121.82,8.85333333 120.233333,9.68 C118.646667,10.5066667 117.413333,11.6933333 116.533333,13.24 C115.653333,14.7866667 115.213333,16.6533333 115.213333,18.84 C115.213333,21.0266667 115.653333,22.8933333 116.533333,24.44 C117.413333,25.9866667 118.66,27.1733333 120.273333,28 C121.886667,28.8266667 123.8,29.24 126.013333,29.24 Z M129.147,16.92 L121.842,16.92 L121.858933,16.8192 C121.914133,16.5056 121.983133,16.2136 122.065933,15.9432 L122.153333,15.68 C122.46,14.8266667 122.913333,14.2 123.513333,13.8 C124.113333,13.4 124.84,13.2 125.693333,13.2 C126.893333,13.2 127.78,13.6266667 128.353333,14.48 C128.762857,15.0895238 129.026122,15.8895238 129.143129,16.88 L129.147,16.92 Z M148.48,29.24 C150.586667,29.24 152.333333,28.94 153.72,28.34 C155.106667,27.74 156.146667,26.92 156.84,25.88 C157.533333,24.84 157.88,23.6666667 157.88,22.36 C157.88,20.9733333 157.426667,19.7866667 156.52,18.8 C155.613333,17.8133333 154.133333,17.1333333 152.08,16.76 L152.08,16.76 L148.44,16.04 C147.533333,15.8533333 146.913333,15.6333333 146.58,15.38 C146.246667,15.1266667 146.08,14.8266667 146.08,14.48 C146.08,14.16 146.186667,13.8933333 146.4,13.68 C146.613333,13.4666667 146.94,13.3 147.38,13.18 C147.82,13.06 148.36,13 149,13 C150.013333,13 151.026667,13.2266667 152.04,13.68 C153.053333,14.1333333 153.88,14.76 154.52,15.56 L154.52,15.56 L157.76,11.88 C156.853333,10.76 155.626667,9.90666667 154.08,9.32 C152.533333,8.73333333 150.746667,8.44 148.72,8.44 C146.56,8.44 144.786667,8.75333333 143.4,9.38 C142.013333,10.0066667 140.986667,10.82 140.32,11.82 C139.653333,12.82 139.32,13.8666667 139.32,14.96 C139.32,16.5866667 139.846667,17.9 140.9,18.9 C141.953333,19.9 143.733333,20.6533333 146.24,21.16 L146.24,21.16 L149.04,21.72 C149.84,21.88 150.373333,22.0733333 150.64,22.3 C150.906667,22.5266667 151.04,22.8266667 151.04,23.2 C151.04,23.7066667 150.773333,24.08 150.24,24.32 C149.706667,24.56 149.026667,24.68 148.2,24.68 C146.84,24.68 145.606667,24.3933333 144.5,23.82 C143.393333,23.2466667 142.506667,22.5333333 141.84,21.68 L141.84,21.68 L138.64,25.44 C139.76,26.6666667 141.18,27.6066667 142.9,28.26 C144.62,28.9133333 146.48,29.24 148.48,29.24 Z M170.466667,29.24 C172.573333,29.24 174.32,28.94 175.706667,28.34 C177.093333,27.74 178.133333,26.92 178.826667,25.88 C179.52,24.84 179.866667,23.6666667 179.866667,22.36 C179.866667,20.9733333 179.413333,19.7866667 178.506667,18.8 C177.6,17.8133333 176.12,17.1333333 174.066667,16.76 L174.066667,16.76 L170.426667,16.04 C169.52,15.8533333 168.9,15.6333333 168.566667,15.38 C168.233333,15.1266667 168.066667,14.8266667 168.066667,14.48 C168.066667,14.16 168.173333,13.8933333 168.386667,13.68 C168.6,13.4666667 168.926667,13.3 169.366667,13.18 C169.806667,13.06 170.346667,13 170.986667,13 C172,13 173.013333,13.2266667 174.026667,13.68 C175.04,14.1333333 175.866667,14.76 176.506667,15.56 L176.506667,15.56 L179.746667,11.88 C178.84,10.76 177.613333,9.90666667 176.066667,9.32 C174.52,8.73333333 172.733333,8.44 170.706667,8.44 C168.546667,8.44 166.773333,8.75333333 165.386667,9.38 C164,10.0066667 162.973333,10.82 162.306667,11.82 C161.64,12.82 161.306667,13.8666667 161.306667,14.96 C161.306667,16.5866667 161.833333,17.9 162.886667,18.9 C163.94,19.9 165.72,20.6533333 168.226667,21.16 L168.226667,21.16 L171.026667,21.72 C171.826667,21.88 172.36,22.0733333 172.626667,22.3 C172.893333,22.5266667 173.026667,22.8266667 173.026667,23.2 C173.026667,23.7066667 172.76,24.08 172.226667,24.32 C171.693333,24.56 171.013333,24.68 170.186667,24.68 C168.826667,24.68 167.593333,24.3933333 166.486667,23.82 C165.38,23.2466667 164.493333,22.5333333 163.826667,21.68 L163.826667,21.68 L160.626667,25.44 C161.746667,26.6666667 163.166667,27.6066667 164.886667,28.26 C166.606667,28.9133333 168.466667,29.24 170.466667,29.24 Z" id="iness" fill="#FFFFFF"></path>
                </g>
                <path d="M5.58,50.15 C6.23,50.15 6.825,50.045 7.365,49.835 C7.905,49.625 8.375,49.3125 8.775,48.8975 C9.175,48.4825 9.475,47.975 9.675,47.375 L9.675,47.375 L8.145,46.865 C7.955,47.495 7.6375,47.9675 7.1925,48.2825 C6.7475,48.5975 6.22,48.755 5.61,48.755 C4.98,48.755 4.44,48.61 3.99,48.32 C3.54,48.03 3.195,47.6075 2.955,47.0525 C2.715,46.4975 2.595,45.83 2.595,45.05 C2.595,44.26 2.7225,43.59 2.9775,43.04 C3.2325,42.49 3.59,42.07 4.05,41.78 C4.51,41.49 5.045,41.345 5.655,41.345 C6.265,41.345 6.76,41.4825 7.14,41.7575 C7.52,42.0325 7.81,42.465 8.01,43.055 L8.01,43.055 L9.525,42.38 C9.325,41.84 9.04,41.39 8.67,41.03 C8.3,40.67 7.8525,40.4 7.3275,40.22 C6.8025,40.04 6.215,39.95 5.565,39.95 C4.625,39.95 3.805,40.155 3.105,40.565 C2.405,40.975 1.865,41.56 1.485,42.32 C1.105,43.08 0.915,43.99 0.915,45.05 C0.915,46.11 1.105,47.02 1.485,47.78 C1.865,48.54 2.405,49.125 3.105,49.535 C3.805,49.945 4.63,50.15 5.58,50.15 Z M18.515,50.15 C19.475,50.15 20.305,49.945 21.005,49.535 C21.705,49.125 22.245,48.54 22.625,47.78 C23.005,47.02 23.195,46.11 23.195,45.05 C23.195,43.99 23.005,43.08 22.625,42.32 C22.245,41.56 21.705,40.975 21.005,40.565 C20.305,40.155 19.475,39.95 18.515,39.95 C17.565,39.95 16.74,40.155 16.04,40.565 C15.34,40.975 14.8,41.56 14.42,42.32 C14.04,43.08 13.85,43.99 13.85,45.05 C13.85,46.11 14.04,47.02 14.42,47.78 C14.8,48.54 15.34,49.125 16.04,49.535 C16.74,49.945 17.565,50.15 18.515,50.15 Z M18.515,48.755 C17.895,48.755 17.3625,48.61 16.9175,48.32 C16.4725,48.03 16.13,47.6075 15.89,47.0525 C15.65,46.4975 15.53,45.83 15.53,45.05 C15.53,44.26 15.65,43.59 15.89,43.04 C16.13,42.49 16.4725,42.07 16.9175,41.78 C17.3625,41.49 17.895,41.345 18.515,41.345 C19.145,41.345 19.6825,41.49 20.1275,41.78 C20.5725,42.07 20.915,42.49 21.155,43.04 C21.395,43.59 21.515,44.26 21.515,45.05 C21.515,45.83 21.395,46.4975 21.155,47.0525 C20.915,47.6075 20.5725,48.03 20.1275,48.32 C19.6825,48.61 19.145,48.755 18.515,48.755 Z M31.675,50.15 C32.465,50.15 33.1525,50.03 33.7375,49.79 C34.3225,49.55 34.78,49.205 35.11,48.755 C35.44,48.305 35.605,47.775 35.605,47.165 C35.605,46.505 35.405,45.96 35.005,45.53 C34.605,45.1 33.925,44.78 32.965,44.57 L32.965,44.57 L30.955,44.12 C30.365,43.99 29.9625,43.81 29.7475,43.58 C29.5325,43.35 29.425,43.08 29.425,42.77 C29.425,42.5 29.4975,42.2575 29.6425,42.0425 C29.7875,41.8275 30.015,41.655 30.325,41.525 C30.635,41.395 31.03,41.33 31.51,41.33 C32.16,41.33 32.7225,41.4575 33.1975,41.7125 C33.6725,41.9675 34.1,42.385 34.48,42.965 L34.48,42.965 L35.56,41.93 C35.11,41.28 34.56,40.7875 33.91,40.4525 C33.26,40.1175 32.49,39.95 31.6,39.95 C30.8,39.95 30.11,40.0875 29.53,40.3625 C28.95,40.6375 28.5075,41.0025 28.2025,41.4575 C27.8975,41.9125 27.745,42.42 27.745,42.98 C27.745,43.41 27.84,43.7975 28.03,44.1425 C28.22,44.4875 28.51,44.78 28.9,45.02 C29.29,45.26 29.785,45.445 30.385,45.575 L30.385,45.575 L32.56,46.07 C33.09,46.19 33.4525,46.36 33.6475,46.58 C33.8425,46.8 33.94,47.055 33.94,47.345 C33.94,47.645 33.8525,47.9025 33.6775,48.1175 C33.5025,48.3325 33.2475,48.495 32.9125,48.605 C32.5775,48.715 32.18,48.77 31.72,48.77 C31.2,48.77 30.7275,48.695 30.3025,48.545 C29.8775,48.395 29.505,48.1825 29.185,47.9075 C28.865,47.6325 28.6,47.32 28.39,46.97 L28.39,46.97 L27.28,48.08 C27.55,48.48 27.895,48.835 28.315,49.145 C28.735,49.455 29.225,49.7 29.785,49.88 C30.345,50.06 30.975,50.15 31.675,50.15 Z M44.13,50 L44.13,41.48 L47.52,41.48 L47.52,40.1 L39.135,40.1 L39.135,41.48 L42.525,41.48 L42.525,50 L44.13,50 Z M63.415,50.15 C64.065,50.15 64.66,50.045 65.2,49.835 C65.74,49.625 66.21,49.3125 66.61,48.8975 C67.01,48.4825 67.31,47.975 67.51,47.375 L67.51,47.375 L65.98,46.865 C65.79,47.495 65.4725,47.9675 65.0275,48.2825 C64.5825,48.5975 64.055,48.755 63.445,48.755 C62.815,48.755 62.275,48.61 61.825,48.32 C61.375,48.03 61.03,47.6075 60.79,47.0525 C60.55,46.4975 60.43,45.83 60.43,45.05 C60.43,44.26 60.5575,43.59 60.8125,43.04 C61.0675,42.49 61.425,42.07 61.885,41.78 C62.345,41.49 62.88,41.345 63.49,41.345 C64.1,41.345 64.595,41.4825 64.975,41.7575 C65.355,42.0325 65.645,42.465 65.845,43.055 L65.845,43.055 L67.36,42.38 C67.16,41.84 66.875,41.39 66.505,41.03 C66.135,40.67 65.6875,40.4 65.1625,40.22 C64.6375,40.04 64.05,39.95 63.4,39.95 C62.46,39.95 61.64,40.155 60.94,40.565 C60.24,40.975 59.7,41.56 59.32,42.32 C58.94,43.08 58.75,43.99 58.75,45.05 C58.75,46.11 58.94,47.02 59.32,47.78 C59.7,48.54 60.24,49.125 60.94,49.535 C61.64,49.945 62.465,50.15 63.415,50.15 Z M76.35,50.15 C77.31,50.15 78.14,49.945 78.84,49.535 C79.54,49.125 80.08,48.54 80.46,47.78 C80.84,47.02 81.03,46.11 81.03,45.05 C81.03,43.99 80.84,43.08 80.46,42.32 C80.08,41.56 79.54,40.975 78.84,40.565 C78.14,40.155 77.31,39.95 76.35,39.95 C75.4,39.95 74.575,40.155 73.875,40.565 C73.175,40.975 72.635,41.56 72.255,42.32 C71.875,43.08 71.685,43.99 71.685,45.05 C71.685,46.11 71.875,47.02 72.255,47.78 C72.635,48.54 73.175,49.125 73.875,49.535 C74.575,49.945 75.4,50.15 76.35,50.15 Z M76.35,48.755 C75.73,48.755 75.1975,48.61 74.7525,48.32 C74.3075,48.03 73.965,47.6075 73.725,47.0525 C73.485,46.4975 73.365,45.83 73.365,45.05 C73.365,44.26 73.485,43.59 73.725,43.04 C73.965,42.49 74.3075,42.07 74.7525,41.78 C75.1975,41.49 75.73,41.345 76.35,41.345 C76.98,41.345 77.5175,41.49 77.9625,41.78 C78.4075,42.07 78.75,42.49 78.99,43.04 C79.23,43.59 79.35,44.26 79.35,45.05 C79.35,45.83 79.23,46.4975 78.99,47.0525 C78.75,47.6075 78.4075,48.03 77.9625,48.32 C77.5175,48.61 76.98,48.755 76.35,48.755 Z M87.575,50 L87.575,44.27 L87.455,41.54 L87.47,41.54 L90.485,50 L91.82,50 L94.835,41.54 L94.85,41.54 L94.73,44.27 L94.73,50 L96.215,50 L96.215,40.1 L93.875,40.1 L91.895,45.83 L91.19,48.185 L91.16,48.185 L90.47,45.83 L88.475,40.1 L86.09,40.1 L86.09,50 L87.575,50 Z M103.435,50 L103.435,46.31 L105.64,46.31 C106.35,46.31 106.9625,46.185 107.4775,45.935 C107.9925,45.685 108.395,45.3275 108.685,44.8625 C108.975,44.3975 109.12,43.845 109.12,43.205 C109.12,42.555 108.975,42 108.685,41.54 C108.395,41.08 107.9925,40.725 107.4775,40.475 C106.9625,40.225 106.35,40.1 105.64,40.1 L105.64,40.1 L101.83,40.1 L101.83,50 L103.435,50 Z M105.385,44.93 L103.435,44.93 L103.435,41.465 L105.385,41.465 C106.095,41.465 106.6175,41.6125 106.9525,41.9075 C107.2875,42.2025 107.455,42.635 107.455,43.205 C107.455,43.765 107.2875,44.1925 106.9525,44.4875 C106.6175,44.7825 106.095,44.93 105.385,44.93 L105.385,44.93 Z M113.58,50 L114.521,47.405 L118.689,47.405 L119.625,50 L121.32,50 L117.585,40.1 L115.665,40.1 L111.93,50 L113.58,50 Z M118.219,46.1 L114.994,46.1 L116.16,42.89 L116.58,41.495 L116.625,41.495 L117.075,42.92 L118.219,46.1 Z M127.34,50 L127.34,46.04 L129.468,46.04 L131.99,50 L133.835,50 L131.1,45.791 L131.211875,45.760625 C131.562917,45.6554167 131.876198,45.5063715 132.151719,45.3134896 L132.3125,45.1925 C132.9375,44.6875 133.25,43.97 133.25,43.04 C133.25,42.14 132.9375,41.425 132.3125,40.895 C131.6875,40.365 130.845,40.1 129.785,40.1 L129.785,40.1 L125.75,40.1 L125.75,50 L127.34,50 Z M129.665,44.705 L127.34,44.705 L127.34,41.465 L129.665,41.465 C130.315,41.465 130.7975,41.6 131.1125,41.87 C131.4275,42.14 131.585,42.545 131.585,43.085 C131.585,43.635 131.4275,44.0425 131.1125,44.3075 C130.7975,44.5725 130.315,44.705 129.665,44.705 L129.665,44.705 Z M140.11,50 L140.11,40.1 L138.505,40.1 L138.505,50 L140.11,50 Z M149.175,50.15 C149.965,50.15 150.6525,50.03 151.2375,49.79 C151.8225,49.55 152.28,49.205 152.61,48.755 C152.94,48.305 153.105,47.775 153.105,47.165 C153.105,46.505 152.905,45.96 152.505,45.53 C152.105,45.1 151.425,44.78 150.465,44.57 L150.465,44.57 L148.455,44.12 C147.865,43.99 147.4625,43.81 147.2475,43.58 C147.0325,43.35 146.925,43.08 146.925,42.77 C146.925,42.5 146.9975,42.2575 147.1425,42.0425 C147.2875,41.8275 147.515,41.655 147.825,41.525 C148.135,41.395 148.53,41.33 149.01,41.33 C149.66,41.33 150.2225,41.4575 150.6975,41.7125 C151.1725,41.9675 151.6,42.385 151.98,42.965 L151.98,42.965 L153.06,41.93 C152.61,41.28 152.06,40.7875 151.41,40.4525 C150.76,40.1175 149.99,39.95 149.1,39.95 C148.3,39.95 147.61,40.0875 147.03,40.3625 C146.45,40.6375 146.0075,41.0025 145.7025,41.4575 C145.3975,41.9125 145.245,42.42 145.245,42.98 C145.245,43.41 145.34,43.7975 145.53,44.1425 C145.72,44.4875 146.01,44.78 146.4,45.02 C146.79,45.26 147.285,45.445 147.885,45.575 L147.885,45.575 L150.06,46.07 C150.59,46.19 150.9525,46.36 151.1475,46.58 C151.3425,46.8 151.44,47.055 151.44,47.345 C151.44,47.645 151.3525,47.9025 151.1775,48.1175 C151.0025,48.3325 150.7475,48.495 150.4125,48.605 C150.0775,48.715 149.68,48.77 149.22,48.77 C148.7,48.77 148.2275,48.695 147.8025,48.545 C147.3775,48.395 147.005,48.1825 146.685,47.9075 C146.365,47.6325 146.1,47.32 145.89,46.97 L145.89,46.97 L144.78,48.08 C145.05,48.48 145.395,48.835 145.815,49.145 C146.235,49.455 146.725,49.7 147.285,49.88 C147.845,50.06 148.475,50.15 149.175,50.15 Z M162.14,50.15 C163.1,50.15 163.93,49.945 164.63,49.535 C165.33,49.125 165.87,48.54 166.25,47.78 C166.63,47.02 166.82,46.11 166.82,45.05 C166.82,43.99 166.63,43.08 166.25,42.32 C165.87,41.56 165.33,40.975 164.63,40.565 C163.93,40.155 163.1,39.95 162.14,39.95 C161.19,39.95 160.365,40.155 159.665,40.565 C158.965,40.975 158.425,41.56 158.045,42.32 C157.665,43.08 157.475,43.99 157.475,45.05 C157.475,46.11 157.665,47.02 158.045,47.78 C158.425,48.54 158.965,49.125 159.665,49.535 C160.365,49.945 161.19,50.15 162.14,50.15 Z M162.14,48.755 C161.52,48.755 160.9875,48.61 160.5425,48.32 C160.0975,48.03 159.755,47.6075 159.515,47.0525 C159.275,46.4975 159.155,45.83 159.155,45.05 C159.155,44.26 159.275,43.59 159.515,43.04 C159.755,42.49 160.0975,42.07 160.5425,41.78 C160.9875,41.49 161.52,41.345 162.14,41.345 C162.77,41.345 163.3075,41.49 163.7525,41.78 C164.1975,42.07 164.54,42.49 164.78,43.04 C165.02,43.59 165.14,44.26 165.14,45.05 C165.14,45.83 165.02,46.4975 164.78,47.0525 C164.54,47.6075 164.1975,48.03 163.7525,48.32 C163.3075,48.61 162.77,48.755 162.14,48.755 Z M173.35,50 L173.35,43.61 L173.29,42.005 L173.305,42.005 L174.265,43.76 L178.09,50 L179.995,50 L179.995,40.1 L178.51,40.1 L178.51,46.49 L178.57,48.11 L178.555,48.11 L177.58,46.325 L173.77,40.1 L171.88,40.1 L171.88,50 L173.35,50 Z" id="COSTCOMPARISON" fill="#FFFFFF"></path>
            </g>
        </g>
    </g>
</svg>