<?xml version="1.0" encoding="UTF-8"?>
<svg width="136px" height="39px" viewBox="0 0 136 39" version="1.1" xmlns="http://www.w3.org/2000/svg" xmlns:xlink="http://www.w3.org/1999/xlink">
    <!-- Generator: Sketch 62 (91390) - https://sketch.com -->
    <title>logo-color</title>
    <desc>Created with Sketch.</desc>
    <g id="HOMEPAGE" stroke="none" stroke-width="1" fill="none" fill-rule="evenodd">
        <g id="Desktop1" transform="translate(-736.000000, -2246.000000)" fill-rule="nonzero">
            <g id="Group-25" transform="translate(468.000000, 1968.000000)">
                <g id="logo-color" transform="translate(268.000000, 278.000000)">
                    <g id="Bu£iness" transform="translate(0.190000, 0.370000)">
                        <path d="M10.08,21.63 C12.48,21.63 14.28,21.165 15.48,20.235 C16.68,19.305 17.28,17.99 17.28,16.29 C17.28,15.09 16.905,14.065 16.155,13.215 C15.405,12.365 14.27,11.84 12.75,11.64 L12.75,11.64 L12.75,11.61 C14.11,11.39 15.12,10.875 15.78,10.065 C16.44,9.255 16.77,8.29 16.77,7.17 C16.77,5.45 16.19,4.135 15.03,3.225 C13.87,2.315 12.07,1.85 9.63,1.83 L9.63,1.83 L-1.45661261e-13,1.83 L-1.45661261e-13,21.63 L10.08,21.63 Z M8.73,9.93 L4.98,9.93 L4.98,5.61 L8.73,5.61 C10.57,5.61 11.49,6.33 11.49,7.77 C11.49,9.21 10.57,9.93 8.73,9.93 L8.73,9.93 Z M9.21,18 L4.98,18 L4.98,13.62 L9.21,13.62 C10.15,13.62 10.85,13.805 11.31,14.175 C11.77,14.545 12,15.08 12,15.78 C12,16.5 11.77,17.05 11.31,17.43 C10.85,17.81 10.15,18 9.21,18 L9.21,18 Z M25.73,21.93 C26.95,21.93 27.99,21.675 28.85,21.165 C29.71,20.655 30.38,19.87 30.86,18.81 L30.86,18.81 L31.01,21.63 L35.57,21.63 L35.57,6.63 L30.47,6.63 L30.47,14.67 C30.47,15.25 30.405,15.755 30.275,16.185 C30.145,16.615 29.96,16.965 29.72,17.235 C29.48,17.505 29.2,17.705 28.88,17.835 C28.56,17.965 28.22,18.03 27.86,18.03 C27.16,18.03 26.62,17.84 26.24,17.46 C25.86,17.08 25.67,16.41 25.67,15.45 L25.67,15.45 L25.67,6.63 L20.57,6.63 L20.57,16.65 C20.57,17.91 20.79,18.93 21.23,19.71 C21.67,20.49 22.275,21.055 23.045,21.405 C23.815,21.755 24.71,21.93 25.73,21.93 Z" id="Bu" fill="#1C2698"></path>
                        <path d="M51.52,21.93 C52.46,21.93 53.275,21.695 53.965,21.225 C54.655,20.755 55.16,20.105 55.48,19.275 C55.8,18.445 55.9,17.47 55.78,16.35 L55.78,16.35 L52.54,15.99 C52.56,16.85 52.41,17.48 52.09,17.88 C51.77,18.28 51.27,18.48 50.59,18.48 C50.03,18.48 49.535,18.41 49.105,18.27 C48.675,18.13 48.26,17.95 47.86,17.73 L47.86,17.73 L47.731,17.661 L47.7565306,17.5726531 C47.8973469,17.0338776 47.9794898,16.487449 48.0029592,15.9333673 L48.01,15.6 C48.01,14.86 47.875,14.085 47.605,13.275 L47.684,13.53 L52.39,13.53 L52.39,11.19 L46.702,11.191 L46.54,10.89 C46.3066667,10.4233333 46.1080556,10.0191667 45.9441667,9.6775 L45.85,9.48 C45.67,9.1 45.54,8.765 45.46,8.475 C45.38,8.185 45.34,7.9 45.34,7.62 C45.34,6.86 45.585,6.27 46.075,5.85 C46.565,5.43 47.19,5.22 47.95,5.22 C48.77,5.22 49.415,5.475 49.885,5.985 C50.355,6.495 50.71,7.29 50.95,8.37 L50.95,8.37 L55.06,6.78 C54.68,5.02 53.905,3.705 52.735,2.835 C51.565,1.965 50.04,1.53 48.16,1.53 C46.7,1.53 45.435,1.785 44.365,2.295 C43.295,2.805 42.47,3.5 41.89,4.38 C41.31,5.26 41.02,6.25 41.02,7.35 C41.02,7.83 41.07,8.3 41.17,8.76 C41.27,9.22 41.44,9.695 41.68,10.185 C41.8171429,10.465 41.9804082,10.7727551 42.1697959,11.1082653 L42.216,11.191 L39.46,11.19 L39.46,13.53 L43.62,13.53 L43.72,13.7166667 C43.8133333,13.8959259 43.8977778,14.0680247 43.9733333,14.232963 L44.08,14.475 C44.305,15.0075 44.445625,15.5821875 44.501875,16.1990625 L44.52,16.484 L44.3591837,16.4571429 C43.9657143,16.4 43.5330612,16.3657143 43.0612245,16.3542857 L42.7,16.35 C41.98,16.35 41.33,16.46 40.75,16.68 C40.17,16.9 39.71,17.215 39.37,17.625 C39.03,18.035 38.86,18.54 38.86,19.14 C38.86,20.04 39.205,20.73 39.895,21.21 C40.585,21.69 41.44,21.93 42.46,21.93 C43.4,21.93 44.215,21.75 44.905,21.39 C45.595,21.03 46.17,20.545 46.63,19.935 L46.548,20.038 L46.9416667,20.3083333 L46.9416667,20.3083333 L47.485,20.67 C48.035,21.03 48.635,21.33 49.285,21.57 C49.935,21.81 50.68,21.93 51.52,21.93 Z M42.58,20.01 C42.24,20.01 41.955,19.935 41.725,19.785 C41.495,19.635 41.38,19.42 41.38,19.14 C41.38,18.86 41.485,18.65 41.695,18.51 C41.905,18.37 42.21,18.3 42.61,18.3 C43.23,18.3 43.805,18.42 44.335,18.66 L44.335,18.66 L44.34,18.663 L44.3126531,18.7683673 C44.2167347,19.0867347 44.077449,19.3438776 43.8947959,19.5397959 L43.78,19.65 C43.5,19.89 43.1,20.01 42.58,20.01 Z" id="£" fill="#33AA26"></path>
                        <path d="M61.41,4.89 C62.43,4.89 63.18,4.695 63.66,4.305 C64.14,3.915 64.38,3.3 64.38,2.46 C64.38,1.6 64.14,0.975 63.66,0.585 C63.18,0.195 62.43,1.45661261e-13 61.41,1.45661261e-13 C60.37,1.45661261e-13 59.615,0.195 59.145,0.585 C58.675,0.975 58.44,1.6 58.44,2.46 C58.44,3.3 58.675,3.915 59.145,4.305 C59.615,4.695 60.37,4.89 61.41,4.89 Z M63.96,21.63 L63.96,6.63 L58.86,6.63 L58.86,21.63 L63.96,21.63 Z M73.19,21.63 L73.19,13.68 C73.19,12.84 73.31,12.17 73.55,11.67 C73.79,11.17 74.12,10.805 74.54,10.575 C74.96,10.345 75.41,10.23 75.89,10.23 C76.51,10.23 77.02,10.43 77.42,10.83 C77.82,11.23 78.02,11.95 78.02,12.99 L78.02,12.99 L78.02,21.63 L83.12,21.63 L83.12,11.64 C83.12,10.46 82.9,9.48 82.46,8.7 C82.02,7.92 81.415,7.33 80.645,6.93 C79.875,6.53 78.97,6.33 77.93,6.33 C76.97,6.33 76.105,6.515 75.335,6.885 C74.565,7.255 73.925,7.8 73.415,8.52 C73.1883333,8.84 72.992284,9.19555556 72.8268519,9.58666667 L72.807,9.635 L72.65,6.63 L68.09,6.63 L68.09,21.63 L73.19,21.63 Z M94.51,21.93 C95.55,21.93 96.545,21.78 97.495,21.48 C98.445,21.18 99.265,20.735 99.955,20.145 C100.645,19.555 101.13,18.83 101.41,17.97 L101.41,17.97 L97.33,16.62 C97.11,17.16 96.775,17.58 96.325,17.88 C95.875,18.18 95.27,18.33 94.51,18.33 C93.83,18.33 93.25,18.195 92.77,17.925 C92.29,17.655 91.92,17.215 91.66,16.605 C91.5444444,16.3338889 91.4545679,16.0262346 91.3903704,15.682037 L91.347,15.42 L101.59,15.42 C101.622,15.228 101.6476,14.9976 101.6668,14.7288 L101.68,14.52 C101.7,14.16 101.71,13.8 101.71,13.44 C101.71,12.06 101.42,10.835 100.84,9.765 C100.26,8.695 99.415,7.855 98.305,7.245 C97.195,6.635 95.85,6.33 94.27,6.33 C92.73,6.33 91.365,6.64 90.175,7.26 C88.985,7.88 88.06,8.77 87.4,9.93 C86.74,11.09 86.41,12.49 86.41,14.13 C86.41,15.77 86.74,17.17 87.4,18.33 C88.06,19.49 88.995,20.38 90.205,21 C91.415,21.62 92.85,21.93 94.51,21.93 Z M96.859,12.69 L91.382,12.69 L91.4233333,12.46 C91.4574074,12.2911111 91.4971605,12.1311111 91.5425926,11.98 L91.615,11.76 C91.845,11.12 92.185,10.65 92.635,10.35 C93.085,10.05 93.63,9.9 94.27,9.9 C95.17,9.9 95.835,10.22 96.265,10.86 C96.5516667,11.2866667 96.7427778,11.8377778 96.8383333,12.5133333 L96.859,12.69 Z M111.36,21.93 C112.94,21.93 114.25,21.705 115.29,21.255 C116.33,20.805 117.11,20.19 117.63,19.41 C118.15,18.63 118.41,17.75 118.41,16.77 C118.41,15.73 118.07,14.84 117.39,14.1 C116.71,13.36 115.6,12.85 114.06,12.57 L114.06,12.57 L111.33,12.03 C110.65,11.89 110.185,11.725 109.935,11.535 C109.685,11.345 109.56,11.12 109.56,10.86 C109.56,10.62 109.64,10.42 109.8,10.26 C109.96,10.1 110.205,9.975 110.535,9.885 C110.865,9.795 111.27,9.75 111.75,9.75 C112.51,9.75 113.27,9.92 114.03,10.26 C114.79,10.6 115.41,11.07 115.89,11.67 L115.89,11.67 L118.32,8.91 C117.64,8.07 116.72,7.43 115.56,6.99 C114.4,6.55 113.06,6.33 111.54,6.33 C109.92,6.33 108.59,6.565 107.55,7.035 C106.51,7.505 105.74,8.115 105.24,8.865 C104.74,9.615 104.49,10.4 104.49,11.22 C104.49,12.44 104.885,13.425 105.675,14.175 C106.465,14.925 107.8,15.49 109.68,15.87 L109.68,15.87 L111.78,16.29 C112.38,16.41 112.78,16.555 112.98,16.725 C113.18,16.895 113.28,17.12 113.28,17.4 C113.28,17.78 113.08,18.06 112.68,18.24 C112.28,18.42 111.77,18.51 111.15,18.51 C110.13,18.51 109.205,18.295 108.375,17.865 C107.545,17.435 106.88,16.9 106.38,16.26 L106.38,16.26 L103.98,19.08 C104.82,20 105.885,20.705 107.175,21.195 C108.465,21.685 109.86,21.93 111.36,21.93 Z M127.85,21.93 C129.43,21.93 130.74,21.705 131.78,21.255 C132.82,20.805 133.6,20.19 134.12,19.41 C134.64,18.63 134.9,17.75 134.9,16.77 C134.9,15.73 134.56,14.84 133.88,14.1 C133.2,13.36 132.09,12.85 130.55,12.57 L130.55,12.57 L127.82,12.03 C127.14,11.89 126.675,11.725 126.425,11.535 C126.175,11.345 126.05,11.12 126.05,10.86 C126.05,10.62 126.13,10.42 126.29,10.26 C126.45,10.1 126.695,9.975 127.025,9.885 C127.355,9.795 127.76,9.75 128.24,9.75 C129,9.75 129.76,9.92 130.52,10.26 C131.28,10.6 131.9,11.07 132.38,11.67 L132.38,11.67 L134.81,8.91 C134.13,8.07 133.21,7.43 132.05,6.99 C130.89,6.55 129.55,6.33 128.03,6.33 C126.41,6.33 125.08,6.565 124.04,7.035 C123,7.505 122.23,8.115 121.73,8.865 C121.23,9.615 120.98,10.4 120.98,11.22 C120.98,12.44 121.375,13.425 122.165,14.175 C122.955,14.925 124.29,15.49 126.17,15.87 L126.17,15.87 L128.27,16.29 C128.87,16.41 129.27,16.555 129.47,16.725 C129.67,16.895 129.77,17.12 129.77,17.4 C129.77,17.78 129.57,18.06 129.17,18.24 C128.77,18.42 128.26,18.51 127.64,18.51 C126.62,18.51 125.695,18.295 124.865,17.865 C124.035,17.435 123.37,16.9 122.87,16.26 L122.87,16.26 L120.47,19.08 C121.31,20 122.375,20.705 123.665,21.195 C124.955,21.685 126.35,21.93 127.85,21.93 Z" id="iness" fill="#1C2698"></path>
                    </g>
                    <path d="M4.72,38.1 C5.15333333,38.1 5.55,38.03 5.91,37.89 C6.27,37.75 6.58333333,37.5416667 6.85,37.265 C7.11666667,36.9883333 7.31666667,36.65 7.45,36.25 L7.45,36.25 L6.43,35.91 C6.30333333,36.33 6.09166667,36.645 5.795,36.855 C5.49833333,37.065 5.14666667,37.17 4.74,37.17 C4.32,37.17 3.96,37.0733333 3.66,36.88 C3.36,36.6866667 3.13,36.405 2.97,36.035 C2.81,35.665 2.73,35.22 2.73,34.7 C2.73,34.1733333 2.815,33.7266667 2.985,33.36 C3.155,32.9933333 3.39333333,32.7133333 3.7,32.52 C4.00666667,32.3266667 4.36333333,32.23 4.77,32.23 C5.17666667,32.23 5.50666667,32.3216667 5.76,32.505 C6.01333333,32.6883333 6.20666667,32.9766667 6.34,33.37 L6.34,33.37 L7.35,32.92 C7.21666667,32.56 7.02666667,32.26 6.78,32.02 C6.53333333,31.78 6.235,31.6 5.885,31.48 C5.535,31.36 5.14333333,31.3 4.71,31.3 C4.08333333,31.3 3.53666667,31.4366667 3.07,31.71 C2.60333333,31.9833333 2.24333333,32.3733333 1.99,32.88 C1.73666667,33.3866667 1.61,33.9933333 1.61,34.7 C1.61,35.4066667 1.73666667,36.0133333 1.99,36.52 C2.24333333,37.0266667 2.60333333,37.4166667 3.07,37.69 C3.53666667,37.9633333 4.08666667,38.1 4.72,38.1 Z M14.243333,38.1 C14.883333,38.1 15.4366663,37.9633333 15.903333,37.69 C16.3699997,37.4166667 16.7299997,37.0266667 16.983333,36.52 C17.2366663,36.0133333 17.363333,35.4066667 17.363333,34.7 C17.363333,33.9933333 17.2366663,33.3866667 16.983333,32.88 C16.7299997,32.3733333 16.3699997,31.9833333 15.903333,31.71 C15.4366663,31.4366667 14.883333,31.3 14.243333,31.3 C13.6099997,31.3 13.0599997,31.4366667 12.593333,31.71 C12.1266663,31.9833333 11.7666663,32.3733333 11.513333,32.88 C11.2599997,33.3866667 11.133333,33.9933333 11.133333,34.7 C11.133333,35.4066667 11.2599997,36.0133333 11.513333,36.52 C11.7666663,37.0266667 12.1266663,37.4166667 12.593333,37.69 C13.0599997,37.9633333 13.6099997,38.1 14.243333,38.1 Z M14.243333,37.17 C13.8299997,37.17 13.4749997,37.0733333 13.178333,36.88 C12.8816663,36.6866667 12.653333,36.405 12.493333,36.035 C12.333333,35.665 12.253333,35.22 12.253333,34.7 C12.253333,34.1733333 12.333333,33.7266667 12.493333,33.36 C12.653333,32.9933333 12.8816663,32.7133333 13.178333,32.52 C13.4749997,32.3266667 13.8299997,32.23 14.243333,32.23 C14.663333,32.23 15.0216663,32.3266667 15.318333,32.52 C15.6149997,32.7133333 15.843333,32.9933333 16.003333,33.36 C16.163333,33.7266667 16.243333,34.1733333 16.243333,34.7 C16.243333,35.22 16.163333,35.665 16.003333,36.035 C15.843333,36.405 15.6149997,36.6866667 15.318333,36.88 C15.0216663,37.0733333 14.663333,37.17 14.243333,37.17 Z M23.916666,38.1 C24.4433327,38.1 24.901666,38.02 25.291666,37.86 C25.681666,37.7 25.986666,37.47 26.206666,37.17 C26.426666,36.87 26.536666,36.5166667 26.536666,36.11 C26.536666,35.67 26.4033327,35.3066667 26.136666,35.02 C25.8699993,34.7333333 25.416666,34.52 24.776666,34.38 L24.776666,34.38 L23.436666,34.08 C23.0433327,33.9933333 22.7749993,33.8733333 22.631666,33.72 C22.4883327,33.5666667 22.416666,33.3866667 22.416666,33.18 C22.416666,33 22.4649993,32.8383333 22.561666,32.695 C22.6583327,32.5516667 22.8099993,32.4366667 23.016666,32.35 C23.2233327,32.2633333 23.486666,32.22 23.806666,32.22 C24.2399993,32.22 24.6149993,32.305 24.931666,32.475 C25.2483327,32.645 25.5333327,32.9233333 25.786666,33.31 L25.786666,33.31 L26.506666,32.62 C26.206666,32.1866667 25.8399993,31.8583333 25.406666,31.635 C24.9733327,31.4116667 24.4599993,31.3 23.866666,31.3 C23.3333327,31.3 22.8733327,31.3916667 22.486666,31.575 C22.0999993,31.7583333 21.8049993,32.0016667 21.601666,32.305 C21.3983327,32.6083333 21.296666,32.9466667 21.296666,33.32 C21.296666,33.6066667 21.3599993,33.865 21.486666,34.095 C21.6133327,34.325 21.806666,34.52 22.066666,34.68 C22.326666,34.84 22.656666,34.9633333 23.056666,35.05 L23.056666,35.05 L24.506666,35.38 C24.8599993,35.46 25.101666,35.5733333 25.231666,35.72 C25.361666,35.8666667 25.426666,36.0366667 25.426666,36.23 C25.426666,36.43 25.3683327,36.6016667 25.251666,36.745 C25.1349993,36.8883333 24.9649993,36.9966667 24.741666,37.07 C24.5183327,37.1433333 24.2533327,37.18 23.946666,37.18 C23.5999993,37.18 23.2849993,37.13 23.001666,37.03 C22.7183327,36.93 22.4699993,36.7883333 22.256666,36.605 C22.0433327,36.4216667 21.866666,36.2133333 21.726666,35.98 L21.726666,35.98 L20.986666,36.72 C21.166666,36.9866667 21.396666,37.2233333 21.676666,37.43 C21.956666,37.6366667 22.2833327,37.8 22.656666,37.92 C23.0299993,38.04 23.4499993,38.1 23.916666,38.1 Z M33.119999,38 L33.119999,32.32 L35.379999,32.32 L35.379999,31.4 L29.789999,31.4 L29.789999,32.32 L32.049999,32.32 L32.049999,38 L33.119999,38 Z M47.776665,38.1 C48.2099983,38.1 48.606665,38.03 48.966665,37.89 C49.326665,37.75 49.6399983,37.5416667 49.906665,37.265 C50.1733317,36.9883333 50.3733317,36.65 50.506665,36.25 L50.506665,36.25 L49.486665,35.91 C49.3599983,36.33 49.1483317,36.645 48.851665,36.855 C48.5549983,37.065 48.2033317,37.17 47.796665,37.17 C47.376665,37.17 47.016665,37.0733333 46.716665,36.88 C46.416665,36.6866667 46.186665,36.405 46.026665,36.035 C45.866665,35.665 45.786665,35.22 45.786665,34.7 C45.786665,34.1733333 45.871665,33.7266667 46.041665,33.36 C46.211665,32.9933333 46.4499983,32.7133333 46.756665,32.52 C47.0633317,32.3266667 47.4199983,32.23 47.826665,32.23 C48.2333317,32.23 48.5633317,32.3216667 48.816665,32.505 C49.0699983,32.6883333 49.2633317,32.9766667 49.396665,33.37 L49.396665,33.37 L50.406665,32.92 C50.2733317,32.56 50.0833317,32.26 49.836665,32.02 C49.5899983,31.78 49.291665,31.6 48.941665,31.48 C48.591665,31.36 48.1999983,31.3 47.766665,31.3 C47.1399983,31.3 46.5933317,31.4366667 46.126665,31.71 C45.6599983,31.9833333 45.2999983,32.3733333 45.046665,32.88 C44.7933317,33.3866667 44.666665,33.9933333 44.666665,34.7 C44.666665,35.4066667 44.7933317,36.0133333 45.046665,36.52 C45.2999983,37.0266667 45.6599983,37.4166667 46.126665,37.69 C46.5933317,37.9633333 47.1433317,38.1 47.776665,38.1 Z M57.299998,38.1 C57.939998,38.1 58.4933313,37.9633333 58.959998,37.69 C59.4266647,37.4166667 59.7866647,37.0266667 60.039998,36.52 C60.2933313,36.0133333 60.419998,35.4066667 60.419998,34.7 C60.419998,33.9933333 60.2933313,33.3866667 60.039998,32.88 C59.7866647,32.3733333 59.4266647,31.9833333 58.959998,31.71 C58.4933313,31.4366667 57.939998,31.3 57.299998,31.3 C56.6666647,31.3 56.1166647,31.4366667 55.649998,31.71 C55.1833313,31.9833333 54.8233313,32.3733333 54.569998,32.88 C54.3166647,33.3866667 54.189998,33.9933333 54.189998,34.7 C54.189998,35.4066667 54.3166647,36.0133333 54.569998,36.52 C54.8233313,37.0266667 55.1833313,37.4166667 55.649998,37.69 C56.1166647,37.9633333 56.6666647,38.1 57.299998,38.1 Z M57.299998,37.17 C56.8866647,37.17 56.5316647,37.0733333 56.234998,36.88 C55.9383313,36.6866667 55.709998,36.405 55.549998,36.035 C55.389998,35.665 55.309998,35.22 55.309998,34.7 C55.309998,34.1733333 55.389998,33.7266667 55.549998,33.36 C55.709998,32.9933333 55.9383313,32.7133333 56.234998,32.52 C56.5316647,32.3266667 56.8866647,32.23 57.299998,32.23 C57.719998,32.23 58.0783313,32.3266667 58.374998,32.52 C58.6716647,32.7133333 58.899998,32.9933333 59.059998,33.36 C59.219998,33.7266667 59.299998,34.1733333 59.299998,34.7 C59.299998,35.22 59.219998,35.665 59.059998,36.035 C58.899998,36.405 58.6716647,36.6866667 58.374998,36.88 C58.0783313,37.0733333 57.719998,37.17 57.299998,37.17 Z M65.683331,38 L65.683331,34.18 L65.603331,32.36 L65.613331,32.36 L67.623331,38 L68.513331,38 L70.523331,32.36 L70.533331,32.36 L70.453331,34.18 L70.453331,38 L71.443331,38 L71.443331,31.4 L69.883331,31.4 L68.563331,35.22 L68.093331,36.79 L68.073331,36.79 L67.613331,35.22 L66.283331,31.4 L64.693331,31.4 L64.693331,38 L65.683331,38 Z M77.156664,38 L77.156664,35.54 L78.626664,35.54 C79.0999973,35.54 79.5083307,35.4566667 79.851664,35.29 C80.1949973,35.1233333 80.4633307,34.885 80.656664,34.575 C80.8499973,34.265 80.946664,33.8966667 80.946664,33.47 C80.946664,33.0366667 80.8499973,32.6666667 80.656664,32.36 C80.4633307,32.0533333 80.1949973,31.8166667 79.851664,31.65 C79.5083307,31.4833333 79.0999973,31.4 78.626664,31.4 L78.626664,31.4 L76.086664,31.4 L76.086664,38 L77.156664,38 Z M78.456664,34.62 L77.156664,34.62 L77.156664,32.31 L78.456664,32.31 C78.9299973,32.31 79.2783307,32.4083333 79.501664,32.605 C79.7249973,32.8016667 79.836664,33.09 79.836664,33.47 C79.836664,33.8433333 79.7249973,34.1283333 79.501664,34.325 C79.2783307,34.5216667 78.9299973,34.62 78.456664,34.62 L78.456664,34.62 Z M84.819997,38 L85.447,36.27 L88.226,36.27 L88.849997,38 L89.979997,38 L87.489997,31.4 L86.209997,31.4 L83.719997,38 L84.819997,38 Z M87.913,35.4 L85.762,35.4 L86.539997,33.26 L86.819997,32.33 L86.849997,32.33 L87.149997,33.28 L87.913,35.4 Z M94.89333,38 L94.89333,35.36 L96.312,35.36 L97.99333,38 L99.22333,38 L97.401,35.195 L97.5668485,35.1441358 C97.7487004,35.0817901 97.9144411,35.0007407 98.0640707,34.9009877 L98.20833,34.795 C98.6249967,34.4583333 98.83333,33.98 98.83333,33.36 C98.83333,32.76 98.6249967,32.2833333 98.20833,31.93 C97.7916633,31.5766667 97.2299967,31.4 96.52333,31.4 L96.52333,31.4 L93.83333,31.4 L93.83333,38 L94.89333,38 Z M96.44333,34.47 L94.89333,34.47 L94.89333,32.31 L96.44333,32.31 C96.8766633,32.31 97.19833,32.4 97.40833,32.58 C97.61833,32.76 97.72333,33.03 97.72333,33.39 C97.72333,33.7566667 97.61833,34.0283333 97.40833,34.205 C97.19833,34.3816667 96.8766633,34.47 96.44333,34.47 L96.44333,34.47 Z M104.306663,38 L104.306663,31.4 L103.236663,31.4 L103.236663,38 L104.306663,38 Z M111.249996,38.1 C111.776663,38.1 112.234996,38.02 112.624996,37.86 C113.014996,37.7 113.319996,37.47 113.539996,37.17 C113.759996,36.87 113.869996,36.5166667 113.869996,36.11 C113.869996,35.67 113.736663,35.3066667 113.469996,35.02 C113.203329,34.7333333 112.749996,34.52 112.109996,34.38 L112.109996,34.38 L110.769996,34.08 C110.376663,33.9933333 110.108329,33.8733333 109.964996,33.72 C109.821663,33.5666667 109.749996,33.3866667 109.749996,33.18 C109.749996,33 109.798329,32.8383333 109.894996,32.695 C109.991663,32.5516667 110.143329,32.4366667 110.349996,32.35 C110.556663,32.2633333 110.819996,32.22 111.139996,32.22 C111.573329,32.22 111.948329,32.305 112.264996,32.475 C112.581663,32.645 112.866663,32.9233333 113.119996,33.31 L113.119996,33.31 L113.839996,32.62 C113.539996,32.1866667 113.173329,31.8583333 112.739996,31.635 C112.306663,31.4116667 111.793329,31.3 111.199996,31.3 C110.666663,31.3 110.206663,31.3916667 109.819996,31.575 C109.433329,31.7583333 109.138329,32.0016667 108.934996,32.305 C108.731663,32.6083333 108.629996,32.9466667 108.629996,33.32 C108.629996,33.6066667 108.693329,33.865 108.819996,34.095 C108.946663,34.325 109.139996,34.52 109.399996,34.68 C109.659996,34.84 109.989996,34.9633333 110.389996,35.05 L110.389996,35.05 L111.839996,35.38 C112.193329,35.46 112.434996,35.5733333 112.564996,35.72 C112.694996,35.8666667 112.759996,36.0366667 112.759996,36.23 C112.759996,36.43 112.701663,36.6016667 112.584996,36.745 C112.468329,36.8883333 112.298329,36.9966667 112.074996,37.07 C111.851663,37.1433333 111.586663,37.18 111.279996,37.18 C110.933329,37.18 110.618329,37.13 110.334996,37.03 C110.051663,36.93 109.803329,36.7883333 109.589996,36.605 C109.376663,36.4216667 109.199996,36.2133333 109.059996,35.98 L109.059996,35.98 L108.319996,36.72 C108.499996,36.9866667 108.729996,37.2233333 109.009996,37.43 C109.289996,37.6366667 109.616663,37.8 109.989996,37.92 C110.363329,38.04 110.783329,38.1 111.249996,38.1 Z M120.793329,38.1 C121.433329,38.1 121.986662,37.9633333 122.453329,37.69 C122.919996,37.4166667 123.279996,37.0266667 123.533329,36.52 C123.786662,36.0133333 123.913329,35.4066667 123.913329,34.7 C123.913329,33.9933333 123.786662,33.3866667 123.533329,32.88 C123.279996,32.3733333 122.919996,31.9833333 122.453329,31.71 C121.986662,31.4366667 121.433329,31.3 120.793329,31.3 C120.159996,31.3 119.609996,31.4366667 119.143329,31.71 C118.676662,31.9833333 118.316662,32.3733333 118.063329,32.88 C117.809996,33.3866667 117.683329,33.9933333 117.683329,34.7 C117.683329,35.4066667 117.809996,36.0133333 118.063329,36.52 C118.316662,37.0266667 118.676662,37.4166667 119.143329,37.69 C119.609996,37.9633333 120.159996,38.1 120.793329,38.1 Z M120.793329,37.17 C120.379996,37.17 120.024996,37.0733333 119.728329,36.88 C119.431662,36.6866667 119.203329,36.405 119.043329,36.035 C118.883329,35.665 118.803329,35.22 118.803329,34.7 C118.803329,34.1733333 118.883329,33.7266667 119.043329,33.36 C119.203329,32.9933333 119.431662,32.7133333 119.728329,32.52 C120.024996,32.3266667 120.379996,32.23 120.793329,32.23 C121.213329,32.23 121.571662,32.3266667 121.868329,32.52 C122.164996,32.7133333 122.393329,32.9933333 122.553329,33.36 C122.713329,33.7266667 122.793329,34.1733333 122.793329,34.7 C122.793329,35.22 122.713329,35.665 122.553329,36.035 C122.393329,36.405 122.164996,36.6866667 121.868329,36.88 C121.571662,37.0733333 121.213329,37.17 120.793329,37.17 Z M129.166662,38 L129.166662,33.74 L129.126662,32.67 L129.136662,32.67 L129.776662,33.84 L132.326662,38 L133.596662,38 L133.596662,31.4 L132.606662,31.4 L132.606662,35.66 L132.646662,36.74 L132.636662,36.74 L131.986662,35.55 L129.446662,31.4 L128.186662,31.4 L128.186662,38 L129.166662,38 Z" id="COSTCOMPARISON" fill="#1C2698"></path>
                </g>
            </g>
        </g>
    </g>
</svg>