<?xml version="1.0" encoding="UTF-8"?>
<svg width="37px" height="38px" viewBox="0 0 37 38" version="1.1" xmlns="http://www.w3.org/2000/svg" xmlns:xlink="http://www.w3.org/1999/xlink">
    <!-- Generator: Sketch 62 (91390) - https://sketch.com -->
    <title>phone</title>
    <desc>Created with Sketch.</desc>
    <g id="HOMEPAGE" stroke="none" stroke-width="1" fill="none" fill-rule="evenodd">
        <g id="Phone-inner-page-example" transform="translate(-278.000000, -19.000000)">
            <g id="phone" transform="translate(278.000000, 19.000000)">
                <g id="Group-7-Copy" fill="#33AA26">
                    <g id="Group">
                        <g id="Group-9-Copy">
                            <ellipse id="Oval" cx="18.5" cy="19" rx="18.5" ry="19"></ellipse>
                        </g>
                    </g>
                </g>
                <g id="shutterstock_383407801-(1)" transform="translate(10.000000, 8.000000)" fill="#FFFFFF">
                    <path d="M3.67816888,0.875 C3.66503967,0.877946366 3.64668386,0.87811473 3.63355465,0.879419549 C2.76769571,0.966463628 1.84610033,2.24350296 1.56394772,2.72834858 C-0.507039025,7.23186946 2.45075487,11.8838451 3.81924519,13.6736364 L4.09750921,14.0392383 C5.46499601,15.8414464 7.16652508,18.0840521 10.267695,19.4606365 C11.2611665,19.9015392 12.1972291,20.125 13.0499589,20.125 C15.0457662,20.125 15.8715685,18.9477162 16.0772874,18.5868705 C16.594386,17.6789267 14.2212601,15.6049374 13.1365531,14.9571156 C12.9009799,14.8162372 12.6595112,14.7448931 12.4190041,14.7448931 C12.1676675,14.7448931 11.9911758,14.8226771 11.9426311,14.8467952 C11.0803681,15.5288369 10.0468817,15.5940358 10.0028947,15.5965192 C7.45883819,15.5966876 5.15395078,11.4997231 4.61556949,9.7912095 C4.15784504,8.33814582 4.79402641,7.52153936 5.21499743,6.98117578 C5.30585659,6.86475222 5.38429736,6.76419695 5.43710689,6.67618478 C5.72912731,6.1906657 6.2432572,5.50466745 6.39286331,5.30734509 C6.55789833,4.54322604 5.51914356,2.57724208 4.70709765,1.58195955 C4.15817954,0.909009485 3.75364094,0.875 3.67816888,0.875 Z M13.1477796,21 C12.1802065,21 11.1304714,20.7525793 10.0277987,20.264259 C6.69730686,18.7895593 4.8228317,16.3252625 3.45431785,14.5260457 L3.17168535,14.1552364 C1.69686921,12.2314296 -1.48613248,7.22106316 0.803041253,2.25934852 C0.86708753,2.14591338 2.03547278,0.162514609 3.44359363,0.00917982173 C3.62060745,-0.0209379792 4.32866276,-0.0361255882 5.15310369,0.972177201 C5.77903962,1.73734954 7.37656483,4.22421326 6.98664734,5.46646529 C6.97421407,5.50499205 6.95545736,5.54120206 6.93097536,5.57333629 C6.92460919,5.58174525 6.28025835,6.42186886 5.95605345,6.95931287 C5.88059933,7.0847179 5.78403856,7.2081065 5.68213705,7.33857407 C5.2804699,7.85263602 4.82552343,8.43521383 5.18361006,9.56905036 C5.65662963,11.066274 7.85394245,15.0056137 10.0003259,15.0057854 C10.0040003,15.0057854 10.9015027,14.9446917 11.6112671,14.3730541 C11.6236576,14.3631007 11.63639,14.3541769 11.6498059,14.3461111 C11.685354,14.3247455 12.011567,14.1372172 12.5030442,14.1372172 C12.8735213,14.1372172 13.2382732,14.2424149 13.5869601,14.4501505 C14.3104395,14.8813671 17.7871397,17.4217307 16.8366571,19.0858035 C16.1520584,20.2844663 14.7731194,21 13.1477796,21 L13.1477796,21 Z" id="Fill-3"></path>
                </g>
            </g>
        </g>
    </g>
</svg>