<?xml version="1.0" encoding="UTF-8"?>
<svg width="50px" height="67px" viewBox="0 0 50 67" version="1.1" xmlns="http://www.w3.org/2000/svg" xmlns:xlink="http://www.w3.org/1999/xlink">
    <!-- Generator: Sketch 62 (91390) - https://sketch.com -->
    <title>process-icon-3</title>
    <desc>Created with Sketch.</desc>
    <g id="HOMEPAGE" stroke="none" stroke-width="1" fill="none" fill-rule="evenodd">
        <g id="Desktop1" transform="translate(-1026.000000, -955.000000)" stroke="#33AA26" stroke-width="2">
            <g id="process-icon-3" transform="translate(1027.000000, 956.000000)">
                <path d="M24.625,61 L24.625,58.2 C24.625,57.003 20.729625,53.5604 19.7685,52.0288 C19.17175,51.0768 15,38.9234 15,38.9234 C15,37.571 18.36875,35.8378 20.56875,38.9234 L24.163,44.5948 L26,42.8 L26,21.8 C26,20.2544 27.232,19 28.75,19 C30.268,19 31.5,20.2544 31.5,21.8 L31.5,40 L31.5,38.6 L31.5,31.6 L34.25,31.6 C35.11625,31.6 36.473375,32.1586 37,33 L39.75,33 C41.03975,33 42.5,34.225 42.5,35.8 L45.25,35.8 C46.53975,35.8 48,37.025 48,38.6 L48,52.6 C48,55.4322 45.25,57.7128 45.25,59.6 L45.25,61" id="Stroke-1"></path>
                <line x1="37.5" y1="32" x2="37.5" y2="40" id="Stroke-3"></line>
                <line x1="42.5" y1="36" x2="42.5" y2="41" id="Stroke-5"></line>
                <polyline id="Stroke-7" points="48 66 48 62 21 62 21 66"></polyline>
                <path d="M23.3137008,32.7065481 L19.0008807,30.5424843 L8.24178617,35.9002991 C7.55024283,36.2444842 6.76257209,35.6464626 6.91035002,34.8878212 L9.12701905,23.5082012 L0.27755979,14.7286128 C-0.286291943,14.169312 0.0609144674,13.2084619 0.851454683,13.1367567 L12.8975085,12.0626124 L18.1515162,0.545318276 C18.4843753,-0.181772759 19.5173861,-0.181772759 19.8488104,0.545318276 L25.1042529,12.0626124 L37.148872,13.1367567 C37.9379774,13.2084619 38.2866186,14.169312 37.7227669,14.7286128 L34.7829903,17.6412793" id="Stroke-9"></path>
            </g>
        </g>
    </g>
</svg>