<?xml version="1.0" encoding="UTF-8"?>
<svg width="61px" height="64px" viewBox="0 0 61 64" version="1.1" xmlns="http://www.w3.org/2000/svg" xmlns:xlink="http://www.w3.org/1999/xlink">
    <!-- Generator: Sketch 62 (91390) - https://sketch.com -->
    <title>process-icon-1</title>
    <desc>Created with Sketch.</desc>
    <defs>
        <polygon id="path-1" points="0 0.125553435 60.8456925 0.125553435 60.8456925 24.9999809 0 24.9999809"></polygon>
        <polygon id="path-3" points="0.137188235 0.0122474227 25.9014676 0.0122474227 25.9014676 35.8346227 0.137188235 35.8346227"></polygon>
    </defs>
    <g id="HOMEPAGE" stroke="none" stroke-width="1" fill="none" fill-rule="evenodd">
        <g id="Desktop1" transform="translate(-212.000000, -963.000000)">
            <g id="process-icon-1" transform="translate(212.000000, 963.000000)">
                <g id="Group-3" transform="translate(0.000000, 39.000000)">
                    <mask id="mask-2" fill="white">
                        <use xlink:href="#path-1"></use>
                    </mask>
                    <g id="Clip-2"></g>
                    <path d="M33.2292307,24.9999809 C32.7540728,24.9999809 32.2704164,24.9200191 31.8041347,24.768874 L10.417308,17.5946374 C9.68700774,17.3545611 8.86889009,17.4079962 8.17390557,17.7635305 L1.3558808,21.1417748 C0.889410217,21.3728817 0.326434985,21.177271 0.0975433437,20.7060878 C-0.131159443,20.2349046 0.0537291022,19.657042 0.528886997,19.4349046 L7.3380356,16.0566603 C8.46417492,15.4875763 9.80126471,15.3898664 11.0067229,15.7898664 L32.4022368,22.9641031 C32.9036455,23.1242176 33.4314938,23.1419656 33.9417786,22.9910115 L34.9625372,22.7062786 C35.5782028,22.5375763 36.1500542,22.2528435 36.660339,21.8707824 L58.2405526,5.67307252 C58.821469,5.2373855 59.0764226,4.49959924 58.9094752,3.78853053 L58.7070232,2.96162214 C58.5661378,2.4104771 58.0824814,2.02822519 57.5193173,2.02822519 C57.4139365,2.02822519 57.3170542,2.05494275 57.229048,2.10818702 L36.8099118,14.8742176 C36.5196424,15.0610496 36.1589303,15.0698282 35.8597848,14.9009351 L28.4874721,10.8024618 C28.0300666,10.5537977 27.8627415,9.98471374 28.1091966,9.51372137 C28.3641502,9.05131679 28.9361904,8.89120229 29.3934071,9.14024809 L36.2820635,12.962958 L56.234918,0.490057252 C56.6131935,0.250171756 57.0617229,0.125553435 57.5193173,0.125553435 C58.9446022,0.125553435 60.1849985,1.10360687 60.5281471,2.4994084 L60.7392864,3.32612595 C61.0911223,4.80188931 60.5543978,6.31314885 59.366692,7.20208015 L37.7864783,23.3997901 C37.0826176,23.9242176 36.3085031,24.3154389 35.4639458,24.5465458 L34.4522523,24.8310878 C34.0475372,24.9467366 33.6426331,24.9999809 33.2292307,24.9999809" id="Fill-1" fill="#32AA49" mask="url(#mask-2)"></path>
                </g>
                <path d="M29.3760948,50 L24.3424929,49.8174539 C23.8206558,49.7994343 23.4138962,49.3430691 23.4313668,48.8046366 C23.4492171,48.2663998 23.9002227,47.8468572 24.4133246,47.8650727 L29.3937552,48.0474229 L41.6987061,47.8284459 C42.3711316,47.8192403 42.9282897,47.2810036 42.9901961,46.5876418 L43.0963486,45.2553688 C43.1493299,44.6714956 42.7425703,44.1514743 42.1762972,44.0874265 L18.451126,40.9855142 C17.9822701,40.9214664 17.5044891,40.9671029 17.0622188,41.1132181 L3.25347295,45.9763475 C2.75803147,46.1496879 2.21834397,45.8758688 2.05047496,45.3650532 C1.88241604,44.8540417 2.14770226,44.2975895 2.64314374,44.1150434 L16.4606248,39.2609238 C17.1772964,39.0237314 17.9380241,38.941664 18.6900165,39.0419468 L42.4151878,42.1442509 C43.9898143,42.3448165 45.1221706,43.7863821 44.9894325,45.4289051 L44.8743549,46.7609823 C44.7328816,48.4489459 43.3794851,49.753602 41.7340269,49.7902287 L29.3760948,50 Z" id="Fill-4" fill="#32AA49"></path>
                <path d="M40.9170737,44 C40.5508402,44 40.2102047,43.7662779 40.0653935,43.3738656 C39.8777971,42.8504486 40.107813,42.2710586 40.5764382,42.0654233 L49.451611,38.205699 C50.1500692,37.9346617 50.8911297,37.9346617 51.5638071,38.1868408 C53.0203301,38.7475731 54,40.2616507 54,41.9438477 L54,42.2616295 C54,42.8131333 53.5909814,43.2615185 53.0799368,43.2615185 C52.5774857,43.2615185 52.16865,42.8131333 52.16865,42.2616295 L52.16865,41.9438477 C52.16865,41.1028495 51.6832032,40.3551395 50.9593299,40.0748737 C50.6781182,39.9627272 50.3714914,39.9627272 50.0904626,40.0748737 L41.2491156,43.9251688 C41.1384959,43.9719132 41.0276934,44 40.9170737,44" id="Fill-6" fill="#32AA49"></path>
                <g id="Group-10" transform="translate(17.000000, 0.000000)">
                    <mask id="mask-4" fill="white">
                        <use xlink:href="#path-3"></use>
                    </mask>
                    <g id="Clip-9"></g>
                    <path d="M24.3250265,35.8346227 L1.70464412,35.8346227 C0.840717647,35.8346227 0.137188235,35.1517361 0.137188235,34.3046227 L0.137188235,7.37717938 L2.04283529,7.37717938 L2.04283529,33.9847052 L23.9954382,33.9847052 L23.9954382,1.86212784 L8.25033529,1.86212784 L8.25033529,0.0122103093 L24.3250265,0.0122103093 C25.1977471,0.0122103093 25.9014676,0.703818557 25.9014676,1.54221031 L25.9014676,34.3046227 C25.9014676,35.1517361 25.1977471,35.8346227 24.3250265,35.8346227" id="Fill-8" fill="#32AA49" mask="url(#mask-4)"></path>
                </g>
                <path d="M21.3610991,6.9819342 L25.0998118,6.9819342 L25.0998118,3.30263112 L21.3610991,6.9819342 Z M26.0541749,9 L18.9480594,9 C18.5591042,9 18.2056294,8.73706311 18.0642774,8.35222828 C17.9229254,7.96759493 18.0200693,7.53581428 18.302963,7.25413936 L25.4090786,0.261630006 C25.6830548,-0.00110539756 26.0809275,-0.0762590062 26.4344023,0.0833164846 C26.7702319,0.233422218 27,0.599519019 27,1.00309188 L27,7.98613148 C27,8.54948132 26.5757543,9 26.0541749,9 L26.0541749,9 Z" id="Fill-11" fill="#32AA49"></path>
                <path d="M38.0686979,12 L22.9313021,12 C22.4178153,12 22,11.5441294 22,11.0045927 C22,10.4464856 22.4178153,10 22.9313021,10 L38.0686979,10 C38.590967,10 39,10.4464856 39,11.0045927 C39,11.5441294 38.590967,12 38.0686979,12" id="Fill-13" fill="#32AA49"></path>
                <path d="M38.0686979,18 L22.9313021,18 C22.4178153,18 22,17.5534698 22,17.004693 C22,16.4557164 22.4178153,16 22.9313021,16 L38.0686979,16 C38.590967,16 39,16.4557164 39,17.004693 C39,17.5534698 38.590967,18 38.0686979,18" id="Fill-15" fill="#32AA49"></path>
                <path d="M38.0686979,24 L22.9313021,24 C22.4178153,24 22,23.5534698 22,23.004693 C22,22.4557164 22.4178153,22 22.9313021,22 L38.0686979,22 C38.590967,22 39,22.4557164 39,23.004693 C39,23.5534698 38.590967,24 38.0686979,24" id="Fill-17" fill="#32AA49"></path>
                <path d="M38.0686979,30 L22.9313021,30 C22.4178153,30 22,29.5534698 22,29.004693 C22,28.4557164 22.4178153,28 22.9313021,28 L38.0686979,28 C38.590967,28 39,28.4557164 39,29.004693 C39,29.5534698 38.590967,30 38.0686979,30" id="Fill-19" fill="#32AA49"></path>
            </g>
        </g>
    </g>
</svg>