<?xml version="1.0" encoding="UTF-8"?>
<svg width="53px" height="53px" viewBox="0 0 53 53" version="1.1" xmlns="http://www.w3.org/2000/svg" xmlns:xlink="http://www.w3.org/1999/xlink">
    <!-- Generator: Sketch 62 (91390) - https://sketch.com -->
    <title>process-icon-2</title>
    <desc>Created with Sketch.</desc>
    <defs>
        <polygon id="path-1" points="0.0379666667 0.889297297 33.2871333 0.889297297 33.2871333 35.1433946 0.0379666667 35.1433946"></polygon>
        <polygon id="path-3" points="0.000575 0.303416 22.862575 0.303416 22.862575 23 0.000575 23"></polygon>
    </defs>
    <g id="HOMEPAGE" stroke="none" stroke-width="1" fill="none" fill-rule="evenodd">
        <g id="Desktop1" transform="translate(-597.000000, -959.000000)">
            <g id="process-icon-2" transform="translate(597.000000, 959.000000)">
                <g id="Group-3" transform="translate(19.000000, 0.000000)">
                    <mask id="mask-2" fill="white">
                        <use xlink:href="#path-1"></use>
                    </mask>
                    <g id="Clip-2"></g>
                    <path d="M16.66255,2.78134054 C12.8734389,2.78134054 9.08432778,4.2660973 6.20093889,7.23852973 C0.431327778,13.1814486 0.431327778,22.8508541 6.20093889,28.793773 C11.9686611,34.7357189 21.3564389,34.7357189 27.1232167,28.793773 C32.8928278,22.8508541 32.8928278,13.1814486 27.1232167,7.23852973 C24.2388833,4.2660973 20.4516611,2.78134054 16.66255,2.78134054 M16.66255,35.1433946 C12.4031056,35.1433946 8.14271667,33.4728 4.90138333,30.1316108 C-1.58317222,23.4511784 -1.58317222,12.5801514 4.90138333,5.89971892 C11.3868833,-0.781686486 21.9382167,-0.780713514 28.4237167,5.89971892 C34.9082722,12.5801514 34.9082722,23.4511784 28.4237167,30.1316108 C25.1804944,33.4728 20.92105,35.1433946 16.66255,35.1433946" id="Fill-1" fill="#33AA26" mask="url(#mask-2)"></path>
                </g>
                <path d="M19.8138181,34 C19.6055007,34 19.3971834,33.9205243 19.239063,33.7615728 C18.9203123,33.4428332 18.9203123,32.9283324 19.239063,32.6104294 L23.610381,28.2384272 C23.9291317,27.9205243 24.4428138,27.9205243 24.7615645,28.2384272 C25.0794785,28.5563302 25.0794785,29.0716676 24.7615645,29.388734 L20.3894098,33.7615728 C20.2304528,33.9205243 20.0221355,34 19.8138181,34" id="Fill-4" fill="#33AA26"></path>
                <g id="Group-8" transform="translate(0.000000, 30.000000)">
                    <mask id="mask-4" fill="white">
                        <use xlink:href="#path-3"></use>
                    </mask>
                    <g id="Clip-7"></g>
                    <path d="M16.951575,2.068436 C16.74745,2.068436 16.5596167,2.143876 16.4177833,2.279116 L2.08399167,16.813276 C1.94311667,16.948516 1.86549167,17.130676 1.86549167,17.325716 C1.86549167,17.519836 1.944075,17.702916 2.08399167,17.838156 L5.37778333,20.999276 C5.66049167,21.269756 6.16265833,21.271596 6.44440833,20.999276 L20.7782,6.466036 C20.9200333,6.328956 20.9976583,6.148636 20.9976583,5.952676 C20.9976583,5.757636 20.919075,5.576396 20.7782,5.440236 L17.4853667,2.279116 C17.3435333,2.143876 17.1547417,2.068436 16.951575,2.068436 M5.91061667,23.000276 C5.20911667,23.000276 4.55265833,22.738076 4.05815833,22.265196 L0.765325,19.104076 C0.272741667,18.630276 0.000575,17.998236 0.000575,17.325716 C0.000575,16.652276 0.272741667,16.020236 0.765325,15.546436 L15.0991167,1.014116 C16.0852417,0.066516 17.81695,0.066516 18.8049917,1.014116 L22.0968667,4.175236 C22.5904083,4.648116 22.862575,5.280156 22.862575,5.952676 C22.862575,6.627036 22.5904083,7.258156 22.0968667,7.731956 L7.76403333,22.265196 C7.27049167,22.738076 6.61211667,23.000276 5.91061667,23.000276" id="Fill-6" fill="#33AA26" mask="url(#mask-4)"></path>
                </g>
                <path d="M36.5002568,25 C36.2239343,25 36,24.5993338 36,24.1058526 L36,9.89414738 C36,9.39974729 36.2239343,9 36.5002568,9 C36.7760657,9 37,9.39974729 37,9.89414738 L37,24.1058526 C37,24.5993338 36.7760657,25 36.5002568,25" id="Fill-9" fill="#33AA26"></path>
                <path d="M43.1058526,17 L28.8932284,17 C28.4006662,17 28,16.7758355 28,16.5002571 C28,16.2236504 28.4006662,16 28.8932284,16 L43.1058526,16 C43.5993338,16 44,16.2236504 44,16.5002571 C44,16.7758355 43.5993338,17 43.1058526,17" id="Fill-11" fill="#33AA26"></path>
            </g>
        </g>
    </g>
</svg>