<?xml version="1.0" encoding="UTF-8"?>
<svg width="17px" height="19px" viewBox="0 0 17 19" version="1.1" xmlns="http://www.w3.org/2000/svg" xmlns:xlink="http://www.w3.org/1999/xlink">
    <!-- Generator: Sketch 62 (91390) - https://sketch.com -->
    <title>quick-quote-icon-green</title>
    <desc>Created with Sketch.</desc>
    <g id="Symbols" stroke="none" stroke-width="1" fill="none" fill-rule="evenodd">
        <g id="button-copy-7" transform="translate(-63.000000, -28.000000)" fill="#33AA26">
            <g id="Group" transform="translate(29.000000, 8.000000)">
                <g id="quick-quote-icon-green" transform="translate(34.000000, 20.000000)">
                    <path d="M13.4813872,15.4171597 C11.1147299,17.8270172 7.27767741,17.8270172 4.91102008,15.4171597 C2.54439667,13.0073023 2.54439667,9.10020959 4.91102008,6.69035213 C7.27767741,4.28052922 11.1147299,4.28052922 13.4813872,6.69035213 C15.8480446,9.10020959 15.8480446,13.0073023 13.4813872,15.4171597 M14.714333,5.4349352 C13.5929705,4.29310377 12.2151599,3.57196708 10.7697005,3.27041967 L10.7697005,2.90551587 L10.9256592,2.90551587 C11.2623088,2.90551587 11.5352111,2.6276321 11.5352111,2.2848374 L11.5352111,0.355714707 C11.5352111,0.159254618 11.3788114,0 11.1858731,0 L7.20653418,0 C7.01359592,0 6.85719617,0.159254618 6.85719617,0.355714707 L6.85719617,2.2848374 C6.85719617,2.6276321 7.1301324,2.90551587 7.46674809,2.90551587 L7.6227068,2.90551587 L7.6227068,3.27041967 C6.17728132,3.57196708 4.79947075,4.29310377 3.67810828,5.4349352 C3.65195118,5.46156976 3.62654046,5.48868795 3.60085833,5.51556433 L3.17956286,5.08661322 L3.65269756,4.60484209 L2.29948347,3.22692692 L0,5.56838435 L1.35321408,6.94633407 L1.82634878,6.46452839 L2.43454365,7.08382504 C0.711500131,10.122341 1.1256711,14.0735828 3.67810828,16.6726112 C6.72566432,19.7757963 11.6667769,19.7757963 14.714333,16.6726112 C17.761889,13.5694262 17.761889,8.53812024 14.714333,5.4349352" id="Fill-1"></path>
                    <path d="M11.693135,8.04150007 L9.06338672,10.0681088 C8.78558173,10.0447603 8.4995874,10.1376761 8.28699939,10.3476651 C7.90433354,10.7256526 7.90433354,11.3384851 8.28699939,11.7165094 C8.66966525,12.0944969 9.29011997,12.0944969 9.67278582,11.7165094 C9.91009077,11.4821056 9.99991302,11.1573967 9.94288538,10.8544184 L11.9579859,8.30314979 C12.0948225,8.12989326 11.8684987,7.90633645 11.693135,8.04150007" id="Fill-3"></path>
                </g>
            </g>
        </g>
    </g>
</svg>