<?xml version="1.0" encoding="UTF-8"?>
<svg width="39px" height="33px" viewBox="0 0 39 33" version="1.1" xmlns="http://www.w3.org/2000/svg" xmlns:xlink="http://www.w3.org/1999/xlink">
    <!-- Generator: Sketch 62 (91390) - https://sketch.com -->
    <title>screen-icon</title>
    <desc>Created with Sketch.</desc>
    <g id="HOMEPAGE" stroke="none" stroke-width="1" fill="none" fill-rule="evenodd">
        <g id="Desktop1" transform="translate(-1229.000000, -646.000000)" stroke="#FFFFFF">
            <g id="Group-18" transform="translate(1218.000000, 631.000000)">
                <g id="screen-icon" transform="translate(12.000000, 16.000000)">
                    <path d="M37,23.5625 C37,24.4595 36.2793043,25.1875 35.3913043,25.1875 L1.60869565,25.1875 C0.720695652,25.1875 0,24.4595 0,23.5625 L0,1.625 C0,0.728 0.720695652,0 1.60869565,0 L35.3913043,0 C36.2793043,0 37,0.728 37,1.625 L37,23.5625 Z" id="Stroke-1"></path>
                    <line x1="0" y1="21.796875" x2="37" y2="21.796875" id="Stroke-3"></line>
                    <line x1="11.6842105" y1="30.515625" x2="25.3157895" y2="30.515625" id="Stroke-5"></line>
                    <line x1="20.4473684" y1="18.890625" x2="15.5789474" y2="18.890625" id="Stroke-7"></line>
                    <line x1="24.3421053" y1="18.890625" x2="22.3947368" y2="18.890625" id="Stroke-9"></line>
                    <line x1="27.2631579" y1="18.890625" x2="25.3157895" y2="18.890625" id="Stroke-11"></line>
                    <line x1="10.7105263" y1="18.890625" x2="8.76315789" y2="18.890625" id="Stroke-13"></line>
                    <line x1="14.6052632" y1="18.890625" x2="12.6578947" y2="18.890625" id="Stroke-15"></line>
                    <line x1="13.6315789" y1="30.03125" x2="14.6052632" y2="25.1875" id="Stroke-17"></line>
                    <line x1="23.3684211" y1="30.03125" x2="22.3947368" y2="25.1875" id="Stroke-19"></line>
                </g>
            </g>
        </g>
    </g>
</svg>