<?xml version="1.0" encoding="UTF-8"?>
<svg width="64px" height="65px" viewBox="0 0 64 65" version="1.1" xmlns="http://www.w3.org/2000/svg" xmlns:xlink="http://www.w3.org/1999/xlink">
    <!-- Generator: Sketch 62 (91390) - https://sketch.com -->
    <title>Group 17</title>
    <desc>Created with Sketch.</desc>
    <g id="HOMEPAGE" stroke="none" stroke-width="1" fill="none" fill-rule="evenodd" stroke-linejoin="round">
        <g id="Business-Card-Payments" transform="translate(-1124.000000, -1111.000000)" stroke="#FFFFFF" stroke-width="2">
            <g id="recieved-quote" transform="translate(1111.000000, 1100.000000)">
                <g id="Group-17" transform="translate(14.000000, 12.000000)">
                    <path d="M34.0001,38.0029 L29.0001,38.0029 C27.8961,38.0029 27.0001,37.1069 27.0001,36.0029 C27.0001,34.8989 27.8961,34.0029 29.0001,34.0029 L34.0001,34.0029 C35.1041,34.0029 36.0001,34.8989 36.0001,36.0029 C36.0001,37.1069 35.1041,38.0029 34.0001,38.0029 Z" id="Stroke-1" stroke-linecap="round"></path>
                    <path d="M26.0001,36.0029 L21.0001,36.0029 C17.6871,36.0029 15.0001,33.3159 15.0001,30.0029 L15.0001,25.0029" id="Stroke-3" stroke-linecap="round"></path>
                    <path d="M15.0001,31.0029 C12.0001,31.0029 10.0001,29.0029 10.0001,26.5029 L10.0001,23.5029 C10.0001,21.0029 12.0001,19.0029 15.0001,19.0029" id="Stroke-5" stroke-linecap="round"></path>
                    <path d="M48.0001,31.0029 C51.0001,31.0029 53.0001,29.0029 53.0001,26.5029 L53.0001,23.5029 C53.0001,21.0029 51.0001,19.0029 48.0001,19.0029" id="Stroke-7" stroke-linecap="round"></path>
                    <path d="M62.0001956,62.0029 L62.0001956,62.0029 C62.0201,56.5769 58.9021,51.6279 54.0001,49.3029 L43.0001,45.0029 C40.0001,47.0029 36.7001,49.0029 32.0001,49.0029 C27.6481,49.1649 23.3841,47.7439 20.0001,45.0029 L8.0001,49.2029 C3.0981,51.5279 -0.0199,56.4769 4.35384156e-06,61.9029" id="Stroke-9" stroke-linecap="square"></path>
                    <path d="M15.0001,25.0029 L15.0001,16.0029 C14.8331,7.3339 21.7251,0.1699 30.3941,0.0029 C30.5961,-0.0011 30.7981,-0.0011 31.0001,0.0029 C40.1001,0.0029 48.0001,7.0029 48.0001,16.0029 L48.0001,31.0029" id="Stroke-11" stroke-linecap="round"></path>
                    <path d="M44.0001,21.0029 L44.0001,28.5029 C44.0001,35.4029 40.0001,43.0029 31.5001,43.0029 C23.0001,43.0029 19.0001,35.4029 19.0001,28.5029 L19.0001,21.0029" id="Stroke-13" stroke-linecap="square"></path>
                    <path d="M19.0001,17.0029 C32.2001,17.0029 37.0001,14.0029 39.0001,11.0029 C39.0001,11.0029 39.0001,17.0029 44.0001,17.0029" id="Stroke-15" stroke-linecap="square"></path>
                </g>
            </g>
        </g>
    </g>
</svg>