<?xml version="1.0" encoding="UTF-8"?>
<svg width="50px" height="48px" viewBox="0 0 50 48" version="1.1" xmlns="http://www.w3.org/2000/svg" xmlns:xlink="http://www.w3.org/1999/xlink">
    <!-- Generator: Sketch 62 (91390) - https://sketch.com -->
    <title>account-icon</title>
    <desc>Created with Sketch.</desc>
    <defs>
        <polygon id="path-1" points="0 0 50.01 0 50.01 19 0 19"></polygon>
    </defs>
    <g id="HOMEPAGE" stroke="none" stroke-width="1" fill="none" fill-rule="evenodd">
        <g id="Business-Waste" transform="translate(-437.000000, -1119.000000)">
            <g id="1-set-up-account" transform="translate(417.000000, 1100.000000)">
                <g id="account-icon" transform="translate(20.000000, 19.000000)">
                    <g id="Group-3" transform="translate(0.000000, 29.000000)">
                        <mask id="mask-2" fill="white">
                            <use xlink:href="#path-1"></use>
                        </mask>
                        <g id="Clip-2"></g>
                        <path d="M25.0051,2 C11.1051,2 4.5051,9 4.4051,9.1 C4.3051,9.2 2.2051,13.2 2.0051,16.5 C1.9791,16.642 2.0161,16.787 2.1051,16.9 L2.5051,17 L47.5051,17 L47.9051,16.8 C47.9941,16.688 48.0311,16.542 48.0051,16.4 C47.8051,13.1 46.9051,10.4 45.6051,9 C44.3051,7.6 38.9051,2 25.0051,2 M47.5051,19 L2.5051,19 C1.8211,18.991 1.1701,18.702 0.7051,18.2 C0.2141,17.693 -0.0399,17.004 0.0051,16.3 C0.1051,14.1 0.7051,10 2.9051,7.7 C3.0051,7.6 10.3051,0 25.0051,0 C39.7051,0 47.0051,7.6 47.1051,7.7 C49.3051,10.1 49.9051,14.1 50.0051,16.3 C50.0501,17.004 49.7961,17.693 49.3051,18.2 C48.8401,18.702 48.1891,18.991 47.5051,19" id="Fill-1" fill="#FFFFFF" mask="url(#mask-2)"></path>
                    </g>
                    <path d="M25.0051,1.9004 C18.8751,1.9004 13.9051,6.8704 13.9051,13.0004 C13.9051,19.1294 18.8751,24.0994 25.0051,24.0994 C31.1351,24.0994 36.1051,19.1294 36.1051,13.0004 C36.1051,6.8704 31.1351,1.9004 25.0051,1.9004 M25.0051,26.0004 C17.8251,26.0004 12.0051,20.1794 12.0051,13.0004 C12.0051,5.8204 17.8251,0.0004 25.0051,0.0004 C32.1851,0.0004 38.0051,5.8204 38.0051,13.0004 C38.0051,20.1794 32.1851,26.0004 25.0051,26.0004" id="Fill-4" fill="#FFFFFF"></path>
                </g>
            </g>
        </g>
    </g>
</svg>