<?xml version="1.0" encoding="UTF-8"?>
<svg width="56px" height="57px" viewBox="0 0 56 57" version="1.1" xmlns="http://www.w3.org/2000/svg" xmlns:xlink="http://www.w3.org/1999/xlink">
    <!-- Generator: Sketch 62 (91390) - https://sketch.com -->
    <title>Group 23</title>
    <desc>Created with Sketch.</desc>
    <defs>
        <polygon id="path-1" points="0.000180645161 -0.000180769231 55.6387097 -0.000180769231 55.6387097 46.9998192 0.000180645161 46.9998192"></polygon>
        <polygon id="path-3" points="0.35964 0.375 26.27964 0.375 26.27964 13.874625 0.35964 13.874625"></polygon>
    </defs>
    <g id="HOMEPAGE" stroke="none" stroke-width="1" fill="none" fill-rule="evenodd">
        <g id="Business-Card-Payments" transform="translate(-778.000000, -1114.000000)">
            <g id="auto-matched-2" transform="translate(760.000000, 1100.000000)">
                <g id="Group-23" transform="translate(18.000000, 14.000000)">
                    <g id="Group-3" transform="translate(0.000000, 10.000000)">
                        <mask id="mask-2" fill="white">
                            <use xlink:href="#path-1"></use>
                        </mask>
                        <g id="Clip-2"></g>
                        <path d="M51.3034065,-0.000180769231 L43.3550194,-0.000180769231 C43.3785032,0.301703846 43.3785032,0.601780769 43.3550194,0.903665385 L43.3550194,1.80751154 L51.1227613,1.80751154 C52.5191484,1.80751154 53.6517935,2.94093462 53.6517935,4.33828077 L53.6517935,42.6613577 C53.6517935,44.0587038 52.5191484,45.1921269 51.1227613,45.1921269 L4.33566452,45.1921269 C2.93927742,45.1921269 1.80663226,44.0587038 1.80663226,42.6613577 L1.80663226,4.33828077 C1.80663226,2.94093462 2.93927742,1.80751154 4.33566452,1.80751154 L12.1034065,1.80751154 L12.1034065,0.903665385 C12.0799226,0.601780769 12.0799226,0.301703846 12.1034065,-0.000180769231 L4.33566452,-0.000180769231 C1.94030968,-0.000180769231 0.000180645161,1.94308846 0.000180645161,4.33828077 L0.000180645161,42.6613577 C0.000180645161,45.0583577 1.94030968,46.9998192 4.33566452,46.9998192 L51.3034065,46.9998192 C53.6969548,46.9998192 55.6388903,45.0583577 55.6388903,42.6613577 L55.6388903,4.33828077 C55.6388903,1.94308846 53.6969548,-0.000180769231 51.3034065,-0.000180769231" id="Fill-1" fill="#FFFFFF" mask="url(#mask-2)"></path>
                    </g>
                    <g id="Group-6" transform="translate(14.000000, 0.000000)">
                        <mask id="mask-4" fill="white">
                            <use xlink:href="#path-3"></use>
                        </mask>
                        <g id="Clip-5"></g>
                        <path d="M1.97964,11.999625 L24.65964,11.999625 L24.65964,10.124625 C24.65964,9.089625 23.85324,8.249625 22.85964,8.249625 L20.15964,8.249625 C19.66284,8.249625 19.25964,7.829625 19.25964,7.312125 L19.25964,2.249625 L7.19964,2.249625 L7.19964,7.499625 C7.19964,8.017125 6.79644,8.437125 6.29964,8.437125 L3.77964,8.437125 C2.78604,8.437125 1.97964,9.277125 1.97964,10.312125 L1.97964,12.187125 L1.97964,11.999625 Z M25.37964,13.874625 L1.25964,13.874625 C0.76284,13.874625 0.35964,13.454625 0.35964,12.937125 L0.35964,10.312125 C0.35964,8.34525 1.89144,6.749625 3.77964,6.749625 L5.57964,6.749625 L5.57964,1.312125 C5.57244,0.86025 5.87484,0.4665 6.29964,0.374625 L20.15964,0.374625 C20.65644,0.374625 21.05964,0.794625 21.05964,1.312125 L21.05964,6.749625 L22.85964,6.749625 C24.74784,6.749625 26.27964,8.34525 26.27964,10.312125 L26.27964,12.937125 C26.27964,13.454625 25.87644,13.874625 25.37964,13.874625 L25.37964,13.874625 Z" id="Fill-4" fill="#FFFFFF" mask="url(#mask-4)"></path>
                    </g>
                    <path d="M24.875,6.5 L30.3125,6.5 L30.3125,6 C30.3125,5.815 30.14375,5.66666667 29.9375,5.66666667 L25.25,5.66666667 C25.041875,5.66666667 24.875,5.815 24.875,6 L24.875,6.5 Z M31.0625,8 L23.9375,8 C23.42,8 23,7.62666667 23,7.16666667 L23,6 C23,4.895 24.006875,4 25.25,4 L29.75,4 C30.993125,4 32,4.895 32,6 L32,7.16666667 C32,7.62666667 31.58,8 31.0625,8 L31.0625,8 Z" id="Fill-7" fill="#FFFFFF"></path>
                    <path d="M47.0944882,30 L25.9055118,30 C25.4056693,30 25,29.552 25,29 C25,28.448 25.4056693,28 25.9055118,28 L47.0944882,28 C47.5943307,28 48,28.448 48,29 C48,29.552 47.5943307,30 47.0944882,30" id="Fill-9" fill="#FFFFFF"></path>
                    <path d="M40.1011236,26 L25.8988764,26 C25.4026966,26 25,25.552 25,25 C25,24.448 25.4026966,24 25.8988764,24 L40.1011236,24 C40.5973034,24 41,24.448 41,25 C41,25.552 40.5973034,26 40.1011236,26" id="Fill-11" fill="#FFFFFF"></path>
                    <path d="M18.2352941,26.2352941 L18.2352941,28.8823529 L9.76470588,28.8823529 L9.76470588,20.7647059 L14,20.7647059 L15.2352941,19 L9.94117647,19 C8.86823529,19 8,19.87 8,20.9411765 L8,29.0588235 C8,30.1317647 8.86823529,31 9.94117647,31 L18.0588235,31 C19.13,31 20,30.1317647 20,29.0588235 L20,23.9411765 L18.2352941,26.2352941 Z" id="Fill-13" fill="#FFFFFF"></path>
                    <path d="M13.7364988,29 L13.7364988,29 L12.9995644,28.4375222 L11.1572285,24.8751632 C10.8735087,24.4458051 10.9840489,23.8627032 11.4059438,23.5739646 C11.8296811,23.285226 12.4008052,23.3995965 12.6863673,23.8289545 C12.7453221,23.918951 12.7895381,24.020197 12.8153308,24.1251928 L13.9207324,26.3751038 L18.3423387,20.3753411 C18.6481665,19.9609825 19.2248176,19.8766109 19.6319739,20.1878486 C20.0391301,20.4990862 20.1201929,21.085938 19.8162074,21.5002966 L14.4734332,28.6250148 L13.7364988,29" id="Fill-15" fill="#FFFFFF"></path>
                    <path d="M47.0944882,48 L25.9055118,48 C25.4056693,48 25,47.552 25,47 C25,46.448 25.4056693,46 25.9055118,46 L47.0944882,46 C47.5943307,46 48,46.448 48,47 C48,47.552 47.5943307,48 47.0944882,48" id="Fill-17" fill="#FFFFFF"></path>
                    <path d="M40.1011236,43 L25.8988764,43 C25.4026966,43 25,42.552 25,42 C25,41.448 25.4026966,41 25.8988764,41 L40.1011236,41 C40.5973034,41 41,41.448 41,42 C41,42.552 40.5973034,43 40.1011236,43" id="Fill-19" fill="#FFFFFF"></path>
                    <path d="M18.2352941,44.2352941 L18.2352941,46.8823529 L9.76470588,46.8823529 L9.76470588,38.7647059 L14,38.7647059 L15.2352941,37 L9.94117647,37 C8.86823529,37 8,37.87 8,38.9411765 L8,47.0588235 C8,48.1317647 8.86823529,49 9.94117647,49 L18.0588235,49 C19.13,49 20,48.1317647 20,47.0588235 L20,41.9411765 L18.2352941,44.2352941 Z" id="Fill-21" fill="#FFFFFF"></path>
                </g>
            </g>
        </g>
    </g>
</svg>