<?xml version="1.0" encoding="UTF-8"?>
<svg width="15px" height="14px" viewBox="0 0 15 14" version="1.1" xmlns="http://www.w3.org/2000/svg" xmlns:xlink="http://www.w3.org/1999/xlink">
    <!-- Generator: Sketch 62 (91390) - https://sketch.com -->
    <title>Group 3 Copy 3</title>
    <desc>Created with Sketch.</desc>
    <defs>
        <polygon id="path-1" points="0 0 15 0 15 14 0 14"></polygon>
    </defs>
    <g id="HOMEPAGE" stroke="none" stroke-width="1" fill="none" fill-rule="evenodd">
        <g id="Desktop2" transform="translate(-231.000000, -754.000000)">
            <g id="Group-25" transform="translate(182.000000, 591.000000)">
                <g id="Group" transform="translate(49.000000, 157.000000)">
                    <g id="Group-3-Copy-3" transform="translate(0.000000, 6.000000)">
                        <mask id="mask-2" fill="white">
                            <use xlink:href="#path-1"></use>
                        </mask>
                        <g id="Clip-2"></g>
                        <path d="M14.4503804,0.0857661921 C14.2658107,0.155687572 14.0407706,0.253311136 13.8093941,0.364452834 C13.6936378,0.419990387 13.5763826,0.478990713 13.4616482,0.539655834 C12.2141504,1.26117788 11.1380048,2.19612661 10.0300415,3.1266137 C9.87272457,3.2587984 9.71506702,3.39065015 9.55618309,3.52123665 C9.40915414,3.64749468 9.26158013,3.77348635 9.11325666,3.89861232 C8.98196621,4.01328338 8.85101642,4.12888673 8.72033916,4.24528918 C8.3285799,4.59462971 7.94138548,4.94869826 7.55868779,5.30995872 C7.40920608,5.45279811 7.26074635,5.59656979 7.11337674,5.74147352 C6.99060279,5.86213785 6.86864643,5.98360127 6.74750766,6.10606357 C6.25961408,6.59031907 5.78125899,7.08116716 5.34133037,7.61689811 C5.22850371,7.74661892 5.11683528,7.87740519 5.00639324,8.00925694 C4.90112923,8.13225197 4.79423005,8.25724476 4.68705834,8.38203778 C4.60673066,8.47559924 4.52613045,8.56909412 4.44518958,8.66225603 C4.20298016,8.97437175 3.91600798,9.23141606 3.67686451,9.51196727 C3.07900581,8.83406285 2.48114711,8.15629161 1.88056313,7.48984097 C1.75751666,7.35685717 1.63392513,7.22400655 1.5103336,7.09102274 C1.13942274,6.69213792 0.768375624,6.29225422 0.400666976,5.88904093 C-0.0297912862,6.33607162 -0.070125457,6.83897282 0.0774485531,7.35372735 C0.126708022,7.52526781 0.196747764,7.69814009 0.28020952,7.87067942 C1.18984046,9.6755833 2.09858568,11.475293 3.19878194,13.1655258 C3.30568112,13.3510506 3.40133851,13.5089397 3.47914531,13.6252756 C3.55702024,13.7416114 3.6171127,13.816394 3.65295016,13.835972 C3.98672905,14.0063804 4.27383749,14.0348151 4.52565353,13.9634953 C4.65149341,13.9277355 4.76854427,13.8672035 4.87823686,13.7869604 C5.18346842,13.5788611 5.39869755,13.251629 5.54211551,12.9477707 C5.72150719,12.5796513 5.90382854,12.2173919 6.09037408,11.8598606 C6.18364685,11.6811282 6.2779416,11.5034614 6.37325833,11.3270597 C7.28793104,9.55871471 8.38799104,7.92255443 9.57723589,6.32881311 C9.69060762,6.16772757 9.80343428,6.00730795 9.91585216,5.8487529 C10.0213887,5.70085253 10.127334,5.55335172 10.2338925,5.40618386 C10.355372,5.2558196 10.476647,5.10525556 10.5990803,4.95515766 C11.8553671,3.575176 12.9554952,2.03251059 14.4142023,0.817077232 C14.545629,0.711928795 14.7332647,0.524872456 14.8603991,0.357793655 C14.9876016,0.190781445 15.054371,0.043879956 14.9447466,0.0191744019 C14.9447466,0.0191744019 14.8193836,-0.0540765673 14.4503804,0.0857661921" id="Fill-1" fill="#33AA26" mask="url(#mask-2)"></path>
                    </g>
                </g>
            </g>
        </g>
    </g>
</svg>