<?xml version="1.0" encoding="UTF-8"?>
<svg width="65px" height="34px" viewBox="0 0 65 34" version="1.1" xmlns="http://www.w3.org/2000/svg" xmlns:xlink="http://www.w3.org/1999/xlink">
    <!-- Generator: Sketch 62 (91390) - https://sketch.com -->
    <title>Group 4</title>
    <desc>Created with Sketch.</desc>
    <defs>
        <polygon id="path-1" points="2.0925e-05 0.0765947368 15.0346334 0.0765947368 15.0346334 15.0234886 2.0925e-05 15.0234886"></polygon>
    </defs>
    <g id="HOMEPAGE" stroke="none" stroke-width="1" fill="none" fill-rule="evenodd">
        <g id="Phone-V2" transform="translate(-137.000000, -62.000000)">
            <g id="Group-4" transform="translate(137.000000, 62.000000)">
                <g id="Group-2" transform="translate(1.386000, 22.869000)">
                    <g id="Group">
                        <rect id="Rectangle" fill="#24881A" x="0" y="0" width="10.8565999" height="11.088" rx="0.693"></rect>
                        <g id="Group-3" transform="translate(1.696344, 1.732500)" fill="#FFFFFF">
                            <polygon id="Fill-1" points="3.73455327 0 2.85155736 2.78062445 0 2.77529758 2.30617754 4.49587555 1.42312969 7.2765 3.72935917 5.55592204 6.03553671 7.2765 5.1577349 4.49587555 7.46391244 2.78062445 4.61230314 2.78062445"></polygon>
                        </g>
                    </g>
                    <g id="Group-Copy" transform="translate(13.167000, 0.000000)">
                        <rect id="Rectangle" fill="#24881A" x="0" y="0" width="10.8565999" height="11.088" rx="0.693"></rect>
                        <g id="Group-3" transform="translate(1.696344, 1.732500)" fill="#FFFFFF">
                            <polygon id="Fill-1" points="3.73455327 0 2.85155736 2.78062445 0 2.77529758 2.30617754 4.49587555 1.42312969 7.2765 3.72935917 5.55592204 6.03553671 7.2765 5.1577349 4.49587555 7.46391244 2.78062445 4.61230314 2.78062445"></polygon>
                        </g>
                    </g>
                    <g id="Group-Copy-2" transform="translate(26.334000, 0.000000)">
                        <rect id="Rectangle" fill="#24881A" x="0" y="0" width="10.8565999" height="11.088" rx="0.693"></rect>
                        <g id="Group-3" transform="translate(1.696344, 1.732500)" fill="#FFFFFF">
                            <polygon id="Fill-1" points="3.73455327 0 2.85155736 2.78062445 0 2.77529758 2.30617754 4.49587555 1.42312969 7.2765 3.72935917 5.55592204 6.03553671 7.2765 5.1577349 4.49587555 7.46391244 2.78062445 4.61230314 2.78062445"></polygon>
                        </g>
                    </g>
                    <g id="Group-Copy-3" transform="translate(38.808000, 0.000000)">
                        <rect id="Rectangle" fill="#24881A" x="0" y="0" width="10.8565999" height="11.088" rx="0.693"></rect>
                        <g id="Group-3" transform="translate(1.696344, 1.732500)" fill="#FFFFFF">
                            <polygon id="Fill-1" points="3.73455327 0 2.85155736 2.78062445 0 2.77529758 2.30617754 4.49587555 1.42312969 7.2765 3.72935917 5.55592204 6.03553671 7.2765 5.1577349 4.49587555 7.46391244 2.78062445 4.61230314 2.78062445"></polygon>
                        </g>
                    </g>
                    <g id="Group-Copy-4" transform="translate(51.975000, 0.000000)">
                        <rect id="Rectangle" fill="#24881A" x="0" y="0" width="10.8565999" height="11.088" rx="0.693"></rect>
                        <g id="Group-3" transform="translate(1.696344, 1.732500)" fill="#FFFFFF">
                            <polygon id="Fill-1" points="3.73455327 0 2.85155736 2.78062445 0 2.77529758 2.30617754 4.49587555 1.42312969 7.2765 3.72935917 5.55592204 6.03553671 7.2765 5.1577349 4.49587555 7.46391244 2.78062445 4.61230314 2.78062445"></polygon>
                        </g>
                    </g>
                </g>
                <g id="Group-8">
                    <path d="M61.0088619,8.06344563 L61.9903257,8.06344563 L61.9903257,6.32743633 L63.2844216,6.32743633 L63.2844216,8.0528602 L64.449,8.0528602 L64.449,8.99496281 L63.2844216,8.99496281 L63.2844216,12.0647353 C63.2844216,12.2023458 63.2950979,12.3082001 63.3059898,12.4140543 C63.3166661,12.5093231 63.3490185,12.5940065 63.3813709,12.657519 C63.4245075,12.7210315 63.4892123,12.7739587 63.5647012,12.8057149 C63.6509742,12.8374712 63.7588156,12.858642 63.9097934,12.858642 C63.9960665,12.858642 64.0932315,12.858642 64.1793967,12.8480566 C64.2656698,12.8374712 64.3628348,12.8268858 64.449,12.8057149 L64.449,13.7901592 C64.3089141,13.8113301 64.1687204,13.8219155 64.0284189,13.8325009 C63.8882251,13.8536718 63.7588156,13.8536718 63.6079455,13.8536718 C63.2627455,13.8536718 62.9931422,13.8219155 62.7882437,13.758403 C62.583453,13.6948904 62.421691,13.5996216 62.3029577,13.483182 C62.1843323,13.3561569 62.1088434,13.207961 62.0658147,13.0280088 C62.0225703,12.8480566 62.001002,12.6257627 61.9903257,12.3928834 L61.9903257,9.00554823 L61.0088619,9.00554823 L61.0088619,8.04227478 L61.0088619,8.06344563 Z M57.665781,12.9644963 C57.9462762,12.9644963 58.2049876,12.9009837 58.4098861,12.7845441 C58.6255687,12.6681044 58.7873307,12.5093231 58.9275244,12.3187855 C59.0677181,12.1282479 59.1647753,11.905954 59.2294801,11.6730747 C59.2942927,11.42961 59.3265373,11.1861453 59.3265373,10.9320951 C59.3265373,10.6886304 59.2942927,10.4451657 59.2294801,10.201701 C59.1647753,9.95823626 59.0677181,9.74652781 58.9275244,9.5559902 C58.7873307,9.3654526 58.6148924,9.21725668 58.4098861,9.10081703 C58.1942034,8.98437739 57.9462762,8.92086485 57.665781,8.92086485 C57.3853935,8.92086485 57.1265744,8.98437739 56.9217837,9.10081703 C56.7061011,9.21725668 56.5443391,9.37603802 56.4041454,9.5559902 C56.2638438,9.74652781 56.1668945,9.95823626 56.1020818,10.201701 C56.037377,10.4451657 56.0051325,10.6886304 56.0051325,10.9320951 C56.0051325,11.1861453 56.037377,11.42961 56.1020818,11.6730747 C56.1668945,11.9165394 56.2638438,12.1282479 56.4041454,12.3187855 C56.5443391,12.5093231 56.7167774,12.6681044 56.9217837,12.7845441 C57.1374663,12.9115692 57.3853935,12.9644963 57.665781,12.9644963 L57.665781,12.9644963 Z M57.665781,13.9701114 C57.2020633,13.9701114 56.78159,13.8960134 56.4148217,13.7372321 C56.0481612,13.5784508 55.7462055,13.3773277 55.4874941,13.1126922 C55.2393513,12.8480566 55.0452369,12.5199085 54.9158273,12.1494187 C54.7865256,11.7789289 54.7110366,11.3660975 54.7110366,10.9320951 C54.7110366,10.4980928 54.7756336,10.0958468 54.9158273,9.72535696 C55.0452369,9.35486718 55.2393513,9.0373045 55.4874941,8.76208351 C55.7355292,8.49744795 56.0481612,8.2857395 56.4148217,8.13754358 C56.78159,7.98934767 57.2020633,7.90466429 57.665781,7.90466429 C58.1296065,7.90466429 58.5500798,7.97876224 58.9168481,8.13754358 C59.2834008,8.2857395 59.5854643,8.49744795 59.8441756,8.76208351 C60.0922107,9.02671908 60.2864329,9.35486718 60.4157346,9.72535696 C60.5451442,10.0958468 60.6206331,10.4980928 60.6206331,10.9320951 C60.6206331,11.3766829 60.5560362,11.7789289 60.4157346,12.1494187 C60.2755409,12.5199085 60.0922107,12.8374712 59.8441756,13.1126922 C59.5961406,13.3773277 59.2834008,13.5890362 58.9168481,13.7372321 C58.5500798,13.885428 58.1402828,13.9701114 57.665781,13.9701114 L57.665781,13.9701114 Z M52.4246928,13.8113301 L53.7187887,13.8113301 L53.7187887,5.87226316 L52.4246928,5.87226316 L52.4246928,13.8113301 Z M49.9766948,13.8113301 L51.2707907,13.8113301 L51.2707907,8.06344563 L49.9766948,8.06344563 L49.9766948,13.8113301 Z M49.9766948,7.06841591 L51.2707907,7.06841591 L51.2707907,5.87226316 L49.9766948,5.87226316 L49.9766948,7.06841591 Z M47.7013508,10.9426806 C47.7013508,10.6886304 47.6689984,10.4345803 47.5935095,10.1911156 C47.5286969,9.94765084 47.4208556,9.73594239 47.2806618,9.54540478 C47.1404681,9.35486718 46.9680299,9.20667126 46.7738076,9.09023161 C46.569017,8.97379196 46.3316582,8.92086485 46.0728391,8.92086485 C45.5336325,8.92086485 45.1238354,9.10081703 44.8435559,9.47130682 C44.5739526,9.84179661 44.4337588,10.3393115 44.4337588,10.953266 C44.4337588,11.2496578 44.4661112,11.5142934 44.5416002,11.7577581 C44.6169812,12.0012228 44.7140384,12.2129313 44.8651241,12.3928834 C45.0053178,12.5728356 45.1777561,12.7104461 45.3827625,12.8163003 C45.5875531,12.9221546 45.8141277,12.9750817 46.083731,12.9750817 C46.3855789,12.9750817 46.6229376,12.9115692 46.8277283,12.7951295 C47.0326268,12.6786899 47.1943888,12.5199085 47.3345825,12.3399563 C47.4639921,12.1494187 47.5611571,11.9377103 47.6150778,11.6942456 C47.6689984,11.4401954 47.7013508,11.1967307 47.7013508,10.9426806 L47.7013508,10.9426806 Z M43.1826917,8.06344563 L44.4012986,8.06344563 L44.4012986,8.84676689 L44.4228669,8.84676689 C44.6061971,8.50803337 44.8542321,8.27515408 45.1777561,8.12695816 C45.5012801,7.97876224 45.8463723,7.90466429 46.234601,7.90466429 C46.6984266,7.90466429 47.0973316,7.97876224 47.4424238,8.14812901 C47.787516,8.30691034 48.0679035,8.51861879 48.2944781,8.8044252 C48.520837,9.07964619 48.693491,9.40779429 48.8013323,9.77828408 C48.9091736,10.1487739 48.9737706,10.5510199 48.9737706,10.9638514 C48.9737706,11.355512 48.9198499,11.7260018 48.8227927,12.0859062 C48.7149514,12.4458106 48.5640814,12.7739587 48.359075,13.0491796 C48.1542844,13.3244006 47.8953574,13.5466945 47.5718334,13.7160613 C47.2483094,13.885428 46.881649,13.9701114 46.4502837,13.9701114 C46.2670613,13.9701114 46.0728391,13.9489406 45.8896167,13.9171843 C45.7062864,13.885428 45.5228483,13.8325009 45.3504101,13.758403 C45.1777561,13.684305 45.0159941,13.5890362 44.8758004,13.4725965 C44.7248226,13.3561569 44.6061971,13.2185464 44.5091399,13.0703505 L44.4876795,13.0703505 L44.4876795,15.939 L43.1935837,15.939 L43.1935837,8.06344563 L43.1826917,8.06344563 Z M38.8366865,8.06344563 L39.8180425,8.06344563 L39.8180425,6.32743633 L41.1121383,6.32743633 L41.1121383,8.0528602 L42.2769324,8.0528602 L42.2769324,8.99496281 L41.1121383,8.99496281 L41.1121383,12.0647353 C41.1121383,12.2023458 41.1230303,12.3082001 41.1337066,12.4140543 C41.1445986,12.5093231 41.176951,12.5940065 41.2091955,12.657519 C41.2524399,12.7210315 41.3170368,12.7739587 41.3926336,12.8057149 C41.4787988,12.8374712 41.5866401,12.858642 41.7377258,12.858642 C41.8239989,12.858642 41.9209482,12.858642 42.0073291,12.8480566 C42.0936022,12.8374712 42.1905515,12.8268858 42.2769324,12.8057149 L42.2769324,13.7901592 C42.1366309,13.8113301 41.9964372,13.8219155 41.8562434,13.8325009 C41.7161576,13.8536718 41.5866401,13.8536718 41.4356623,13.8536718 C41.0906779,13.8536718 40.8210746,13.8219155 40.6160683,13.758403 C40.4111698,13.6948904 40.2494078,13.5996216 40.1307823,13.483182 C40.0122647,13.3561569 39.9367758,13.207961 39.8935314,13.0280088 C39.8505027,12.8480566 39.8289345,12.6257627 39.8180425,12.3928834 L39.8180425,9.00554823 L38.8366865,9.00554823 L38.8366865,8.04227478 L38.8366865,8.06344563 Z M34.5769543,11.9694665 C34.6201987,12.3399563 34.7603924,12.5940065 35.0083196,12.7527878 C35.2563547,12.9009837 35.5583104,12.9750817 35.9034026,12.9750817 C36.0221359,12.9750817 36.1623296,12.9644963 36.3131996,12.9433254 C36.4641774,12.9221546 36.6152631,12.8903983 36.7445649,12.8374712 C36.8848664,12.7845441 36.9927078,12.7104461 37.0789808,12.6045919 C37.165146,12.4987377 37.2083904,12.3717126 37.1974984,12.2129313 C37.1868221,12.0541499 37.1329015,11.9165394 37.0141682,11.8106852 C36.8955427,11.704831 36.7554568,11.630733 36.5828029,11.5566351 C36.4102568,11.4931225 36.2053583,11.4401954 35.9788915,11.3978537 C35.7525326,11.355512 35.525958,11.3025849 35.2887071,11.2496578 C35.051564,11.1967307 34.8143131,11.1332182 34.5877385,11.0591202 C34.3612717,10.9850222 34.1672652,10.8897534 33.9838271,10.752143 C33.8113888,10.6251179 33.6603031,10.4663365 33.5632459,10.2652135 C33.4554046,10.0640905 33.401484,9.83121119 33.401484,9.53481936 C33.401484,9.21725668 33.4769729,8.96320654 33.6387349,8.75149809 C33.7898205,8.53978964 33.9946112,8.37042288 34.2318621,8.24339781 C34.469113,8.11637274 34.7387163,8.02110393 35.0299957,7.96817682 C35.3211673,7.91524971 35.6014469,7.89407886 35.8603739,7.89407886 C36.1623296,7.89407886 36.4535012,7.92583513 36.7231045,7.98934767 C36.9927078,8.0528602 37.2514191,8.14812901 37.4671017,8.29632492 C37.6936763,8.43393541 37.8768987,8.62447302 38.0172003,8.84676689 C38.1680703,9.06906077 38.2543434,9.34428175 38.2974799,9.66184443 L36.9494634,9.66184443 C36.8848664,9.35486718 36.7445649,9.15374415 36.5288822,9.04788992 C36.3024155,8.9420357 36.0544883,8.88910858 35.7632089,8.88910858 C35.6770436,8.88910858 35.5583104,8.89969401 35.4396849,8.91027943 C35.3102753,8.93145027 35.202434,8.95262112 35.0839164,8.99496281 C34.9760751,9.0373045 34.87891,9.10081703 34.8034211,9.17491499 C34.72804,9.24901295 34.6847957,9.35486718 34.6847957,9.48189225 C34.6847957,9.64067358 34.7387163,9.75711323 34.8465576,9.85238204 C34.954399,9.94765084 35.0945927,10.0217488 35.2779229,10.0958468 C35.450469,10.1593593 35.6553675,10.2122864 35.8818343,10.2546281 C36.1084089,10.2969698 36.3456598,10.3498969 36.5828029,10.402824 C36.8200538,10.4557511 37.0466284,10.5192637 37.2729873,10.5933616 C37.4994541,10.6674596 37.7043526,10.7627284 37.8768987,10.9003389 C38.0495527,11.0273639 38.2004227,11.1861453 38.308264,11.3766829 C38.4161053,11.5672205 38.470026,11.8106852 38.470026,12.0859062 C38.470026,12.4246397 38.3946449,12.7104461 38.2328829,12.9539108 C38.071121,13.1867901 37.8661146,13.3879132 37.6181874,13.5361091 C37.3701524,13.684305 37.0789808,13.7901592 36.7770251,13.8642572 C36.4641774,13.9277697 36.1623296,13.9701114 35.8603739,13.9701114 C35.4936056,13.9701114 35.1485133,13.9277697 34.8358813,13.8430863 C34.5230337,13.758403 34.2427541,13.6313779 34.0161795,13.4725965 C33.7898205,13.3032298 33.6063825,13.1021068 33.4769729,12.8480566 C33.3475633,12.6045919 33.2721822,12.3082001 33.2612902,11.9588811 L34.566278,11.9588811 L34.566278,11.9694665 L34.5769543,11.9694665 Z M32.3769914,13.8113301 L31.1044638,13.8113301 L31.1044638,13.006838 L31.0828956,13.006838 C30.9211336,13.3032298 30.6838827,13.5255237 30.3711429,13.7054758 C30.058403,13.885428 29.7348791,13.9701114 29.4113551,13.9701114 C28.6456817,13.9701114 28.0849069,13.7901592 27.7398146,13.409084 C27.3947224,13.0385942 27.2221763,12.4669814 27.2221763,11.7154164 L27.2221763,8.06344563 L28.5162722,8.06344563 L28.5162722,11.5883913 C28.5162722,12.0964916 28.6134372,12.456396 28.8182278,12.657519 C29.0123422,12.8692275 29.2927297,12.9750817 29.648606,12.9750817 C29.9182093,12.9750817 30.1446761,12.93274 30.3280063,12.8480566 C30.5113366,12.7633732 30.6624223,12.657519 30.7702636,12.5199085 C30.8887812,12.382298 30.9642701,12.2129313 31.0181908,12.0223937 C31.0721114,11.8318561 31.0937875,11.6201476 31.0937875,11.3978537 L31.0937875,8.06344563 L32.3878834,8.06344563 L32.3878834,13.8113301 L32.3769914,13.8113301 Z M23.0163648,8.06344563 L24.2241876,8.06344563 L24.2241876,9.17491499 L24.2458637,9.17491499 C24.2888924,9.01613365 24.3643813,8.86793774 24.4722226,8.71974182 C24.580064,8.57154591 24.7094736,8.43393541 24.8712355,8.31749577 C25.0222134,8.1904707 25.1947595,8.09520189 25.3888739,8.02110393 C25.5722041,7.94700598 25.7663185,7.90466429 25.9604329,7.90466429 C26.1114107,7.90466429 26.219252,7.91524971 26.2731727,7.91524971 C26.3270934,7.92583513 26.3917981,7.93642055 26.4457188,7.93642055 L26.4457188,9.15374415 C26.3594458,9.1325733 26.2623886,9.12198788 26.1653314,9.11140246 C26.0682742,9.10081703 25.9820011,9.09023161 25.8849439,9.09023161 C25.6692613,9.09023161 25.4643628,9.1325733 25.2703563,9.21725668 C25.076134,9.30194006 24.9143721,9.42896513 24.7633942,9.58774647 C24.6233083,9.75711323 24.504575,9.95823626 24.418302,10.201701 C24.3320289,10.4451657 24.2888924,10.7309721 24.2888924,11.0485348 L24.2888924,13.7795738 L22.9947966,13.7795738 L23.0163648,8.06344563 Z M16.750892,5.87226316 L23.2967523,5.87226316 L23.2967523,7.06841591 L20.7193447,7.06841591 L20.7193447,13.8113301 L19.3066234,13.8113301 L19.3066234,7.06841591 L16.74,7.06841591 L16.750892,5.87226316 Z" id="Fill-1" fill="#FFFFFF"></path>
                    <g id="Group-5">
                        <mask id="mask-2" fill="white">
                            <use xlink:href="#path-1"></use>
                        </mask>
                        <g id="Clip-4"></g>
                        <polygon id="Fill-3" fill="#FFFFFF" mask="url(#mask-2)" points="15.0346334 5.7883518 9.29072092 5.7883518 7.52255842 0.0765728526 5.74393342 5.7883518 2.0925e-05 5.77740969 4.64537092 9.31170969 2.86674592 15.0234886 7.51209592 11.4891886 12.1574459 15.0234886 10.3892834 9.31170969"></polygon>
                    </g>
                    <polygon id="Fill-6" fill="#000000" points="10.881 10.7201988 10.4732308 9.22784211 7.533 11.7445263"></polygon>
                </g>
            </g>
        </g>
    </g>
</svg>