<?xml version="1.0" encoding="UTF-8"?>
<svg width="64px" height="34px" viewBox="0 0 64 34" version="1.1" xmlns="http://www.w3.org/2000/svg" xmlns:xlink="http://www.w3.org/1999/xlink">
    <!-- Generator: Sketch 62 (91390) - https://sketch.com -->
    <title>tp-logo</title>
    <desc>Created with Sketch.</desc>
    <defs>
        <polygon id="path-1" points="2.05445455e-05 0.0752021053 14.7612765 0.0752021053 14.7612765 14.7503343 2.05445455e-05 14.7503343"></polygon>
    </defs>
    <g id="HOMEPAGE" stroke="none" stroke-width="1" fill="none" fill-rule="evenodd">
        <g id="Phone-inner-page-example" transform="translate(-131.000000, -22.000000)">
            <g id="tp-logo" transform="translate(131.000000, 22.000000)">
                <g id="Group-2" transform="translate(1.360800, 22.453200)">
                    <g id="Group">
                        <rect id="Rectangle" fill="#24881A" x="0" y="0" width="10.6592072" height="10.8864" rx="0.6804"></rect>
                        <g id="Group-3" transform="translate(1.665501, 1.701000)" fill="#FFFFFF">
                            <polygon id="Fill-1" points="3.6666523 0 2.79971087 2.73006764 0 2.72483763 2.26424704 4.41413236 1.39725461 7.1442 3.66155264 5.45490527 5.92579968 7.1442 5.0639579 4.41413236 7.32820494 2.73006764 4.52844308 2.73006764"></polygon>
                        </g>
                    </g>
                    <g id="Group-Copy" transform="translate(12.927600, 0.000000)">
                        <rect id="Rectangle" fill="#24881A" x="0" y="0" width="10.6592072" height="10.8864" rx="0.6804"></rect>
                        <g id="Group-3" transform="translate(1.665501, 1.701000)" fill="#FFFFFF">
                            <polygon id="Fill-1" points="3.6666523 0 2.79971087 2.73006764 0 2.72483763 2.26424704 4.41413236 1.39725461 7.1442 3.66155264 5.45490527 5.92579968 7.1442 5.0639579 4.41413236 7.32820494 2.73006764 4.52844308 2.73006764"></polygon>
                        </g>
                    </g>
                    <g id="Group-Copy-2" transform="translate(25.855200, 0.000000)">
                        <rect id="Rectangle" fill="#24881A" x="0" y="0" width="10.6592072" height="10.8864" rx="0.6804"></rect>
                        <g id="Group-3" transform="translate(1.665501, 1.701000)" fill="#FFFFFF">
                            <polygon id="Fill-1" points="3.6666523 0 2.79971087 2.73006764 0 2.72483763 2.26424704 4.41413236 1.39725461 7.1442 3.66155264 5.45490527 5.92579968 7.1442 5.0639579 4.41413236 7.32820494 2.73006764 4.52844308 2.73006764"></polygon>
                        </g>
                    </g>
                    <g id="Group-Copy-3" transform="translate(38.102400, 0.000000)">
                        <rect id="Rectangle" fill="#24881A" x="0" y="0" width="10.6592072" height="10.8864" rx="0.6804"></rect>
                        <g id="Group-3" transform="translate(1.665501, 1.701000)" fill="#FFFFFF">
                            <polygon id="Fill-1" points="3.6666523 0 2.79971087 2.73006764 0 2.72483763 2.26424704 4.41413236 1.39725461 7.1442 3.66155264 5.45490527 5.92579968 7.1442 5.0639579 4.41413236 7.32820494 2.73006764 4.52844308 2.73006764"></polygon>
                        </g>
                    </g>
                    <g id="Group-Copy-4" transform="translate(51.030000, 0.000000)">
                        <rect id="Rectangle" fill="#24881A" x="0" y="0" width="10.6592072" height="10.8864" rx="0.6804"></rect>
                        <g id="Group-3" transform="translate(1.665501, 1.701000)" fill="#FFFFFF">
                            <polygon id="Fill-1" points="3.6666523 0 2.79971087 2.73006764 0 2.72483763 2.26424704 4.41413236 1.39725461 7.1442 3.66155264 5.45490527 5.92579968 7.1442 5.0639579 4.41413236 7.32820494 2.73006764 4.52844308 2.73006764"></polygon>
                        </g>
                    </g>
                </g>
                <g id="Group-8">
                    <path d="M59.8996099,7.91683752 L60.8632289,7.91683752 L60.8632289,6.21239203 L62.1337957,6.21239203 L62.1337957,7.90644456 L63.2772,7.90644456 L63.2772,8.83141803 L62.1337957,8.83141803 L62.1337957,11.8453765 C62.1337957,11.980485 62.1442779,12.0844146 62.1549719,12.1883442 C62.165454,12.2818809 62.1972182,12.3650245 62.2289824,12.4273823 C62.2713346,12.4897401 62.3348629,12.5417049 62.4089793,12.5728837 C62.4936838,12.6040626 62.5995644,12.6248485 62.7477972,12.6248485 C62.8325016,12.6248485 62.9279,12.6248485 63.0124986,12.6144556 C63.097203,12.6040626 63.1926014,12.5936697 63.2772,12.5728837 L63.2772,13.5394291 C63.1396611,13.560215 63.0020164,13.5706079 62.8642658,13.5810009 C62.726621,13.6017868 62.5995644,13.6017868 62.4514374,13.6017868 C62.1125137,13.6017868 61.8478123,13.5706079 61.6466392,13.5082502 C61.445572,13.4458924 61.2867512,13.3523558 61.1701767,13.2380332 C61.0537081,13.1133177 60.9795917,12.9678162 60.9373453,12.7911359 C60.8948872,12.6144556 60.8737111,12.3962034 60.8632289,12.1675583 L60.8632289,8.84181099 L59.8996099,8.84181099 L59.8996099,7.8960516 L59.8996099,7.91683752 Z M56.6173122,12.7287782 C56.8927076,12.7287782 57.1467151,12.6664204 57.3478881,12.5520978 C57.5596493,12.4377753 57.7184701,12.2818809 57.8561149,12.0948076 C57.9937596,11.9077343 58.0890521,11.6894821 58.1525805,11.460837 C58.2162147,11.2217989 58.247873,10.9827608 58.247873,10.7333298 C58.247873,10.4942917 58.2162147,10.2552536 58.1525805,10.0162155 C58.0890521,9.77717742 57.9937596,9.56931821 57.8561149,9.38224493 C57.7184701,9.19517164 57.5491671,9.0496702 57.3478881,8.93534763 C57.136127,8.82102507 56.8927076,8.75866731 56.6173122,8.75866731 C56.3420227,8.75866731 56.0879094,8.82102507 55.8868422,8.93534763 C55.675081,9.0496702 55.5162602,9.2055646 55.3786154,9.38224493 C55.2408648,9.56931821 55.1456782,9.77717742 55.082044,10.0162155 C55.0185156,10.2552536 54.9868573,10.4942917 54.9868573,10.7333298 C54.9868573,10.9827608 55.0185156,11.2217989 55.082044,11.460837 C55.1456782,11.6998751 55.2408648,11.9077343 55.3786154,12.0948076 C55.5162602,12.2818809 55.6855632,12.4377753 55.8868422,12.5520978 C56.0986033,12.6768133 56.3420227,12.7287782 56.6173122,12.7287782 L56.6173122,12.7287782 Z M56.6173122,13.7161094 C56.1620258,13.7161094 55.7491974,13.6433587 55.3890976,13.4874643 C55.0291037,13.3315698 54.7326381,13.1341036 54.4786306,12.8742796 C54.2349994,12.6144556 54.0444144,12.2922738 53.9173577,11.9285202 C53.7904069,11.5647666 53.7162905,11.1594411 53.7162905,10.7333298 C53.7162905,10.3072184 53.779713,9.9122859 53.9173577,9.54853229 C54.0444144,9.18477868 54.2349994,8.87298987 54.4786306,8.6027729 C54.7221559,8.3429489 55.0291037,8.13508969 55.3890976,7.98958825 C55.7491974,7.8440868 56.1620258,7.76094312 56.6173122,7.76094312 C57.0727045,7.76094312 57.4855329,7.83369384 57.8456327,7.98958825 C58.2055208,8.13508969 58.5020922,8.3429489 58.7560997,8.6027729 C58.999625,8.86259691 59.1903159,9.18477868 59.3172667,9.54853229 C59.4443234,9.9122859 59.5184398,10.3072184 59.5184398,10.7333298 C59.5184398,11.1698341 59.4550173,11.5647666 59.3172667,11.9285202 C59.179622,12.2922738 58.999625,12.6040626 58.7560997,12.8742796 C58.5125744,13.1341036 58.2055208,13.3419628 57.8456327,13.4874643 C57.4855329,13.6329657 57.0831867,13.7161094 56.6173122,13.7161094 L56.6173122,13.7161094 Z M51.4715166,13.560215 L52.7420834,13.560215 L52.7420834,5.76549474 L51.4715166,5.76549474 L51.4715166,13.560215 Z M49.0680277,13.560215 L50.3385945,13.560215 L50.3385945,7.91683752 L49.0680277,7.91683752 L49.0680277,13.560215 Z M49.0680277,6.93989925 L50.3385945,6.93989925 L50.3385945,5.76549474 L49.0680277,5.76549474 L49.0680277,6.93989925 Z M46.8340535,10.7437227 C46.8340535,10.4942917 46.8022894,10.2448606 46.728173,10.0058225 C46.6645388,9.76678446 46.5586582,9.55892525 46.4210134,9.37185197 C46.2833687,9.18477868 46.1140657,9.03927724 45.9233748,8.92495467 C45.7223076,8.81063211 45.4892644,8.75866731 45.2351511,8.75866731 C44.7057482,8.75866731 44.3034021,8.93534763 44.0282185,9.29910125 C43.7635171,9.66285486 43.6258723,10.151324 43.6258723,10.7541157 C43.6258723,11.0451186 43.6576365,11.3049426 43.7317529,11.5439807 C43.8057634,11.7830188 43.9010559,11.990878 44.0493946,12.1675583 C44.1870393,12.3442386 44.3563424,12.4793471 44.5576213,12.5832767 C44.7586885,12.6872063 44.9811436,12.7391711 45.245845,12.7391711 C45.5422047,12.7391711 45.7752479,12.6768133 45.9763151,12.5624908 C46.1774881,12.4481682 46.336309,12.2922738 46.4739537,12.1155935 C46.6010104,11.9285202 46.6964088,11.720661 46.7493491,11.4816229 C46.8022894,11.2321919 46.8340535,10.9931538 46.8340535,10.7437227 L46.8340535,10.7437227 Z M42.3975518,7.91683752 L43.5940023,7.91683752 L43.5940023,8.68591659 L43.6151784,8.68591659 C43.7951753,8.35334186 44.0387006,8.12469673 44.3563424,7.97919528 C44.6739841,7.83369384 45.0128019,7.76094312 45.3939719,7.76094312 C45.8493643,7.76094312 46.2410165,7.83369384 46.5798343,7.99998121 C46.9186521,8.15587561 47.1939416,8.36373482 47.4163967,8.64434475 C47.63864,8.91456171 47.8081548,9.23674348 47.9140353,9.60049709 C48.0199159,9.96425071 48.0833384,10.3591832 48.0833384,10.7645087 C48.0833384,11.1490482 48.0303981,11.5128018 47.9351056,11.8661624 C47.829225,12.2195231 47.6810981,12.5417049 47.4798191,12.8119218 C47.2787519,13.0821388 47.0245327,13.300391 46.706891,13.4666783 C46.3892493,13.6329657 46.0292553,13.7161094 45.6057331,13.7161094 C45.425842,13.7161094 45.2351511,13.6953235 45.05526,13.6641446 C44.875263,13.6329657 44.6951602,13.5810009 44.5258571,13.5082502 C44.3563424,13.4354995 44.1975215,13.3419628 44.0598768,13.2276402 C43.911644,13.1133177 43.7951753,12.9782092 43.6998828,12.8327078 L43.6788126,12.8327078 L43.6788126,15.6492 L42.4082458,15.6492 L42.4082458,7.91683752 L42.3975518,7.91683752 Z M38.1305649,7.91683752 L39.0940781,7.91683752 L39.0940781,6.21239203 L40.3646449,6.21239203 L40.3646449,7.90644456 L41.5082609,7.90644456 L41.5082609,8.83141803 L40.3646449,8.83141803 L40.3646449,11.8453765 C40.3646449,11.980485 40.3753388,12.0844146 40.385821,12.1883442 C40.396515,12.2818809 40.4282791,12.3650245 40.4599374,12.4273823 C40.5023955,12.4897401 40.565818,12.5417049 40.6400403,12.5728837 C40.7246388,12.6040626 40.8305194,12.6248485 40.9788581,12.6248485 C41.0635625,12.6248485 41.1587492,12.6248485 41.2435595,12.6144556 C41.328264,12.6040626 41.4234506,12.5936697 41.5082609,12.5728837 L41.5082609,13.5394291 C41.3705103,13.560215 41.2328656,13.5706079 41.0952208,13.5810009 C40.957682,13.6017868 40.8305194,13.6017868 40.6822866,13.6017868 C40.3435747,13.6017868 40.0788733,13.5706079 39.8775943,13.5082502 C39.6764212,13.4458924 39.5176004,13.3523558 39.4011317,13.2380332 C39.284769,13.1133177 39.2106526,12.9678162 39.1681945,12.7911359 C39.1259481,12.6144556 39.104772,12.3962034 39.0940781,12.1675583 L39.0940781,8.84181099 L38.1305649,8.84181099 L38.1305649,7.8960516 L38.1305649,7.91683752 Z M33.9482824,11.7518399 C33.9907406,12.1155935 34.1283853,12.3650245 34.3718047,12.5209189 C34.61533,12.6664204 34.9117956,12.7391711 35.2506134,12.7391711 C35.3671879,12.7391711 35.5048327,12.7287782 35.6529596,12.7079922 C35.8011924,12.6872063 35.9495311,12.6560274 36.0764819,12.6040626 C36.2142325,12.5520978 36.3201131,12.4793471 36.4048175,12.3754175 C36.4894161,12.2714879 36.5318742,12.1467724 36.5211803,11.990878 C36.5106981,11.8349836 36.4577578,11.6998751 36.3411833,11.5959455 C36.2247147,11.4920159 36.0871758,11.4192652 35.917661,11.3465144 C35.7482521,11.2841567 35.547079,11.2321919 35.3247298,11.19062 C35.1024865,11.1490482 34.8800314,11.0970834 34.6470942,11.0451186 C34.4142628,10.9931538 34.1813256,10.930796 33.9588705,10.8580453 C33.7365213,10.7852946 33.5460422,10.6917579 33.3659393,10.5566494 C33.1966363,10.4319339 33.0482976,10.2760395 32.9530051,10.0785733 C32.8471245,9.88110702 32.7941842,9.6524619 32.7941842,9.36145901 C32.7941842,9.0496702 32.8683006,8.80023915 33.0271215,8.59237994 C33.1754602,8.38452074 33.3765274,8.21823337 33.6094646,8.09351785 C33.8424019,7.96880232 34.1071033,7.87526568 34.3930867,7.82330088 C34.6789642,7.77133608 34.9541478,7.75055016 35.2083671,7.75055016 C35.5048327,7.75055016 35.7907102,7.78172904 36.0554116,7.8440868 C36.3201131,7.90644456 36.5741205,7.99998121 36.7858817,8.14548265 C37.0083368,8.28059113 37.1882278,8.46766442 37.3259785,8.68591659 C37.4741054,8.90416875 37.5588098,9.17438572 37.6011621,9.48617453 L36.277655,9.48617453 C36.2142325,9.18477868 36.0764819,8.98731244 35.8647207,8.88338283 C35.6423715,8.77945323 35.3989521,8.72748843 35.1129687,8.72748843 C35.0283701,8.72748843 34.9117956,8.73788139 34.795327,8.74827435 C34.6682703,8.76906027 34.5623897,8.78984619 34.446027,8.83141803 C34.3401464,8.87298987 34.244748,8.93534763 34.1706316,9.00809836 C34.0966211,9.08084908 34.054163,9.18477868 34.054163,9.30949421 C34.054163,9.46538861 34.1071033,9.57971117 34.2129839,9.67324782 C34.3188644,9.76678446 34.4565092,9.83953518 34.6365061,9.9122859 C34.8059151,9.97464367 35.0070881,10.0266085 35.2294373,10.0681803 C35.4518924,10.1097522 35.6848297,10.161717 35.917661,10.2136818 C36.1505983,10.2656466 36.3730533,10.3280043 36.5952967,10.400755 C36.8176459,10.4735058 37.0188189,10.5670424 37.1882278,10.7021509 C37.3577426,10.8268664 37.5058696,10.9827608 37.6117501,11.1698341 C37.7176307,11.3569074 37.770571,11.5959455 37.770571,11.8661624 C37.770571,12.1987372 37.6965605,12.4793471 37.5377396,12.7183852 C37.3789188,12.9470303 37.1776398,13.1444966 36.9342204,13.289998 C36.6906951,13.4354995 36.4048175,13.5394291 36.1083519,13.6121798 C35.8011924,13.6745375 35.5048327,13.7161094 35.2083671,13.7161094 C34.8482673,13.7161094 34.5094495,13.6745375 34.2025017,13.5913939 C33.8953422,13.5082502 33.6201586,13.3835347 33.3977035,13.2276402 C33.1754602,13.0613529 32.9953573,12.8638866 32.8683006,12.6144556 C32.741244,12.3754175 32.6672334,12.0844146 32.6565395,11.7414469 L33.9378003,11.7414469 L33.9378003,11.7518399 L33.9482824,11.7518399 Z M31.7883188,13.560215 L30.5389281,13.560215 L30.5389281,12.77035 L30.517752,12.77035 C30.3589312,13.0613529 30.1259939,13.279605 29.8189403,13.4562854 C29.5118866,13.6329657 29.1942449,13.7161094 28.8766032,13.7161094 C28.1248512,13.7161094 27.5742722,13.5394291 27.2354544,13.1652825 C26.8966366,12.8015289 26.7272277,12.240309 26.7272277,11.5024088 L26.7272277,7.91683752 L27.9977945,7.91683752 L27.9977945,11.3776933 C27.9977945,11.8765554 28.0931929,12.2299161 28.2942601,12.4273823 C28.4848451,12.6352415 28.7601346,12.7391711 29.1095404,12.7391711 C29.3742419,12.7391711 29.5965911,12.6975993 29.776588,12.6144556 C29.956585,12.5313119 30.1049237,12.4273823 30.2108042,12.2922738 C30.327167,12.1571653 30.4012834,11.990878 30.4542237,11.8038047 C30.507164,11.6167314 30.528446,11.4088722 30.528446,11.19062 L30.528446,7.91683752 L31.7990128,7.91683752 L31.7990128,13.560215 L31.7883188,13.560215 Z M22.5978855,7.91683752 L23.7837478,7.91683752 L23.7837478,9.00809836 L23.8050298,9.00809836 C23.8472762,8.85220395 23.9213926,8.70670251 24.0272731,8.56120106 C24.1331537,8.41569962 24.2602104,8.28059113 24.4190313,8.16626857 C24.567264,8.04155305 24.736673,7.9480164 24.927258,7.87526568 C25.1072549,7.80251496 25.29784,7.76094312 25.488425,7.76094312 C25.6366578,7.76094312 25.7425384,7.77133608 25.7954786,7.77133608 C25.8484189,7.78172904 25.9119473,7.792122 25.9648876,7.792122 L25.9648876,8.98731244 C25.8801831,8.96652652 25.7848906,8.95613355 25.6895981,8.94574059 C25.5943056,8.93534763 25.5096011,8.92495467 25.4143086,8.92495467 C25.2025475,8.92495467 25.0013744,8.96652652 24.8108952,9.0496702 C24.6202043,9.13281388 24.4613835,9.2575294 24.3131507,9.41342381 C24.1756118,9.57971117 24.0590373,9.77717742 23.9743329,10.0162155 C23.8896284,10.2552536 23.8472762,10.5358635 23.8472762,10.8476523 L23.8472762,13.5290361 L22.5767094,13.5290361 L22.5978855,7.91683752 Z M16.4463303,5.76549474 L22.8731749,5.76549474 L22.8731749,6.93989925 L20.3426294,6.93989925 L20.3426294,13.560215 L18.9555939,13.560215 L18.9555939,6.93989925 L16.4356364,6.93989925 L16.4463303,5.76549474 Z" id="Fill-1" fill="#666666"></path>
                    <g id="Group-5">
                        <mask id="mask-2" fill="white">
                            <use xlink:href="#path-1"></use>
                        </mask>
                        <g id="Clip-4"></g>
                        <polygon id="Fill-3" fill="#33AA26" mask="url(#mask-2)" points="14.7612765 5.68310904 9.12179873 5.68310904 7.38578464 0.0751806189 5.63949827 5.68310904 2.05445455e-05 5.67236588 4.56090964 9.14240588 2.81462327 14.7503343 7.37551236 11.2802943 11.9364015 14.7503343 10.2003874 9.14240588"></polygon>
                    </g>
                    <polygon id="Fill-6" fill="#073F01" points="10.6831636 10.5252861 10.2828084 9.06006316 7.39603636 11.5309895"></polygon>
                </g>
            </g>
        </g>
    </g>
</svg>