<?xml version="1.0" encoding="UTF-8"?>
<svg width="66px" height="39px" viewBox="0 0 66 39" version="1.1" xmlns="http://www.w3.org/2000/svg" xmlns:xlink="http://www.w3.org/1999/xlink">
    <!-- Generator: Sketch 62 (91390) - https://sketch.com -->
    <title>truck-icon</title>
    <desc>Created with Sketch.</desc>
    <defs>
        <polygon id="path-1" points="0 0.2886 65.7308281 0.2886 65.7308281 39 0 39"></polygon>
    </defs>
    <g id="HOMEPAGE" stroke="none" stroke-width="1" fill="none" fill-rule="evenodd">
        <g id="Business-Waste" transform="translate(-1122.000000, -1124.000000)">
            <g id="pick-up-and-dispose-3" transform="translate(1111.000000, 1100.000000)">
                <g id="truck-icon" transform="translate(11.000000, 24.000000)">
                    <g id="Group-3">
                        <mask id="mask-2" fill="white">
                            <use xlink:href="#path-1"></use>
                        </mask>
                        <g id="Clip-2"></g>
                        <path d="M64.1483719,31.527561 L61.5238105,31.527561 C61.1312842,27.887301 57.8926526,25.257921 54.2900561,25.654551 C51.2289684,25.991511 48.8116702,28.434081 48.4781965,31.527561 L46.2010035,31.527561 L46.2010035,11.286561 L54.4606526,11.286561 L57.5483719,20.139561 C57.6178456,20.349381 57.7718456,20.519031 57.9729333,20.607561 L64.1483719,23.298171 L64.1483719,31.527561 Z M55.0010035,37.377561 C52.2297754,37.377561 49.9834596,35.107761 49.9834596,32.307561 C49.9834596,29.507361 52.2297754,27.237561 55.0010035,27.237561 C57.7718456,27.237561 60.0185474,29.507361 60.0185474,32.307561 C60.0185474,35.107761 57.7718456,37.377561 55.0010035,37.377561 L55.0010035,37.377561 Z M26.7483719,37.377561 C23.9771439,37.377561 21.7308281,35.107761 21.7308281,32.307561 C21.7308281,29.507361 23.9771439,27.237561 26.7483719,27.237561 C29.5196,27.237561 31.7659158,29.507361 31.7659158,32.307561 C31.7659158,35.107761 29.5196,37.377561 26.7483719,37.377561 L26.7483719,37.377561 Z M13.316793,27.237561 C16.0876351,27.237561 18.3343368,29.507361 18.3343368,32.307561 C18.3343368,35.107761 16.0876351,37.377561 13.316793,37.377561 C10.5455649,37.377561 8.29924912,35.107761 8.29924912,32.307561 C8.29924912,29.507361 10.5455649,27.237561 13.316793,27.237561 L13.316793,27.237561 Z M65.2676702,22.011561 L58.9378456,19.281561 L55.7729333,10.233171 C55.6586877,9.924681 55.3653544,9.722271 55.0396,9.726561 L46.9343368,9.726561 L49.9448632,5.475561 C50.0448281,5.340621 50.0992491,5.176431 50.0992491,5.007561 L50.0992491,1.068561 C50.0992491,0.637611 49.7538105,0.288561 49.3273193,0.288561 L17.2922316,0.288561 L17.2922316,0.561561 L17.1764421,0.561561 L0.0396,23.376561 L0.00100350877,23.376561 L0.00100350877,23.766561 L0.00100350877,23.844561 C-0.000154385965,23.870301 -0.000154385965,23.896821 0.00100350877,23.922561 L0.00100350877,24.156561 L4.63258246,32.697561 C4.76805614,32.934681 5.01738947,33.082881 5.28872281,33.087561 L6.75538947,33.087561 C7.18149474,36.723531 10.4444421,39.322101 14.0431789,38.891541 C17.6415298,38.460591 20.213214,35.163531 19.7871088,31.527561 C19.3606175,27.891201 16.0976702,25.293021 12.4993193,25.723581 C9.48724912,26.083941 7.11240702,28.483611 6.75538947,31.527561 L5.7518807,31.527561 L1.58345965,23.922561 L18.1799509,1.848561 L48.5553895,1.848561 L48.5553895,4.734561 L44.8115298,10.038171 L44.8115298,10.116561 L44.7729333,10.116561 L44.7729333,10.428171 L44.7729333,31.527561 L33.2711789,31.527561 C32.8450737,27.891201 29.5817404,25.293021 25.9833895,25.723581 C22.3846526,26.154531 19.8129684,29.451201 20.2394596,33.087561 C20.6659509,36.723531 23.9285123,39.322101 27.5272491,38.891541 C30.5393193,38.530791 32.9141614,36.131121 33.2711789,33.087561 L48.516793,33.087561 C48.9093193,36.727431 52.1475649,39.356811 55.7501614,38.960571 C58.8112491,38.623221 61.2289333,36.180651 61.562407,33.087561 L64.9588982,33.087561 C65.3853895,33.087561 65.7308281,32.738121 65.7308281,32.307561 L65.7308281,22.713171 C65.7258105,22.407801 65.544793,22.133631 65.2676702,22.011561 L65.2676702,22.011561 Z" id="Fill-1" fill="#FFFFFF" mask="url(#mask-2)"></path>
                    </g>
                    <path d="M22.7011244,8.15842948 C22.3710031,7.89585583 21.9030822,7.96714279 21.6554913,8.31684495 L14.1493391,18.7326622 C13.9021216,19.0827604 13.968594,19.5789969 14.2987153,19.8415705 C14.6288366,20.1041442 15.0967574,20.0328572 15.3443484,19.6831551 L22.8505006,9.26733778 C23.0980915,8.91723959 23.0312457,8.42100312 22.7011244,8.15842948" id="Fill-4" fill="#FFFFFF"></path>
                    <path d="M31.7012847,8.15842948 C31.3711634,7.89585583 30.9032426,7.96714279 30.6556516,8.31684495 L23.1494994,18.7326622 C22.9019085,19.0827604 22.9687543,19.5789969 23.2988756,19.8415705 C23.6289969,20.1041442 24.0969178,20.0328572 24.3445087,19.6831551 L31.8506609,9.26733778 C32.0978784,8.91723959 32.031406,8.42100312 31.7012847,8.15842948" id="Fill-6" fill="#FFFFFF"></path>
                    <path d="M31.2624769,19.8419404 C31.5939946,20.103664 32.0642698,20.0330026 32.312533,19.6844326 L39.8504362,9.26246698 C40.0986995,8.91350226 40.0308209,8.4188724 39.6993032,8.15714886 C39.3681605,7.89660958 38.8990104,7.96727099 38.6503721,8.3154462 L31.1499708,18.6975414 C30.9017076,19.0461114 30.9684611,19.5407412 31.2999789,19.8024648" id="Fill-8" fill="#FFFFFF"></path>
                    <path d="M52.0221808,13.507772 C51.9187736,13.2067358 51.614495,13.0014508 51.2694082,13 L46.7923922,13 C46.3549917,13 46,13.3246114 46,13.7253886 C46,14.1258031 46.3549917,14.4507772 46.7923922,14.4507772 L50.7147336,14.4507772 L52.1410396,18.5492228 L47.4659256,18.5492228 C47.0285251,18.5492228 46.6735334,18.8741969 46.6735334,19.2746114 C46.6735334,19.6753886 47.0285251,20 47.4659256,20 L53.2107691,20 C53.6485658,19.9985492 54.0019727,19.672487 54,19.2720725 C54,19.1988083 53.9873134,19.1262694 53.9635417,19.0569948 L52.0221808,13.507772 Z" id="Fill-10" fill="#FFFFFF"></path>
                </g>
            </g>
        </g>
    </g>
</svg>