<?xml version="1.0" encoding="UTF-8"?>
<svg width="119px" height="58px" viewBox="0 0 119 58" version="1.1" xmlns="http://www.w3.org/2000/svg" xmlns:xlink="http://www.w3.org/1999/xlink">
    <!-- Generator: Sketch 62 (91390) - https://sketch.com -->
    <title>Testimonial</title>
    <desc>Created with Sketch.</desc>
    <defs>
        <polygon id="path-1" points="3.01948052e-05 0.110526316 21.6949977 0.110526316 21.6949977 21.6789158 3.01948052e-05 21.6789158"></polygon>
    </defs>
    <g id="HOMEPAGE" stroke="none" stroke-width="1" fill="none" fill-rule="evenodd">
        <g id="Desktop1" transform="translate(-1071.000000, -1631.000000)">
            <g id="Group-17" transform="translate(182.000000, 1210.000000)">
                <g id="Testimonial" transform="translate(889.000000, 421.000000)">
                    <g id="Group-2" transform="translate(0.000000, 37.000000)">
                        <g id="Group">
                            <rect id="Rectangle" fill="#24881A" x="0" y="0" width="20.5617423" height="21" rx="1"></rect>
                            <g id="Group-3" transform="translate(3.212772, 3.281250)" fill="#FFFFFF">
                                <polygon id="Fill-1" points="7.07301755 0 5.40067682 5.26633419 0 5.25624542 4.36776049 8.51491581 2.69532139 13.78125 7.06318025 10.5225796 11.4309407 13.78125 9.76843731 8.51491581 14.1361978 5.26633419 8.73542261 5.26633419"></polygon>
                            </g>
                        </g>
                        <g id="Group-Copy" transform="translate(24.190285, 0.000000)">
                            <rect id="Rectangle" fill="#24881A" x="0" y="0" width="20.5617423" height="21" rx="1"></rect>
                            <g id="Group-3" transform="translate(3.212772, 3.281250)" fill="#FFFFFF">
                                <polygon id="Fill-1" points="7.07301755 0 5.40067682 5.26633419 0 5.25624542 4.36776049 8.51491581 2.69532139 13.78125 7.06318025 10.5225796 11.4309407 13.78125 9.76843731 8.51491581 14.1361978 5.26633419 8.73542261 5.26633419"></polygon>
                            </g>
                        </g>
                        <g id="Group-Copy-2" transform="translate(49.590084, 0.000000)">
                            <rect id="Rectangle" fill="#24881A" x="0" y="0" width="20.5617423" height="21" rx="1"></rect>
                            <g id="Group-3" transform="translate(3.212772, 3.281250)" fill="#FFFFFF">
                                <polygon id="Fill-1" points="7.07301755 0 5.40067682 5.26633419 0 5.25624542 4.36776049 8.51491581 2.69532139 13.78125 7.06318025 10.5225796 11.4309407 13.78125 9.76843731 8.51491581 14.1361978 5.26633419 8.73542261 5.26633419"></polygon>
                            </g>
                        </g>
                        <g id="Group-Copy-3" transform="translate(73.780369, 0.000000)">
                            <rect id="Rectangle" fill="#24881A" x="0" y="0" width="20.5617423" height="21" rx="1"></rect>
                            <g id="Group-3" transform="translate(3.212772, 3.281250)" fill="#FFFFFF">
                                <polygon id="Fill-1" points="7.07301755 0 5.40067682 5.26633419 0 5.25624542 4.36776049 8.51491581 2.69532139 13.78125 7.06318025 10.5225796 11.4309407 13.78125 9.76843731 8.51491581 14.1361978 5.26633419 8.73542261 5.26633419"></polygon>
                            </g>
                        </g>
                        <g id="Group-Copy-4" transform="translate(97.970654, 0.000000)">
                            <rect id="Rectangle" fill="#24881A" x="0" y="0" width="20.5617423" height="21" rx="1"></rect>
                            <g id="Group-3" transform="translate(3.212772, 3.281250)" fill="#FFFFFF">
                                <polygon id="Fill-1" points="7.07301755 0 5.40067682 5.26633419 0 5.25624542 4.36776049 8.51491581 2.69532139 13.78125 7.06318025 10.5225796 11.4309407 13.78125 9.76843731 8.51491581 14.1361978 5.26633419 8.73542261 5.26633419"></polygon>
                            </g>
                        </g>
                    </g>
                    <g id="Group-8" transform="translate(11.000000, 0.000000)">
                        <path d="M88.0358757,11.6355637 L89.4521295,11.6355637 L89.4521295,9.13049975 L91.3195117,9.13049975 L91.3195117,11.6202889 L93,11.6202889 L93,12.9797443 L91.3195117,12.9797443 L91.3195117,17.4094305 C91.3195117,17.6080027 91.3349176,17.7607505 91.3506347,17.9134983 C91.3660406,18.0509713 91.4127252,18.1731695 91.4594097,18.2648182 C91.5216558,18.3564669 91.6150249,18.4328408 91.7239555,18.4786651 C91.8484477,18.5244895 92.0040628,18.555039 92.2219241,18.555039 C92.3464162,18.555039 92.4866255,18.555039 92.610962,18.5397642 C92.7354542,18.5244895 92.8756635,18.5092147 93,18.4786651 L93,19.8992197 C92.7978559,19.9297692 92.5955561,19.945044 92.3931008,19.9603188 C92.1908011,19.9908683 92.0040628,19.9908683 91.7863572,19.9908683 C91.288233,19.9908683 90.8991951,19.945044 90.6035262,19.8533953 C90.308013,19.7617466 90.0745902,19.6242736 89.9032579,19.456251 C89.7320812,19.2729537 89.6231506,19.0591068 89.5610601,18.7994355 C89.4986584,18.5397642 89.4675354,18.2189939 89.4521295,17.8829487 L89.4521295,12.9950191 L88.0358757,12.9950191 L88.0358757,11.6050141 L88.0358757,11.6355637 Z M83.2118051,18.7077868 C83.6165602,18.7077868 83.9898811,18.6161381 84.2855499,18.4481156 C84.5967803,18.280093 84.830203,18.0509713 85.0325028,17.7760252 C85.2348025,17.5010792 85.3748562,17.1803088 85.4682253,16.8442637 C85.56175,16.4929437 85.6082789,16.1416238 85.6082789,15.7750291 C85.6082789,15.4237091 85.56175,15.0723892 85.4682253,14.7210692 C85.3748562,14.3697493 85.2348025,14.0642537 85.0325028,13.7893077 C84.830203,13.5143616 84.5813744,13.3005147 84.2855499,13.1324921 C83.9743195,12.9644695 83.6165602,12.8728209 83.2118051,12.8728209 C82.8072057,12.8728209 82.4337292,12.9644695 82.138216,13.1324921 C81.8269857,13.3005147 81.5935629,13.5296364 81.3912632,13.7893077 C81.1888078,14.0642537 81.0489098,14.3697493 80.955385,14.7210692 C80.8620159,15.0723892 80.815487,15.4237091 80.815487,15.7750291 C80.815487,16.1416238 80.8620159,16.4929437 80.955385,16.8442637 C81.0489098,17.1955836 81.1888078,17.5010792 81.3912632,17.7760252 C81.5935629,18.0509713 81.8423916,18.280093 82.138216,18.4481156 C82.4494464,18.6314129 82.8072057,18.7077868 83.2118051,18.7077868 L83.2118051,18.7077868 Z M83.2118051,20.1588909 C82.5426599,20.1588909 81.9359163,20.0519675 81.4066691,19.8228458 C80.8775774,19.5937241 80.4418549,19.3035032 80.0685341,18.9216337 C79.7104636,18.5397642 79.4303563,18.0662461 79.243618,17.5316288 C79.0570354,16.9970115 78.9481048,16.401295 78.9481048,15.7750291 C78.9481048,15.1487631 79.0413183,14.5683214 79.243618,14.0337041 C79.4303563,13.4990868 79.7104636,13.0408434 80.0685341,12.6436992 C80.426449,12.2618297 80.8775774,11.9563341 81.4066691,11.7424871 C81.9359163,11.5286402 82.5426599,11.406442 83.2118051,11.406442 C83.881106,11.406442 84.4878496,11.5133654 85.0170969,11.7424871 C85.5460329,11.9563341 85.981911,12.2618297 86.3552318,12.6436992 C86.7131467,13.0255687 86.9934096,13.4990868 87.1799923,14.0337041 C87.3667305,14.5683214 87.4756611,15.1487631 87.4756611,15.7750291 C87.4756611,16.4165698 87.3824476,16.9970115 87.1799923,17.5316288 C86.9776925,18.0662461 86.7131467,18.5244895 86.3552318,18.9216337 C85.9973169,19.3035032 85.5460329,19.6089988 85.0170969,19.8228458 C84.4878496,20.0366927 83.8965119,20.1588909 83.2118051,20.1588909 L83.2118051,20.1588909 Z M75.6489074,19.9297692 L77.5162895,19.9297692 L77.5162895,8.47368421 L75.6489074,8.47368421 L75.6489074,19.9297692 Z M72.1164428,19.9297692 L73.9838249,19.9297692 L73.9838249,11.6355637 L72.1164428,11.6355637 L72.1164428,19.9297692 Z M72.1164428,10.1997344 L73.9838249,10.1997344 L73.9838249,8.47368421 L72.1164428,8.47368421 L72.1164428,10.1997344 Z M68.8331181,15.7903038 C68.8331181,15.4237091 68.7864335,15.0571144 68.6775029,14.7057945 C68.5839782,14.3544745 68.428363,14.0489789 68.2260633,13.7740329 C68.0237635,13.4990868 67.7749349,13.2852399 67.4946719,13.1172173 C67.1991587,12.9491948 66.8566497,12.8728209 66.4831732,12.8728209 C65.7050973,12.8728209 65.1137597,13.1324921 64.7093158,13.6671094 C64.3202779,14.2017267 64.1179781,14.9196414 64.1179781,15.8055786 C64.1179781,16.2332725 64.1646627,16.615142 64.2735933,16.9664619 C64.3823683,17.3177818 64.522422,17.6232774 64.7404388,17.8829487 C64.9427386,18.14262 65.1915672,18.3411921 65.4873917,18.4939399 C65.7829049,18.6466877 66.1098524,18.7230616 66.4988904,18.7230616 C66.9344573,18.7230616 67.2769663,18.6314129 67.5724795,18.4633903 C67.8681484,18.2953678 68.1015711,18.0662461 68.3038709,17.8065748 C68.4906091,17.5316288 68.6308184,17.2261332 68.7086259,16.8748132 C68.7864335,16.5082185 68.8331181,16.1568986 68.8331181,15.7903038 L68.8331181,15.7903038 Z M62.3126864,11.6355637 L64.0711379,11.6355637 L64.0711379,12.7658974 L64.102261,12.7658974 C64.3668068,12.2771044 64.7247217,11.9410593 65.1915672,11.7272124 C65.6584128,11.5133654 66.1563814,11.406442 66.716596,11.406442 C67.3858969,11.406442 67.9615175,11.5133654 68.459486,11.7577619 C68.9574546,11.9868836 69.3620541,12.2923792 69.6890016,12.7047983 C70.0156378,13.1019426 70.2647777,13.5754607 70.4203929,14.110078 C70.5760081,14.6446953 70.6692216,15.225137 70.6692216,15.8208534 C70.6692216,16.3860203 70.591414,16.9206376 70.4513603,17.4399801 C70.2957452,17.9593226 70.0780395,18.4328408 69.7822151,18.8299851 C69.4867018,19.2271293 69.1130698,19.5478997 68.6462243,19.7922962 C68.1793787,20.0366927 67.6502871,20.1588909 67.0278264,20.1588909 C66.7634362,20.1588909 66.4831732,20.1283414 66.2187831,20.082517 C65.9542372,20.0366927 65.6895358,19.9603188 65.4407072,19.8533953 C65.1915672,19.7464719 64.9581445,19.6089988 64.7558447,19.4409763 C64.5379835,19.2729537 64.3668068,19.0743815 64.2267531,18.8605346 L64.1957857,18.8605346 L64.1957857,23 L62.3284035,23 L62.3284035,11.6355637 L62.3126864,11.6355637 Z M56.0413946,11.6355637 L57.4574928,11.6355637 L57.4574928,9.13049975 L59.3248749,9.13049975 L59.3248749,11.6202889 L61.0056745,11.6202889 L61.0056745,12.9797443 L59.3248749,12.9797443 L59.3248749,17.4094305 C59.3248749,17.6080027 59.3405921,17.7607505 59.355998,17.9134983 C59.3717151,18.0509713 59.4183997,18.1731695 59.4649286,18.2648182 C59.5273303,18.3564669 59.6205438,18.4328408 59.72963,18.4786651 C59.8539666,18.5244895 60.0095817,18.555039 60.2275986,18.555039 C60.3520908,18.555039 60.4919888,18.555039 60.6166366,18.5397642 C60.7411287,18.5244895 60.8810267,18.5092147 61.0056745,18.4786651 L61.0056745,19.8992197 C60.8032192,19.9297692 60.6009194,19.945044 60.3986197,19.9603188 C60.1964756,19.9908683 60.0095817,19.9908683 59.7917205,19.9908683 C59.2939075,19.9908683 58.9048696,19.945044 58.6090451,19.8533953 C58.3133763,19.7617466 58.0799535,19.6242736 57.9087768,19.456251 C57.7377557,19.2729537 57.6288251,19.0591068 57.5664234,18.7994355 C57.5043329,18.5397642 57.4732099,18.2189939 57.4574928,17.8829487 L57.4574928,12.9950191 L56.0413946,12.9950191 L56.0413946,11.6050141 L56.0413946,11.6355637 Z M49.894595,17.2719575 C49.9569967,17.8065748 50.1592964,18.1731695 50.5170557,18.4022912 C50.8749706,18.6161381 51.3106931,18.7230616 51.8086617,18.7230616 C51.979994,18.7230616 52.1822938,18.7077868 52.3999994,18.6772373 C52.6178607,18.6466877 52.8358775,18.6008634 53.0224601,18.5244895 C53.2249155,18.4481156 53.3805307,18.3411921 53.5050228,18.1884443 C53.6293593,18.0356965 53.691761,17.8523991 53.6760439,17.6232774 C53.660638,17.3941557 53.5828304,17.1955836 53.4114981,17.0428358 C53.2403214,16.890088 53.0381773,16.7831645 52.7890374,16.6762411 C52.5400531,16.5845924 52.2443842,16.5082185 51.9175924,16.4471194 C51.5909561,16.3860203 51.2640086,16.3096464 50.9216552,16.2332725 C50.5794574,16.1568986 50.237104,16.0652499 49.9101565,15.9583264 C49.5833646,15.851403 49.3034129,15.7139299 49.0387115,15.5153578 C48.7898828,15.3320604 48.571866,15.1029387 48.4318123,14.8127179 C48.2761971,14.5224971 48.1983895,14.1864519 48.1983895,13.7587581 C48.1983895,13.3005147 48.3073202,12.93392 48.5407429,12.6284244 C48.7587598,12.3229288 49.054273,12.0785323 49.3966264,11.8952349 C49.7389798,11.7119376 50.1280178,11.5744646 50.5483344,11.4980907 C50.9684954,11.4217168 51.3729392,11.3911672 51.7465713,11.3911672 C52.1822938,11.3911672 52.6024548,11.4369915 52.9914927,11.5286402 C53.3805307,11.6202889 53.7538515,11.7577619 54.0650818,11.9716088 C54.3920293,12.170181 54.6564195,12.445127 54.8588749,12.7658974 C55.0765805,13.0866678 55.2010727,13.4838121 55.2633187,13.9420555 L53.318129,13.9420555 C53.2249155,13.4990868 53.0224601,13.208866 52.7112298,13.0561182 C52.3844379,12.9033704 52.0266786,12.8269965 51.606362,12.8269965 C51.4820255,12.8269965 51.3106931,12.8422713 51.1395165,12.8575461 C50.9527782,12.8880956 50.7971631,12.9186452 50.626142,12.9797443 C50.4705268,13.0408434 50.3303175,13.1324921 50.2213869,13.2394156 C50.1126119,13.346339 50.0502102,13.4990868 50.0502102,13.6823842 C50.0502102,13.9115059 50.1280178,14.0795285 50.283633,14.2170015 C50.4392481,14.3544745 50.6415479,14.461398 50.9060937,14.5683214 C51.155078,14.6599701 51.4507468,14.736344 51.7775387,14.7974431 C52.1044862,14.8585423 52.4468396,14.9349162 52.7890374,15.0112901 C53.1313908,15.087664 53.4583383,15.1793126 53.7849745,15.2862361 C54.1117664,15.3931596 54.4074352,15.5306326 54.6564195,15.7292047 C54.9055594,15.9125021 55.1232651,16.1416238 55.2788803,16.4165698 C55.4344954,16.6915159 55.512303,17.0428358 55.512303,17.4399801 C55.512303,17.928773 55.403528,18.3411921 55.1701052,18.692512 C54.9366825,19.0285572 54.640858,19.318778 54.2830987,19.5326249 C53.9251838,19.7464719 53.5050228,19.8992197 53.0693003,20.0061431 C52.6178607,20.0977918 52.1822938,20.1588909 51.7465713,20.1588909 C51.217324,20.1588909 50.7193555,20.0977918 50.2682271,19.9755936 C49.8167874,19.8533953 49.4123436,19.670098 49.0853961,19.4409763 C48.7587598,19.1965798 48.4940584,18.906359 48.3073202,18.5397642 C48.1205819,18.1884443 48.0118069,17.7607505 47.9960898,17.2566827 L49.8791891,17.2566827 L49.8791891,17.2719575 L49.894595,17.2719575 Z M46.7200453,19.9297692 L44.8837862,19.9297692 L44.8837862,18.7688859 L44.8526632,18.7688859 C44.6192404,19.1965798 44.276887,19.5173502 43.825603,19.7770214 C43.3743189,20.0366927 42.9074734,20.1588909 42.4406279,20.1588909 C41.3357601,20.1588909 40.5265611,19.8992197 40.0285926,19.3493276 C39.530624,18.8147103 39.2816397,17.9898722 39.2816397,16.9053628 L39.2816397,11.6355637 L41.1490219,11.6355637 L41.1490219,16.7220654 C41.1490219,17.4552549 41.2892311,17.9745974 41.5847444,18.2648182 C41.8648517,18.5703138 42.2694512,18.7230616 42.7829813,18.7230616 C43.1720192,18.7230616 43.4988111,18.6619625 43.7633569,18.5397642 C44.0279027,18.417566 44.2459196,18.2648182 44.4015348,18.0662461 C44.5725558,17.8676739 44.6814865,17.6232774 44.7592941,17.3483314 C44.8371016,17.0733854 44.8683803,16.7678898 44.8683803,16.4471194 L44.8683803,11.6355637 L46.7357625,11.6355637 L46.7357625,19.9297692 L46.7200453,19.9297692 Z M33.2126477,11.6355637 L34.9555377,11.6355637 L34.9555377,13.2394156 L34.9868163,13.2394156 C35.0489068,13.0102939 35.1578374,12.796447 35.3134526,12.5826 C35.4690678,12.3687531 35.655806,12.170181 35.8892288,12.0021584 C36.10709,11.818861 36.3560743,11.681388 36.6361816,11.5744646 C36.9007274,11.4675411 37.1808348,11.406442 37.4609421,11.406442 C37.6788033,11.406442 37.8344185,11.4217168 37.9122261,11.4217168 C37.9900337,11.4369915 38.0834028,11.4522663 38.1612104,11.4522663 L38.1612104,13.208866 C38.0367183,13.1783165 37.8966646,13.1630417 37.7566109,13.1477669 C37.6165573,13.1324921 37.4920651,13.1172173 37.3520115,13.1172173 C37.0407811,13.1172173 36.7451123,13.1783165 36.4651605,13.3005147 C36.1848976,13.4227129 35.9514748,13.6060103 35.7336136,13.835132 C35.5314695,14.0795285 35.3601372,14.3697493 35.235645,14.7210692 C35.1111529,15.0723892 35.0489068,15.4848082 35.0489068,15.9430516 L35.0489068,19.8839449 L33.1815246,19.8839449 L33.2126477,11.6355637 Z M24.1715613,8.47368421 L33.6172471,8.47368421 L33.6172471,10.1997344 L29.8980443,10.1997344 L29.8980443,19.9297692 L27.8594855,19.9297692 L27.8594855,10.1997344 L24.1558442,10.1997344 L24.1715613,8.47368421 Z" id="Fill-1" fill="#FFFFFF"></path>
                        <g id="Group-5">
                            <mask id="mask-2" fill="white">
                                <use xlink:href="#path-1"></use>
                            </mask>
                            <g id="Clip-4"></g>
                            <polygon id="Fill-3" fill="#FFFFFF" mask="url(#mask-2)" points="21.6949977 8.3526 13.4065237 8.3526 10.8550627 0.110494737 8.28850422 8.3526 3.01948052e-05 8.33681053 6.70327695 13.4368105 4.13671851 21.6789158 10.8399653 16.5789158 17.543212 21.6789158 14.991751 13.4368105"></polygon>
                        </g>
                        <polygon id="Fill-6" fill="#FFFFFF" points="15.7012987 15.4692623 15.1128871 13.3157895 10.8701299 16.9473684"></polygon>
                    </g>
                </g>
            </g>
        </g>
    </g>
</svg>