<?xml version="1.0" encoding="UTF-8"?>
<svg width="38px" height="38px" viewBox="0 0 38 38" version="1.1" xmlns="http://www.w3.org/2000/svg" xmlns:xlink="http://www.w3.org/1999/xlink">
    <!-- Generator: Sketch 55.2 (78181) - https://sketchapp.com -->
    <title>twitter</title>
    <desc>Created with Sketch.</desc>
    <g id="Social-Icons" stroke="none" stroke-width="1" fill="none" fill-rule="evenodd">
        <g id="twitter">
            <rect id="tw_bg" fill="#141414" x="0" y="0" width="38" height="38" rx="1"></rect>
            <path d="M28.0083058,13.7757431 C27.3083158,14.0759532 26.5572902,14.2790954 25.7677374,14.3726609 C26.5723006,13.9038326 27.1912338,13.1618133 27.4839388,12.2781948 C26.7284099,12.711498 25.8928251,13.0267188 25.005704,13.1973381 C24.2922045,12.4588212 23.2789953,12 22.1562094,12 C20.0007004,12 18.2539778,13.6951867 18.2539778,15.7866506 C18.2539778,16.082858 18.2880016,16.3715601 18.3550486,16.6507555 C15.1117783,16.4931452 12.2357651,14.9840889 10.3104172,12.6939858 C9.97468225,13.2518763 9.78154709,13.9038326 9.78154709,14.5963174 C9.78154709,15.9107375 10.9023316,17.0680476 11.9505654,17.7490244 C11.3106175,17.7290102 10.6151305,17.5588913 10.6151305,17.2726908 L10.6151305,17.3242269 C10.6151305,19.1575102 11.5282697,20.6865807 13.3140198,21.0363254 C12.98579,21.1223857 12.4248974,21.1694186 12.0696488,21.1694186 C11.8174722,21.1694186 11.4652257,21.1444011 11.2265587,21.1003703 C11.7229061,22.6049234 13.1103773,23.7001901 14.8180727,23.7297108 C13.4821375,24.7439208 11.772941,25.3523467 9.94366053,25.3523467 C9.62894033,25.3523467 9.30421289,25.3333334 9,25.2988092 C10.7267086,26.370059 12.7716401,27 14.9746823,27 C22.1552086,27 26.0779546,21.229961 26.0779546,16.2254578 C26.0779546,16.0603422 26.0699491,15.8957269 26.0624438,15.7356149 C26.8269789,15.2002401 27.4859402,14.534274 28.0083058,13.7757431" id="tw_icon" fill="#FFFFFF" fill-rule="nonzero"></path>
        </g>
    </g>
</svg>
