<?xml version="1.0" encoding="UTF-8"?>
<svg width="120px" height="64px" viewBox="0 0 120 64" version="1.1" xmlns="http://www.w3.org/2000/svg" xmlns:xlink="http://www.w3.org/1999/xlink">
    <!-- Generator: Sketch 62 (91390) - https://sketch.com -->
    <title>visa</title>
    <desc>Created with Sketch.</desc>
    <g id="visa" stroke="none" stroke-width="1" fill="none" fill-rule="evenodd">
        <g id="Visa_Inc._logo" transform="translate(0.000000, 13.000000)" fill-rule="nonzero">
            <polygon id="polygon9" fill="#00579F" points="51.843628 39 42 39 48.1569102 1 58 1"></polygon>
            <path d="M87,1.60729537 C85.0931348,0.84341637 82.0686889,0 78.3289704,0 C68.7819564,0 62.0590273,5.1405694 62.017792,12.4900356 C61.9384935,17.9124555 66.8312126,20.9241993 70.4905753,22.7322064 C74.2308225,24.5797153 75.5022422,25.7855872 75.5022422,27.4323843 C75.4641789,29.9615658 72.479911,31.1274021 69.6965327,31.1274021 C65.8368091,31.1274021 63.7687035,30.5263345 60.6258386,29.1192171 L59.3528329,28.5160142 L58,36.9907473 C60.2674092,38.0338078 64.4448556,38.9594306 68.7819564,39 C78.925824,39 85.5298053,33.938968 85.6080465,26.1069395 C85.6466385,21.8092527 83.0630925,18.5161922 77.4931639,15.8252669 C74.1118747,14.0978648 72.0411259,12.9330961 72.0411259,11.1656584 C72.0807751,9.5588968 73.792566,7.91316726 77.6094684,7.91316726 C80.7523334,7.83256228 83.0615065,8.59537367 84.810832,9.35871886 L85.6852304,9.75960854 L87,1.60729537 L87,1.60729537 L87,1.60729537 Z" id="path11" fill="#00579F"></path>
            <path d="M100.09098,25.5382973 C100.894253,23.3552168 103.985202,14.906056 103.985202,14.906056 C103.944665,14.9871895 104.786876,12.6826775 105.26852,11.2679468 L105.950182,14.5422988 C105.950182,14.5422988 107.797284,23.6383779 108.198388,25.5382973 C106.673982,25.5382973 102.017556,25.5382973 100.09098,25.5382973 L100.09098,25.5382973 Z M112.131014,1 L104.586324,1 C102.259711,1 100.492083,1.68667902 99.488258,4.15292055 L85,39 L95.2345357,39 C95.2345357,39 96.9194898,34.3098426 97.2816562,33.2997045 C98.4044255,33.2997045 108.360536,33.2997045 109.804935,33.2997045 C110.08496,34.6338391 110.968774,39 110.968774,39 L120,39 L112.131014,1 L112.131014,1 L112.131014,1 Z" id="path13" fill="#00579F"></path>
            <path d="M33.8046398,1 L24.3621871,26.9398718 L23.3303663,21.6789622 C21.584654,15.6085578 16.1097292,9.01319198 10,5.73379666 L18.6489471,39 L28.8448345,39 L44,1 L33.8046398,1 L33.8046398,1 L33.8046398,1 Z" id="path15" fill="#00579F"></path>
            <path d="M16.067934,1 L0.162717362,1 L0,1.74332232 C12.4070637,4.79619756 20.6240202,12.1550365 24,21 L20.5423912,4.09240813 C19.9731507,1.74280215 18.2238039,1.07750527 16.067934,1 L16.067934,1 Z" id="path17" fill="#FAA61A"></path>
        </g>
    </g>
</svg>