<?xml version="1.0" encoding="UTF-8"?>
<svg width="61px" height="48px" viewBox="0 0 61 48" version="1.1" xmlns="http://www.w3.org/2000/svg" xmlns:xlink="http://www.w3.org/1999/xlink">
    <!-- Generator: Sketch 62 (91390) - https://sketch.com -->
    <title>waste-icon-2</title>
    <desc>Created with Sketch.</desc>
    <defs>
        <polygon id="path-1" points="0 48 61 48 61 0 0 0"></polygon>
    </defs>
    <g id="HOMEPAGE" stroke="none" stroke-width="1" fill="none" fill-rule="evenodd">
        <g id="Business-Waste" transform="translate(-775.000000, -1121.000000)">
            <g id="we-deliver-bins-2" transform="translate(760.000000, 1100.000000)">
                <g id="waste-icon-2" transform="translate(15.000000, 21.000000)">
                    <path d="M59.3862434,9.73937695 C59.3862434,10.1142414 59.0792262,10.4180453 58.7003968,10.4180453 L2.29960317,10.4180453 C1.92077381,10.4180453 1.61375661,10.1142414 1.61375661,9.73937695 L1.61375661,9.65953362 L59.3862434,9.65953362 L59.3862434,9.73937695 Z M53.6170635,35.8880683 C53.4165542,37.3028922 52.1965542,38.3572234 50.7526455,38.3632116 L10.2473545,38.3632116 C8.80384921,38.3572234 7.58344577,37.3028922 7.38293651,35.8880683 L4.1957672,12.0149119 L56.8042328,12.0149119 L53.6170635,35.8880683 Z M10.1263228,7.42392031 L10.8525132,7.42392031 C11.9401852,7.53769706 13.0092989,7.08418693 13.6765873,6.22627032 C14.5145304,5.15676889 15.8192526,4.54836269 17.1865079,4.58948201 L17.8320106,4.58948201 C19.0895304,4.80625666 20.3760979,4.42101258 21.3015873,3.55151869 C22.4154828,2.49399375 24.0191534,2.11234262 25.4973545,2.55347703 C26.3808862,2.80139058 27.3245304,2.73072923 28.1600529,2.3538687 C31.0660251,1.06519732 34.454914,1.48038264 36.9550265,3.43175369 C37.710668,4.02978025 38.6502778,4.35394418 39.6177249,4.34995201 C40.3620701,4.35075044 41.0955225,4.52880108 41.7559524,4.86893367 C42.8363624,5.46216963 44.1350331,5.5212537 45.265873,5.02862034 C45.8609458,4.76034674 46.5080622,4.62421386 47.162037,4.62940367 C48.3336243,4.62301621 49.4616402,5.06654592 50.3088624,5.86697533 C50.8232474,6.36200399 51.4655225,6.70692718 52.1646825,6.86501698 C53.0397421,7.03947466 53.8409722,7.47062866 54.4642857,8.10258863 L7.90740741,8.10258863 C8.55815476,7.65905892 9.33638889,7.43509838 10.1263228,7.46384197 L10.1263228,7.42392031 Z M60.1931217,8.06266697 L56.4411376,8.06266697 C55.6076323,6.59674338 54.1588823,5.57315186 52.4874339,5.26815033 C52.0755225,5.1715399 51.6987103,4.96434645 51.3981481,4.66932534 C49.5600794,2.96826314 46.8622817,2.54189975 44.5800265,3.59144035 C43.9010384,3.88207008 43.1228042,3.83775703 42.4821429,3.47167535 C41.6002249,3.00618873 40.6174471,2.75987205 39.6177249,2.75308536 C39.0311243,2.75348458 38.4622751,2.55667077 38.0039683,2.19418204 C35.0314286,-0.150816636 30.9849339,-0.659019447 27.5145503,0.876767052 C27.0380886,1.10631663 26.4958664,1.1630054 25.9814815,1.03645372 C23.9251521,0.432838124 21.6993783,0.983757117 20.1719577,2.4736337 C19.6083532,2.99181693 18.8297156,3.21418061 18.0740741,3.07245869 L17.1865079,2.99261536 C15.3113228,2.95149604 13.5285251,3.79663772 12.385582,5.26815033 C12.0571825,5.70369571 11.5185913,5.93204764 10.973545,5.86697533 L10.1263228,5.86697533 C8.10912698,5.86697533 6.61640212,6.66540865 5.84986772,8.10258863 L0.806878307,8.10258863 C0.361078042,8.10258863 0,8.45988755 0,8.90102196 L0,9.77929861 C0,11.0360327 1.02957672,12.0548336 2.29960317,12.0548336 L2.54166667,12.0548336 L5.76917989,36.1275983 C6.0721627,38.3456461 7.9856746,40 10.2473545,40 L50.7526455,40 C53.0143254,40 54.9278373,38.3456461 55.2308201,36.1275983 L58.4583333,12.0548336 L58.7003968,12.0548336 C59.9704233,12.0548336 61,11.0360327 61,9.77929861 L61,8.86110029 C61,8.4203651 60.6385185,8.06266697 60.1931217,8.06266697 L60.1931217,8.06266697 Z" id="Fill-1" fill="#FFFFFF"></path>
                    <path d="M10.5,46.4269663 C9.43544944,46.4269663 8.57303371,45.5641573 8.57303371,44.5 C8.57303371,43.4358427 9.43544944,42.5730337 10.5,42.5730337 C11.5641573,42.5730337 12.4269663,43.4358427 12.4269663,44.5 C12.4269663,45.5641573 11.5641573,46.4269663 10.5,46.4269663 M10.5,41 C8.56674157,41 7,42.5671348 7,44.5 C7,46.4332584 8.56674157,48 10.5,48 C12.4328652,48 14,46.4332584 14,44.5 C14,42.5671348 12.4328652,41 10.5,41" id="Fill-3" fill="#FFFFFF"></path>
                    <path d="M49.5,46.4269663 C48.4358427,46.4269663 47.5730337,45.5641573 47.5730337,44.5 C47.5730337,43.4358427 48.4358427,42.5730337 49.5,42.5730337 C50.5641573,42.5730337 51.4269663,43.4358427 51.4269663,44.5 C51.4269663,45.5641573 50.5641573,46.4269663 49.5,46.4269663 M49.5,41 C47.5667416,41 46,42.5671348 46,44.5 C46,46.4332584 47.5667416,48 49.5,48 C51.4328652,48 53,46.4332584 53,44.5 C53,42.5671348 51.4328652,41 49.5,41" id="Fill-5" fill="#FFFFFF"></path>
                    <mask id="mask-2" fill="white">
                        <use xlink:href="#path-1"></use>
                    </mask>
                    <g id="Clip-8"></g>
                    <path d="M17.6,30.4197531 L42.4,30.4197531 L42.4,17.5802469 L17.6,17.5802469 L17.6,30.4197531 Z M16.8,32 L43.2,32 C43.6416,32 44,31.6464198 44,31.2098765 L44,16.7901235 C44,16.3535802 43.6416,16 43.2,16 L16.8,16 C16.358,16 16,16.3535802 16,16.7901235 L16,31.2098765 C16,31.6464198 16.358,32 16.8,32 L16.8,32 Z" id="Fill-7" fill="#FFFFFF" mask="url(#mask-2)"></path>
                </g>
            </g>
        </g>
    </g>
</svg>