<?xml version="1.0" encoding="UTF-8"?>
<svg width="33px" height="31px" viewBox="0 0 33 31" version="1.1" xmlns="http://www.w3.org/2000/svg" xmlns:xlink="http://www.w3.org/1999/xlink">
    <!-- Generator: Sketch 62 (91390) - https://sketch.com -->
    <title>waste-icon</title>
    <desc>Created with Sketch.</desc>
    <defs>
        <polygon id="path-1" points="0 0.0645885744 32.9107152 0.0645885744 32.9107152 27.1201389 0 27.1201389"></polygon>
        <polygon id="path-3" points="0.183968067 0.240697917 3.70692605 0.240697917 3.70692605 2.67361111 0.183968067 2.67361111"></polygon>
        <polygon id="path-5" points="0.210090756 0.240697917 3.73304874 0.240697917 3.73304874 2.67361111 0.210090756 2.67361111"></polygon>
        <polygon id="path-7" points="0.188821008 0.240697917 3.71150168 0.240697917 3.71150168 2.67361111 0.188821008 2.67361111"></polygon>
    </defs>
    <g id="HOMEPAGE" stroke="none" stroke-width="1" fill="none" fill-rule="evenodd">
        <g id="Desktop1" transform="translate(-622.000000, -646.000000)">
            <g id="Group-16" transform="translate(608.000000, 631.000000)">
                <g id="waste-icon" transform="translate(14.000000, 15.000000)">
                    <g id="Group-3">
                        <mask id="mask-2" fill="white">
                            <use xlink:href="#path-1"></use>
                        </mask>
                        <g id="Clip-2"></g>
                        <path d="M12.3187152,8.99501834 L15.9196752,8.99501834 L15.9196752,10.948598 C15.9196752,11.2323768 16.1562192,11.4622248 16.4476752,11.4622248 C16.7393952,11.4622248 16.9756752,11.2323768 16.9756752,10.948598 L16.9756752,8.99501834 L20.6719392,8.99501834 L20.6719392,10.948598 C20.6719392,11.2323768 20.9084832,11.4622248 21.1999392,11.4622248 C21.4916592,11.4622248 21.7279392,11.2323768 21.7279392,10.948598 L21.7279392,8.99501834 L25.4242032,8.99501834 L25.4242032,10.948598 C25.4242032,11.2323768 25.6607472,11.4622248 25.9522032,11.4622248 C26.2439232,11.4622248 26.4802032,11.2323768 26.4802032,10.948598 L26.4802032,8.99501834 L29.2152432,8.99501834 C29.0803392,13.0105529 28.7231472,24.6978747 28.7194512,24.8154953 C28.6956912,25.5199345 28.0866432,26.0928852 27.3622272,26.0928852 L12.3187152,26.0928852 L12.3187152,8.99501834 Z M10.9849872,4.9096305 L7.9991472,4.9096305 L7.8616032,4.90886006 C5.2598832,4.90886006 4.4245872,5.75274895 4.4245872,8.38149109 L4.4245872,15.3010718 C4.4245872,16.2045414 3.6690192,16.9397982 2.7402672,16.9397982 C1.8115152,16.9397982 1.0559472,16.2045414 1.0559472,15.3010718 L1.0559472,5.9795152 C1.0559472,3.28425839 3.3099792,1.09184224 6.0806592,1.09184224 C8.4680112,1.09184224 10.4823312,2.69743973 10.9849872,4.9096305 L10.9849872,4.9096305 Z M29.7749232,24.8478538 C29.7786192,24.7279219 30.1379232,12.9758831 30.2720352,8.99501834 L31.1664672,8.99501834 C32.1284832,8.99501834 32.9107152,8.23356656 32.9107152,7.29799528 L32.9107152,6.58174266 C32.9107152,5.73708333 32.2731552,5.03700996 31.4423472,4.90783281 C30.9198912,2.11832547 28.4285232,0.0645885744 25.4656512,0.0645885744 L6.0806592,0.0645885744 C2.7275952,0.0645885744 -5.28e-05,2.7179848 -5.28e-05,5.9795152 L-5.28e-05,15.3010718 C-5.28e-05,16.770815 1.2293952,17.9670519 2.7402672,17.9670519 C4.2514032,17.9670519 5.4805872,16.770815 5.4805872,15.3010718 L5.4805872,8.38149109 C5.4805872,7.30390199 5.6070432,6.71040618 5.9032512,6.39632338 C6.2034192,6.07813155 6.8074512,5.93611373 7.8616032,5.93611373 L11.6038032,5.93688417 C11.7532272,5.93688417 11.8955232,5.87524895 11.9958432,5.76738732 C12.0958992,5.65952568 12.1444752,5.51545335 12.1291632,5.3708674 C11.9401392,3.57214623 10.9403712,2.04128145 9.5060592,1.09184224 L25.4656512,1.09184224 C27.8398032,1.09184224 29.8467312,2.68716719 30.3599472,4.88446279 L13.2786192,4.88446279 C12.9868992,4.88446279 12.7506192,5.11456761 12.7506192,5.39808962 C12.7506192,5.68186845 12.9868992,5.91171646 13.2786192,5.91171646 L31.1664672,5.91171646 C31.5460992,5.91171646 31.8547152,6.21218816 31.8547152,6.58174266 L31.8547152,7.29799528 C31.8547152,7.66729298 31.5460992,7.96776468 31.1664672,7.96776468 L6.9766752,7.96776468 C6.6852192,7.96776468 6.4486752,8.1978695 6.4486752,8.48139151 C6.4486752,8.76491352 6.6852192,8.99501834 6.9766752,8.99501834 L11.2627152,8.99501834 L11.2627152,26.0928852 L4.6613952,26.0928852 C3.9464832,26.0928852 3.3648912,25.5271253 3.3648912,24.8314177 L3.3648912,19.1029376 C3.3648912,18.8194156 3.1283472,18.5893108 2.8368912,18.5893108 C2.5451712,18.5893108 2.3088912,18.8194156 2.3088912,19.1029376 L2.3088912,24.8314177 C2.3088912,26.0933988 3.3643632,27.1201389 4.6613952,27.1201389 L27.3622272,27.1201389 C28.6500192,27.1201389 29.7321552,26.1013601 29.7749232,24.8478538 L29.7749232,24.8478538 Z" id="Fill-1" fill="#FFFFFF" mask="url(#mask-2)"></path>
                    </g>
                    <path d="M23.7575686,4.86111111 C24.0375084,4.86111111 24.2647059,4.64333333 24.2647059,4.375 C24.2647059,4.10666667 24.0375084,3.88888889 23.7575686,3.88888889 L17.9777255,3.88888889 C17.6977857,3.88888889 17.4705882,4.10666667 17.4705882,4.375 C17.4705882,4.64333333 17.6977857,4.86111111 17.9777255,4.86111111 L23.7575686,4.86111111 Z" id="Fill-4" fill="#FFFFFF"></path>
                    <g id="Group-8" transform="translate(22.323529, 28.194444)">
                        <mask id="mask-4" fill="white">
                            <use xlink:href="#path-3"></use>
                        </mask>
                        <g id="Clip-7"></g>
                        <path d="M3.70692605,0.777364583 C3.70692605,0.50903125 3.45845546,0.291253472 3.1523042,0.291253472 C2.84615294,0.291253472 2.59768235,0.50903125 2.59768235,0.777364583 L2.59768235,1.12979514 C2.59768235,1.44503819 2.30484202,1.70146181 1.94516975,1.70146181 C1.58577479,1.70146181 1.29321176,1.44503819 1.29321176,1.12979514 L1.29321176,0.726809028 C1.29321176,0.458475694 1.04474118,0.240697917 0.738589916,0.240697917 C0.432161345,0.240697917 0.183968067,0.458475694 0.183968067,0.726809028 L0.183968067,1.12979514 C0.183968067,1.98097569 0.974304202,2.67368403 1.94516975,2.67368403 C2.91658992,2.67368403 3.70692605,1.98097569 3.70692605,1.12979514 L3.70692605,0.777364583 Z" id="Fill-6" fill="#FFFFFF" mask="url(#mask-4)"></path>
                    </g>
                    <g id="Group-11" transform="translate(11.647059, 28.194444)">
                        <mask id="mask-6" fill="white">
                            <use xlink:href="#path-5"></use>
                        </mask>
                        <g id="Clip-10"></g>
                        <path d="M0.764712605,0.240697917 C0.458561345,0.240697917 0.210090756,0.458475694 0.210090756,0.726809028 L0.210090756,1.12979514 C0.210090756,1.98097569 1.00042689,2.67368403 1.97156975,2.67368403 C2.94271261,2.67368403 3.73304874,1.98097569 3.73304874,1.12979514 L3.73304874,0.777364583 C3.73304874,0.50903125 3.48457815,0.291253472 3.17842689,0.291253472 C2.87199832,0.291253472 2.62380504,0.50903125 2.62380504,0.777364583 L2.62380504,1.12979514 C2.62380504,1.44503819 2.33124202,1.70146181 1.97156975,1.70146181 C1.61189748,1.70146181 1.31933445,1.44503819 1.31933445,1.12979514 L1.31933445,0.726809028 C1.31933445,0.458475694 1.07086387,0.240697917 0.764712605,0.240697917" id="Fill-9" fill="#FFFFFF" mask="url(#mask-6)"></path>
                    </g>
                    <g id="Group-14" transform="translate(3.882353, 28.194444)">
                        <mask id="mask-8" fill="white">
                            <use xlink:href="#path-7"></use>
                        </mask>
                        <g id="Clip-13"></g>
                        <path d="M0.743442857,0.240697917 C0.437291597,0.240697917 0.188821008,0.458475694 0.188821008,0.726809028 L0.188821008,1.12979514 C0.188821008,1.98097569 0.978879832,2.67368403 1.9503,2.67368403 C2.92144286,2.67368403 3.71150168,1.98097569 3.71150168,1.12979514 L3.71150168,0.777364583 C3.71150168,0.50903125 3.46303109,0.291253472 3.15687983,0.291253472 C2.85045126,0.291253472 2.60225798,0.50903125 2.60225798,0.777364583 L2.60225798,1.12979514 C2.60225798,1.44503819 2.30969496,1.70146181 1.9503,1.70146181 C1.59062773,1.70146181 1.29806471,1.44503819 1.29806471,1.12979514 L1.29806471,0.726809028 C1.29806471,0.458475694 1.04959412,0.240697917 0.743442857,0.240697917" id="Fill-12" fill="#FFFFFF" mask="url(#mask-8)"></path>
                    </g>
                    <path d="M2.91176471,17.0081721 C2.91176471,17.1377936 2.96514706,17.2649694 3.05492647,17.3554598 C3.14470588,17.4459503 3.27088235,17.5 3.39705882,17.5 C3.52566176,17.5 3.64941176,17.4459503 3.73919118,17.3554598 C3.83139706,17.2649694 3.88235294,17.1377936 3.88235294,17.0081721 C3.88235294,16.8809963 3.83139706,16.7538205 3.74161765,16.66333 C3.55963235,16.4825937 3.23448529,16.4825937 3.05492647,16.66333 C2.96514706,16.7538205 2.91176471,16.8809963 2.91176471,17.0081721" id="Fill-15" fill="#FFFFFF"></path>
                </g>
            </g>
        </g>
    </g>
</svg>