<svg id="Layer_1" data-name="Layer 1" xmlns="http://www.w3.org/2000/svg" xmlns:xlink="http://www.w3.org/1999/xlink" viewBox="0 0 100 75"><defs><style>.cls-1{fill:none;}.cls-2{fill:#002e6e;}.cls-3{clip-path:url(#clip-path);}.cls-4{fill:url(#linear-gradient);}.cls-5{clip-path:url(#clip-path-2);}.cls-6{fill:url(#linear-gradient-2);}.cls-7{fill:#00b7f0;}</style><clipPath id="clip-path"><path class="cls-1" d="M76.86178,19.9637a14.57108,14.57108,0,0,0-4.06706,2.12653,5.20769,5.20769,0,0,0-1.787,2.90639,14.65725,14.65725,0,0,1,2.0393-.89019l9.55329-3.119s.37192,7.26086-3.89977,10.45507A14.50179,14.50179,0,0,0,83.01314,29.735c6.30833-3.58663,5.7905-13.66978,5.7905-13.66978Z"/></clipPath><linearGradient id="linear-gradient" x1="-356.40621" y1="342.79942" x2="-355.95063" y2="342.79942" gradientTransform="matrix(-0.00048, -25.49577, -25.49577, 0.00048, 8819.92759, -9056.56722)" gradientUnits="userSpaceOnUse"><stop offset="0" stop-color="#00aced"/><stop offset="0.8" stop-color="#034ea0"/><stop offset="1" stop-color="#2e3190"/></linearGradient><clipPath id="clip-path-2"><path class="cls-1" d="M69.79271,25.80806a4.17958,4.17958,0,0,0-1.53039,3.25608,4.58,4.58,0,0,0,4.77353,4.358l.00045.00046a9.59181,9.59181,0,0,0,4.93193-1.49923,7.15214,7.15214,0,0,0,.73226-.48093,8.41151,8.41151,0,0,1-1.8516.16728v-.00132a5.72552,5.72552,0,0,1-5.968-5.44752,5.36546,5.36546,0,0,1,.12682-1.16427,6.73569,6.73569,0,0,0-1.215.81144"/></clipPath><linearGradient id="linear-gradient-2" x1="-386.66493" y1="334.99555" x2="-386.20934" y2="334.99555" gradientTransform="matrix(0.0006, 23.70945, 23.70945, -0.0006, -7868.84547, 9191.87839)" gradientUnits="userSpaceOnUse"><stop offset="0" stop-color="#d4de41"/><stop offset="1" stop-color="#007f3e"/></linearGradient></defs><title>logos</title><path class="cls-2" d="M26.055,37.55394h1.95392V35.63273c-.961-.11165-1.95392.16063-1.95392,1.23323Z"/><path class="cls-2" d="M23.59327,38.14653c-2.066.04806-3.10656.72069-3.10656,2.80275v5.10809h1.95342V40.94928c0-.977.36836-1.12112,1.12112-1.15314.48024-.032.6493.06405,1.08171-.17617.40039-.20818.56011-.70469.54453-1.40939-.529-.032-.95425-.08-1.59422-.06405"/><path class="cls-2" d="M13.22763,39.8442V37.02545h2.51443c1.12108,0,1.40894.40126,1.40894,1.39336,0,1.009-.3203,1.42539-1.40894,1.42539Zm6.21358,3.13818c0-1.69767-.73672-2.28935-1.7132-2.49758a2.13821,2.13821,0,0,0,1.42493-2.32224c0-2.06489-.97694-2.80161-2.99446-2.80161H11.21011V46.05737h5.15656c1.93743,0,3.07454-.76875,3.07454-3.075m-6.21358-1.52151h2.80271c1.08864,0,1.3929.41729,1.3929,1.44142,0,1.0419-.33588,1.48944-1.3929,1.48944H13.22763Z"/><path class="cls-2" d="M36.26184,37.55394H38.2153V35.63273c-.96049-.11165-1.95346.16063-1.95346,1.23323Z"/><rect class="cls-2" x="36.24535" y="38.24265" width="1.96995" height="7.81472"/><path class="cls-2" d="M51.906,38.14653a9.10365,9.10365,0,0,0-3.17066.88086V35.12561c-.9609-.11211-1.95433.16013-1.95433,1.23319v9.69857h1.95433V40.613a8.58,8.58,0,0,1,2.56208-.67267.83317.83317,0,0,1,.91289.88086v5.23623h1.95433V40.75708c0-1.69767-.609-2.61055-2.25864-2.61055"/><rect class="cls-2" x="26.055" y="38.24265" width="1.95392" height="7.81472"/><path class="cls-2" d="M32.42342,39.79614h1.39291c1.025,0,1.4098-.46444,1.31373-1.55349H32.42342V35.63273c-.96094-.11206-1.95391.16063-1.95391,1.23323v1.37669H29.0121v1.55349h1.45741V43.3347c0,1.95392.80077,2.80271,2.83478,2.80271a12.51156,12.51156,0,0,0,1.64915-.11211l-.04761-1.55349c-.36881.0329-.91334.06405-1.36133.06405-.75317,0-1.12108-.25624-1.12108-1.08818Z"/><path class="cls-2" d="M41.224,40.40471c0-.49646.38439-.67262.86487-.67262.81681,0,1.56952.032,2.05.04806.88041.032,1.31282-.44845,1.2648-1.47345-.59258-.06405-1.95346-.16017-3.07458-.16017-1.74523,0-3.02693.65755-3.02693,2.27422,0,1.68077.94491,2.13008,2.6746,2.41744,1.56953.25625,1.88983.36928,1.88983.91294,0,.6575-.73673.75358-1.44138.75358-1.041,0-2.14566-.06492-2.83478-.12811l-.09607,1.63271c.73672.065,1.82577.1281,3.0109.1281,2.018,0,3.28277-.62461,3.28277-2.30624,0-1.61667-.84884-2.09715-2.54605-2.41745-1.56953-.27228-2.018-.3844-2.018-1.009"/><path class="cls-2" d="M67.28538,39.87622H63.249c-.09608,1.16914.28873,1.6656,1.31373,1.6656H65.267v2.67374a23.6345,23.6345,0,0,1-2.38588.17617c-1.60114,0-2.22575-.62461-2.22575-3.77878,0-3.059.46448-3.779,2.9945-3.58663l1.7297.12724c1.15264.065,1.5851-.55988,1.56906-1.53636a34.68207,34.68207,0,0,0-3.73117-.35278c-3.68316,0-4.6601,1.057-4.6601,5.39654,0,4.22723,1.18558,5.47645,4.25971,5.47645a27.93962,27.93962,0,0,0,4.46835-.48047Z"/><path class="cls-2" d="M78.43176,40.40471c0-.49646.38439-.67262.86441-.67262.81681,0,1.56952.032,2.05.04806.88086.032,1.31281-.44845,1.2648-1.47345-.59172-.06405-1.95346-.16017-3.07458-.16017-1.74569,0-3.02694.65755-3.02694,2.27422,0,1.68077.94491,2.13008,2.67461,2.41744,1.56953.25625,1.88982.36928,1.88982.91294,0,.6575-.73713.75358-1.44183.75358-1.04058,0-2.1452-.06492-2.83387-.12811l-.09607,1.63271c.73667.065,1.82531.1281,3.01048.1281,2.01793,0,3.28319-.62461,3.28319-2.30624,0-1.61667-.84929-2.09715-2.54651-2.41745-1.56952-.27228-2.01751-.3844-2.01751-1.009"/><path class="cls-2" d="M75.424,40.67522c0-1.61489-.65532-2.478-2.65324-2.478-1.24658,0-2.87706.14418-3.61287.22423-.01558.97429.25579,1.46989,1.10331,1.46989.57522,0,1.69407-.06405,2.34984-.06405.57568,0,.86259.20819.86259.87908v.28828c-.879.04715-1.67808.14413-2.41389.25533-1.72569.25625-2.73242.75185-2.73242,2.46109a2.18235,2.18235,0,0,0,2.413,2.462,43.85457,43.85457,0,0,0,4.6837-.25539Zm-1.95037,3.93185a23.12039,23.12039,0,0,1-2.33381.09607c-.783,0-.91065-.51249-.91065-.97516,0-.71982.33543-.91111,1.13442-1.05524a16.40621,16.40621,0,0,1,2.11-.25539Z"/><g class="cls-3"><rect class="cls-4" x="68.61612" y="12.91553" width="23.09665" height="21.67632" transform="translate(-2.52818 36.10303) rotate(-24.99898)"/></g><g class="cls-5"><rect class="cls-6" x="67.20826" y="22.59192" width="12.54629" height="13.27017" transform="translate(11.42818 78.24876) rotate(-59.99861)"/></g><polygon class="cls-7" points="11.852 54.523 14.092 54.523 14.092 55.119 11.186 55.119 11.186 49.96 11.852 49.96 11.852 54.523"/><path class="cls-7" d="M16.07485,55.19694a1.338,1.338,0,0,1-1.534-1.41742v-1.0926a1.338,1.338,0,0,1,1.534-1.41736,1.338,1.338,0,0,1,1.53394,1.41736v1.0926a1.338,1.338,0,0,1-1.53394,1.41742m0-3.36241c-.589,0-.8831.2794-.8831.82925v1.13889c0,.54985.29406.82924.8831.82924s.8835-.27939.8835-.82924V52.66378c0-.54985-.29452-.82925-.8835-.82925"/><path class="cls-7" d="M19.74775,55.19694a1.33817,1.33817,0,0,1-1.5344-1.41742v-1.0926a1.33814,1.33814,0,0,1,1.5344-1.41736,1.33783,1.33783,0,0,1,1.53349,1.41736v1.0926a1.33786,1.33786,0,0,1-1.53349,1.41742m0-3.36241c-.58948,0-.88354.2794-.88354.82925v1.13889c0,.54985.29406.82924.88354.82924.58812,0,.8831-.27939.8831-.82924V52.66378c0-.54985-.295-.82925-.8831-.82925"/><path class="cls-7" d="M22.03309,55.11949V49.80413l.65085-.09257v5.40793ZM24.93033,51.346l-1.34776,1.86759,1.41008,1.90586h-.76743l-1.37846-1.90586L24.17893,51.346Z"/><path class="cls-7" d="M25.59676,49.80413h.65085v.9378h-.65085Zm0,1.54191h.65085v3.77345h-.65085Z"/><path class="cls-7" d="M29.47075,55.11949V52.23761c0-.24828-.1241-.34882-.3639-.34882a3.51368,3.51368,0,0,0-1.263.37907v2.85163H27.193V51.346h.52676l.06228.32568a4.08585,4.08585,0,0,1,1.51836-.40308c.60461,0,.82127.37994.82127.961v2.8899Z"/><path class="cls-7" d="M30.88857,52.6789c0-.85949.3101-1.40934,1.60383-1.40934a6.75112,6.75112,0,0,1,1.34794.14677v3.98255c0,.73582-.37948,1.32485-1.4565,1.32485a4.78122,4.78122,0,0,1-1.32485-.202l.08542-.52676a4.93367,4.93367,0,0,0,1.20071.16282c.6277,0,.84482-.26336.84482-.75185v-.59614a2.73166,2.73166,0,0,1-1.19314.2634c-.783,0-1.10823-.45733-1.10823-1.17806Zm2.30137-.78209a4.97414,4.97414,0,0,0-.74428-.05426c-.767,0-.90619.30964-.90619.81321v1.26257c0,.388.16992.58193.61213.58193a2.77656,2.77656,0,0,0,1.03834-.28741Z"/><path class="cls-7" d="M38.92351,55.11949H38.3732l-.03868-.27848a2.15044,2.15044,0,0,1-1.2243.35593c-.70516,0-.99967-.4182-.99967-1.08463,0-.783.395-1.06149,1.15446-1.06149h1.00724V52.4627c0-.47337-.2091-.63618-.82128-.63618a6.20232,6.20232,0,0,0-1.13087.12459l-.06983-.51965a5.2953,5.2953,0,0,1,1.23942-.16282c1.077,0,1.43382.41907,1.43382,1.22431Zm-.65126-1.52592h-.9605c-.40262,0-.55035.12368-.55035.50361,0,.387.06988.54184.53477.54184a1.885,1.885,0,0,0,.97608-.3096Z"/><path class="cls-7" d="M44.14507,54.5536a2.38452,2.38452,0,0,1-.60415.09344c-.34878,0-.3875-.13968-.3875-.41816V51.88879h1.01521l.0543-.54275H43.15342V50.32373l-.65085.09253V51.346H40.82936v-.6344c0-.37989.10055-.51961.50316-.51961a3.92609,3.92609,0,0,1,.62776.06943l.05426-.50271a2.6302,2.6302,0,0,0-.767-.10947c-.69713,0-1.0695.33365-1.0695,1.00008V51.346h-.666v.54275h.666v3.2307h.6513v-3.2307h1.67321V54.3374c0,.6273.30254.85954.93735.85954a2.367,2.367,0,0,0,.79057-.13881Z"/><path class="cls-7" d="M46.30673,54.639a4.78529,4.78529,0,0,0,1.19314-.17794l.08542.51874a4.10835,4.10835,0,0,1-1.33287.21712c-1.11574,0-1.49522-.53387-1.49522-1.38717V52.6789c0-.78209.35634-1.41026,1.4801-1.41026a1.2511,1.2511,0,0,1,1.41741,1.4263V53.485H45.40805v.31766c0,.59614.16282.83635.89868.83635m-.89868-1.69676H47.027v-.30964c0-.52671-.17794-.82123-.78966-.82123-.61258,0-.82925.29452-.82925.82123Z"/><path class="cls-7" d="M50.15758,51.86569a8.19822,8.19822,0,0,0-1.07707.65126v2.60254h-.65085V51.346h.56543l.03872.52763a4.844,4.844,0,0,1,1.03789-.605Z"/><polygon class="cls-7" points="53.388 55.119 53.117 55.119 51.893 51.346 52.536 51.346 53.566 54.6 54.613 51.346 55.255 51.346 54.008 55.119 53.473 56.645 52.862 56.645 53.388 55.119"/><path class="cls-7" d="M57.09189,55.19694a1.33817,1.33817,0,0,1-1.5344-1.41742v-1.0926a1.53921,1.53921,0,0,1,3.06875,0v1.0926a1.33834,1.33834,0,0,1-1.53435,1.41742m0-3.36241c-.589,0-.88309.2794-.88309.82925v1.13889c0,.54985.29406.82924.88309.82924s.88351-.27939.88351-.82924V52.66378c0-.54985-.29452-.82925-.88351-.82925"/><path class="cls-7" d="M59.95865,51.346v2.88284c0,.24732.12369.34787.36394.34787a3.512,3.512,0,0,0,1.26257-.379V51.346h.65126v3.77345h-.52671l-.06182-.32563a4.11013,4.11013,0,0,1-1.51882.40308c-.60461,0-.82127-.37994-.82127-.96095V51.346Z"/><path class="cls-7" d="M64.87814,51.86569a8.22588,8.22588,0,0,0-1.07707.65126v2.60254h-.65039V51.346h.56543l.03872.52763a4.8352,4.8352,0,0,1,1.03835-.605Z"/><polygon class="cls-7" points="70.008 55.119 69.093 51.92 68.179 55.119 67.342 55.119 66.537 51.346 67.156 51.346 67.784 54.477 68.698 51.346 69.488 51.346 70.403 54.477 71.03 51.346 71.65 51.346 70.844 55.119 70.008 55.119"/><path class="cls-7" d="M73.57951,55.19694a1.33836,1.33836,0,0,1-1.5344-1.41742v-1.0926a1.539,1.539,0,0,1,3.0683,0v1.0926a1.338,1.338,0,0,1-1.5339,1.41742m0-3.36241c-.589,0-.88355.2794-.88355.82925v1.13889c0,.54985.29452.82924.88355.82924s.883-.27939.883-.82924V52.66378c0-.54985-.29406-.82925-.883-.82925"/><path class="cls-7" d="M77.639,51.86569a8.19338,8.19338,0,0,0-1.07661.65126v2.60254h-.65085V51.346H76.477l.03872.52763a4.83617,4.83617,0,0,1,1.03835-.605Z"/><polygon class="cls-7" points="78.205 55.119 78.205 49.805 78.856 49.712 78.856 55.119 78.205 55.119"/><path class="cls-7" d="M79.6454,52.501a1.086,1.086,0,0,1,1.22476-1.23232,6.005,6.005,0,0,1,1.077.11658V49.80413l.65044-.09257v5.40793h-.5499l-.05426-.34075a2.009,2.009,0,0,1-1.24744.4182c-.74383,0-1.10062-.39506-1.10062-1.15406Zm2.30178-.54274a6.094,6.094,0,0,0-1.03835-.11567c-.43373,0-.61212.20108-.61212.65841v1.54192c0,.38709.12409.581.581.581a1.74407,1.74407,0,0,0,1.06946-.45018Z"/></svg>