<?xml version="1.0" encoding="UTF-8"?>
<svg width="272px" height="289px" viewBox="0 0 272 289" version="1.1" xmlns="http://www.w3.org/2000/svg" xmlns:xlink="http://www.w3.org/1999/xlink">
    <!-- Generator: Sketch 64 (93537) - https://sketch.com -->
    <title>Group</title>
    <desc>Created with Sketch.</desc>
    <defs>
        <circle id="path-1" cx="132" cy="132" r="132"></circle>
        <filter x="-2.7%" y="-1.9%" width="105.3%" height="105.3%" filterUnits="objectBoundingBox" id="filter-2">
            <feOffset dx="0" dy="2" in="SourceAlpha" result="shadowOffsetOuter1"></feOffset>
            <feGaussianBlur stdDeviation="2" in="shadowOffsetOuter1" result="shadowBlurOuter1"></feGaussianBlur>
            <feComposite in="shadowBlurOuter1" in2="SourceAlpha" operator="out" result="shadowBlurOuter1"></feComposite>
            <feColorMatrix values="0 0 0 0 0   0 0 0 0 0   0 0 0 0 0  0 0 0 0.5 0" type="matrix" in="shadowBlurOuter1"></feColorMatrix>
        </filter>
        <filter x="-2.3%" y="-1.5%" width="104.5%" height="104.5%" filterUnits="objectBoundingBox" id="filter-3">
            <feGaussianBlur stdDeviation="1.5" in="SourceAlpha" result="shadowBlurInner1"></feGaussianBlur>
            <feOffset dx="0" dy="1" in="shadowBlurInner1" result="shadowOffsetInner1"></feOffset>
            <feComposite in="shadowOffsetInner1" in2="SourceAlpha" operator="arithmetic" k2="-1" k3="1" result="shadowInnerInner1"></feComposite>
            <feColorMatrix values="0 0 0 0 0   0 0 0 0 0   0 0 0 0 0  0 0 0 0.5 0" type="matrix" in="shadowInnerInner1"></feColorMatrix>
        </filter>
    </defs>
    <g id="Page-1" stroke="none" stroke-width="1" fill="none" fill-rule="evenodd">
        <g id="Desktop-HD" transform="translate(-568.000000, -269.000000)">
            <g id="Group" transform="translate(572.000000, 271.000000)">
                <g id="Oval">
                    <use fill="black" fill-opacity="1" filter="url(#filter-2)" xlink:href="#path-1"></use>
                    <use fill="#FF5F08" fill-rule="evenodd" xlink:href="#path-1"></use>
                    <use fill="black" fill-opacity="1" filter="url(#filter-3)" xlink:href="#path-1"></use>
                    <circle stroke="#132246" stroke-width="1" stroke-linejoin="square" cx="132" cy="132" r="131.5"></circle>
                </g>
                <circle id="Oval-Copy" stroke="#132246" fill="#FF5F08" cx="49.5" cy="241.5" r="20"></circle>
                <circle id="Oval-Copy-2" stroke="#132246" fill="#FF5F08" cx="29" cy="264" r="13.5"></circle>
                <circle id="Oval-Copy-3" stroke="#132246" fill="#FF5F08" cx="15.5" cy="278.5" r="8"></circle>
                <path d="M89.0835,72 L89.0835,55.665 L94.7535,55.665 L94.7535,53.397 L80.9565,53.397 L80.9565,55.665 L86.6265,55.665 L86.6265,72 L89.0835,72 Z M99.6945,72 L99.6945,65.169 C99.6945,62.442 101.8005,61.443 103.5555,61.443 C105.3105,61.443 106.6065,62.739 106.6065,64.845 L106.6065,72 L108.9555,72 L108.9555,64.71 C108.9825,61.173 107.0115,59.121 103.8795,59.121 C102.5025,59.121 100.4505,59.769 99.6945,61.308 L99.6945,52.506 L97.3455,52.506 L97.3455,72 L99.6945,72 Z M118.4865,72.27 C120.9165,72.27 123.1845,71.136 124.2915,68.949 L122.2395,68.139 C121.5375,69.408 120.1065,70.056 118.5675,70.056 C116.4075,70.056 114.7875,68.949 114.4365,66.708 L124.6965,66.708 C124.7235,66.357 124.7505,66.006 124.7505,65.655 C124.7505,61.659 122.0775,59.121 118.4865,59.121 C114.8955,59.121 112.0065,61.659 112.0065,65.655 C112.0065,69.651 114.8955,72.27 118.4865,72.27 Z M122.4015,64.683 L114.4635,64.683 C114.8415,62.415 116.3535,61.335 118.4865,61.335 C120.5655,61.335 122.1045,62.523 122.4015,64.683 Z M141.8685,72.27 C145.5405,72.27 148.6455,69.84 148.6455,65.628 L148.6455,53.397 L146.1885,53.397 L146.1885,65.628 C146.1885,68.544 144.1905,69.921 141.8685,69.921 C139.5465,69.921 137.5485,68.544 137.5485,65.628 L137.5485,53.397 L135.0915,53.397 L135.0915,65.628 C135.0915,69.84 138.1965,72.27 141.8685,72.27 Z M156.0435,72 L156.0435,64.035 L163.4955,72 L166.7625,72 L158.0955,62.712 L165.2775,53.397 L162.2805,53.397 L156.0435,61.524 L156.0435,53.397 L153.6135,53.397 L153.6135,72 L156.0435,72 Z M170.1645,61.119 L170.2995,53.397 L168.3015,53.397 L168.4365,61.119 L170.1645,61.119 Z M177.5625,72.27 C180.1815,72.27 182.4495,70.839 182.4495,68.49 C182.4495,67.059 181.7745,65.493 179.1555,64.845 L177.2925,64.386 C176.4825,64.197 175.6725,63.738 175.6725,62.874 C175.6725,61.902 176.4825,61.173 177.6975,61.173 C178.6965,61.173 179.6955,61.821 179.7225,62.793 L181.9905,62.793 C181.9905,60.255 179.7765,59.121 177.6435,59.121 C175.1055,59.121 173.3235,60.714 173.3235,62.793 C173.3235,64.818 174.5385,65.844 176.6445,66.411 L178.3725,66.816 C179.3715,67.032 180.1005,67.518 180.1005,68.463 C180.1005,69.489 179.1555,70.218 177.5625,70.218 C176.0235,70.218 175.0785,69.327 175.0515,68.247 L172.8645,68.247 C172.9725,70.839 175.2945,72.27 177.5625,72.27 Z M79.647,106 L79.647,94.336 L86.397,106 L89.772,106 L89.772,87.397 L86.019,87.397 L86.019,98.926 L79.377,87.397 L75.894,87.397 L75.894,106 L79.647,106 Z M98.52,106.297 C99.762,106.297 101.76,105.595 102.3,103.948 L102.3,106 L105.837,106 L105.837,93.418 L102.3,93.418 L102.3,99.871 C102.3,102.139 100.734,102.814 99.465,102.814 C98.25,102.814 97.062,101.923 97.062,99.952 L97.062,93.418 L93.525,93.418 L93.525,100.33 C93.498,104.11 95.226,106.297 98.52,106.297 Z M112.938,106 L112.938,99.439 C112.938,97.171 114.234,96.577 115.503,96.577 C116.691,96.577 117.717,97.36 117.717,99.331 L117.717,106 L121.254,106 L121.254,99.331 C121.335,97.441 122.334,96.55 123.738,96.577 C124.98,96.577 126.006,97.387 126.006,99.358 L126.006,106 L129.57,106 L129.57,99.088 C129.57,95.308 127.923,93.094 124.764,93.094 C123.468,93.094 121.524,93.688 120.552,95.524 C119.823,93.985 118.365,93.094 116.502,93.094 C115.098,93.094 113.316,93.931 112.938,95.659 L112.938,93.418 L109.401,93.418 L109.401,106 L112.938,106 Z M140.532,106.243 C143.772,106.243 146.715,103.732 146.715,99.682 C146.715,95.632 143.772,93.121 140.532,93.121 C139.101,93.121 137.373,93.661 136.482,94.93 L136.482,86.695 L132.945,86.695 L132.945,106 L136.482,106 L136.482,104.434 C137.373,105.703 139.101,106.243 140.532,106.243 Z M139.857,102.949 C138.129,102.949 136.59,101.599 136.59,99.682 C136.59,97.738 138.21,96.442 139.857,96.442 C141.639,96.442 143.097,97.819 143.097,99.682 C143.097,101.518 141.639,102.949 139.857,102.949 Z M155.436,106.243 C157.65,106.243 159.864,105.379 161.052,103.786 L158.973,101.707 C158.217,102.598 156.948,103.111 155.679,103.111 C153.978,103.111 152.79,102.301 152.412,100.843 L161.916,100.843 C161.943,100.276 161.97,99.844 161.97,99.493 C161.97,95.632 159.027,93.094 155.436,93.094 C151.818,93.094 148.74,95.632 148.74,99.709 C148.74,103.597 151.575,106.243 155.436,106.243 Z M158.433,98.548 L152.412,98.548 C152.79,96.847 154.059,96.172 155.49,96.172 C157.083,96.172 158.325,97.063 158.433,98.548 Z M168.234,106 L168.234,101.68 C168.234,98.089 169.476,96.415 171.285,96.415 C171.717,96.415 172.338,96.469 173.094,96.874 L173.904,93.499 C173.337,93.202 172.581,93.094 171.906,93.094 C170.34,93.094 168.909,93.985 168.207,96.091 L168.207,93.418 L164.697,93.418 L164.697,106 L168.234,106 Z M188.106,106 L188.106,88.072 L187.809,88.072 L180.465,91.123 L180.465,94.444 L184.542,92.878 L184.542,106 L188.106,106 Z M102.975,140 L102.975,137.732 L94.173,137.732 L94.173,132.008 L101.625,132.008 L101.625,129.713 L94.173,129.713 L94.173,123.665 L102.705,123.665 L102.705,121.397 L91.743,121.397 L91.743,140 L102.975,140 Z M108.618,140 L108.618,133.169 C108.618,130.442 110.724,129.443 112.479,129.443 C114.234,129.443 115.53,130.739 115.53,132.845 L115.53,140 L117.879,140 L117.879,132.71 C117.906,129.173 115.935,127.121 112.803,127.121 C111.426,127.121 109.374,127.769 108.618,129.308 L108.618,127.391 L106.269,127.391 L106.269,140 L108.618,140 Z M127.41,140.27 C129.84,140.27 132.108,139.136 133.215,136.949 L131.163,136.139 C130.461,137.408 129.03,138.056 127.491,138.056 C125.331,138.056 123.711,136.949 123.36,134.708 L133.62,134.708 C133.647,134.357 133.674,134.006 133.674,133.655 C133.674,129.659 131.001,127.121 127.41,127.121 C123.819,127.121 120.93,129.659 120.93,133.655 C120.93,137.651 123.819,140.27 127.41,140.27 Z M131.325,132.683 L123.387,132.683 C123.765,130.415 125.277,129.335 127.41,129.335 C129.489,129.335 131.028,130.523 131.325,132.683 Z M139.236,140 L139.236,135.383 C139.236,132.062 140.235,129.389 142.746,129.389 C143.232,129.389 143.907,129.497 144.582,129.821 L144.96,127.607 C144.582,127.364 143.664,127.121 142.773,127.121 C141.099,127.121 139.884,128.039 139.236,130.253 L139.236,127.391 L136.86,127.391 L136.86,140 L139.236,140 Z M152.385,146.291 C156.543,146.291 159.243,144.05 159.243,138.083 L159.243,127.391 L156.894,127.391 L156.894,129.362 C156.057,127.904 154.275,127.121 152.385,127.121 C148.929,127.121 146.094,129.686 146.094,133.682 C146.094,137.651 148.956,140.27 152.412,140.27 C154.221,140.27 156.057,139.46 156.894,138.002 L156.894,138.245 C156.894,142.511 155.166,144.077 152.385,144.077 C150.981,144.077 149.496,143.294 148.713,141.863 L146.715,142.916 C147.957,145.13 150.09,146.291 152.385,146.291 Z M152.601,138.056 C150.306,138.056 148.47,136.166 148.47,133.655 C148.47,131.117 150.306,129.335 152.601,129.335 C154.68,129.335 156.894,130.928 156.894,133.655 C156.894,136.355 154.869,138.056 152.601,138.056 Z M166.668,146.129 L174.498,127.391 L171.96,127.391 L168.099,136.679 L164.292,127.391 L161.754,127.391 L166.803,139.649 L164.184,146.129 L166.668,146.129 Z M67.5105,174.27 C70.3725,174.27 72.8565,173.055 74.5035,171.111 L72.7215,169.599 C71.4795,171.057 69.5895,172.002 67.5105,172.002 C63.5955,172.002 60.5175,168.708 60.5175,164.739 C60.5175,160.743 63.5955,157.476 67.5105,157.476 C69.5895,157.476 71.4795,158.421 72.7215,159.879 L74.5035,158.367 C72.8565,156.423 70.3725,155.208 67.5105,155.208 C62.2455,155.208 58.0605,159.474 58.0605,164.739 C58.0605,170.004 62.2455,174.27 67.5105,174.27 Z M83.0355,174.27 C86.6265,174.27 89.6505,171.651 89.6505,167.655 C89.6505,163.659 86.6265,161.121 83.0355,161.121 C79.4445,161.121 76.4475,163.659 76.4475,167.655 C76.4475,171.651 79.4445,174.27 83.0355,174.27 Z M83.0355,172.056 C80.7405,172.056 78.8235,170.274 78.8235,167.655 C78.8235,165.063 80.7405,163.335 83.0355,163.335 C85.3575,163.335 87.3015,165.063 87.3015,167.655 C87.3015,170.274 85.3575,172.056 83.0355,172.056 Z M95.2665,174 L95.2665,167.169 C95.2665,164.496 97.0485,163.389 98.8305,163.389 C100.5045,163.389 101.6655,164.712 101.6655,166.845 L101.6655,174 L104.0145,174 L104.0145,167.574 L104.0415,167.682 C103.8255,165.252 105.1755,163.362 107.4165,163.389 C109.2525,163.389 110.4135,164.739 110.4135,166.845 L110.4135,174 L112.7625,174 L112.7625,166.71 C112.7625,163.173 111.0345,161.121 107.8755,161.121 C106.6065,161.121 104.6085,161.499 103.4745,163.74 C102.7455,162.066 101.1525,161.121 99.3165,161.121 C97.5345,161.121 95.9145,161.958 95.2665,163.308 L95.2665,161.391 L92.9175,161.391 L92.9175,174 L95.2665,174 Z M119.0265,180.129 L119.0265,172.029 C119.8635,173.514 121.6455,174.27 123.5355,174.27 C126.9915,174.27 129.8265,171.705 129.8265,167.709 C129.8265,163.74 126.9645,161.121 123.5085,161.121 C121.6995,161.121 119.8635,161.931 119.0265,163.389 L119.0265,161.391 L116.6775,161.391 L116.6775,180.129 L119.0265,180.129 Z M123.2925,172.056 C121.2405,172.056 119.0265,170.463 119.0265,167.736 C119.0265,165.036 121.0515,163.335 123.2925,163.335 C125.6145,163.335 127.4505,165.225 127.4505,167.736 C127.4505,170.274 125.6145,172.056 123.2925,172.056 Z M138.5745,174.27 C140.3835,174.27 142.2195,173.46 143.0565,172.002 L143.0565,174 L145.4055,174 L145.4055,161.391 L143.0565,161.391 L143.0565,163.362 C142.2195,161.877 140.4375,161.121 138.5475,161.121 C135.0915,161.121 132.2565,163.686 132.2565,167.682 C132.2565,171.651 135.1185,174.27 138.5745,174.27 Z M138.7635,172.056 C136.4685,172.056 134.6325,170.166 134.6325,167.655 C134.6325,165.117 136.4685,163.335 138.7635,163.335 C140.8425,163.335 143.0565,164.928 143.0565,167.655 C143.0565,170.355 141.0315,172.056 138.7635,172.056 Z M151.8855,174 L151.8855,169.383 C151.8855,166.062 152.8845,163.389 155.3955,163.389 C155.8815,163.389 156.5565,163.497 157.2315,163.821 L157.6095,161.607 C157.2315,161.364 156.3135,161.121 155.4225,161.121 C153.7485,161.121 152.5335,162.039 151.8855,164.253 L151.8855,161.391 L149.5095,161.391 L149.5095,174 L151.8855,174 Z M161.1195,158.313 C162.0375,158.313 162.7935,157.638 162.7935,156.747 C162.7935,155.856 162.0375,155.181 161.1195,155.181 C160.2285,155.181 159.4725,155.856 159.4725,156.747 C159.4725,157.638 160.2285,158.313 161.1195,158.313 Z M162.3075,174 L162.3075,161.391 L159.9585,161.391 L159.9585,174 L162.3075,174 Z M170.0835,174.27 C172.7025,174.27 174.9705,172.839 174.9705,170.49 C174.9705,169.059 174.2955,167.493 171.6765,166.845 L169.8135,166.386 C169.0035,166.197 168.1935,165.738 168.1935,164.874 C168.1935,163.902 169.0035,163.173 170.2185,163.173 C171.2175,163.173 172.2165,163.821 172.2435,164.793 L174.5115,164.793 C174.5115,162.255 172.2975,161.121 170.1645,161.121 C167.6265,161.121 165.8445,162.714 165.8445,164.793 C165.8445,166.818 167.0595,167.844 169.1655,168.411 L170.8935,168.816 C171.8925,169.032 172.6215,169.518 172.6215,170.463 C172.6215,171.489 171.6765,172.218 170.0835,172.218 C168.5445,172.218 167.5995,171.327 167.5725,170.247 L165.3855,170.247 C165.4935,172.839 167.8155,174.27 170.0835,174.27 Z M183.8805,174.27 C187.4715,174.27 190.4955,171.651 190.4955,167.655 C190.4955,163.659 187.4715,161.121 183.8805,161.121 C180.2895,161.121 177.2925,163.659 177.2925,167.655 C177.2925,171.651 180.2895,174.27 183.8805,174.27 Z M183.8805,172.056 C181.5855,172.056 179.6685,170.274 179.6685,167.655 C179.6685,165.063 181.5855,163.335 183.8805,163.335 C186.2025,163.335 188.1465,165.063 188.1465,167.655 C188.1465,170.274 186.2025,172.056 183.8805,172.056 Z M196.1115,174 L196.1115,167.169 C196.1115,164.442 198.2175,163.443 199.9725,163.443 C201.7275,163.443 203.0235,164.739 203.0235,166.845 L203.0235,174 L205.3725,174 L205.3725,166.71 C205.3995,163.173 203.4285,161.121 200.2965,161.121 C198.9195,161.121 196.8675,161.769 196.1115,163.308 L196.1115,161.391 L193.7625,161.391 L193.7625,174 L196.1115,174 Z M117.2985,208.27 C121.1595,208.27 123.5085,205.651 123.5085,202.762 C123.5085,200.116 121.6185,198.388 118.4595,197.605 L116.0295,197.011 C113.5455,196.417 113.3295,195.067 113.3295,194.419 C113.3295,192.583 115.0575,191.449 116.9205,191.449 C118.9185,191.449 120.4575,192.718 120.4575,194.581 L122.8875,194.581 C122.8875,191.26 120.2685,189.181 117.0015,189.181 C113.7615,189.181 110.8725,191.233 110.8725,194.446 C110.8725,195.958 111.4935,198.28 115.4355,199.225 L117.8385,199.819 C119.4045,200.224 121.0515,201.034 121.0515,202.843 C121.0515,204.49 119.7285,206.002 117.2985,206.002 C114.8145,206.002 113.2485,204.328 113.1675,202.681 L110.7375,202.681 C110.7645,205.57 113.3835,208.27 117.2985,208.27 Z M127.9635,192.313 C128.8815,192.313 129.6375,191.638 129.6375,190.747 C129.6375,189.856 128.8815,189.181 127.9635,189.181 C127.0725,189.181 126.3165,189.856 126.3165,190.747 C126.3165,191.638 127.0725,192.313 127.9635,192.313 Z M129.1515,208 L129.1515,195.391 L126.8025,195.391 L126.8025,208 L129.1515,208 Z M136.5495,208 L136.5495,197.416 L139.2765,197.416 L139.2765,195.391 L136.5495,195.391 L136.5495,190.612 L134.2005,190.612 L134.2005,195.391 L131.9325,195.391 L131.9325,197.416 L134.2005,197.416 L134.2005,208 L136.5495,208 Z M147.2415,208.27 C149.6715,208.27 151.9395,207.136 153.0465,204.949 L150.9945,204.139 C150.2925,205.408 148.8615,206.056 147.3225,206.056 C145.1625,206.056 143.5425,204.949 143.1915,202.708 L153.4515,202.708 C153.4785,202.357 153.5055,202.006 153.5055,201.655 C153.5055,197.659 150.8325,195.121 147.2415,195.121 C143.6505,195.121 140.7615,197.659 140.7615,201.655 C140.7615,205.651 143.6505,208.27 147.2415,208.27 Z M151.1565,200.683 L143.2185,200.683 C143.5965,198.415 145.1085,197.335 147.2415,197.335 C149.3205,197.335 150.8595,198.523 151.1565,200.683 Z" id="TheUK'sNumber1EnergyComparisonSite" fill="#FFFFFF" fill-rule="nonzero"></path>
            </g>
        </g>
    </g>
</svg>