<svg id="Layer_1" data-name="Layer 1" xmlns="http://www.w3.org/2000/svg" viewBox="0 0 50 50">
  <defs>
    <style>
      .cls-1 {
        fill: #eb6121;
      }

      .cls-2 {
        fill: none;
        stroke: #1c2544;
        stroke-miterlimit: 10;
        stroke-width: 0.75px;
      }
    </style>
  </defs>
  <path class="cls-1" d="M45.15,31.86a.34.34,0,0,0-.31-.19h-4l3.9-6.16a.34.34,0,0,0-.1-.46.41.41,0,0,0-.18-.05H39.18a.33.33,0,0,0-.3.18l-5,10a.34.34,0,0,0,.3.49H37.6l-3.73,8.87a.33.33,0,0,0,.18.43.32.32,0,0,0,.38-.09L45.1,32.21A.34.34,0,0,0,45.15,31.86Z"/>
  <path class="cls-1" d="M9.38,26.83A5.09,5.09,0,0,1,9.79,21a9.48,9.48,0,0,0,1.41-3.26,3.9,3.9,0,0,1,.53,2.94,7.44,7.44,0,0,0,1.61-5.56,9.59,9.59,0,0,1,3,11.74c10.79-6.1,2.69-15.24,1.27-16.27.47,1,.56,2.78-.39,3.62-1.6-6.1-5.58-7.35-5.58-7.35C12.11,10,9.93,13.42,7.84,16A6.86,6.86,0,0,0,7,12.67C6.88,15,5.13,16.8,4.66,19.09c-.64,3.09.48,5.35,4.72,7.74"/>
  <line class="cls-2" x1="40.78" y1="9.41" x2="7.87" y2="42.17"/>
</svg>
