<svg id="Layer_1" data-name="Layer 1" xmlns="http://www.w3.org/2000/svg" viewBox="0 0 100 75"><defs><style>.cls-1{fill:#ef402f;fill-rule:evenodd;}</style></defs><title>logos</title><path class="cls-1" d="M80.00651,43.72411a38.16522,38.16522,0,0,0,1.77184-6.25824c0-.68807-.20309-1.20526-.889-1.20526-2.90214,0-7.49395,4.31162-10.49327,7.4635h0c-1.30731,1.37339-2.31227,2.52757-2.7423,3.01033a2.43446,2.43446,0,0,1-1.94105.62874,5.38672,5.38672,0,0,1-2.13419-.57544c-.31184-.15927-.32571-.33792-.23309-.71363l.26082-1.06264c.075-.30962.202-.74965.36679-1.289v-.06052c.87841-2.86,2.86276-8.47505,4.30832-11.757.07268-.16456.14592-.30161.51828-.35986a7.96105,7.96105,0,0,1,1.53432-.15927,5.89432,5.89432,0,0,1,2.27511.34463s.00443-.00864.00443.94c0,.41.04494,1.80564,1.35674,1.80564,2.2146,0,6.236-3.80192,9.79021-3.80192,3.12358,0,3.82937,1.92827,3.82937,3.41906,0,1.7474-1.45107,6.4524-2.49263,9.56876v.06217c-.45224,1.34617-.8246,2.39608-.97274,2.7856-.32019.844-.935.96387-1.73075.96387a5.1833,5.1833,0,0,1-3.05977-.76795.481.481,0,0,1-.15421-.55106c.167-.4972.47776-1.39334.82676-2.43211Z"/><path class="cls-1" d="M43.80728,43.72411c-.00029-.02722,0-.0533,0-.08046,0-1.723,1.50158-4.8815,2.73485-7.87467.52436-1.2735,2.75788-5.55154,10.36258-5.55154,3.13909,0,7.02955.49276,7.02955,3.91011,0,2.10533-2.07924,6.72771-2.74622,8.01229a13.65043,13.65043,0,0,1-.95559,1.58262v.00165c-2.66405,3.77726-6.03123,3.74947-9.7802,3.74947C48.40824,47.47358,43.87109,47.4958,43.80728,43.72411ZM55.129,34.37337a2.08949,2.08949,0,0,0-1.66859.57493c-1.3318,1.84451-2.21465,6.45575-2.21465,7.73925,0,.87507.60874.82069,1.42113.82069a2.31394,2.31394,0,0,0,1.66916-.43839c1.17025-1.22077,2.17908-6.74373,2.17908-7.7409C56.51514,34.62032,56.46468,34.37337,55.129,34.37337Z"/><path class="cls-1" d="M26.73864,43.72411a5.51677,5.51677,0,0,0,1.3634-1.02656s2.46489-.2836,4.04779-.2836c1.5354,0,3.80051.24582,3.80051,1.122l-.04467.18814c-.37622,1.708-5.693,4.21337-10.17943,4.21337-4.69341,0-9.07578-1.7091-11.45578-4.215l.00142.00165a6.1094,6.1094,0,0,1-1.86173-4.18179c0-7.68931,14.84177-13.48252,19.16975-13.48252,3.899,0,4.43067,6.20881,4.43067,8.47841,0,4.84541-2.98289,5.852-6.28984,5.852H27.39619c-2.32335,0-7.00012-.13706-7.00012-.13706-.3765-.00778-.65726-.08267-.65726.13706a4.319,4.319,0,0,0,2.20573,3.33223l.02608.00165a4.51965,4.51965,0,0,0,2.30705.62981,5.17377,5.17377,0,0,0,2.46483-.62981m3.74784-9.70639c0-.98888-.0466-2.40637-.82069-2.40637-2.51785,0-6.94045,3.85079-7.38412,4.29361-.32769.32792-.0816.30019.35542.30019h5.66144C30.30805,36.20515,30.49034,35.86887,30.49034,34.01772Z"/><path class="cls-1" d="M43.36974,37.29994A9.76711,9.76711,0,0,1,42.68,39.46022a2.93874,2.93874,0,0,1-2.9746,1.55818c-1.50516,0-2.02315-.5405-2.02315-1.394a6.34659,6.34659,0,0,1,.62868-1.96878,2.88417,2.88417,0,0,1,3.09-1.72353c1.01547,0,1.96883.4223,1.96883,1.36782"/></svg>