<svg id="Layer_1" data-name="Layer 1" xmlns="http://www.w3.org/2000/svg" viewBox="0 0 50 50"><defs><style>.cls-1{fill:#ff5f08;}</style></defs><title>icons</title><path class="cls-1" d="M16.51887,47.35392c-2.97866-6.1987-1.394-9.753.89541-13.09993a20.85149,20.85149,0,0,0,3.15616-7.29489,8.57225,8.57225,0,0,1,1.1822,6.57149A16.58363,16.58363,0,0,0,25.36643,21.111c7.8728,5.50291,11.23734,17.414,6.70385,26.24289,24.11668-13.6447,6.00021-34.06379,2.84513-36.36418,1.051,2.30039,1.25059,6.1954-.87447,8.08559C30.44586,5.43942,21.55414,2.64608,21.55414,2.64608,22.60733,9.67631,17.744,17.366,13.055,23.1104a15.19745,15.19745,0,0,0-1.81518-7.42284c-.32974,5.096-4.22145,9.24906-5.27678,14.34942C4.5371,36.95029,7.03269,42.00987,16.51887,47.35392"/></svg>