<svg id="Layer_1" data-name="Layer 1" xmlns="http://www.w3.org/2000/svg" xmlns:xlink="http://www.w3.org/1999/xlink" viewBox="0 0 100 75"><defs><style>.cls-1{fill:#fff;}.cls-2{fill:url(#linear-gradient);}</style><linearGradient id="linear-gradient" x1="76.46899" y1="36.54763" x2="23.20378" y2="36.54763" gradientUnits="userSpaceOnUse"><stop offset="0.15934" stop-color="#0066b3"/><stop offset="0.47253" stop-color="#6950a1"/><stop offset="0.74725" stop-color="#ed1846"/></linearGradient></defs><title>logos</title><path class="cls-1" d="M9.5019,36.54815A14.30644,14.30644,0,0,1,23.80849,22.24184H76.19288a14.30594,14.30594,0,0,1,0,28.61187H23.80849A14.30614,14.30614,0,0,1,9.5019,36.54815Z"/><path class="cls-1" d="M76.19288,50.69461H23.80849a14.147,14.147,0,1,1,0-28.294H76.19288a14.147,14.147,0,0,1,0,28.294Z"/><path class="cls-2" d="M9.5019,36.54815A14.30668,14.30668,0,0,1,23.80849,22.24156H76.19288a14.30608,14.30608,0,0,1,0,28.61215H23.80849A14.30614,14.30614,0,0,1,9.5019,36.54815Zm1.40245,0a12.9038,12.9038,0,0,0,12.90414,12.9042H76.19288a12.90417,12.90417,0,0,0,0-25.80834H23.80849A12.9036,12.9036,0,0,0,10.90435,36.54815ZM22.91728,35.61a1.4,1.4,0,0,1,1.41554-1.49257H27.585v5.45522a1.03682,1.03682,0,0,0,1.03665,1.03694h.84521a.25877.25877,0,0,0,.25728-.25894l.00057-8.3235h-5.5222A3.36663,3.36663,0,0,0,20.77843,35.615l-.00057,3.95876a1.03627,1.03627,0,0,0,1.03636,1.03637l.8455-.00057a.25857.25857,0,0,0,.25756-.25842Zm53.54848-1.49783a1.406,1.406,0,0,0-1.41531,1.444v4.795a.25876.25876,0,0,1-.25779.25842l-.8455.00057a1.03609,1.03609,0,0,1-1.03636-1.03637l.00057-3.95876a3.367,3.367,0,0,1,3.42438-3.58788l3.68331-.00057a.25831.25831,0,0,1,.25894.25756l.00057.79081a1.03789,1.03789,0,0,1-1.03694,1.03773Zm-45.671-2.08473,5.573-.00058a2.97435,2.97435,0,0,1,3.03595,3.19751,2.92626,2.92626,0,0,1-3.03595,3.15179H32.93394v1.98a.254.254,0,0,1-.25785.25282h-.84521a1.03093,1.03093,0,0,1-1.03608-1.03076V32.0266m6.46953,3.15733a.99414.99414,0,0,0-.97185-1.06815H32.93394v2.17063h3.35769A1.0248,1.0248,0,0,0,37.26433,35.18393Zm9.78847,1.84031a1.40254,1.40254,0,0,1-1.41559,1.49588H43.59882a1.40185,1.40185,0,0,1-1.41554-1.49588V35.6103a1.40109,1.40109,0,0,1,1.41554-1.49811h2.03839A1.40162,1.40162,0,0,1,47.0528,35.6103ZM49.19188,35.547a3.36288,3.36288,0,0,0-3.42466-3.52011H43.468a3.36269,3.36269,0,0,0-3.4238,3.52011v1.47777A3.36325,3.36325,0,0,0,43.468,40.608h2.29927a3.36341,3.36341,0,0,0,3.42466-3.58319Zm9.65532,5.06987a3.894,3.894,0,0,1-2.68381-1.06374,3.80768,3.80768,0,0,1-2.65255,1.06374,3.3888,3.3888,0,0,1-3.58-3.59514V33.05936A1.03536,1.03536,0,0,1,50.966,32.02271l.84492.00029a.25882.25882,0,0,1,.25785.25865l.00114,4.76545a1.43142,1.43142,0,0,0,1.5107,1.48252,1.40574,1.40574,0,0,0,1.50959-1.48309l-.00108-3.98717a1.03628,1.03628,0,0,1,1.0363-1.03665l.84493.00029a.25882.25882,0,0,1,.25785.25865l.00171,4.75511a1.438,1.438,0,0,0,1.51126,1.49286,1.39826,1.39826,0,0,0,1.50846-1.47469l-.00108-3.99557a1.03676,1.03676,0,0,1,1.03687-1.03665l.84442.00029a.25879.25879,0,0,1,.25778.25865l.00115,4.74259A3.3777,3.3777,0,0,1,58.8472,40.61686Zm7.72437-.01a3.36251,3.36251,0,0,1-3.4037-3.57034V35.62008a3.37061,3.37061,0,0,1,3.42438-3.59177h2.81268a2.73333,2.73333,0,0,1,0,5.46665H65.30918a1.1891,1.1891,0,0,0,1.28862,1.02466h5.03056a.25813.25813,0,0,1,.25836.25836l.00114.8148a1.01681,1.01681,0,0,1-1.03579,1.014ZM65.312,35.42423l4.02769-.002a.655.655,0,0,0,0-1.31H66.5978A1.19085,1.19085,0,0,0,65.312,35.42423Z"/></svg>