<svg id="Layer_1" data-name="Layer 1" xmlns="http://www.w3.org/2000/svg" viewBox="0 0 100 75"><defs><style>.cls-1{fill:#24285d;}.cls-2{fill:#ed1474;}</style></defs><title>logos</title><g id="layer1"><g id="g8832"><path id="path7850" class="cls-1" d="M50.27579,44.159c-.10391-1.52545-.97681-2.93175-2.71005-2.93175A2.94289,2.94289,0,0,0,44.78223,44.159Zm-2.53071,3.628a3.39053,3.39053,0,0,0,2.5916-1.186l.503.44669A3.97678,3.97678,0,0,1,47.714,48.46925a3.75384,3.75384,0,0,1-3.70208-3.93966v-.03115a3.72242,3.72242,0,0,1,3.5856-3.937c2.11576,0,3.46318,1.71672,3.46318,3.95292v.02776a1.88865,1.88865,0,0,1-.01332.268H44.78223a2.997,2.997,0,0,0,2.96285,2.97678"/><path id="path7854" class="cls-1" d="M58.05341,48.29046V43.8028a2.30684,2.30684,0,0,0-2.39967-2.57637A2.58975,2.58975,0,0,0,53.033,43.92125v4.36918h-.726V40.73935h.726V42.145A2.96036,2.96036,0,0,1,55.759,40.562,2.87446,2.87446,0,0,1,58.7794,43.6691v4.62133Z"/><path id="path7858" class="cls-1" d="M66.24737,44.159c-.10391-1.52545-.97748-2.93175-2.71006-2.93175A2.94235,2.94235,0,0,0,60.75446,44.159Zm-2.53071,3.628a3.37726,3.37726,0,0,0,2.58894-1.186l.50562.44669a3.97539,3.97539,0,0,1-3.125,1.42154,3.754,3.754,0,0,1-3.70275-3.93966v-.03115a3.72275,3.72275,0,0,1,3.585-3.937c2.11642,0,3.4645,1.71672,3.4645,3.95292v.02776a1.81191,1.81191,0,0,1-.01389.268H60.75448a2.99605,2.99605,0,0,0,2.96219,2.97678"/><path id="path7862" class="cls-1" d="M72.27672,41.4199c-1.74515,0-3.27191,1.31763-3.27191,3.77622V48.29h-.72534V40.73894h.72533v2.14755a3.57155,3.57155,0,0,1,3.346-2.266V41.42Z"/><path id="path7866" class="cls-1" d="M79.27607,44.12824A2.9987,2.9987,0,0,0,76.15041,41.256a2.79286,2.79286,0,0,0-2.91719,2.85831v.02908a2.86728,2.86728,0,0,0,2.91719,2.88675,3.01581,3.01581,0,0,0,3.12566-2.87086ZM76.255,50.68862a5.6928,5.6928,0,0,1-3.4645-1.1555l.42885-.59165a4.92961,4.92961,0,0,0,3.04955,1.06682,2.71512,2.71512,0,0,0,2.96087-2.93241V45.98127a3.756,3.756,0,0,1-3.15345,1.74582,3.57641,3.57641,0,0,1-3.6273-3.5532v-.0304a3.59,3.59,0,0,1,3.6273-3.581,3.75156,3.75156,0,0,1,3.15345,1.68626V40.73923h.72666v6.38036A3.39333,3.39333,0,0,1,76.255,50.68865"/><path id="path7870" class="cls-1" d="M85.10536,48.5571c-.66642,1.585-1.43675,2.14686-2.51747,2.14686a3.39182,3.39182,0,0,1-1.49367-.32492l.2495-.63733a2.64619,2.64619,0,0,0,1.28984.28258c.78423,0,1.30307-.46129,1.86428-1.77892L80.8712,40.73929h.84246l3.14089,6.751,2.724-6.751h.80011Z"/><path id="path7874" class="cls-2" d="M49.80651,26.53076a4.09709,4.09709,0,0,0-4.08328,4.29043,4.15643,4.15643,0,0,0,4.11769,4.3255,4.09712,4.09712,0,0,0,4.08461-4.29109,4.15368,4.15368,0,0,0-4.119-4.32484m0,10.56954a6.26266,6.26266,0,1,1,6.35059-6.27911,6.15036,6.15036,0,0,1-6.35059,6.27911"/><path id="path7878" class="cls-2" d="M62.38791,26.72028h-2.4738v4.35925h2.4738c1.60948,0,2.61277-.88285,2.61277-2.17929,0-1.43545-1.02049-2.18-2.61277-2.18m-.06949,6.28043h-2.4043v3.89335h-2.129V24.78321H62.5613c2.81991,0,4.6008,1.591,4.6008,4.06541,0,2.73325-2.178,4.15212-4.84368,4.15212"/><path id="path7882" class="cls-2" d="M78.465,31.65114c0,3.614-2.04032,5.43336-5.20569,5.43336-3.15081,0-5.15737-1.81928-5.15737-5.32945V24.7837h2.129V31.669c0,2.24879,1.15881,3.45988,3.06213,3.45988,1.88546,0,3.04426-1.14293,3.04426-3.37383V24.7837H78.465Z"/><path id="path7886" class="cls-2" d="M85.04977,29.86893c2.56049.62207,3.89136,1.53867,3.89136,3.56508,0,2.28254-1.78089,3.63194-4.32417,3.63194a7.4581,7.4581,0,0,1-5.05082-1.93707l1.27925-1.52212a5.57323,5.57323,0,0,0,3.82385,1.57373c1.315,0,2.14554-.60553,2.14554-1.53933,0-.88216-.4851-1.35072-2.73321-1.86825-2.57836-.62274-4.03233-1.38447-4.03233-3.63326,0-2.11114,1.72928-3.528,4.13491-3.528a6.70867,6.70867,0,0,1,4.39365,1.52015l-1.14027,1.60949a5.50416,5.50416,0,0,0-3.28846-1.24484c-1.2455,0-1.97083.63865-1.97083,1.45265,0,.951.5526,1.36661,2.87153,1.91987"/><path id="path7890" class="cls-2" d="M14.21567,38.3918a3.54121,3.54121,0,0,1-3.87812.05684c1.182,2.65049,5.03494,5.21825,7.72316,5.21825a10.76086,10.76086,0,0,0,6.69472-2.46253c-1.182-.04973-4.35726-1.59031-7.67021-5.35525a8.22034,8.22034,0,0,1-2.86955,2.54263"/><path id="path7894" class="cls-1" d="M29.85887,36.90665c2.48372,2.75374,4.567,4.74574,6.89458,2.19387-.78356,4.43269-6.21558,10.56688-12.97516,10.56688a14.16983,14.16983,0,0,1-12.93347-9.007,10.05374,10.05374,0,0,0,7.51535,3.76826c3.55914,0,7.021-1.722,11.4987-7.522"/><path id="path7898" class="cls-2" d="M28.57823,27.549c-2.859,0-5.31687,1.90332-6.2639,2.51483,2.92712.70151,4.28513,2.18657,6.70134,4.76094,2.41754,2.57437,3.98534,4.5889,5.4393,4.5889,1.38845,0,2.7994-1.16342,2.7994-4.00716,0-5.3506-5.85028-7.85748-8.67614-7.85748"/><path id="path7902" class="cls-1" d="M23.26341,21.61771c-5.485,0-9.58214,4.2977-10.63373,5.64046a14.00546,14.00546,0,0,0-2.79807,7.81252c0,3.29177,1.94568,3.11174,2.26135,3.11174.411,0,2.30239-.16207,4.29175-2.712,1.88016-2.40958,6.09514-8.5987,12.32991-8.5987,4.01644,0,7.027,3.13757,7.51469,3.78878a14.13714,14.13714,0,0,0-12.9659-9.04278"/></g></g></svg>