<svg id="Layer_1" data-name="Layer 1" xmlns="http://www.w3.org/2000/svg" width="100" height="75" viewBox="0 0 100 75">
  <defs>
    <style>
      .cls-1 {
        fill: #15274c;
      }
    </style>
  </defs>
  <title>other-02</title>
  <g>
    <path class="cls-1" d="M16.72879,37.71937a8.84914,8.84914,0,1,1,8.848,8.99419A8.802,8.802,0,0,1,16.72879,37.71937Zm14.62471,0a5.85745,5.85745,0,0,0-5.77676-6.06925,5.79864,5.79864,0,0,0-5.70364,6.06925,5.79864,5.79864,0,0,0,5.70364,6.06925A5.85745,5.85745,0,0,0,31.3535,37.71937Z"/>
    <path class="cls-1" d="M43.7845,36.98813H41.2983v9.50606H38.37336V36.98813H36.25278V34.64818h2.12058V30.26077H41.2983v4.38741h2.4862Z"/>
    <path class="cls-1" d="M57.4586,39.84v6.65424H54.53366V40.13244c0-1.90121-1.17-2.85181-2.4862-2.85181a2.818,2.818,0,0,0-2.99807,2.99806v6.2155H46.12445V28.28644h2.92494v8.11671c.585-1.38935,2.4862-2.04746,3.65618-2.04746C55.70363,34.35569,57.4586,36.40315,57.4586,39.84Z"/>
    <path class="cls-1" d="M72.22955,41.59492H63.08911a3.08479,3.08479,0,0,0,3.36368,2.4862,3.96427,3.96427,0,0,0,3.21744-1.46247l1.97433,1.46247a6.11723,6.11723,0,0,1-5.338,2.63244,5.95025,5.95025,0,0,1-6.2155-6.2155,5.97,5.97,0,0,1,6.2155-6.14237,5.835,5.835,0,0,1,6.06925,6.06925C72.30268,40.79056,72.30268,41.15618,72.22955,41.59492Zm-2.85181-2.04746a2.81564,2.81564,0,0,0-3.07119-2.55933,2.96734,2.96734,0,0,0-3.21744,2.55933Z"/>
    <path class="cls-1" d="M83.27121,34.79443l-.585,2.77869a3.61984,3.61984,0,0,0-1.755-.43874c-1.90121,0-2.99806,1.90121-2.99806,5.19177v4.09492H75.00825V34.64818h2.92494v2.55933c.65811-1.97434,1.90121-2.7787,3.36368-2.7787A3.42936,3.42936,0,0,1,83.27121,34.79443Z"/>
  </g>
</svg>
