<svg id="Layer_1" data-name="Layer 1" xmlns="http://www.w3.org/2000/svg" xmlns:xlink="http://www.w3.org/1999/xlink" viewBox="0 0 100 75"><defs><style>.cls-1{fill:none;}.cls-2{clip-path:url(#clip-path);}.cls-3{fill:url(#linear-gradient);}.cls-4{clip-path:url(#clip-path-2);}.cls-5{fill:url(#radial-gradient);}.cls-6{clip-path:url(#clip-path-3);}.cls-7{fill:url(#radial-gradient-2);}.cls-8{clip-path:url(#clip-path-4);}.cls-9{fill:url(#radial-gradient-3);}.cls-10{clip-path:url(#clip-path-5);}.cls-11{fill:url(#radial-gradient-4);}.cls-12{clip-path:url(#clip-path-6);}.cls-13{fill:url(#radial-gradient-5);}.cls-14{fill:#6b9505;}</style><clipPath id="clip-path"><path class="cls-1" d="M9.57183,35.09756l-.00037.0246v.05246a3.98673,3.98673,0,0,0,1.2122,2.70113,3.89127,3.89127,0,0,0,1.02006.74167,14.08583,14.08583,0,0,0-.16362,4.18685l.85183-.04559a11.52614,11.52614,0,0,1-.18912-3.91693c3.57024,1.33283,9.15215-1.74348,4.81146-14.425C16.66755,30.08511,9.67,29.6998,9.57183,35.09756"/></clipPath><linearGradient id="linear-gradient" x1="-609.1623" y1="472.05182" x2="-608.80359" y2="472.05182" gradientTransform="matrix(-0.00055, 38.13154, 38.13154, 0.00055, -17984.88152, 23253.89357)" gradientUnits="userSpaceOnUse"><stop offset="0" stop-color="#d3d100"/><stop offset="0.03371" stop-color="#d3d100"/><stop offset="0.19755" stop-color="#c2c701"/><stop offset="0.52043" stop-color="#96ae03"/><stop offset="0.8" stop-color="#6b9505"/><stop offset="1" stop-color="#6b9505"/></linearGradient><clipPath id="clip-path-2"><path class="cls-1" d="M9.57183,35.09756l-.00037.0246v.05246a3.98673,3.98673,0,0,0,1.2122,2.70113,3.89127,3.89127,0,0,0,1.02006.74167,12.51865,12.51865,0,0,1,.80571-2.61,8.32823,8.32823,0,0,1-1.14653-3.915v-.002a14.27407,14.27407,0,0,0,1.3617,3.42887,21.853,21.853,0,0,1,1.47873-2.5253,5.72864,5.72864,0,0,1-.723-2.60581c0-.00487.004-.00487.00859-.0076a9.34314,9.34314,0,0,0,.97765,2.21617,23.47711,23.47711,0,0,0,1.38865-2.27368,4.662,4.662,0,0,1-.41553-1.65377,3.88231,3.88231,0,0,0,.66019,1.15576,10.73572,10.73572,0,0,0,.9243-2.50777,9.65868,9.65868,0,0,0-.00988-2.90067C16.66755,30.08511,9.67,29.6998,9.57183,35.09756"/></clipPath><radialGradient id="radial-gradient" cx="-604.38762" cy="459.3231" r="0.35883" gradientTransform="matrix(59.8865, 0, 0, -59.8865, 36201.62925, 27529.121)" gradientUnits="userSpaceOnUse"><stop offset="0" stop-color="#d5d830"/><stop offset="0.19101" stop-color="#d5d830"/><stop offset="0.29582" stop-color="#bdc926"/><stop offset="0.5083" stop-color="#91ad14"/><stop offset="0.67349" stop-color="#759b09"/><stop offset="0.77" stop-color="#6b9505"/><stop offset="1" stop-color="#6b9505"/></radialGradient><clipPath id="clip-path-3"><path class="cls-1" d="M15.02954,35.09756A3.98577,3.98577,0,0,0,16.241,37.87575c3.04058,3.04141,11.36867,1.26428,6.33262-13.459-.44355,5.66838-7.44694,5.28307-7.54409,10.68083"/></clipPath><radialGradient id="radial-gradient-2" cx="-604.54872" cy="459.32492" r="0.3587" gradientTransform="matrix(59.8869, 0, 0, -59.8869, 36216.97096, 27529.4224)" gradientUnits="userSpaceOnUse"><stop offset="0" stop-color="#e4ecf7"/><stop offset="0.1319" stop-color="#e0eaf6"/><stop offset="0.25089" stop-color="#d5e4f3"/><stop offset="0.36494" stop-color="#c3daee"/><stop offset="0.47598" stop-color="#a9cce8"/><stop offset="0.58487" stop-color="#88badf"/><stop offset="0.69214" stop-color="#5fa4d4"/><stop offset="0.79598" stop-color="#2f8bc7"/><stop offset="0.88542" stop-color="#0071bb"/><stop offset="1" stop-color="#0071bb"/></radialGradient><clipPath id="clip-path-4"><path class="cls-1" d="M15.02954,35.09756A3.98577,3.98577,0,0,0,16.241,37.87575a4.06286,4.06286,0,0,0,.336.29975c1.5369-1.25035,2.55661-3.8218,1.9346-8.20453-1.76238,1.25161-3.434,2.50757-3.48207,5.12659"/></clipPath><radialGradient id="radial-gradient-3" cx="-604.56029" cy="459.31551" r="0.35862" gradientTransform="matrix(59.8907, 0, 0, -59.8907, 36219.96228, 27530.6312)" gradientUnits="userSpaceOnUse"><stop offset="0" stop-color="#fff"/><stop offset="0.04685" stop-color="#e8eff7"/><stop offset="0.10426" stop-color="#d4e0ef"/><stop offset="0.16964" stop-color="#c6d6ea"/><stop offset="0.2491" stop-color="#bed0e7"/><stop offset="0.38202" stop-color="#bbcee6"/><stop offset="0.46963" stop-color="#8eb8dc"/><stop offset="0.62927" stop-color="#4292ca"/><stop offset="0.74338" stop-color="#127abf"/><stop offset="0.8" stop-color="#0071bb"/><stop offset="1" stop-color="#0071bb"/></radialGradient><clipPath id="clip-path-5"><path class="cls-1" d="M20.55484,35.09756a3.958,3.958,0,0,0,1.209,2.77819C24.80109,40.91716,33.131,39.14,28.0925,24.41673c-.44348,5.66838-7.44514,5.28307-7.53766,10.68083"/></clipPath><radialGradient id="radial-gradient-4" cx="-604.71735" cy="459.32136" r="0.35885" gradientTransform="matrix(59.8861, 0, 0, -59.8861, 36232.10053, 27528.8416)" gradientUnits="userSpaceOnUse"><stop offset="0" stop-color="#ffec00"/><stop offset="0.13542" stop-color="#ffec00"/><stop offset="0.16082" stop-color="#ffe600"/><stop offset="0.26266" stop-color="#fdd500"/><stop offset="0.3718" stop-color="#fcca00"/><stop offset="0.5" stop-color="#fcc700"/><stop offset="0.78551" stop-color="#f39b00"/><stop offset="0.95" stop-color="#ef8700"/><stop offset="1" stop-color="#ef8700"/></radialGradient><clipPath id="clip-path-6"><path class="cls-1" d="M20.55484,35.09756a3.958,3.958,0,0,0,1.209,2.77819,3.002,3.002,0,0,0,.30192.27387c1.51808-1.25522,2.51843-3.80985,1.91089-8.13742-1.74184,1.23987-3.3803,2.49294-3.42181,5.08536"/></clipPath><radialGradient id="radial-gradient-5" cx="-604.72301" cy="459.31443" r="0.35853" gradientTransform="matrix(59.8845, 0, 0, -59.8845, 36231.48566, 27527.711)" gradientUnits="userSpaceOnUse"><stop offset="0" stop-color="#ffe800"/><stop offset="0.00517" stop-color="#ffe600"/><stop offset="0.08205" stop-color="#fad200"/><stop offset="0.16911" stop-color="#f7c400"/><stop offset="0.27485" stop-color="#f6bc00"/><stop offset="0.45" stop-color="#f5b900"/><stop offset="0.50783" stop-color="#f3ac00"/><stop offset="0.62338" stop-color="#f19700"/><stop offset="0.73806" stop-color="#ef8b00"/><stop offset="0.85001" stop-color="#ef8700"/><stop offset="1" stop-color="#ef8700"/></radialGradient></defs><title>logos</title><g class="cls-2"><rect class="cls-3" x="5.51605" y="22.66416" width="19.99432" height="21.89304" transform="translate(-15.8332 13.91956) rotate(-33.08789)"/></g><g class="cls-4"><rect class="cls-5" x="9.57146" y="24.41673" width="7.69993" height="14.20069"/></g><g class="cls-6"><rect class="cls-7" x="15.01707" y="24.41673" width="12.59261" height="16.50043"/></g><g class="cls-8"><rect class="cls-9" x="15.01707" y="29.9715" width="4.11655" height="8.204"/></g><g class="cls-10"><rect class="cls-11" x="20.53909" y="24.41673" width="12.5919" height="16.50043"/></g><g class="cls-12"><rect class="cls-13" x="20.53909" y="30.0122" width="4.0451" height="8.13742"/></g><path class="cls-14" d="M59.26745,44.91405a1.84716,1.84716,0,0,0-1.91333-1.81077H54.67018V49.138H55.9131V43.9242h.97911a.98559.98559,0,0,1,1.08447,1.04592c0,.55681-.208,1.02551-1.0577,1.02551-.43326,0-.6061.08538-.62537.33123-.018.23117.2585.36141.53871.41534a1.927,1.927,0,0,0,2.43513-1.82815"/><path class="cls-14" d="M84.95738,46.35416A1.61162,1.61162,0,0,0,86.2072,44.7648a1.73019,1.73019,0,0,0-1.90591-1.66152h-2.684V49.138h1.24148V43.9242h.97955c.9403,0,1.0796.56114,1.0796.89525,0,.55769-.39816.90718-1.04377.90718-.41716,0-.65774.16173-.65774.43777,0,.15684.10093.3551.5606.42729.56981.089.79937.64579,1.091,1.34621,0,0,.25.59336.33612.78456a.55018.55018,0,0,0,.59351.4155h.97159l-.43017-.91985a3.59549,3.59549,0,0,0-1.38169-1.864"/><polygon class="cls-14" points="77.487 46.433 80.392 46.433 80.392 45.612 77.487 45.612 77.487 43.924 80.541 43.924 80.541 43.106 76.244 43.106 76.244 49.138 80.603 49.138 80.603 48.317 77.487 48.317 77.487 46.433"/><path class="cls-14" d="M62.90383,43.01935A3.10375,3.10375,0,1,0,66.122,46.11954a2.99963,2.99963,0,0,0-3.21813-3.10019m0,5.22408a1.855,1.855,0,0,1-1.94373-2.12389,1.85359,1.85359,0,0,1,1.94373-2.12173c1.22846,0,1.93.77333,1.93,2.12173,0,1.34912-.70151,2.12389-1.93,2.12389"/><path class="cls-14" d="M74.95891,43.10617a.46457.46457,0,0,0-.52857.41317l-1.3645,4.40952-1.3627-4.82269H70.57255a.45626.45626,0,0,0-.52315.39363l-1.30607,4.45566-1.29324-4.84929H66.0753l1.76916,6.04157h1.59605l1.4041-4.76045,1.3428,4.76045H73.763l1.84045-6.04157Z"/><path class="cls-14" d="M14.358,48.7l.04994-.87483a4.52181,4.52181,0,0,0,1.6806.41264c.35177-.01123,1.30761.01537,1.25995-.80988-.06024-1.045-2.97854-.8426-2.97854-2.72338,0-1.30209,1.364-1.75686,2.46669-1.75686a5.425,5.425,0,0,1,1.40132.23117l-.02487.41408a.35312.35312,0,0,1-.44763.33067,4.05949,4.05949,0,0,0-.91959-.0785c-.35827.01393-1.21525.06783-1.17311.70675.0625.93162,3.02657.78167,3.02657,2.867,0,1.26229-1.24014,1.73081-2.56122,1.73081A4.29748,4.29748,0,0,1,14.358,48.7"/><path class="cls-14" d="M22.39834,43.85346a3.839,3.839,0,0,1,.91272.05951.34909.34909,0,0,0,.46724-.32216l.02415-.41192a5.10807,5.10807,0,0,0-1.4791-.23173,3.10333,3.10333,0,1,0,0,6.20131,5.10712,5.10712,0,0,0,1.4791-.23192l-.05029-.85745a3.28917,3.28917,0,0,1-1.35382.18217,2.20153,2.20153,0,0,1,0-4.38781"/><path class="cls-14" d="M27.18113,42.94716a3.10428,3.10428,0,1,0,0,6.20329,3.02464,3.02464,0,0,0,3.21815-3.10236,2.99276,2.99276,0,0,0-3.21815-3.10093m0,5.22483a1.85555,1.85555,0,0,1-1.94418-2.1239,1.85351,1.85351,0,0,1,1.94418-2.12173c1.22792,0,1.93017.77261,1.93017,2.12173,0,1.3484-.70225,2.1239-1.93017,2.1239"/><rect class="cls-14" x="40.43429" y="43.10328" width="1.24239" height="6.03179"/><polygon class="cls-14" points="34.791 43.103 30.319 43.103 30.319 43.924 31.984 43.924 31.984 49.135 33.226 49.135 33.226 43.924 34.791 43.924 34.791 43.103"/><polygon class="cls-14" points="39.699 43.103 35.228 43.103 35.228 43.924 36.892 43.924 36.892 49.135 38.134 49.135 38.134 43.924 39.699 43.924 39.699 43.103"/><polygon class="cls-14" points="52.054 43.103 52.054 45.606 49.19 45.606 49.19 43.103 47.947 43.103 47.947 49.135 49.19 49.135 49.19 46.426 52.054 46.426 52.054 49.135 53.296 49.135 53.296 43.103 52.054 43.103"/><path class="cls-14" d="M42.7635,48.7l.04994-.87483a4.52029,4.52029,0,0,0,1.67989.41264c.35211-.01123,1.308.01537,1.26011-.80988-.06059-1.045-2.978-.8426-2.978-2.72338,0-1.30209,1.36377-1.75686,2.466-1.75686a5.41692,5.41692,0,0,1,1.40112.23117l-.02395.41408a.35355.35355,0,0,1-.448.33067,4.05768,4.05768,0,0,0-.91959-.0785c-.35825.01393-1.21579.06783-1.17274.70675.062.93162,3.02658.78167,3.02658,2.867,0,1.26229-1.2405,1.73081-2.56213,1.73081A4.29441,4.29441,0,0,1,42.7635,48.7"/></svg>