<svg id="Layer_1" data-name="Layer 1" xmlns="http://www.w3.org/2000/svg" xmlns:xlink="http://www.w3.org/1999/xlink" viewBox="0 0 100 75"><defs><style>.cls-1{fill:url(#linear-gradient);}.cls-2{fill:url(#linear-gradient-2);}.cls-3{fill:#004182;}</style><linearGradient id="linear-gradient" x1="-199.0191" y1="-315.97463" x2="-198.66638" y2="-315.97463" gradientTransform="translate(13642 21682.87449) scale(68.5)" gradientUnits="userSpaceOnUse"><stop offset="0" stop-color="#bdd684"/><stop offset="0.2857" stop-color="#a0c955"/><stop offset="0.55" stop-color="#83bb26"/><stop offset="1" stop-color="#4e9328"/></linearGradient><linearGradient id="linear-gradient-2" x1="-199.13436" y1="-315.97471" x2="-198.78164" y2="-315.97471" gradientTransform="translate(13656.2095 21686.0709) scale(68.5101)" gradientUnits="userSpaceOnUse"><stop offset="0" stop-color="#658bc8"/><stop offset="0.1905" stop-color="#3d72b0"/><stop offset="0.4291" stop-color="#115695"/><stop offset="0.55" stop-color="#004b8b"/><stop offset="0.6784" stop-color="#014583"/><stop offset="0.8736" stop-color="#02366e"/><stop offset="1" stop-color="#042a5d"/></linearGradient></defs><title>logos</title><path class="cls-1" d="M23.22965,20.85278c1.23453.35273,3.2803,1.23451,3.2803,3.03339,0,6.20785-16.93053,6.0315-17.31853,18.1298v.84653c.31744,10.29939,11.18122,13.01536,14.391,13.57969h.17637c-2.3985-.52908-10.26416-2.7512-10.26416-8.67691,0-8.39471,19.85813-9.91141,19.85813-18.30613,0-5.9257-7.90092-8.14783-10.26414-8.6769-.03528.03525.03526.03525.14107.07053"/><path class="cls-2" d="M23.08858,20.78225c2.3985.52907,10.26414,2.7512,10.26414,8.6769,0,8.39472-19.85813,9.91142-19.85813,18.30613,0,5.92571,7.90092,8.14783,10.26416,8.67691a.38629.38629,0,0,0-.14109-.07053c-1.23453-.35273-3.2803-1.23453-3.2803-3.03339,0-6.27841,17.35381-6.0315,17.35381-18.51779C37.65589,24.16834,26.51,21.38186,23.22965,20.78225h-.14107"/><path class="cls-3" d="M46.19171,34.64413c0-1.41088,1.19924-2.11633,2.7865-2.11633a6.68747,6.68747,0,0,1,3.38609.95234.96647.96647,0,0,0,1.44616-.35271l.28217-.49381a.94009.94009,0,0,0-.35271-1.44616,8.372,8.372,0,0,0-4.58536-1.26979c-3.245,0-5.99622,1.65779-5.99622,4.797,0,5.60823,8.57107,4.55008,8.57107,7.7951,0,1.41088-1.19923,2.18687-2.82176,2.18687a7.39026,7.39026,0,0,1-4.09155-1.34035.99812.99812,0,0,0-1.51669.24691l-.31745.45854a.98806.98806,0,0,0,.24691,1.48142,9.38971,9.38971,0,0,0,5.573,1.79886c3.59775,0,5.99625-2.081,5.99625-4.90279-.03526-5.64351-8.60637-4.47954-8.60637-7.7951"/><path class="cls-3" d="M59.91252,34.64413c0-1.41088,1.19924-2.11633,2.78648-2.11633a6.68755,6.68755,0,0,1,3.38611.95234.96647.96647,0,0,0,1.44616-.35271l.28217-.49381a.94008.94008,0,0,0-.35273-1.44616,8.37187,8.37187,0,0,0-4.58534-1.26979c-3.245,0-5.99624,1.65779-5.99624,4.797,0,5.60823,8.57109,4.55008,8.57109,7.7951,0,1.41088-1.19925,2.18687-2.82176,2.18687a7.39026,7.39026,0,0,1-4.09155-1.34035.99812.99812,0,0,0-1.51669.24691l-.31745.45854a.98806.98806,0,0,0,.24691,1.48142,9.38971,9.38971,0,0,0,5.573,1.79886c3.59775,0,5.99625-2.081,5.99625-4.90279-.03528-5.64351-8.60637-4.47954-8.60637-7.7951"/><path class="cls-3" d="M84.99088,38.45351c0-.07056.03528-.1411.03528-.21166,0-4.5148-2.36322-8.2889-6.98384-8.2889-4.51483,0-7.901,3.42137-7.901,8.71217,0,4.93808,3.4214,8.71218,8.43,8.71218a9.22188,9.22188,0,0,0,5.36133-1.7636.9864.9864,0,0,0,.31745-1.44616l-.28217-.4938a.91013.91013,0,0,0-1.41088-.35272,6.37149,6.37149,0,0,1-3.80938,1.30508,5.42336,5.42336,0,0,1-5.64351-5.29081H83.86216a1.21554,1.21554,0,0,0,1.12872-.88178M77.97176,32.422a4.33235,4.33235,0,0,1,4.26791,4.44427H73.21A4.70717,4.70717,0,0,1,77.97176,32.422"/></svg>