<?xml version="1.0" encoding="UTF-8"?>
<svg width="120px" height="64px" viewBox="0 0 120 64" version="1.1" xmlns="http://www.w3.org/2000/svg" xmlns:xlink="http://www.w3.org/1999/xlink">
    <!-- Generator: Sketch 62 (91390) - https://sketch.com -->
    <title>contactless</title>
    <desc>Created with Sketch.</desc>
    <g id="contactless" stroke="none" stroke-width="1" fill="none" fill-rule="evenodd">
        <g id="Universal_Contactless_Card_Symbol" transform="translate(7.000000, 0.000000)" fill="#000000" fill-rule="nonzero">
            <path d="M39.5789573,63.9063039 C26.8259182,62.7796232 15.5725341,58.0111775 8.24316208,50.6289425 C4.06733084,46.4228054 1.53412515,41.8603675 0.388996077,36.4818084 C-0.132044478,34.0351641 -0.12931473,29.9748489 0.395138009,27.5075695 C1.98453349,20.029381 6.77899376,13.4876856 14.3287929,8.49775565 C31.5473577,-2.88288894 57.9242254,-2.82579828 74.9803703,8.62947687 C77.2460607,10.1509773 78.7088641,11.3588231 80.7582221,13.3986104 C83.3443166,15.9728489 85.1626697,18.5298914 87.0813409,22.2906526 C87.1523144,22.42994 87.5041106,22.6056829 87.8630724,22.6806574 C89.0726917,22.9337823 90.6849489,23.8830005 91.9849911,25.1063226 C92.9919267,26.0541651 93.7729757,27.0879875 95.6957416,30.0185267 C97.6345448,32.9731403 106.411024,46.6329403 106.94469,47.5264435 C107.152151,47.8738023 106.742006,48.4326717 106.279314,48.4326717 C105.951062,48.4326717 105.717668,48.2122193 105.233479,47.4439028 C104.890555,46.9001659 102.652162,43.3983761 100.258856,39.6627211 C91.7904966,26.4424504 91.3298517,25.8288977 88.9713499,24.6399676 L87.7306796,24.0143778 L84.0888552,24.0143778 C80.4518079,24.0143778 80.4466896,24.0147217 80.3583141,24.4012873 C79.8748075,26.5160492 79.7864319,27.0339921 79.8915272,27.1323532 C79.9587473,27.1952904 82.0255073,28.3814693 84.4839862,29.7684971 L88.9546302,32.2904598 L88.6751723,32.8813138 C88.5212827,33.2063178 88.3448728,33.4721677 88.2827711,33.4721677 C88.2206693,33.4721677 84.458736,31.3728822 79.9229193,28.8065539 C75.3871026,26.2402256 71.4108842,24.0673414 71.0870679,23.9772344 C69.796921,23.6181823 67.8151243,25.0588617 67.8151243,26.3557826 C67.8151243,27.6695556 68.202066,28.0526821 76.1712226,34.630489 C81.1437989,38.7348259 83.9878546,41.2003858 84.4222256,41.7829856 C85.2124875,42.8429459 86.0112799,44.404685 86.7483117,46.3306349 C88.0439181,49.7165237 90.150942,51.6056743 93.6064611,52.4792301 L94.7444246,52.766747 L94.6485422,53.3940564 C94.5956534,53.7390078 94.5226326,54.0564456 94.485781,54.0987477 C94.3397395,54.2679562 92.0481165,53.5309364 90.7218004,52.8888384 C88.648216,51.8845931 87.2243115,50.4538874 85.823951,47.969412 C85.8137144,47.9511843 85.0012733,48.2318227 84.018223,48.5929383 C82.2725495,49.2346923 82.1927044,49.2876559 80.5435957,50.9095809 C73.5151783,57.8220217 63.4359268,62.2389815 51.2656888,63.7405346 C49.293105,63.9840297 41.6801805,64.0916766 39.5789573,63.9063039 L39.5789573,63.9063039 Z M51.6922119,61.7777853 C57.2762516,61.0352628 61.6059724,59.9171801 66.1383769,58.0469451 C70.8956443,56.0838518 75.3813019,53.263023 78.5201703,50.2602607 L79.7570872,49.0771771 L76.6434689,47.5780315 C73.3169304,45.9760538 72.9893607,45.7105478 72.5631788,44.2784665 C72.2942987,43.3739579 72.5986656,42.4133903 73.4479582,41.4844634 L74.109922,40.7605126 L72.6669092,39.6558427 C71.5245099,38.7812551 71.1662306,38.3984725 70.9464859,37.818624 C70.5909363,36.8804112 70.7192344,35.8655044 71.296576,35.0476635 L71.7353829,34.4258568 L67.1729512,33.6166139 C64.6636308,33.1719258 62.3245784,32.7227668 61.9751707,32.6185592 C61.2910277,32.4149587 60.5949421,31.630822 60.4147788,30.8614737 C60.3178728,30.4487702 62.5538772,19.4450615 63.053421,17.8754123 C63.2769191,17.1727845 64.2326719,16.3236469 64.9526428,16.1877987 C65.7067355,16.0454159 79.1544954,18.4280912 79.823966,18.822567 C80.8837904,19.4467811 81.218867,20.4503386 80.8827668,21.9938499 L80.7421848,22.6386992 L81.4863822,22.6376675 C81.8955031,22.6373235 82.8645635,22.5871113 83.6391293,22.5262375 L85.047679,22.4154954 L84.3492049,21.1086008 C82.2339918,17.1504297 78.415075,13.1688721 73.7001187,10.0054993 C71.5002834,8.52939626 66.8030704,6.19762114 63.9753932,5.17686767 C59.9548163,3.72621466 55.0887002,2.63942861 50.4119603,2.14796746 C47.8473625,1.87867838 41.1297951,1.8824615 38.6399242,2.15484585 C32.6723549,2.80726139 27.2517588,4.16883922 22.5139408,6.20449954 C11.5454741,10.918262 4.17037881,18.7266134 2.28241719,27.6258778 C1.78901533,29.9518063 1.75045764,34.0231269 2.20188964,36.1378888 C3.20029479,40.8138201 5.37965695,44.8614103 8.92798748,48.6290499 C16.154994,56.3032726 27.1937517,61.017379 40.4320034,62.0835298 C42.204292,62.2262565 49.8888724,62.0178412 51.6922119,61.7777853 Z M49.2750205,53.4029983 C48.5922424,53.2038688 47.9002514,52.3849962 47.7548923,51.6032668 C47.6600336,51.0942658 47.7757066,50.7410603 48.4994309,49.3299581 C51.4240142,43.6277705 52.6950529,38.3802448 52.6950529,32.0108532 C52.6950529,25.8553796 51.5697144,21.0659547 48.7741118,15.3255921 C48.1739086,14.0933281 47.6828952,12.9491075 47.6828952,12.7836821 C47.6828952,12.1728809 48.1899458,11.2872878 48.7389663,10.939929 C49.4920354,10.4636003 50.7538612,10.5526755 51.3578178,11.1242699 C51.5898463,11.3440345 52.1931205,12.3420893 52.6981238,13.3415198 C54.6983463,17.3003787 56.0690208,21.6437397 56.7456569,26.1645633 C57.164332,28.9623495 57.2475893,34.2649024 56.9131952,36.8260719 C56.295931,41.5508399 55.058673,45.7666067 53.0775587,49.8967376 C51.8802232,52.3932502 51.128519,53.4201943 50.4993122,53.4201943 C50.3734026,53.4201943 50.1679891,53.4518349 50.0431032,53.4906978 C49.9175348,53.5288729 49.5722217,53.489666 49.2750205,53.4029983 L49.2750205,53.4029983 Z M41.1345722,49.1105373 C40.0873728,48.8034171 39.3322564,47.5085597 39.6349171,46.5383624 C39.7082791,46.3034653 40.2013398,45.2214941 40.7302283,44.1340202 C42.9703274,39.5296242 43.9021949,34.5936896 43.4456447,29.747518 C43.0703044,25.7656165 42.3622761,23.2543154 40.5787273,19.579878 C39.3820743,17.1146621 39.3264557,16.7325674 40.0222001,15.7400153 C40.6838226,14.7962998 42.3349786,14.6432556 43.2023559,15.4452762 C43.8035828,16.0010503 45.6734598,19.9368666 46.3951368,22.1658097 C48.7836659,29.542198 48.4192446,37.4606037 45.358174,44.7069904 C43.7902753,48.418915 42.6895046,49.5665748 41.1345722,49.1105373 Z M32.7399162,44.7575465 C32.092966,44.4634952 31.5360975,43.7739364 31.3845965,43.0788748 C31.2921263,42.6555097 31.4511341,42.1870912 32.2188756,40.6201933 C35.0383636,34.8646983 35.068732,29.3210577 32.311687,23.6993474 C31.101044,21.2303483 31.074429,20.7388872 32.0984255,19.7652507 C32.60377,19.284795 32.8183964,19.1998468 33.5281308,19.1998468 C34.7186419,19.1998468 35.335906,19.8027379 36.3998251,22.0051993 C38.0359675,25.3928076 38.7057793,28.3316009 38.7003529,32.0968331 C38.6945191,35.9669607 38.0683833,38.6237399 36.3203212,42.1960331 C35.3191863,44.2413232 34.8244196,44.781277 33.8222611,44.9198766 C33.5165293,44.9621787 33.0296106,44.8889238 32.7399162,44.7575465 L32.7399162,44.7575465 Z M24.9065645,40.7027341 C24.3940544,40.488816 23.8088648,39.7858443 23.6348434,39.1746991 C23.4406901,38.4916747 23.5996979,37.9496574 24.3691455,36.6744034 C25.3586789,35.0342507 25.5890014,34.1541603 25.5890014,32.0105092 C25.5890014,29.8672021 25.3586789,28.9867678 24.3691455,27.3466151 C24.0337277,26.790497 23.6969451,26.1243247 23.6205122,25.8660411 C23.3018142,24.7851017 24.1954653,23.4603232 25.3958717,23.2333363 C26.4133851,23.0407413 27.1122005,23.4984983 28.0478214,24.9704743 C30.7567546,29.2323264 30.7564134,34.9255721 28.0464566,39.1513126 C27.0907037,40.6422042 26.0247373,41.1690891 24.9065645,40.7027341 L24.9065645,40.7027341 Z M83.2682249,47.323187 C84.1745011,46.9968073 84.9579386,46.6876235 85.0087801,46.6363795 C85.0596217,46.5851355 84.8849178,46.0011599 84.6201323,45.3387707 C84.0769126,43.9785686 84.1649469,44.0136484 82.2363803,44.3857694 C80.1539242,44.7874675 78.9449873,44.4294472 76.6656481,42.7377065 C76.0442893,42.2765103 75.4031399,41.8988865 75.2414024,41.8988865 C75.0793236,41.8988865 74.7241152,42.1392864 74.4518229,42.4329937 C73.8676569,43.0633984 73.7796226,44.0507917 74.2552811,44.6347672 C74.6688378,45.1423926 80.3927771,47.8875591 81.0724842,47.9040673 C81.3737801,47.9109457 82.3616075,47.6499107 83.2682249,47.323187 L83.2682249,47.323187 Z M82.3674082,42.9076028 C83.2160185,42.735643 83.3091711,42.6768328 83.1634708,42.4027288 C83.0007096,42.0959525 75.0837594,35.473436 74.3972279,35.0689865 C73.8304641,34.7357284 73.3705017,34.8131103 72.9006439,35.3207357 C71.5255336,36.8068124 71.6859062,37.1180597 75.2478855,39.8707925 C79.5434844,43.1906487 80.002082,43.3866829 82.3674082,42.9076028 Z M71.7387951,32.8806259 C71.7387951,32.8390116 70.8407082,32.0593458 69.7433497,31.1486466 C67.0316867,28.8983805 66.4499093,28.0585287 66.4499093,26.3943016 C66.4499093,25.0048663 67.369493,23.662548 68.8500398,22.8907923 C69.5850243,22.5076658 70.8953031,22.3866061 71.6367708,22.6331965 C72.1612235,22.8075638 74.5255261,24.0969185 77.8039528,25.9956988 L78.4945789,26.3956773 L79.0637313,23.6749291 C79.6465324,20.8884922 79.6571102,20.1580069 79.1176438,19.9884545 C78.9535177,19.9368666 75.7934938,19.3580498 72.0950271,18.7021951 C65.5279371,17.5376832 64.8113784,17.4682115 64.5056466,17.9668949 C64.3428855,18.232057 61.844484,29.9022819 61.8441421,30.3985579 C61.8438016,30.6468679 61.9690288,30.9553638 62.1225771,31.0836458 C62.2757842,31.2119278 64.4063521,31.6786268 66.8569829,32.1209074 C71.5917299,32.9755477 71.7387951,32.9985903 71.7387951,32.8806259 Z" id="path2828"></path>
        </g>
    </g>
</svg>