<?xml version="1.0" encoding="UTF-8"?>
<svg width="120px" height="64px" viewBox="0 0 120 64" version="1.1" xmlns="http://www.w3.org/2000/svg" xmlns:xlink="http://www.w3.org/1999/xlink">
    <!-- Generator: Sketch 62 (91390) - https://sketch.com -->
    <title>maestro</title>
    <desc>Created with Sketch.</desc>
    <g id="maestro" stroke="none" stroke-width="1" fill="none" fill-rule="evenodd">
        <g id="Maestro_2016" transform="translate(19.000000, 0.000000)" fill-rule="nonzero">
            <g id="Group" transform="translate(81.000000, 40.000000) scale(-1, 1) rotate(-180.000000) translate(-81.000000, -40.000000) translate(80.000000, 39.000000)" fill="#0099DF">
                <path d="M2,0 L2,1.22 L1.7615,1.22 L1.4855,0.382 L1.211,1.22 L0.971,1.22 L0.971,0 L1.1405,0 L1.1405,0.92 L1.3985,0.126 L1.574,0.126 L1.832,0.922 L1.832,0 L2,0 Z M0.4865,0 L0.4865,1.012 L0.7925,1.012 L0.7925,1.218 L0.0125,1.218 L0.0125,1.012 L0.3185,1.012 L0.3185,0 L0.4865,0 Z" id="Shape"></path>
            </g>
            <polygon id="Path" fill="#6C6BBD" points="53 45 31 45 31 5 53 5"></polygon>
            <g id="Group" transform="translate(21.500000, 25.500000) scale(-1, 1) rotate(-180.000000) translate(-21.500000, -25.500000) translate(0.000000, -0.000000)" fill="#EB001B">
                <path d="M32.6102293,25.5 C32.6102293,33.4958438 36.4403007,40.6183125 42.4047116,45.2083125 C38.0430935,48.56475 32.5384868,50.5680938 26.5561402,50.5680938 C12.3935176,50.5680938 0.91308642,39.3449063 0.91308642,25.5 C0.91308642,11.6550938 12.3935176,0.43190625 26.5561402,0.43190625 C32.5384868,0.43190625 38.0430935,2.43525 42.4047116,5.7916875 C36.4403007,10.3816875 32.6102293,17.5041563 32.6102293,25.5" id="Path"></path>
            </g>
            <g id="Group" transform="translate(62.000000, 25.500000) scale(-1, 1) rotate(-180.000000) translate(-62.000000, -25.500000) translate(41.000000, 0.000000)" fill="#0099DF">
                <path d="M42,25.5 C42,11.6550938 30.6260769,0.43190625 16.5948462,0.43190625 C10.668,0.43190625 5.21446154,2.43525 0.891692308,5.7916875 C6.80238462,10.3816875 10.5969231,17.5041563 10.5969231,25.5 C10.5969231,33.4958438 6.80238462,40.6183125 0.891692308,45.2083125 C5.21446154,48.56475 10.668,50.5680938 16.5948462,50.5680938 C30.6260769,50.5680938 42,39.3449063 42,25.5" id="Path"></path>
            </g>
            <g id="Group" transform="translate(42.000000, 59.000000) scale(-1, 1) rotate(-180.000000) translate(-42.000000, -59.000000) translate(14.000000, 54.000000)" fill="#231F20">
                <path d="M46.4,7.85714286 C46.6928,7.85714286 47.1136,7.80214286 47.4352,7.678 L46.9872,6.33285714 C46.68,6.457 46.3728,6.49785714 46.0784,6.49785714 C45.128,6.49785714 44.6528,5.89442857 44.6528,4.81014286 L44.6528,1.12985714 L43.1984,1.12985714 L43.1984,7.69214286 L44.6384,7.69214286 L44.6384,6.89542857 C45.016,7.47214286 45.5616,7.85714286 46.4,7.85714286 M41.0272,6.38785714 L38.6512,6.38785714 L38.6512,3.42257143 C38.6512,2.76414286 38.888,2.32414286 39.616,2.32414286 C39.9936,2.32414286 40.4688,2.44828571 40.9008,2.695 L41.32,1.474 C40.8592,1.15814286 40.1328,0.964857143 39.504,0.964857143 C37.784,0.964857143 37.184,1.87157143 37.184,3.39585714 L37.184,6.38785714 L35.8272,6.38785714 L35.8272,7.69214286 L37.184,7.69214286 L37.184,9.68314286 L38.6512,9.68314286 L38.6512,7.69214286 L41.0272,7.69214286 L41.0272,6.38785714 Z M22.4208,4.98771429 C22.576,5.93528571 23.1616,6.58114286 24.1968,6.58114286 C25.1328,6.58114286 25.7344,6.00442857 25.888,4.98771429 L22.4208,4.98771429 Z M27.3984,4.411 C27.384,6.457 26.0976,7.85714286 24.224,7.85714286 C22.2672,7.85714286 20.8976,6.457 20.8976,4.411 C20.8976,2.32571429 22.3232,0.966428571 24.3232,0.966428571 C25.3296,0.966428571 26.2512,1.21314286 27.0624,1.88571429 L26.3488,2.94328571 C25.7904,2.50328571 25.0768,2.25657143 24.4064,2.25657143 C23.4704,2.25657143 22.6176,2.68242857 22.408,3.86257143 L27.3696,3.86257143 C27.384,4.04171429 27.3984,4.21928571 27.3984,4.411 M33.7856,6.017 C33.3808,6.26528571 32.5568,6.58114286 31.704,6.58114286 C30.9072,6.58114286 30.432,6.292 30.432,5.81114286 C30.432,5.37271429 30.9344,5.24857143 31.5632,5.16685714 L32.248,5.071 C33.7024,4.86357143 34.5824,4.26014286 34.5824,3.10671429 C34.5824,1.85742857 33.464,0.964857143 31.536,0.964857143 C30.4448,0.964857143 29.4384,1.23985714 28.6416,1.81657143 L29.3264,2.92914286 C29.816,2.55828571 30.544,2.24242857 31.5504,2.24242857 C32.5424,2.24242857 33.0736,2.53 33.0736,3.03914286 C33.0736,3.40842857 32.696,3.61585714 31.8992,3.72428571 L31.2144,3.82014286 C29.7184,4.02757143 28.9072,4.686 28.9072,5.75614286 C28.9072,7.06042857 29.9984,7.85714286 31.6896,7.85714286 C32.752,7.85714286 33.7168,7.623 34.4144,7.17042857 L33.7856,6.017 Z M51.7136,6.501 C51.4144,6.501 51.1376,6.44914286 50.88,6.347 C50.624,6.24328571 50.4016,6.09871429 50.2144,5.91328571 C50.0272,5.72785714 49.88,5.50471429 49.7728,5.24542857 C49.6656,4.98614286 49.6128,4.70014286 49.6128,4.389 C49.6128,4.07628571 49.6656,3.79185714 49.7728,3.53257143 C49.88,3.27328571 50.0272,3.05014286 50.2144,2.86471429 C50.4016,2.67928571 50.624,2.53471429 50.88,2.431 C51.1376,2.32728571 51.4144,2.277 51.7136,2.277 C52.0128,2.277 52.2912,2.32728571 52.5472,2.431 C52.8048,2.53471429 53.0288,2.67928571 53.216,2.86471429 C53.4064,3.05014286 53.5536,3.27328571 53.6624,3.53257143 C53.7696,3.79185714 53.8224,4.07628571 53.8224,4.389 C53.8224,4.70014286 53.7696,4.98614286 53.6624,5.24542857 C53.5536,5.50471429 53.4064,5.72785714 53.216,5.91328571 C53.0288,6.09871429 52.8048,6.24328571 52.5472,6.347 C52.2912,6.44914286 52.0128,6.501 51.7136,6.501 M51.7136,7.85714286 C52.232,7.85714286 52.712,7.76914286 53.1536,7.59157143 C53.5952,7.41557143 53.9776,7.172 54.2992,6.86242857 C54.6224,6.55285714 54.8736,6.18671429 55.056,5.76557143 C55.2384,5.34285714 55.3296,4.884 55.3296,4.389 C55.3296,3.894 55.2384,3.43514286 55.056,3.01242857 C54.8736,2.59128571 54.6224,2.22357143 54.2992,1.914 C53.9776,1.60442857 53.5952,1.36242857 53.1536,1.18485714 C52.712,1.00885714 52.232,0.920857143 51.7136,0.920857143 C51.1952,0.920857143 50.7152,1.00885714 50.2736,1.18485714 C49.832,1.36242857 49.4528,1.60442857 49.1328,1.914 C48.8128,2.22357143 48.5616,2.59128571 48.3792,3.01242857 C48.1968,3.43514286 48.1056,3.894 48.1056,4.389 C48.1056,4.884 48.1968,5.34285714 48.3792,5.76557143 C48.5616,6.18671429 48.8128,6.55285714 49.1328,6.86242857 C49.4528,7.172 49.832,7.41557143 50.2736,7.59157143 C50.7152,7.76914286 51.1952,7.85714286 51.7136,7.85714286 M13.928,4.411 C13.928,5.56442857 14.6976,6.512 15.9552,6.512 C17.1568,6.512 17.968,5.60528571 17.968,4.411 C17.968,3.21671429 17.1568,2.31157143 15.9552,2.31157143 C14.6976,2.31157143 13.928,3.25757143 13.928,4.411 M19.3376,4.411 L19.3376,7.69214286 L17.8848,7.69214286 L17.8848,6.89542857 C17.4224,7.48628571 16.7248,7.85714286 15.7744,7.85714286 C13.9008,7.85714286 12.4336,6.41614286 12.4336,4.411 C12.4336,2.40742857 13.9008,0.964857143 15.7744,0.964857143 C16.7248,0.964857143 17.4224,1.33571429 17.8848,1.92657143 L17.8848,1.12985714 L19.3376,1.12985714 L19.3376,4.411 Z M11.1472,1.12985714 L11.1472,5.24857143 C11.1472,6.79957143 10.1408,7.843 8.52,7.85714286 C7.6672,7.87128571 6.7856,7.61042857 6.1712,6.68957143 C5.7104,7.41714286 4.9824,7.85714286 3.9616,7.85714286 C3.2496,7.85714286 2.5504,7.65128571 2.0048,6.88285714 L2.0048,7.69214286 L0.552,7.69214286 L0.552,1.12985714 L2.0192,1.12985714 L2.0192,4.76771429 C2.0192,5.907 2.6624,6.512 3.6544,6.512 C4.6192,6.512 5.1088,5.89442857 5.1088,4.78185714 L5.1088,1.12985714 L6.576,1.12985714 L6.576,4.76771429 C6.576,5.907 7.248,6.512 8.2112,6.512 C9.2048,6.512 9.68,5.89442857 9.68,4.78185714 L9.68,1.12985714 L11.1472,1.12985714 Z" id="Shape"></path>
            </g>
            <g id="Group" transform="translate(71.500000, 63.000000) scale(-1, 1) rotate(-180.000000) translate(-71.500000, -63.000000) translate(70.000000, 62.000000)" fill="#231F20">
                <path d="M1.5,1.5 L1.5,1.3455 L1.6425,1.3455 C1.674,1.3455 1.701,1.353 1.719,1.365 C1.7385,1.377 1.749,1.398 1.749,1.4235 C1.749,1.449 1.7385,1.4685 1.719,1.4805 C1.701,1.494 1.674,1.5 1.6425,1.5 L1.5,1.5 Z M1.644,1.608 C1.7175,1.608 1.7745,1.5915 1.815,1.5585 C1.8555,1.5255 1.875,1.4805 1.875,1.4235 C1.875,1.3755 1.86,1.3365 1.827,1.305 C1.7955,1.275 1.749,1.2555 1.6905,1.248 L1.8795,1.0305 L1.7325,1.0305 L1.557,1.2465 L1.5,1.2465 L1.5,1.0305 L1.377,1.0305 L1.377,1.608 L1.644,1.608 Z M1.6065,0.8325 C1.674,0.8325 1.737,0.8445 1.794,0.87 C1.8525,0.8955 1.9035,0.93 1.947,0.9735 C1.9905,1.017 2.025,1.068 2.0505,1.128 C2.0745,1.1865 2.088,1.2495 2.088,1.317 C2.088,1.3845 2.0745,1.4475 2.0505,1.506 C2.025,1.5645 1.9905,1.617 1.947,1.6605 C1.9035,1.704 1.8525,1.7385 1.794,1.7625 C1.737,1.788 1.674,1.8 1.6065,1.8 C1.539,1.8 1.4745,1.788 1.416,1.7625 C1.356,1.7385 1.3035,1.704 1.26,1.6605 C1.2165,1.617 1.182,1.5645 1.158,1.506 C1.1325,1.4475 1.1205,1.3845 1.1205,1.317 C1.1205,1.2495 1.1325,1.1865 1.158,1.128 C1.182,1.068 1.2165,1.017 1.26,0.9735 C1.3035,0.93 1.356,0.8955 1.416,0.87 C1.4745,0.8445 1.539,0.8325 1.6065,0.8325 M1.6065,1.9395 C1.695,1.9395 1.776,1.923 1.8525,1.89 C1.9305,1.8585 1.9965,1.8135 2.055,1.7565 C2.112,1.701 2.157,1.635 2.19,1.5585 C2.223,1.4835 2.2395,1.4025 2.2395,1.317 C2.2395,1.2315 2.223,1.1505 2.19,1.0755 C2.157,1.0005 2.112,0.9345 2.055,0.879 C1.9965,0.822 1.9305,0.777 1.8525,0.744 C1.776,0.711 1.695,0.6945 1.6065,0.6945 C1.5165,0.6945 1.434,0.711 1.356,0.744 C1.278,0.777 1.2105,0.822 1.1535,0.879 C1.0965,0.9345 1.0515,1.0005 1.0185,1.0755 C0.9855,1.1505 0.969,1.2315 0.969,1.317 C0.969,1.4025 0.9855,1.4835 1.0185,1.5585 C1.0515,1.635 1.0965,1.701 1.1535,1.7565 C1.2105,1.8135 1.278,1.8585 1.356,1.89 C1.434,1.923 1.5165,1.9395 1.6065,1.9395" id="Shape"></path>
            </g>
        </g>
    </g>
</svg>