<?xml version="1.0" encoding="UTF-8"?>
<svg width="120px" height="64px" viewBox="0 0 120 64" version="1.1" xmlns="http://www.w3.org/2000/svg" xmlns:xlink="http://www.w3.org/1999/xlink">
    <!-- Generator: Sketch 62 (91390) - https://sketch.com -->
    <title>mastercard</title>
    <desc>Created with Sketch.</desc>
    <g id="mastercard" stroke="none" stroke-width="1" fill="none" fill-rule="evenodd">
        <g id="mc_vrt_pos" transform="translate(19.000000, 0.000000)" fill-rule="nonzero">
            <path d="M15.5454334,63.6762588 L15.5454334,59.7913668 C15.5946409,59.1304141 15.3359242,58.481711 14.8352869,58.0107538 C14.3346496,57.5397966 13.6405053,57.2921288 12.9299433,57.3309352 C11.9935381,57.2737935 11.0979383,57.6955737 10.5926969,58.4316546 C10.1320617,57.7175204 9.28862348,57.2951654 8.39457223,57.3309352 C7.61612821,57.2943052 6.87505705,57.6441317 6.44686685,58.2503596 L6.44686685,57.4863309 L5,57.4863309 L5,63.6762588 L6.46077903,63.6762588 L6.46077903,60.2705035 C6.39786702,59.8419288 6.54374965,59.4095837 6.85861681,59.0914514 C7.17348396,58.7733192 7.62446984,58.6026064 8.08850424,58.6258992 C9.04844475,58.6258992 9.53537109,59.208633 9.53537109,60.2575538 L9.53537109,63.7021581 L10.9961501,63.7021581 L10.9961501,60.2705035 C10.9358197,59.8424162 11.0825943,59.4114719 11.3968777,59.0939295 C11.7111611,58.7763871 12.160574,58.6049614 12.6238753,58.6258992 C13.6116402,58.6258992 14.0846544,59.208633 14.0846544,60.2575538 L14.0846544,63.7021581 L15.5454334,63.6762588 Z M37.158007,57.4863309 L34.779024,57.4863309 L34.779024,55.6086331 L33.318245,55.6086331 L33.318245,57.4863309 L31.9965877,57.4863309 L31.9965877,58.7165467 L33.3460693,58.7165467 L33.3460693,61.5654675 C33.3460693,63.0028775 33.9442931,63.8575716 35.6554914,63.8575716 C36.2947969,63.8595527 36.9217139,63.6934675 37.464075,63.3784171 L37.0467095,62.2258991 C36.6587011,62.4413227 36.2183301,62.5616203 35.7667889,62.5755394 C35.0711798,62.5755394 34.8068484,62.1611509 34.8068484,61.5395682 L34.8068484,58.7165467 L37.1719192,58.7165467 L37.158007,57.4863309 Z M49.4981118,57.3309352 C48.7794901,57.311263 48.1068818,57.6590811 47.7451769,58.23741 L47.7451769,57.4863309 L46.3122223,57.4863309 L46.3122223,63.6762588 L47.7590891,63.6762588 L47.7590891,60.2057553 C47.7590891,59.1827337 48.2321033,58.6129496 49.1503072,58.6129496 C49.4597727,58.6090094 49.7670447,58.6618117 50.054599,58.7683452 L50.4997888,57.4733812 C50.169355,57.3633507 49.8212256,57.3064242 49.4702874,57.3050359 L49.4981118,57.3309352 Z M30.8418767,57.9784172 C30.022884,57.5251649 29.0812553,57.3004264 28.1290013,57.3309352 C26.4456274,57.3309352 25.3465651,58.0820143 25.3465651,59.3122301 C25.3465651,60.322302 26.1534716,60.9438848 27.642075,61.1381294 L28.3376841,61.2287768 C29.1306784,61.332374 29.5063073,61.5266186 29.5063073,61.8762588 C29.5063073,62.3553955 28.9776444,62.627338 27.9898795,62.627338 C27.1953566,62.6487451 26.4162054,62.4206809 25.7778427,61.979856 L25.0822337,63.0287768 C25.9250432,63.5765405 26.9345166,63.8579759 27.9620552,63.8316545 C29.8819362,63.8316545 30.9949107,62.9899279 30.9949107,61.8115106 C30.9949107,60.6330934 30.1184433,60.1539567 28.6715764,59.9597121 L27.9759674,59.8690646 C27.3499192,59.7913668 26.8490807,59.67482 26.8490807,59.2604316 C26.8490807,58.8460431 27.3220948,58.5352517 28.1150892,58.5352517 C28.8480355,58.5431769 29.5665442,58.7259815 30.2019164,59.066187 L30.8418767,57.9784172 Z M69.5942576,57.3309352 C68.8756359,57.311263 68.2030276,57.6590811 67.8413228,58.23741 L67.8413228,57.4863309 L66.4083681,57.4863309 L66.4083681,63.6762588 L67.8552349,63.6762588 L67.8552349,60.2057553 C67.8552349,59.1827337 68.3282491,58.6129496 69.2464531,58.6129496 C69.5559185,58.6090094 69.8631905,58.6618117 70.1507448,58.7683452 L70.5959346,57.4733812 C70.2655008,57.3633507 69.9173715,57.3064242 69.5664332,57.3050359 L69.5942576,57.3309352 Z M50.9519347,60.5683452 C50.9171388,61.4479074 51.2821437,62.3004001 51.9573567,62.9165737 C52.6325698,63.5327474 53.5554755,63.8555527 54.4995409,63.8057552 C55.3682722,63.8468961 56.2220317,63.5835394 56.8924361,63.0676257 L56.196827,61.979856 C55.6966639,62.3348775 55.0867621,62.5301679 54.4578044,62.5366905 C53.3487954,62.4531674 52.4945093,61.5910491 52.4945093,60.5553956 C52.4945093,59.519742 53.3487954,58.6576237 54.4578044,58.5741006 C55.0867621,58.5806232 55.6966639,58.7759136 56.196827,59.1309352 L56.8924361,58.0431654 C56.2220317,57.5272518 55.3682722,57.263895 54.4995409,57.3050359 C53.5554755,57.2552384 52.6325698,57.5780438 51.9573567,58.1942174 C51.2821437,58.810391 50.9171388,59.6628838 50.9519347,60.5424459 L50.9519347,60.5683452 Z M64.5023993,60.5683452 L64.5023993,57.4863309 L63.0555324,57.4863309 L63.0555324,58.23741 C62.5570613,57.6403993 61.7804645,57.3030616 60.9687052,57.3309352 C59.0478338,57.3309352 57.4906599,58.780373 57.4906599,60.5683452 C57.4906599,62.3563174 59.0478338,63.8057552 60.9687052,63.8057552 C61.7804645,63.8336288 62.5570613,63.4962912 63.0555324,62.8992804 L63.0555324,63.6503595 L64.5023993,63.6503595 L64.5023993,60.5683452 Z M59.1183851,60.5683452 C59.1827255,59.5522314 60.1078486,58.7703579 61.2006147,58.8085361 C62.2933808,58.8467143 63.1529332,59.6909394 63.1352603,60.7086836 C63.1175874,61.7264279 62.2291722,62.5443547 61.1356514,62.5496401 C60.5788435,62.556198 60.0443968,62.3459927 59.6613513,61.9697776 C59.2783057,61.5935624 59.0814757,61.0855309 59.1183851,60.5683452 L59.1183851,60.5683452 Z M41.6585976,57.3309352 C39.7377262,57.3559668 38.2023527,58.8256968 38.2292449,60.6136689 C38.2561371,62.4016411 39.8351115,63.8307868 41.7559829,63.8057552 C42.756783,63.853571 43.7409767,63.5535886 44.5175509,62.9640286 L43.8219418,61.9669063 C43.2726625,62.3769429 42.5921758,62.6047867 41.8881486,62.6143883 C40.8936825,62.6939963 40.011799,62.0223765 39.8987067,61.0992804 L44.837531,61.0992804 C44.837531,60.9309351 44.837531,60.7625898 44.837531,60.5812948 C44.837531,58.6388488 43.5436982,57.3438848 41.6794659,57.3438848 L41.6585976,57.3309352 Z M41.6585976,58.5352517 C42.0958596,58.5265744 42.518906,58.6799832 42.8346214,58.9617118 C43.1503368,59.2434403 43.3328439,59.630397 43.3419716,60.03741 L39.8639262,60.03741 C39.9163254,59.1729071 40.7010766,58.5057183 41.6307733,58.5352517 L41.6585976,58.5352517 Z M77.9067859,60.5812948 L77.9067859,55 L76.5155678,55 L76.5155678,58.23741 C76.0170967,57.6403993 75.2404999,57.3030616 74.4287406,57.3309352 C72.5078692,57.3309352 70.9506953,58.780373 70.9506953,60.5683452 C70.9506953,62.3563174 72.5078692,63.8057552 74.4287406,63.8057552 C75.2404999,63.8336288 76.0170967,63.4962912 76.5155678,62.8992804 L76.5155678,63.6503595 L77.9067859,63.6503595 L77.9067859,60.5812948 Z M80.3205494,62.7762588 C80.4109875,62.7752275 80.5007738,62.7906227 80.5848808,62.8215826 C80.6647664,62.8519262 80.7378902,62.8958388 80.8005196,62.951079 C80.8616422,63.0069058 80.911165,63.0727579 80.9465975,63.1453236 C81.0178008,63.2981599 81.0178008,63.4716239 80.9465975,63.6244602 C80.911165,63.6970259 80.8616422,63.7628781 80.8005196,63.8187048 C80.7378902,63.873945 80.6647664,63.9178576 80.5848808,63.9482012 C80.5016041,63.9824046 80.4115727,64.0000473 80.3205494,63.9999999 C80.0513832,63.9981113 79.8075465,63.8518441 79.6945012,63.6244602 C79.6241223,63.4714656 79.6241223,63.2983182 79.6945012,63.1453236 C79.7299337,63.0727579 79.7794565,63.0069058 79.8405791,62.951079 C79.9032085,62.8958388 79.9763323,62.8519262 80.0562179,62.8215826 C80.1468209,62.7880355 80.243989,62.7725936 80.3414176,62.7762588 L80.3205494,62.7762588 Z M80.3205494,63.8705034 C80.3899777,63.870896 80.4587149,63.8576584 80.522276,63.8316545 C80.5821237,63.8067831 80.6364006,63.7716376 80.6822661,63.7280574 C80.8626354,63.5448801 80.8626354,63.2637527 80.6822661,63.0805754 C80.6365099,63.0368749 80.5822067,63.0017124 80.522276,62.9769782 C80.4586522,62.9511576 80.3899571,62.9379281 80.3205494,62.9381271 C80.2512015,62.9384704 80.1826227,62.9516775 80.1188227,62.9769782 C80.0563255,63.0008315 79.999569,63.0360513 79.9518765,63.0805754 C79.7715072,63.2637527 79.7715072,63.5448801 79.9518765,63.7280574 C79.9996861,63.7724484 80.0564123,63.8076494 80.1188227,63.8316545 C80.1890025,63.8598251 80.265041,63.8730959 80.3414176,63.8705034 L80.3205494,63.8705034 Z M80.3622859,63.0999998 C80.4272219,63.0970686 80.4912107,63.1153953 80.5431443,63.1517984 C80.5863433,63.1850764 80.6096525,63.2357016 80.6057491,63.2877696 C80.6077684,63.3312514 80.5901052,63.3735286 80.5570564,63.4043164 C80.5167376,63.4384037 80.4653033,63.4589219 80.4109785,63.4625897 L80.6127052,63.6762588 L80.4527151,63.6762588 L80.2649006,63.4625897 L80.2022958,63.4625897 L80.2022958,63.6762588 L80.0701301,63.6762588 L80.0701301,63.1064746 L80.3622859,63.0999998 Z M80.2092519,63.2100718 L80.2092519,63.3654674 L80.3622859,63.3654674 C80.389518,63.3730248 80.4185269,63.3730248 80.445759,63.3654674 C80.4556804,63.3471406 80.4556804,63.3255209 80.445759,63.3071941 C80.4556804,63.2888672 80.4556804,63.2672475 80.445759,63.2489207 C80.4185269,63.2413634 80.389518,63.2413634 80.3622859,63.2489207 L80.2092519,63.2100718 Z M72.5575522,60.5812948 C72.6218926,59.565181 73.5470157,58.7833075 74.6397818,58.8214857 C75.7325479,58.8596639 76.5921002,59.703889 76.5744274,60.7216332 C76.5567545,61.7393775 75.6683393,62.5573043 74.5748185,62.5625898 C74.0180106,62.5691476 73.4835639,62.3589424 73.1005184,61.9827272 C72.7174728,61.606512 72.5206428,61.0984805 72.5575522,60.5812948 L72.5575522,60.5812948 Z M23.7049277,60.5812948 L23.7049277,57.4863309 L22.2580609,57.4863309 L22.2580609,58.23741 C21.7595897,57.6403993 20.9829929,57.3030616 20.1712337,57.3309352 C18.2503623,57.3309352 16.6931884,58.780373 16.6931884,60.5683452 C16.6931884,62.3563174 18.2503623,63.8057552 20.1712337,63.8057552 C20.9829929,63.8336288 21.7595897,63.4962912 22.2580609,62.8992804 L22.2580609,63.6503595 L23.7049277,63.6503595 L23.7049277,60.5812948 Z M18.3209136,60.5812948 C18.3852539,59.565181 19.310377,58.7833075 20.4031431,58.8214857 C21.4959092,58.8596639 22.3554616,59.703889 22.3377887,60.7216332 C22.3201159,61.7393775 21.4317007,62.5573043 20.3381798,62.5625898 C19.7789724,62.5728085 19.240805,62.3642058 18.8546743,61.9875581 C18.4685437,61.6109104 18.2698658,61.1007639 18.3070014,60.5812948 L18.3209136,60.5812948 Z" id="Shape" fill="#231F20"></path>
            <g id="_Group_">
                <rect id="Rectangle" fill="#FF5F00" x="29.891453" y="5.69931507" width="22.0769231" height="41.100411"></rect>
                <path d="M31.2931624,26.2531507 C31.2849082,18.2316314 34.8386769,10.6519431 40.9299145,5.69931507 C30.5851522,-2.72256514 15.7296586,-1.49584546 6.80347544,8.51736849 C-2.12270774,18.5305824 -2.12270774,33.9684587 6.80347544,43.9816726 C15.7296586,53.9948866 30.5851522,55.2216062 40.9299145,46.799726 C34.8406147,41.8486703 31.2870631,34.2721222 31.2931624,26.2531507 L31.2931624,26.2531507 Z" id="_Path_" fill="#EB001B"></path>
                <path d="M81.7547009,26.2531507 C81.7547009,36.2602625 76.2385685,45.3888009 67.5496063,49.7618408 C58.8606441,54.1348806 48.5240886,52.9846771 40.9299145,46.799726 C47.0165574,41.8444669 50.5703765,34.2689262 50.5703765,26.2495205 C50.5703765,18.2301149 47.0165574,10.6545742 40.9299145,5.69931507 C48.5240886,-0.485635969 58.8606441,-1.6358395 67.5496063,2.73720033 C76.2385685,7.11024016 81.7547009,16.2387786 81.7547009,26.2458904 L81.7547009,26.2531507 Z" id="Path" fill="#F79E1B"></path>
                <path d="M79.3437607,42.7764595 L79.3437607,41.6584381 L79.6731624,41.6584381 L79.6731624,41.4271233 L78.8391453,41.4271233 L78.8391453,41.6584381 L79.1965812,41.6584381 L79.1965812,42.7764595 L79.3437607,42.7764595 Z M80.962735,42.7764595 L80.962735,41.4271233 L80.7104274,41.4271233 L80.4160684,42.3909349 L80.1217094,41.4271233 L79.8974359,41.4271233 L79.8974359,42.7764595 L80.0796581,42.7764595 L80.0796581,41.7644573 L80.3529915,42.6415259 L80.5422222,42.6415259 L80.8155556,41.7644573 L80.8155556,42.7860976 L80.962735,42.7764595 Z" id="Shape" fill="#F79E1B"></path>
            </g>
        </g>
    </g>
</svg>