<?xml version="1.0" encoding="utf-8"?>
<!-- Generator: Adobe Illustrator 24.0.1, SVG Export Plug-In . SVG Version: 6.00 Build 0)  -->
<svg version="1.1" id="Layer_1" xmlns="http://www.w3.org/2000/svg" xmlns:xlink="http://www.w3.org/1999/xlink" x="0px" y="0px"
	 viewBox="0 0 64 64" style="enable-background:new 0 0 64 64;" xml:space="preserve">
<style type="text/css">
	.st0{fill:#FFFFFF;stroke:#00A853;stroke-width:0.5;stroke-miterlimit:10;}
	.st1{fill:#00A853;}
	.st2{font-family:'Roboto-Medium';}
	.st3{font-size:1.0192px;}
	.st4{font-size:1.3825px;}
	.st5{display:none;}
	.st6{display:inline;}
	.st7{display:none;fill:#1E0E00;}
</style>
<g>
	<g>
		<path class="st0" d="M41.56,38.03H22.44c-0.58,0-1.04-0.47-1.04-1.04v-9.98c0-0.58,0.47-1.04,1.04-1.04h19.11
			c0.58,0,1.04,0.47,1.04,1.04v9.98C42.6,37.56,42.13,38.03,41.56,38.03z"/>
		<rect x="21.4" y="30" class="st1" width="21.2" height="0.72"/>
	</g>
	<text transform="matrix(1 0 0 1 22.5604 33.5839)" class="st1 st2 st3">1234 1234 1234 1234</text>
	<circle class="st1" cx="40.49" cy="35.74" r="1.02"/>
	<circle class="st1" cx="39.13" cy="35.74" r="1.02"/>
	<text transform="matrix(1 0 0 1 22.6004 28.4267)" class="st1 st2 st4">Bank</text>
</g>
<g>
	<g>
		<g>
			<g>
				<g>
					<path class="st1" d="M50.33,40.48v20.65c0,0.64-0.52,1.17-1.17,1.17H14.84c-0.64,0-1.17-0.52-1.17-1.17V2.87
						c0-0.64,0.52-1.17,1.17-1.17h34.33c0.64,0,1.17,0.52,1.17,1.17v20.66 M48,22.1V4.04H16v55.93h32V41.92"/>
				</g>
			</g>
		</g>
		<g>
			<g>
				<g>
					<path class="st1" d="M49.17,13.36H14.83c-0.64,0-1.17-0.52-1.17-1.17c0-0.64,0.52-1.17,1.17-1.17h34.33
						c0.64,0,1.17,0.52,1.17,1.17C50.33,12.84,49.81,13.36,49.17,13.36z"/>
				</g>
			</g>
		</g>
		<g>
			<g>
				<g>
					<path class="st1" d="M49.17,52.98H14.83c-0.64,0-1.17-0.52-1.17-1.17c0-0.64,0.52-1.17,1.17-1.17h34.33
						c0.64,0,1.17,0.52,1.17,1.17C50.33,52.46,49.81,52.98,49.17,52.98z"/>
				</g>
			</g>
		</g>
		<g>
			<g>
				<g>
					<path class="st1" d="M35.06,8.7h-6.12c-0.64,0-1.17-0.52-1.17-1.17s0.52-1.17,1.17-1.17h6.12c0.64,0,1.17,0.52,1.17,1.17
						S35.7,8.7,35.06,8.7z"/>
				</g>
			</g>
		</g>
		<g>
			<g>
				<g>
					<path class="st1" d="M33.89,57.64h-3.79c-0.64,0-1.17-0.52-1.17-1.17c0-0.64,0.52-1.17,1.17-1.17h3.79
						c0.64,0,1.17,0.52,1.17,1.17C35.06,57.12,34.54,57.64,33.89,57.64z"/>
				</g>
			</g>
		</g>
	</g>
	<g class="st5">
		<g class="st6">
			<g>
				<g>
					<path class="st1" d="M41.09,41.97c-5.96,0-10.72-5.24-9.91-11.36c0.63-4.72,4.68-8.41,9.45-8.62c1.13-0.05,2.23,0.08,3.25,0.39
						c4.23,1.22,7.19,5.16,7.19,9.59c0,2.5-0.92,4.89-2.6,6.72c-1.21,1.36-2.81,2.36-4.6,2.88C42.99,41.83,42.05,41.97,41.09,41.97z
						 M41.09,24.31c-4.63,0-8.31,4.12-7.57,8.88c0.57,3.66,3.84,6.44,7.55,6.45c0.75,0,1.47-0.1,2.15-0.3
						c1.38-0.4,2.6-1.17,3.53-2.21c1.29-1.41,2-3.23,2-5.15c0-3.39-2.27-6.42-5.52-7.35C42.54,24.41,41.83,24.31,41.09,24.31z"/>
				</g>
			</g>
		</g>
		<g class="st6">
			<g>
				<g>
					<path class="st1" d="M54.83,46.64c-0.31,0-0.61-0.12-0.84-0.36l-7.23-7.58c-0.44-0.47-0.43-1.2,0.04-1.65
						c0.47-0.44,1.2-0.43,1.65,0.04l7.23,7.58c0.44,0.47,0.43,1.2-0.04,1.65C55.41,46.54,55.12,46.64,54.83,46.64z"/>
				</g>
			</g>
		</g>
	</g>
</g>
</svg>
