<svg id="Layer_1" data-name="Layer 1" xmlns="http://www.w3.org/2000/svg" viewBox="0 0 64 64">
  <defs>
    <style>
      .cls-1 {
        fill: #00a853;
      }
    </style>
  </defs>
  <g>
    <path class="cls-1" d="M26.08,20H37.92a.61.61,0,0,0,.56-.84L37.1,15.86A1.36,1.36,0,0,0,35.84,15H28.13a1.38,1.38,0,0,0-1.26.84l-1.35,3.26A.61.61,0,0,0,26.08,20Z"/>
    <path class="cls-1" d="M25.16,39.27h.22V60.92a1.83,1.83,0,0,0,1.83,1.82h9.58a1.83,1.83,0,0,0,1.83-1.82V39.27h.22a1.82,1.82,0,0,0,1.83-1.82V26.9a1.83,1.83,0,0,0-1.83-1.82h0V21.55H25.17v3.53h0a1.83,1.83,0,0,0-1.83,1.82V37.45A1.82,1.82,0,0,0,25.16,39.27ZM36.88,55.84a.61.61,0,0,1-.61.61H27.33a.61.61,0,0,1-.61-.61V55a.61.61,0,0,1,.61-.61h8.94a.61.61,0,0,1,.61.61Zm0-10.34a.61.61,0,0,1-.61.61H27.33a.61.61,0,0,1-.61-.61v-.82a.61.61,0,0,1,.61-.61h8.94a.61.61,0,0,1,.61.61Zm-1.13-23a.83.83,0,0,1,1.48,0v2.55H35.75Zm-3,0a.84.84,0,0,1,1.49,0v2.55H32.75Zm-3,0a.84.84,0,0,1,1.49,0v2.55H29.76Zm-3,0a.83.83,0,0,1,1.48,0v2.55H26.77ZM32,26.72a5.45,5.45,0,0,1,3.5,9.64,5.46,5.46,0,0,1-9-4.18A5.46,5.46,0,0,1,32,26.72Z"/>
    <path class="cls-1" d="M29.48,13.57h5a.57.57,0,0,0,.53-.79A32.55,32.55,0,0,1,32.4,1.67a.4.4,0,0,0-.4-.41.39.39,0,0,0-.4.39A34,34,0,0,1,29,12.73.59.59,0,0,0,29.48,13.57Z"/>
    <path class="cls-1" d="M31.22,33.07h0l-.2.46a.14.14,0,0,0,.18.19l.46-.15a1.11,1.11,0,0,0,.19-.09h0l.5.11a.14.14,0,0,0,.15-.21l-.18-.34L35.07,30s0-.06,0,0l-3.28,2.55-2.16-1.22a0,0,0,0,0-.06.07Z"/>
  </g>
</svg>
