<svg xmlns="http://www.w3.org/2000/svg" xmlns:xlink="http://www.w3.org/1999/xlink" viewBox="0 0 151.2 119"><defs><clipPath id="a" transform="translate(0 0)"><rect width="151.2" height="118.99" style="fill:none"/></clipPath></defs><title>deliver</title><g style="clip-path:url(#a)"><path d="M149.2,20.2h-9.3a14.2,14.2,0,0,0-9.8-7,5.7,5.7,0,0,1-2.7-1.5A15.3,15.3,0,0,0,110.5,9a5.8,5.8,0,0,1-5.2-.3,15.3,15.3,0,0,0-7.1-1.8h0a6.4,6.4,0,0,1-4-1.4,25.2,25.2,0,0,0-26-3.3,5.6,5.6,0,0,1-3.8.4A14.6,14.6,0,0,0,50,6.2a6,6,0,0,1-5.2,1.5l-2.2-.2a14.6,14.6,0,0,0-11.9,5.7,3.8,3.8,0,0,1-3.5,1.5H25.1c-5,0-8.7,2-10.6,5.6H2a2,2,0,0,0-2,2v2.2a5.7,5.7,0,0,0,5.7,5.7H6.3l8,60.3a11.2,11.2,0,0,0,11.1,9.7H125.8a11.2,11.2,0,0,0,11.1-9.7l8-60.3h0.6a5.7,5.7,0,0,0,5.7-5.7V22.2a2,2,0,0,0-2-2M25.1,18.6h1.8a7.8,7.8,0,0,0,7-3,10.6,10.6,0,0,1,8.7-4.1h1.6a10,10,0,0,0,8.6-2.6A10.6,10.6,0,0,1,63.2,6.4a9.6,9.6,0,0,0,6.6-.5A21.2,21.2,0,0,1,91.6,8.6a10.5,10.5,0,0,0,6.6,2.3,11.5,11.5,0,0,1,5.3,1.3,9.8,9.8,0,0,0,8.7.4,11.1,11.1,0,0,1,4.7-1,11.2,11.2,0,0,1,7.8,3.1,9.7,9.7,0,0,0,4.6,2.5,11,11,0,0,1,5.7,3.1H19.6a9.1,9.1,0,0,1,5.5-1.6M132.9,89.9a7.2,7.2,0,0,1-7.1,6.2H25.4a7.2,7.2,0,0,1-7.1-6.2L10.4,30.1H140.8Zm14.3-65.5a1.7,1.7,0,0,1-1.7,1.7H5.7A1.7,1.7,0,0,1,4,24.4V24.2H147.2v0.2Z" transform="translate(0 0)" style="fill:#0da753"/><path d="M27.4,101.2a8.9,8.9,0,1,0,8.9,8.9,8.9,8.9,0,0,0-8.9-8.9m0,13.8a4.9,4.9,0,1,1,4.9-4.9,4.9,4.9,0,0,1-4.9,4.9" transform="translate(0 0)" style="fill:#0da753"/><path d="M123.8,101.2a8.9,8.9,0,1,0,8.9,8.9,8.9,8.9,0,0,0-8.9-8.9m0,13.8a4.9,4.9,0,1,1,4.9-4.9,4.9,4.9,0,0,1-4.9,4.9" transform="translate(0 0)" style="fill:#0da753"/><path d="M42.6,80.4h66a2,2,0,0,0,2-2V41.9a2,2,0,0,0-2-2h-66a2,2,0,0,0-2,2V78.4a2,2,0,0,0,2,2m2-36.5h62V76.4h-62V43.9Z" transform="translate(0 0)" style="fill:#0da753"/></g></svg>