<svg id="Layer_1" data-name="Layer 1" xmlns="http://www.w3.org/2000/svg" viewBox="0 0 64 64">
  <defs>
    <style>
      .cls-1 {
        fill: #00a853;
      }
    </style>
  </defs>
  <g>
    <path class="cls-1" d="M32,58.73A26.73,26.73,0,0,1,32,5.27a5.24,5.24,0,0,1,.56,0A26.68,26.68,0,0,1,58.72,32a26.35,26.35,0,0,1-1,7.2A26.71,26.71,0,0,1,32,58.73ZM32.1,9H32A23,23,0,1,0,54.18,38.2,22.55,22.55,0,0,0,55,32,23,23,0,0,0,32.42,9h-.2A.23.23,0,0,0,32.1,9Z"/>
    <path class="cls-1" d="M29.69,34.88l.15,3.65a7.34,7.34,0,0,1-1.33,4.55h14.4l0,4.17H21.18V43.08h1.7a1.9,1.9,0,0,0,1.25-1.33,8.26,8.26,0,0,0,.44-3l-.15-3.82H21.09V30.77H24.3l-.17-5a8.6,8.6,0,0,1,2.59-6.59,9.5,9.5,0,0,1,6.78-2.42A9.24,9.24,0,0,1,40.09,19a7.88,7.88,0,0,1,2.41,6.06H37.43a4.11,4.11,0,0,0-1.09-3,4.07,4.07,0,0,0-3-1.09,3.51,3.51,0,0,0-2.91,1.35,5.42,5.42,0,0,0-1.06,3.49l.18,5H36v4.11Z"/>
  </g>
</svg>
