<svg xmlns="http://www.w3.org/2000/svg" xmlns:xlink="http://www.w3.org/1999/xlink" viewBox="0 0 11.6 17.7"><defs><clipPath id="a" transform="translate(0 0)"><rect width="11.6" height="17.75" style="fill:none"/></clipPath></defs><title>icon-lock</title><g style="clip-path:url(#a)"><path d="M11.2,6.2H9.8V4A4,4,0,1,0,1.8,4V6.2H0.4a0.4,0.4,0,0,0-.4.4v9.3a1.9,1.9,0,0,0,1.9,1.9H9.6a1.9,1.9,0,0,0,1.9-1.9V6.6A0.4,0.4,0,0,0,11.2,6.2ZM2.5,4A3.3,3.3,0,0,1,9.1,4V6.2H2.5V4Zm8.3,11.8A1.2,1.2,0,0,1,9.6,17H1.9A1.2,1.2,0,0,1,.8,15.8V6.9H10.8v8.9Z" transform="translate(0 0)" style="fill:#00a853"/><path d="M5.8,14.9a1.3,1.3,0,0,1-1.3-1.3V12.4a1.9,1.9,0,1,1,2.6,0v1.3a1.3,1.3,0,0,1-1.3,1.3m0-5.1a1.2,1.2,0,0,0-.7,2.1H5.3v1.6a0.5,0.5,0,0,0,1,0V12H6.5a1.2,1.2,0,0,0-.7-2.1" transform="translate(0 0)" style="fill:#00a853"/></g></svg>