<svg xmlns="http://www.w3.org/2000/svg" xmlns:xlink="http://www.w3.org/1999/xlink" viewBox="0 0 62 64"><defs><clipPath id="a"><rect width="62" height="64" style="fill:none"/></clipPath></defs><title>icon-contract</title><g style="clip-path:url(#a)"><polyline points="36 54 35 63 39 61 43 63 42 54" style="fill:none;stroke:#00a853;stroke-linecap:square;stroke-linejoin:round;stroke-width:2px"/><path d="M34,44h0a1,1,0,0,1,1-1,4.7,4.7,0,0,0,3.3-1.4,1,1,0,0,1,1.4,0A4.7,4.7,0,0,0,43,43a1,1,0,0,1,1,1,4.7,4.7,0,0,0,1.4,3.3,1,1,0,0,1,0,1.4A4.7,4.7,0,0,0,44,52a1,1,0,0,1-1,1,4.7,4.7,0,0,0-3.3,1.4,1,1,0,0,1-1.4,0A4.7,4.7,0,0,0,35,53a1,1,0,0,1-1-1,4.7,4.7,0,0,0-1.4-3.3,1,1,0,0,1,0-1.4A4.7,4.7,0,0,0,34,44Z" style="fill:none;stroke:#00a853;stroke-linecap:square;stroke-linejoin:round;stroke-width:2px"/><polyline points="19 11 19 21 11 21 11 19" style="fill:none;stroke:#00a853;stroke-linecap:round;stroke-linejoin:round;stroke-width:2px"/><polyline points="9 16 15 11 21 16" style="fill:none;stroke:#00a853;stroke-linecap:round;stroke-linejoin:round;stroke-width:2px"/><line x1="27" y1="21" x2="43" y2="21" style="fill:none;stroke:#00a853;stroke-linecap:round;stroke-linejoin:round;stroke-width:2px"/><line x1="9" y1="28" x2="43" y2="28" style="fill:none;stroke:#00a853;stroke-linecap:round;stroke-linejoin:round;stroke-width:2px"/><line x1="9" y1="34" x2="27" y2="34" style="fill:none;stroke:#00a853;stroke-linecap:round;stroke-linejoin:round;stroke-width:2px"/><path d="M11,50c-0.5-3.3,4.2-3.7,5-6,0,0,1.8,4.1,1,6,0.4-1.2,3.4-2.3,4-2s-1.1,3.3,6,2" style="fill:none;stroke:#00a853;stroke-linecap:round;stroke-linejoin:round;stroke-width:2px"/><path d="M55,1H7A6,6,0,0,0,1,7V59H29" style="fill:none;stroke:#00a853;stroke-linecap:square;stroke-linejoin:round;stroke-width:2px"/><path d="M57,9h4V6A5,5,0,0,0,51,6V59H49" style="fill:none;stroke:#00a853;stroke-linecap:square;stroke-linejoin:round;stroke-width:2px"/></g></svg>