<svg xmlns="http://www.w3.org/2000/svg" xmlns:xlink="http://www.w3.org/1999/xlink" viewBox="0 0 64 64"><defs><clipPath id="a"><rect width="64" height="64" style="fill:none"/></clipPath></defs><title>icon-uk-coverage</title><g style="clip-path:url(#a)"><circle cx="49.5" cy="56.5" r="6.5" style="fill:none;stroke:#00a853;stroke-linecap:round;stroke-linejoin:round;stroke-width:2px"/><circle cx="15.5" cy="56.5" r="6.5" style="fill:none;stroke:#00a853;stroke-linecap:round;stroke-linejoin:round;stroke-width:2px"/><path d="M44,31v4a4,4,0,0,0,4,4h4" style="fill:none;stroke:#00a853;stroke-linecap:round;stroke-linejoin:round;stroke-width:2px"/><path d="M57,57h2a4,4,0,0,0,4-4V49.7a16,16,0,0,0-3.6-10.1L50.8,28.9A16,16,0,0,0,38.4,23H5a4,4,0,0,0-4,4V53a4,4,0,0,0,4,4H9" style="fill:none;stroke:#00a853;stroke-linecap:round;stroke-linejoin:round;stroke-width:2px"/><line x1="22" y1="57" x2="43" y2="57" style="fill:none;stroke:#00a853;stroke-linecap:round;stroke-linejoin:round;stroke-width:2px"/><line x1="23" y1="14" x2="19" y2="14" style="fill:none;stroke:#00a853;stroke-linecap:round;stroke-linejoin:round;stroke-width:2px"/><path d="M50.5,11.4A7,7,0,0,0,37,14H28" style="fill:none;stroke:#00a853;stroke-linecap:round;stroke-linejoin:round;stroke-width:2px"/><path d="M50.5,11.4A3,3,0,0,1,55,14h2" style="fill:none;stroke:#00a853;stroke-linecap:round;stroke-linejoin:round;stroke-width:2px"/><path d="M25,6A5,5,0,0,0,15,6H7" style="fill:none;stroke:#00a853;stroke-linecap:round;stroke-linejoin:round;stroke-width:2px"/><path d="M22.1,33.6v5.5a3.2,3.2,0,0,1-.4,1.7,2.8,2.8,0,0,1-1.2,1.1,4.4,4.4,0,0,1-1.9.4,3.6,3.6,0,0,1-2.6-.8,3,3,0,0,1-.9-2.3V33.6h1.8v5.2a2.2,2.2,0,0,0,.4,1.5,1.7,1.7,0,0,0,1.3.5,1.6,1.6,0,0,0,1.3-.5,2.2,2.2,0,0,0,.4-1.5V33.6h1.8Z" style="fill:#00a853"/><path d="M31,42.1H29l-2.2-3.6-0.8.6v3.1H24.1V33.6H26v3.9l0.7-1L29,33.6h2l-3,3.8Z" style="fill:#00a853"/></g></svg>