<svg xmlns="http://www.w3.org/2000/svg" xmlns:xlink="http://www.w3.org/1999/xlink" viewBox="0 0 64 64"><defs><clipPath id="a"><rect width="64" height="64" style="fill:none"/></clipPath></defs><title>icon-advise</title><g style="clip-path:url(#a)"><path d="M35,39H30a2,2,0,0,1,0-4h5A2,2,0,0,1,35,39Z" style="fill:none;stroke:#00a853;stroke-linecap:round;stroke-linejoin:round;stroke-width:2px"/><path d="M27,37H22a6,6,0,0,1-6-6V26" style="fill:none;stroke:#00a853;stroke-linecap:round;stroke-linejoin:round;stroke-width:2px"/><path d="M16,32c-3,0-5-2-5-4.5v-3C11,22,13,20,16,20" style="fill:none;stroke:#00a853;stroke-linecap:round;stroke-linejoin:round;stroke-width:2px"/><path d="M49,32c3,0,5-2,5-4.5v-3C54,22,52,20,49,20" style="fill:none;stroke:#00a853;stroke-linecap:round;stroke-linejoin:round;stroke-width:2px"/><path d="M63,63h0a14,14,0,0,0-8-12.7L44,46c-3,2-6.3,4-11,4a18,18,0,0,1-12-4L9,50.2A14,14,0,0,0,1,62.9H1" style="fill:none;stroke:#00a853;stroke-linecap:square;stroke-linejoin:round;stroke-width:2px"/><path d="M16,26V17A15.7,15.7,0,0,1,32,1c9.1,0,17,7,17,16V32" style="fill:none;stroke:#00a853;stroke-linecap:round;stroke-linejoin:round;stroke-width:2px"/><path d="M45,22v7.5C45,36.4,41,44,32.5,44S20,36.4,20,29.5V22" style="fill:none;stroke:#00a853;stroke-linecap:square;stroke-linejoin:round;stroke-width:2px"/><path d="M20,18c13.2,0,18-3,20-6,0,0,0,6,5,6" style="fill:none;stroke:#00a853;stroke-linecap:square;stroke-linejoin:round;stroke-width:2px"/></g></svg>