<svg xmlns="http://www.w3.org/2000/svg" xmlns:xlink="http://www.w3.org/1999/xlink" viewBox="0 0 30.8 30.8"><defs><clipPath id="a" transform="translate(0 0)"><rect width="30.8" height="30.8" style="fill:none"/></clipPath></defs><title>icon-compare</title><g style="clip-path:url(#a)"><path d="M28.4,4.8H24a3.3,3.3,0,0,1,0,.5V5.8h4.3a1.4,1.4,0,0,1,1.4,1.4V28.4a1.4,1.4,0,0,1-1.4,1.4H2.4A1.4,1.4,0,0,1,1,28.4V7.2A1.4,1.4,0,0,1,2.4,5.8H6.7V5.3a3.3,3.3,0,0,1,0-.5H2.4A2.4,2.4,0,0,0,0,7.2V28.4a2.4,2.4,0,0,0,2.4,2.4h26a2.4,2.4,0,0,0,2.4-2.4V7.2a2.4,2.4,0,0,0-2.4-2.4" transform="translate(0 0)" style="fill:#00a853"/><path d="M22.1,7.2H8.7a0.5,0.5,0,0,1-.5-0.5V5.3a1.9,1.9,0,0,1,1.9-1.9h1V0.5A0.5,0.5,0,0,1,11.5,0h7.7a0.5,0.5,0,0,1,.5.5V3.4h1a1.9,1.9,0,0,1,1.9,1.9V6.7a0.5,0.5,0,0,1-.5.5m-13-1H21.7v-1a1,1,0,0,0-1-1H19.2a0.5,0.5,0,0,1-.5-0.5V1H12V3.8a0.5,0.5,0,0,1-.5.5H10.1a1,1,0,0,0-1,1v1Z" transform="translate(0 0)" style="fill:#00a853"/><path d="M17.3,4.3H13.5A0.5,0.5,0,0,1,13,3.8V3.1a1.2,1.2,0,0,1,1.2-1.2h2.4a1.2,1.2,0,0,1,1.2,1.2V3.8a0.5,0.5,0,0,1-.5.5M14,3.4h2.9V3.1a0.2,0.2,0,0,0-.2-0.2H14.2a0.2,0.2,0,0,0-.2.2V3.4Z" transform="translate(0 0)" style="fill:#00a853"/><path d="M25.9,16.3H14.2a0.5,0.5,0,0,1,0-1H25.9a0.5,0.5,0,0,1,0,1" transform="translate(0 0)" style="fill:#00a853"/><path d="M22.1,13.6H14.2a0.5,0.5,0,1,1,0-1h7.9a0.5,0.5,0,1,1,0,1" transform="translate(0 0)" style="fill:#00a853"/><path d="M10.4,14.2v1.5H5.6V11.1H8l0.7-1h-3a1.1,1.1,0,0,0-1.1,1.1v4.6a1.1,1.1,0,0,0,1.1,1.1h4.6a1.1,1.1,0,0,0,1.1-1.1V12.9Z" transform="translate(0 0)" style="fill:#00a853"/><path d="M7.5,15.3h0L7.1,15l-1-1.9A0.5,0.5,0,1,1,7,12.7l0.6,1.2L10,10.7a0.5,0.5,0,1,1,.8.6L7.9,15.1l-0.4.2" transform="translate(0 0)" style="fill:#00a853"/><path d="M25.9,25.9H14.2a0.5,0.5,0,0,1,0-1H25.9a0.5,0.5,0,0,1,0,1" transform="translate(0 0)" style="fill:#00a853"/><path d="M22.1,23.2H14.2a0.5,0.5,0,1,1,0-1h7.9a0.5,0.5,0,1,1,0,1" transform="translate(0 0)" style="fill:#00a853"/><path d="M10.4,24v1.5H5.6V20.9H8l0.7-1h-3a1.1,1.1,0,0,0-1.1,1.1v4.6a1.1,1.1,0,0,0,1.1,1.1h4.6a1.1,1.1,0,0,0,1.1-1.1V22.7Z" transform="translate(0 0)" style="fill:#00a853"/></g></svg>