<svg xmlns="http://www.w3.org/2000/svg" xmlns:xlink="http://www.w3.org/1999/xlink" viewBox="0 0 24.2 24.2"><defs><clipPath id="a" transform="translate(0 0)"><rect width="24.2" height="24.17" style="fill:none"/></clipPath></defs><title>icon-collection</title><g style="clip-path:url(#a)"><path d="M12.1,14.3a2.3,2.3,0,1,1,2.3-2.3,2.3,2.3,0,0,1-2.3,2.3m0-3.8a1.5,1.5,0,1,0,1.5,1.5,1.5,1.5,0,0,0-1.5-1.5" transform="translate(0 0)" style="fill:#00a853"/><path d="M12.5,10.2V3.4a0.4,0.4,0,1,0-.8,0v6.8h0.8" transform="translate(0 0)" style="fill:#00a853"/><path d="M16.3,7.7a0.4,0.4,0,0,0-.5,0l-2.7,2.8L13.7,11l2.7-2.8a0.4,0.4,0,0,0,0-.5" transform="translate(0 0)" style="fill:#00a853"/><path d="M12.1,23.4A11.3,11.3,0,1,1,23.4,12.1a11.5,11.5,0,0,1-.2,2.1,1.1,1.1,0,0,1,.7.6,11.9,11.9,0,0,0,.3-2.6,12.1,12.1,0,1,0-7.5,11.2H13.9l-1.8.2" transform="translate(0 0)" style="fill:#00a853"/><path d="M13.7,22.1V21.5l0.7-.7c1.8-1.7,2.6-2.6,2.6-3.6a1.2,1.2,0,0,0-1.4-1.3,2.3,2.3,0,0,0-1.5.6l-0.3-.7a3,3,0,0,1,1.9-.7,1.9,1.9,0,0,1,2.1,2c0,1.3-.9,2.3-2.4,3.7l-0.5.5h3.1v0.8H13.7Z" transform="translate(0 0)" style="fill:#00a853"/><path d="M22,22.1V20.2H18.8V19.6l3.1-4.4h1v4.3h1v0.7h-1v1.9H22Zm0-2.6V17.2c0-.4,0-0.7,0-1.1h0l-0.6,1-1.7,2.3H22Z" transform="translate(0 0)" style="fill:#00a853"/></g></svg>