<?xml version="1.0" encoding="utf-8"?>
<!-- Generator: Adobe Illustrator 24.0.1, SVG Export Plug-In . SVG Version: 6.00 Build 0)  -->
<svg version="1.1" id="Layer_1" xmlns="http://www.w3.org/2000/svg" xmlns:xlink="http://www.w3.org/1999/xlink" x="0px" y="0px"
	 viewBox="0 0 64 64" style="enable-background:new 0 0 64 64;" xml:space="preserve">
<style type="text/css">
	.st0{display:none;}
	.st1{display:inline;}
	.st2{fill:#FFFFFF;stroke:#00A853;stroke-width:0.5;stroke-miterlimit:10;}
	.st3{fill:#00A853;}
	.st4{display:inline;fill:#00A853;}
	.st5{font-family:'Roboto-Medium';}
	.st6{font-size:1.0192px;}
	.st7{font-size:1.3825px;}
</style>
<g class="st0">
	<g class="st1">
		<path class="st2" d="M41.56,38.03H22.44c-0.58,0-1.04-0.47-1.04-1.04v-9.98c0-0.58,0.47-1.04,1.04-1.04h19.11
			c0.58,0,1.04,0.47,1.04,1.04v9.98C42.6,37.56,42.13,38.03,41.56,38.03z"/>
		<rect x="21.4" y="30" class="st3" width="21.2" height="0.72"/>
	</g>
	<text transform="matrix(1 0 0 1 22.5604 33.5839)" class="st4 st5 st6">1234 1234 1234 1234</text>
	<circle class="st4" cx="40.49" cy="35.74" r="1.02"/>
	<circle class="st4" cx="39.13" cy="35.74" r="1.02"/>
	<text transform="matrix(1 0 0 1 22.6004 28.4267)" class="st4 st5 st7">Bank</text>
</g>
<g class="st0">
	<g class="st1">
		<g>
			<g>
				<g>
					<path class="st3" d="M50.33,40.48v20.65c0,0.64-0.52,1.17-1.17,1.17H14.84c-0.64,0-1.17-0.52-1.17-1.17V2.87
						c0-0.64,0.52-1.17,1.17-1.17h34.33c0.64,0,1.17,0.52,1.17,1.17v20.66 M48,22.1V4.04H16v55.93h32V41.92"/>
				</g>
			</g>
		</g>
		<g>
			<g>
				<g>
					<path class="st3" d="M49.17,13.36H14.83c-0.64,0-1.17-0.52-1.17-1.17c0-0.64,0.52-1.17,1.17-1.17h34.33
						c0.64,0,1.17,0.52,1.17,1.17C50.33,12.84,49.81,13.36,49.17,13.36z"/>
				</g>
			</g>
		</g>
		<g>
			<g>
				<g>
					<path class="st3" d="M49.17,52.98H14.83c-0.64,0-1.17-0.52-1.17-1.17c0-0.64,0.52-1.17,1.17-1.17h34.33
						c0.64,0,1.17,0.52,1.17,1.17C50.33,52.46,49.81,52.98,49.17,52.98z"/>
				</g>
			</g>
		</g>
		<g>
			<g>
				<g>
					<path class="st3" d="M35.06,8.7h-6.12c-0.64,0-1.17-0.52-1.17-1.17s0.52-1.17,1.17-1.17h6.12c0.64,0,1.17,0.52,1.17,1.17
						S35.7,8.7,35.06,8.7z"/>
				</g>
			</g>
		</g>
		<g>
			<g>
				<g>
					<path class="st3" d="M33.89,57.64h-3.79c-0.64,0-1.17-0.52-1.17-1.17c0-0.64,0.52-1.17,1.17-1.17h3.79
						c0.64,0,1.17,0.52,1.17,1.17C35.06,57.12,34.54,57.64,33.89,57.64z"/>
				</g>
			</g>
		</g>
	</g>
</g>
<g>
	<g>
		<g>
			<g>
				<path class="st3" d="M40.21,27.43c-6.01,0-11.68-1.26-15.98-3.54c-4.53-2.42-7.02-5.71-7.02-9.28c0-0.27,0.02-0.55,0.05-0.82
					c0.29-2.65,1.96-5.13,4.85-7.16c0.62-0.44,1.34-0.88,2.12-1.3c0.86-0.45,1.66-0.82,2.44-1.13c3.54-1.43,7.78-2.26,12.23-2.4
					c6.49-0.19,12.7,1.08,17.29,3.52c4.53,2.41,7.03,5.71,7.03,9.28c0,3.57-2.5,6.87-7.03,9.28C51.91,26.17,46.23,27.43,40.21,27.43
					z M40.17,4.24c-0.39,0-0.8,0-1.2,0.01c-4.17,0.13-8.11,0.9-11.4,2.23c-0.71,0.28-1.43,0.61-2.2,1.02
					c-0.69,0.37-1.32,0.75-1.86,1.14c-2.29,1.62-3.62,3.49-3.83,5.43c-0.02,0.19-0.03,0.37-0.03,0.55c0,2.62,2.03,5.15,5.72,7.12
					c3.95,2.1,9.22,3.25,14.83,3.25c5.63,0,10.89-1.15,14.83-3.25c3.7-1.97,5.73-4.5,5.73-7.12c0-2.62-2.04-5.15-5.73-7.12
					C51.1,5.39,45.78,4.21,40.17,4.24z"/>
			</g>
		</g>
	</g>
	<g>
		<g>
			<g>
				<path class="st3" d="M40.21,39.03c-2.49,0-4.93-0.22-7.25-0.64c-0.41-0.08-0.75-0.35-0.95-0.73c-2.57-5.02-7.64-8.2-13.26-8.32
					c-0.54-0.01-1.03-0.37-1.2-0.88c-0.23-0.71-0.35-1.47-0.35-2.25l0-11.51c0.39-0.48,0.65-0.81,1.04-1.29
					c0.76-0.11,1.41,0.47,1.41,1.21c0,2.62,2.03,5.15,5.73,7.12c3.94,2.1,9.2,3.25,14.82,3.25c5.64,0,10.91-1.15,14.83-3.25
					c3.68-1.96,5.72-4.47,5.74-7.07c0.38-0.47,0.64-0.79,1.01-1.25c0.77-0.13,1.44,0.46,1.44,1.21v11.59c0,3.57-2.5,6.87-7.04,9.28
					C51.92,37.77,46.24,39.03,40.21,39.03z M33.63,35.52c0.21,0.35,0.54,0.59,0.94,0.65c1.82,0.27,3.71,0.41,5.63,0.41
					c5.64,0,10.91-1.15,14.83-3.25c3.7-1.97,5.74-4.5,5.74-7.12v-2.8c0-1.09-1.24-1.71-2.12-1.06c-0.74,0.55-1.57,1.07-2.47,1.55
					c-4.27,2.28-9.95,3.54-15.99,3.54c-6.01,0-11.69-1.26-15.97-3.54c-0.9-0.48-1.72-1-2.46-1.54c-0.88-0.65-2.12-0.04-2.12,1.06
					v2.8c0,0.25,0.02,0.49,0.05,0.72C25.48,27.34,30.66,30.54,33.63,35.52z"/>
			</g>
		</g>
	</g>
	<g>
		<g>
			<g>
				<path class="st3" d="M40.21,50.62c-2.08,0-4.13-0.15-6.11-0.45c-0.62-0.09-1.13-0.61-1.12-1.23c0.01-0.76,0.67-1.31,1.41-1.2
					c1.88,0.29,3.84,0.43,5.82,0.43c5.64,0,10.91-1.15,14.83-3.25c3.7-1.97,5.74-4.5,5.74-7.12V35c0-1.09-1.24-1.71-2.12-1.06
					c-0.74,0.55-1.57,1.07-2.47,1.55c-4.27,2.28-9.95,3.54-15.99,3.54c-2.46,0-4.89-0.21-7.21-0.63c-0.61-0.11-1.1-0.63-1.09-1.25
					c0.02-0.77,0.72-1.31,1.44-1.17c2.2,0.4,4.51,0.61,6.85,0.61c5.64,0,10.91-1.15,14.83-3.25c3.68-1.96,5.72-4.47,5.74-7.07
					c0.38-0.47,0.64-0.79,1.01-1.25c0.77-0.13,1.44,0.46,1.44,1.21V37.8c0,3.57-2.5,6.87-7.04,9.28
					C51.92,49.36,46.24,50.62,40.21,50.62z"/>
			</g>
		</g>
	</g>
	<g>
		<g>
			<g>
				<path class="st3" d="M40.21,62.21c-5.01,0-9.74-0.86-13.69-2.48c-0.43-0.18-0.72-0.58-0.75-1.04c-0.04-0.46,0.19-0.9,0.58-1.14
					c3.31-2.03,5.71-5.19,6.75-8.92c0.17-0.59,0.75-0.97,1.36-0.88c1.89,0.28,3.83,0.42,5.75,0.42c5.64,0,10.91-1.15,14.83-3.25
					c3.68-1.96,5.72-4.47,5.74-7.07c0.38-0.47,0.64-0.79,1.01-1.25c0.77-0.13,1.44,0.46,1.44,1.21v11.59c0,3.57-2.5,6.87-7.04,9.28
					C51.92,60.96,46.24,62.21,40.21,62.21z M31.3,56.66c-0.71,0.76-0.35,1.99,0.67,2.22c2.57,0.58,5.35,0.89,8.24,0.89
					c5.64,0,10.91-1.15,14.83-3.25c3.7-1.97,5.74-4.5,5.74-7.12v-2.81c0-1.09-1.24-1.71-2.12-1.06c-0.74,0.55-1.57,1.07-2.47,1.55
					c-4.27,2.28-9.95,3.54-15.99,3.54c-1.35,0-2.71-0.07-4.06-0.2c-0.58-0.06-1.14,0.26-1.36,0.8
					C33.97,53.24,32.78,55.08,31.3,56.66z"/>
			</g>
		</g>
	</g>
	<g>
		<g class="st0">
			<g class="st1">
				<g>
					<path class="st3" d="M18.45,52.57c-1.76,0-3.42-0.71-4.44-1.95c0-0.67-0.01-1.09-0.01-1.77c0.54-0.53,1.4-0.45,1.83,0.13
						c0.54,0.71,1.75,1.32,3.25,1.08c1.14-0.18,2.08-0.89,2.27-1.74c0.15-0.64-0.1-1.13-0.33-1.43c-0.51-0.66-1.46-1.09-2.47-1.12
						c-3.08-0.09-5.46-2.03-5.54-4.5c-0.04-1.12,0.4-2.22,1.24-3.08c1.03-1.06,2.55-1.67,4.18-1.67c1.69,0,3.25,0.65,4.28,1.78
						c0.43,0.47,0.48,1.21,0.06,1.68c-0.5,0.56-1.36,0.55-1.84,0c-0.56-0.64-1.49-1.01-2.5-1.01c-0.95,0-1.86,0.35-2.42,0.93
						c-0.26,0.27-0.57,0.71-0.55,1.3c0.03,1.12,1.45,2.08,3.16,2.13c1.76,0.05,3.38,0.83,4.34,2.07c0.79,1.02,1.06,2.26,0.78,3.48
						c-0.42,1.82-2.14,3.27-4.28,3.61C19.12,52.54,18.78,52.57,18.45,52.57z"/>
				</g>
			</g>
		</g>
		<g class="st0">
			<g class="st1">
				<g>
					<path class="st3" d="M19.66,37.75c0,0.74-0.65,1.32-1.41,1.21c-0.61-0.09-1.04-0.67-1.04-1.29v-2.28c0-0.62,0.42-1.2,1.04-1.29
						c0.76-0.11,1.41,0.47,1.41,1.21V37.75z"/>
				</g>
			</g>
		</g>
		<g class="st0">
			<g class="st1">
				<g>
					<path class="st3" d="M19.66,53.79c0,0.74-0.65,1.32-1.41,1.21c-0.61-0.09-1.04-0.67-1.04-1.29v-2.28c0-0.62,0.42-1.2,1.04-1.29
						c0.76-0.11,1.41,0.47,1.41,1.21V53.79z"/>
				</g>
			</g>
		</g>
		<g>
			<g>
				<g>
					<path class="st3" d="M18.43,62.21c-9.74,0-17.66-7.93-17.66-17.68c0-9.74,7.92-17.66,17.66-17.66c0.12,0,0.25,0,0.37,0.01
						c6.56,0.13,12.47,3.86,15.43,9.73c1.22,2.43,1.87,5.17,1.87,7.92c0,1.64-0.22,3.24-0.65,4.76c-1.21,4.32-3.99,8-7.83,10.35
						C24.87,61.32,21.69,62.21,18.43,62.21z M18.5,29.33c-0.03,0-0.05,0-0.07,0c-8.39,0-15.21,6.82-15.21,15.21
						c0,8.4,6.82,15.23,15.21,15.23c2.81,0,5.55-0.77,7.91-2.21c3.31-2.03,5.71-5.2,6.76-8.92c0.37-1.3,0.56-2.68,0.56-4.09
						c0-2.37-0.56-4.72-1.61-6.82c-2.56-5.07-7.67-8.29-13.34-8.38c-0.04,0-0.09,0-0.13-0.01C18.56,29.33,18.53,29.33,18.5,29.33z"
						/>
				</g>
			</g>
		</g>
		<g>
			<path class="st3" d="M15.83,46.42l0.1,2.41c0,1.23-0.29,2.23-0.88,3.01h9.52l-0.01,2.76H10.21v-2.76h1.12
				c0.36-0.08,0.63-0.38,0.83-0.88c0.2-0.51,0.29-1.17,0.29-2l-0.1-2.53h-2.2V43.7h2.12l-0.11-3.31c0-1.84,0.57-3.29,1.71-4.36
				c1.14-1.07,2.63-1.6,4.48-1.6c1.85,0,3.3,0.5,4.36,1.49c1.06,0.99,1.59,2.33,1.59,4.01h-3.35c0-0.87-0.24-1.54-0.72-2.02
				s-1.15-0.72-2-0.72c-0.81,0-1.45,0.3-1.92,0.89c-0.47,0.59-0.7,1.36-0.7,2.31l0.12,3.31h4.25v2.72H15.83z"/>
		</g>
	</g>
</g>
</svg>
