<svg id="Layer_1" data-name="Layer 1" xmlns="http://www.w3.org/2000/svg" viewBox="0 0 64 64">
  <defs>
    <style>
      .cls-1 {
        fill: #00a853;
      }
    </style>
  </defs>
  <g>
    <path class="cls-1" d="M57.4,35.49a3.63,3.63,0,0,0-2.06-2.09v-.28s2.33.11,2.21,1.91l0,.46Z"/>
    <path class="cls-1" d="M48,11.4s1.74.08,1.65,1.42l0,.34h-.1A2.69,2.69,0,0,0,48,11.61Z"/>
    <path class="cls-1" d="M38.27,50.43s1.62.08,1.53,1.32v.32H39.7a2.48,2.48,0,0,0-1.43-1.44Z"/>
    <path class="cls-1" d="M33.31,33.49s1.27.06,1.2,1v.25h-.07a2,2,0,0,0-1.12-1.13Z"/>
    <path class="cls-1" d="M25.1,7.54a4.85,4.85,0,0,0-2.77-2.8V4.35s3.13.16,3,2.57l0,.62Z"/>
    <path class="cls-1" d="M16.72,45.09a3.87,3.87,0,0,0-2.2-2.23v-.31s2.5.12,2.36,2.05l0,.49Z"/>
    <path class="cls-1" d="M23.31,22.12l5.34-.63V18.34c0-1.58-1.77-1.91-1.77-1.91l-3.74-1v-.57l1.07-.35,1.09-2.83.59-.52a5.13,5.13,0,0,0,.33-1.51,1,1,0,0,0-.55-.92L25.76,7c.2-2.89-3.55-3.08-3.55-3.08H21.4S17.65,4.08,17.85,7l.09,1.71a1,1,0,0,0-.55.92,5.13,5.13,0,0,0,.33,1.51l.59.52,1.09,2.83,1.06.35v.57l-3.73,1S15,16.76,15,18.34v3.15l5.34.63ZM13,51.34l-3,.84s-1.42.26-1.42,1.51v2.52l4.26.5h2.4l4.25-.5V53.69c0-1.25-1.41-1.51-1.41-1.51l-3-.84v-.45l.85-.28.86-2.26.48-.41a4.25,4.25,0,0,0,.26-1.21.83.83,0,0,0-.44-.73l.07-1.36c.16-2.31-2.83-2.46-2.83-2.46h-.64s-3,.15-2.83,2.46L11,46a.83.83,0,0,0-.44.73,4.25,4.25,0,0,0,.26,1.21l.48.41.86,2.26.85.28ZM3.67,32.7s-.87.17-.87.95v1.56l2.64.31H6.93l2.64-.31V33.65c0-.78-.88-.95-.88-.95l-1.84-.52V31.9l.52-.17.54-1.4.29-.26a2.45,2.45,0,0,0,.17-.75.51.51,0,0,0-.27-.45l0-.84c.1-1.43-1.76-1.53-1.76-1.53H6S4.13,26.6,4.23,28l0,.84a.51.51,0,0,0-.27.45,2.58,2.58,0,0,0,.16.75l.29.26L5,31.73l.53.17v.28Zm24.59,3.43A5,5,0,0,1,30.67,33l-4.24-8.82a11.36,11.36,0,0,1-11.68-1.51l-4,4.67a6.08,6.08,0,0,1,1.43,3.92,5.92,5.92,0,0,1-.29,1.85Zm.38,3.48a5,5,0,0,1-.53-2.25,4,4,0,0,1,0-.6l-16.45-3a6.07,6.07,0,0,1-3,3.08l1.94,3.9a9.57,9.57,0,0,1,11,3Zm12,17-1.93-.54v-.29l.55-.18.56-1.46.31-.27a2.66,2.66,0,0,0,.17-.78.53.53,0,0,0-.28-.47l0-.88c.1-1.49-1.83-1.59-1.83-1.59H37.8s-1.94.1-1.84,1.59l0,.88a.53.53,0,0,0-.28.47,2.66,2.66,0,0,0,.17.78l.3.27.56,1.46.55.18v.29l-1.92.54s-.92.17-.92,1v1.63l2.76.32h1.55l2.75-.32V57.63C41.53,56.82,40.62,56.65,40.62,56.65ZM36,49.23l-1.9-6.95a4.87,4.87,0,0,1-1,.1A5,5,0,0,1,29,40.17l-6.91,4a9.52,9.52,0,0,1,1.65,5.37,10.57,10.57,0,0,1-.1,1.39l8.32,2.51A6.26,6.26,0,0,1,36,49.23ZM33.12,14.16A11.33,11.33,0,0,1,27,23.89l4.24,8.82a4.89,4.89,0,0,1,1.88-.37,5,5,0,0,1,2.5.67l7.3-11a7.34,7.34,0,0,1-2.55-5.56,7.25,7.25,0,0,1,.37-2.3Zm1.63,22.05a2.08,2.08,0,0,0,.13-.61.43.43,0,0,0-.22-.37l0-.69c.08-1.17-1.44-1.24-1.44-1.24h-.32s-1.51.07-1.43,1.24l0,.69a.43.43,0,0,0-.22.37,2.08,2.08,0,0,0,.13.61l.24.21.44,1.14.43.14v.23l-1.5.43s-.72.13-.72.77V40.4l2.15.25h1.22l2.15-.25V39.13c0-.64-.71-.77-.71-.77l-1.51-.43V37.7l.43-.14.44-1.14Zm7.63,14.53,4.82-5.1a9.21,9.21,0,0,1-1.67-5.29,8,8,0,0,1,.06-1l-7.54-1a5,5,0,0,1-3.29,3.76l1.91,7A6.07,6.07,0,0,1,38,48.93,6.29,6.29,0,0,1,42.38,50.74Zm9.68-14.4a.79.79,0,0,0-.41.69,3.73,3.73,0,0,0,.25,1.12l.44.4.81,2.1.8.27v.42l-2.79.78s-1.32.25-1.32,1.42V45.9l4,.46h2.25l4-.46V43.54c0-1.17-1.32-1.42-1.32-1.42L56,41.34v-.42l.79-.27.81-2.1.44-.4A3.73,3.73,0,0,0,58.24,37a.79.79,0,0,0-.41-.69l.06-1.27c.15-2.16-2.64-2.29-2.64-2.29h-.6s-2.8.13-2.65,2.29Zm-6.38,2.38a9.22,9.22,0,0,1,5.62-6.93L50,23.45a7.35,7.35,0,0,1-6.53-1L36.17,33.37a5,5,0,0,1,2,4c0,.12,0,.24,0,.35ZM43.91,20.88l3,.35h1.66l3-.35V19.14c0-.87-1-1.06-1-1.06l-2.07-.58v-.31L49,17l.61-1.56.32-.29a3,3,0,0,0,.18-.84.59.59,0,0,0-.3-.51l0-.94c.11-1.6-2-1.71-2-1.71h-.44s-2.08.11-2,1.71l.05.94a.59.59,0,0,0-.3.51,3,3,0,0,0,.18.84l.33.29.6,1.56.59.2v.31l-2.07.58s-1,.19-1,1.06Zm.32,34.32a6.27,6.27,0,1,1-12.54,0,5.6,5.6,0,0,1,.1-1.09l-8.3-2.5A9.56,9.56,0,1,1,10,41L8.09,37a6.18,6.18,0,0,1-2,.33,6.11,6.11,0,1,1,4.24-10.5l3.91-4.61a11.31,11.31,0,1,1,18.86-8.73H41a7.35,7.35,0,1,1,9.59,9.71l1.33,8.33a9.24,9.24,0,1,1,2.86,18,9.21,9.21,0,0,1-7.18-3.42l-4.78,5.06A6.24,6.24,0,0,1,44.23,55.2Z"/>
    <path class="cls-1" d="M6.44,26.73S8,26.81,7.91,28v.31H7.81a2.41,2.41,0,0,0-1.37-1.39Z"/>
  </g>
</svg>
