<svg xmlns="http://www.w3.org/2000/svg" xmlns:xlink="http://www.w3.org/1999/xlink" viewBox="0 0 170.6 99.1"><defs><clipPath id="a" transform="translate(0 0)"><rect width="170.6" height="99.13" style="fill:none"/></clipPath></defs><title>pickup</title><g style="clip-path:url(#a)"><path d="M169.4,55.7l-16.4-7-8.2-23.2a2,2,0,0,0-1.9-1.3H121.9l7.8-10.9a2,2,0,0,0,.4-1.2V2a2,2,0,0,0-2-2h-83V0.7H44.8L0.4,59.2H0.3v1c0,0.1,0,.1,0,0.2a2,2,0,0,0,0,.2v0.6H0.3L12.3,83.1a2,2,0,0,0,1.7,1h3.8a17,17,0,1,0,0-4H15.2L4.4,60.6,47.4,4h78.7v7.4L116.4,25h0v0.2h-0.1v0.8h0V80.1H86.5a17,17,0,1,0,0,4H126a17,17,0,0,0,33.8,0h8.8a2,2,0,0,0,2-2V57.5a2,2,0,0,0-1.2-1.8M34.8,69.1a13,13,0,1,1-13,13,13,13,0,0,1,13-13M69.6,95.1a13,13,0,1,1,13-13,13,13,0,0,1-13,13m73.2,0a13,13,0,1,1,13-13,13,13,0,0,1-13,13m23.7-15h-6.8a17,17,0,0,0-33.8,0h-5.9V28.2h21.4l8,22.7a2,2,0,0,0,1.1,1.2l16,6.9V80.1Z" transform="translate(0 0)" style="fill:#0da753"/><path d="M60.3,19.9a2,2,0,0,0-2.8.4L37.4,46.6a2,2,0,0,0,3.2,2.4L60.7,22.7a2,2,0,0,0-.4-2.8" transform="translate(0 0)" style="fill:#0da753"/><path d="M82,19.9a2,2,0,0,0-2.8.4L59.1,46.6a2,2,0,0,0,3.2,2.4L82.4,22.7a2,2,0,0,0-.4-2.8" transform="translate(0 0)" style="fill:#0da753"/><path d="M81.2,49.5a2,2,0,0,0,2.8-.4l20.1-26.4a2,2,0,0,0-3.2-2.4L80.9,46.6a2,2,0,0,0,.4,2.8" transform="translate(0 0)" style="fill:#0da753"/><path d="M136.2,31.9a2,2,0,0,0-1.9-1.4H123a2,2,0,1,0,0,4h9.9l3.6,11.3H124.7a2,2,0,0,0,0,4h14.5a2,2,0,0,0,1.9-2.6Z" transform="translate(0 0)" style="fill:#0da753"/></g></svg>