<svg id="Layer_1" data-name="Layer 1" xmlns="http://www.w3.org/2000/svg" viewBox="0 0 64 64">
  <defs>
    <style>
      .cls-1 {
        fill: #00a853;
      }
    </style>
  </defs>
  <g>
    <path class="cls-1" d="M.42,46.66,14,38.12a.14.14,0,0,0-.08-.26H.5a.5.5,0,0,0-.5.5v8.07A.27.27,0,0,0,.42,46.66Z"/>
    <path class="cls-1" d="M.5,26.14H14a.14.14,0,0,0,.07-.26L.42,17.25a.28.28,0,0,0-.42.24v8.15A.5.5,0,0,0,.5,26.14Z"/>
    <path class="cls-1" d="M25.65,41.16,8.34,52.07a.15.15,0,0,0,.08.27H25.58a.51.51,0,0,0,.5-.5V41.39A.28.28,0,0,0,25.65,41.16Z"/>
    <path class="cls-1" d="M55.66,52.07,38.35,41.16a.28.28,0,0,0-.43.23V51.84a.51.51,0,0,0,.5.5H55.58A.15.15,0,0,0,55.66,52.07Z"/>
    <path class="cls-1" d="M63.58,17.25,49.9,25.88a.14.14,0,0,0,.07.26H63.5a.5.5,0,0,0,.5-.5V17.49A.28.28,0,0,0,63.58,17.25Z"/>
    <path class="cls-1" d="M25.65,22.76a.28.28,0,0,0,.43-.24V12.16a.51.51,0,0,0-.5-.5h-17a.15.15,0,0,0-.08.27Z"/>
    <path class="cls-1" d="M38.35,22.76,55.53,11.93a.15.15,0,0,0-.08-.27h-17a.51.51,0,0,0-.5.5V22.52A.28.28,0,0,0,38.35,22.76Z"/>
    <path class="cls-1" d="M64,38.36a.5.5,0,0,0-.5-.5H50.11a.14.14,0,0,0-.08.26l13.55,8.54a.27.27,0,0,0,.42-.23Z"/>
    <path class="cls-1" d="M63.51,52.34a.49.49,0,0,0,.49-.49V50.29a.92.92,0,0,0-.42-.77L45.49,38.12a1.78,1.78,0,0,0-.92-.26h-4a.14.14,0,0,0-.08.26l22.14,14A1.61,1.61,0,0,0,63.51,52.34Z"/>
    <path class="cls-1" d="M.4,12.87,21,25.88a1.79,1.79,0,0,0,.93.26h4a.13.13,0,0,0,.13-.13.24.24,0,0,0-.11-.19l-22-13.89A1.8,1.8,0,0,0,3,11.66H.47a.48.48,0,0,0-.47.48A.87.87,0,0,0,.4,12.87Z"/>
    <path class="cls-1" d="M.49,52.34a1.61,1.61,0,0,0,.9-.27l22.14-14a.14.14,0,0,0-.08-.26h-4a1.78,1.78,0,0,0-.92.26L.42,49.52a.92.92,0,0,0-.42.77v1.56A.49.49,0,0,0,.49,52.34Z"/>
    <path class="cls-1" d="M38.05,26.14h4a1.79,1.79,0,0,0,.93-.26l20.64-13a.87.87,0,0,0,.4-.73.48.48,0,0,0-.47-.48H61a1.8,1.8,0,0,0-.93.27L38,25.82a.21.21,0,0,0-.11.19A.13.13,0,0,0,38.05,26.14Z"/>
    <path class="cls-1" d="M.5,35.33H28.38a.25.25,0,0,1,.25.25V51.84a.51.51,0,0,0,.5.5h5.74a.51.51,0,0,0,.5-.5V35.58a.25.25,0,0,1,.25-.25H63.5a.5.5,0,0,0,.5-.5V29.17a.5.5,0,0,0-.5-.5H35.62a.25.25,0,0,1-.25-.25V12.16a.51.51,0,0,0-.5-.5H29.13a.51.51,0,0,0-.5.5V28.42a.25.25,0,0,1-.25.25H.5a.5.5,0,0,0-.5.5v5.66A.5.5,0,0,0,.5,35.33Z"/>
  </g>
</svg>
